<?xml version="1.0" encoding="UTF-8"?>
<!DOCTYPE svg PUBLIC "-//W3C//DTD SVG 1.1//EN" "http://www.w3.org/Graphics/SVG/1.1/DTD/svg11.dtd">
<!-- Creator: CorelDRAW 2019 (64-Bit) -->
<svg xmlns="http://www.w3.org/2000/svg" xml:space="preserve" width="2.18345in" height="2.18353in" version="1.1" style="shape-rendering:geometricPrecision; text-rendering:geometricPrecision; image-rendering:optimizeQuality; fill-rule:evenodd; clip-rule:evenodd"
viewBox="0 0 55659.88 55661.79"
 xmlns:xlink="http://www.w3.org/1999/xlink"
 xmlns:xodm="http://www.corel.com/coreldraw/odm/2003">
 <defs>
  <style type="text/css">
   <![CDATA[
    .str0 {stroke:#B59041;stroke-width:177.04;stroke-miterlimit:2.61313;stroke-opacity:0.341176}
    .fil0 {fill:none;fill-rule:nonzero}
   ]]>
  </style>
 </defs>
 <g id="Layer_x0020_1">
  <metadata id="CorelCorpID_0Corel-Layer"/>
  <polygon class="fil0 str0" points="30177.73,88.52 30177.73,19077.01 39673.69,2630.76 43728.47,4981.21 34227.2,21438.1 50691.11,11933.22 53020.29,15988 36556.37,25492.88 55571.36,25492.88 55571.36,30172.52 36570.53,30172.52 53029.12,39675.59 50678.67,43730.28 34221.88,34227.2 43726.66,50693.02 39671.98,53022.09 30177.73,36575.94 30177.73,55573.27 25480.34,55573.27 25480.34,36586.58 15986.09,53031.03 11931.41,50680.57 21432.68,34223.68 4968.77,43728.57 2639.59,39673.79 19098.19,30170.71 88.52,30170.71 88.52,25491.08 19089.35,25491.08 2630.66,15988 4981.21,11933.22 21436.3,21434.59 11933.22,4972.38 15987.9,2643.21 25480.34,19085.84 25480.34,88.52 "/>
 </g>
</svg>
