<?xml version="1.0" encoding="UTF-8"?>
<!DOCTYPE svg PUBLIC "-//W3C//DTD SVG 1.1//EN" "http://www.w3.org/Graphics/SVG/1.1/DTD/svg11.dtd">
<!-- Creator: CorelDRAW 2019 (64-Bit) -->
<svg xmlns="http://www.w3.org/2000/svg" xml:space="preserve" width="0.359189in" height="0.34102in" version="1.1" style="shape-rendering:geometricPrecision; text-rendering:geometricPrecision; image-rendering:optimizeQuality; fill-rule:evenodd; clip-rule:evenodd"
viewBox="0 0 53.11 50.42"
 xmlns:xlink="http://www.w3.org/1999/xlink"
 xmlns:xodm="http://www.corel.com/coreldraw/odm/2003">
 <defs>
  <style type="text/css">
   <![CDATA[
    .str0 {stroke:#FEFEFE;stroke-width:0.41;stroke-miterlimit:2.61313}
    .fil2 {fill:none}
    .fil1 {fill:#FEFEFE;fill-rule:nonzero}
    .fil0 {fill:#383838;fill-rule:nonzero}
   ]]>
  </style>
 </defs>
 <g id="Layer_x0020_1">
  <metadata id="CorelCorpID_0Corel-Layer"/>
  <g id="_1600543779760">
   <g>
    <path class="fil0" d="M53.11 25.1l-0.86 0.56 0 0 -0.03 -1.27 -0.1 -1.26 -0.16 -1.24 -0.22 -1.22 -0.28 -1.2 -0.33 -1.17 -0.39 -1.15 -0.44 -1.12 -0.5 -1.1 -0.55 -1.07 -0.6 -1.04 -0.64 -1 -0.69 -0.97 -0.73 -0.94 -0.78 -0.9 -0.82 -0.86 -0.86 -0.82 -0.9 -0.78 -0.93 -0.74 -0.97 -0.69 -1 -0.64 -1.04 -0.6 -1.07 -0.55 -1.1 -0.5 -1.12 -0.44 -1.15 -0.39 -1.17 -0.33 -1.2 -0.28 -1.22 -0.22 -1.24 -0.16 -1.26 -0.1 -1.27 -0.03 0.83 -0.58 1.28 0.03 1.26 0.1 1.24 0.16 1.22 0.22 1.2 0.28 1.18 0.33 1.15 0.39 1.12 0.44 1.1 0.5 1.07 0.55 1.04 0.6 1 0.64 0.97 0.69 0.94 0.74 0.9 0.78 0.86 0.82 0.82 0.86 0.78 0.9 0.74 0.94 0.69 0.97 0.64 1 0.6 1.04 0.55 1.07 0.5 1.1 0.44 1.12 0.39 1.15 0.33 1.17 0.28 1.2 0.22 1.22 0.16 1.24 0.1 1.26 0.03 1.27 0 0zm-25.6 25.32l0.83 -0.58 0 0 1.27 -0.03 1.25 -0.1 1.24 -0.16 1.21 -0.22 1.19 -0.28 1.17 -0.33 1.14 -0.38 1.1 -0.43 1.06 -0.48 1 -0.51 0.91 -0.52 0.83 -0.53 0.81 -0.58 0.84 -0.66 0.85 -0.73 0.83 -0.8 0.81 -0.85 0.77 -0.89 0.73 -0.93 0.69 -0.97 0.64 -1 0.59 -1.03 0.55 -1.06 0.49 -1.09 0.44 -1.12 0.39 -1.15 0.33 -1.17 0.28 -1.2 0.22 -1.22 0.16 -1.24 0.1 -1.26 0.03 -1.27 0.86 -0.56 -0.03 1.27 -0.1 1.26 -0.16 1.24 -0.22 1.22 -0.28 1.2 -0.33 1.18 -0.39 1.15 -0.44 1.13 -0.5 1.1 -0.55 1.07 -0.6 1.04 -0.65 1.01 -0.69 0.98 -0.74 0.94 -0.79 0.91 -0.83 0.87 -0.89 0.84 -0.95 0.82 -1.03 0.81 -1.13 0.8 -1.18 0.76 -1.16 0.67 -1.14 0.58 -1.13 0.51 -1.15 0.45 -1.16 0.39 -1.18 0.34 -1.2 0.28 -1.22 0.22 -1.24 0.16 -1.26 0.1 -1.28 0.03 0 0zm-24.76 -24.76l0.86 -0.56 0 0 0.03 1.27 0.1 1.26 0.16 1.24 0.22 1.22 0.28 1.2 0.33 1.17 0.39 1.15 0.44 1.12 0.5 1.1 0.55 1.07 0.6 1.04 0.64 1 0.69 0.97 0.73 0.94 0.78 0.9 0.82 0.86 0.86 0.82 0.9 0.78 0.93 0.74 0.97 0.69 1 0.64 1.04 0.6 1.07 0.55 1.1 0.5 1.12 0.44 1.15 0.39 1.17 0.33 1.2 0.28 1.22 0.22 1.24 0.16 1.26 0.1 1.27 0.03 -0.83 0.58 -1.28 -0.03 -1.26 -0.1 -1.24 -0.16 -1.22 -0.22 -1.2 -0.28 -1.18 -0.33 -1.15 -0.39 -1.12 -0.44 -1.1 -0.5 -1.07 -0.55 -1.04 -0.6 -1 -0.64 -0.97 -0.69 -0.94 -0.74 -0.9 -0.78 -0.86 -0.82 -0.82 -0.86 -0.78 -0.9 -0.74 -0.94 -0.69 -0.97 -0.64 -1 -0.6 -1.04 -0.55 -1.07 -0.5 -1.1 -0.44 -1.12 -0.39 -1.15 -0.33 -1.17 -0.28 -1.2 -0.22 -1.22 -0.16 -1.24 -0.1 -1.26 -0.03 -1.27 0 0zm25.6 -25.32l-0.83 0.58 0 0 -1.27 0.03 -1.25 0.1 -1.24 0.16 -1.21 0.22 -1.19 0.28 -1.17 0.33 -1.14 0.38 -1.1 0.43 -1.06 0.48 -1 0.51 -0.91 0.52 -0.83 0.53 -0.81 0.58 -0.84 0.66 -0.85 0.73 -0.83 0.8 -0.81 0.85 -0.77 0.89 -0.73 0.93 -0.69 0.97 -0.64 1 -0.59 1.03 -0.55 1.06 -0.49 1.09 -0.44 1.12 -0.39 1.15 -0.33 1.17 -0.28 1.2 -0.22 1.22 -0.16 1.24 -0.1 1.26 -0.03 1.27 -0.86 0.56 0.03 -1.27 0.1 -1.26 0.16 -1.24 0.22 -1.22 0.28 -1.2 0.33 -1.18 0.39 -1.15 0.44 -1.13 0.5 -1.1 0.55 -1.07 0.6 -1.04 0.65 -1.01 0.69 -0.98 0.74 -0.94 0.79 -0.91 0.83 -0.87 0.89 -0.84 0.95 -0.82 1.03 -0.81 1.13 -0.8 1.18 -0.76 1.16 -0.67 1.14 -0.58 1.13 -0.51 1.15 -0.45 1.16 -0.39 1.18 -0.34 1.2 -0.28 1.22 -0.22 1.24 -0.16 1.26 -0.1 1.28 -0.03 0 0z"/>
   </g>
   <g>
    <path class="fil1" d="M50.01 24.76l-0.51 0.34 0 0 -0.03 -1.27 -0.1 -1.26 -0.16 -1.24 -0.22 -1.22 -0.28 -1.2 -0.33 -1.17 -0.39 -1.15 -0.44 -1.12 -0.5 -1.1 -0.55 -1.07 -0.6 -1.04 -0.64 -1 -0.69 -0.97 -0.74 -0.94 -0.78 -0.9 -0.82 -0.86 -0.86 -0.82 -0.9 -0.78 -0.94 -0.74 -0.97 -0.69 -1 -0.64 -1.04 -0.6 -1.07 -0.55 -1.1 -0.5 -1.12 -0.44 -1.15 -0.39 -1.17 -0.33 -1.2 -0.28 -1.22 -0.22 -1.24 -0.16 -1.26 -0.1 -1.27 -0.03 0.5 -0.35 1.27 0.03 1.26 0.1 1.24 0.16 1.22 0.22 1.2 0.28 1.18 0.33 1.15 0.39 1.12 0.44 1.1 0.5 1.07 0.55 1.04 0.6 1 0.64 0.97 0.69 0.94 0.74 0.9 0.78 0.86 0.82 0.82 0.86 0.78 0.9 0.74 0.94 0.69 0.97 0.64 1 0.6 1.04 0.55 1.07 0.5 1.1 0.44 1.12 0.39 1.15 0.33 1.18 0.28 1.2 0.22 1.22 0.16 1.24 0.1 1.26 0.03 1.27 0 0zm-25.26 25.09l0.5 -0.35 0 0 1.27 -0.03 1.25 -0.1 1.24 -0.16 1.22 -0.22 1.19 -0.28 1.17 -0.33 1.14 -0.39 1.11 -0.44 1.07 -0.49 1.03 -0.53 0.96 -0.55 0.9 -0.58 0.87 -0.62 0.88 -0.69 0.87 -0.75 0.84 -0.81 0.81 -0.85 0.77 -0.89 0.73 -0.93 0.69 -0.97 0.64 -1 0.6 -1.04 0.55 -1.07 0.5 -1.1 0.44 -1.12 0.39 -1.15 0.33 -1.17 0.28 -1.2 0.22 -1.22 0.16 -1.24 0.1 -1.26 0.03 -1.27 0.51 -0.34 -0.03 1.27 -0.1 1.26 -0.16 1.24 -0.22 1.22 -0.28 1.2 -0.33 1.18 -0.39 1.15 -0.44 1.13 -0.5 1.1 -0.55 1.07 -0.6 1.04 -0.65 1.01 -0.69 0.97 -0.74 0.94 -0.78 0.9 -0.83 0.87 -0.87 0.83 -0.93 0.8 -0.99 0.78 -1.07 0.76 -1.11 0.71 -1.11 0.64 -1.11 0.57 -1.12 0.51 -1.14 0.45 -1.16 0.39 -1.18 0.33 -1.2 0.28 -1.22 0.22 -1.24 0.16 -1.26 0.1 -1.27 0.03 0 0zm-24.76 -24.76l0.51 -0.34 0 0 0.03 1.27 0.1 1.26 0.16 1.24 0.22 1.22 0.28 1.2 0.33 1.17 0.39 1.15 0.44 1.12 0.5 1.1 0.55 1.07 0.6 1.04 0.64 1 0.69 0.97 0.74 0.94 0.78 0.9 0.82 0.86 0.86 0.82 0.9 0.78 0.94 0.74 0.97 0.69 1 0.64 1.04 0.6 1.07 0.55 1.1 0.5 1.12 0.44 1.15 0.39 1.17 0.33 1.2 0.28 1.22 0.22 1.24 0.16 1.26 0.1 1.27 0.03 -0.5 0.35 -1.27 -0.03 -1.26 -0.1 -1.24 -0.16 -1.22 -0.22 -1.2 -0.28 -1.18 -0.33 -1.15 -0.39 -1.12 -0.44 -1.1 -0.5 -1.07 -0.55 -1.04 -0.6 -1 -0.64 -0.97 -0.69 -0.94 -0.74 -0.9 -0.78 -0.86 -0.82 -0.82 -0.86 -0.78 -0.9 -0.74 -0.94 -0.69 -0.97 -0.64 -1 -0.6 -1.04 -0.55 -1.07 -0.5 -1.1 -0.44 -1.12 -0.39 -1.15 -0.33 -1.18 -0.28 -1.2 -0.22 -1.22 -0.16 -1.24 -0.1 -1.26 -0.03 -1.27 0 0zm25.26 -25.09l-0.5 0.35 0 0 -1.27 0.03 -1.25 0.1 -1.24 0.16 -1.22 0.22 -1.19 0.28 -1.17 0.33 -1.14 0.39 -1.11 0.44 -1.07 0.49 -1.03 0.53 -0.96 0.55 -0.9 0.58 -0.87 0.62 -0.88 0.69 -0.87 0.75 -0.84 0.81 -0.81 0.85 -0.77 0.89 -0.73 0.93 -0.69 0.97 -0.64 1 -0.6 1.04 -0.55 1.07 -0.5 1.1 -0.44 1.12 -0.39 1.15 -0.33 1.17 -0.28 1.2 -0.22 1.22 -0.16 1.24 -0.1 1.26 -0.03 1.27 -0.51 0.34 0.03 -1.27 0.1 -1.26 0.16 -1.24 0.22 -1.22 0.28 -1.2 0.33 -1.18 0.39 -1.15 0.44 -1.13 0.5 -1.1 0.55 -1.07 0.6 -1.04 0.65 -1.01 0.69 -0.97 0.74 -0.94 0.78 -0.9 0.83 -0.87 0.87 -0.83 0.93 -0.8 0.99 -0.78 1.07 -0.76 1.11 -0.71 1.11 -0.64 1.11 -0.57 1.12 -0.51 1.14 -0.45 1.16 -0.39 1.18 -0.33 1.2 -0.28 1.22 -0.22 1.24 -0.16 1.26 -0.1 1.27 -0.03 0 0z"/>
   </g>
   <path class="fil2 str0" d="M20.24 9.46c1.1,-0.08 10.6,-0.87 10.95,-0.08 1.45,3.21 2.66,0.72 0.82,5.06 -0.17,0.39 -2,6.09 -2.34,5.68 -1.05,-1.26 -1.22,-3.85 -3.5,-5.59 -0.66,-0.5 1.38,-0.94 2.43,-2.02 1.29,-1.32 1.58,-1.01 2.15,-2.79 0.01,-0.02 -1.53,1.99 -3.33,2.86 -3.64,1.76 0.55,0.96 1.45,5.34 0.73,3.58 -0.14,2.09 1.38,-0.21 0.49,-0.74 3.23,-5.65 2.83,-6.22 -0.65,-0.93 -2.1,-2.18 -3.24,-1.84 -1.86,0.55 -9.37,-0.25 -10.3,0.54 -3.07,2.6 -0.94,2.23 0.1,5.31 0.43,1.27 1.75,2.9 2,4.12 0.05,-0.02 0.25,-1.88 0.43,-2.27 0.65,-1.41 4.14,-5.88 2.63,-2.88 -0.45,0.91 -2.8,5.04 -2.74,5.71 -0.69,0.12 -3.09,-4.38 -3.43,-5.35 -1.05,-2.93 -1.11,-3.4 1.51,-5.27 0.56,-0.4 2.9,3.27 4.74,3.77 2.1,0.57 -0.77,0.18 -2.02,-1.15 -0.46,-0.49 -1.14,-0.32 -1.86,-1.61 -0.01,-0.02 -0.78,-0.39 -0.79,-0.44"/>
   <path class="fil2 str0" d="M24.02 17.79c-1.16,4.68 -0.44,9.47 -1.47,13.26 -0.25,0.91 -1.24,9.21 -0.5,9.72 1.66,1.14 2.11,2.17 3.24,3.51 0.01,0.02 3.13,-3.23 3.48,-3.36 -0.02,-0.19 0.46,-0.45 0.25,-2.18 -0.25,-2.05 0.11,-3.21 -0.43,-5.97 -0.36,-1.83 -0.54,-9.82 -0.96,-10.96 -0.17,-0.47 -0.32,-4.06 -0.67,-4.09 -0.49,-0.04 -2.25,-0.55 -3.06,-0.21 -0.64,0.27 1.53,-0.06 2.53,0.08 0.94,0.13 0.85,2.98 0.98,3.83 0.63,4.14 0.03,6.67 1.09,11.5 0.25,1.11 0.69,8.01 0.09,8.69 -0.47,0.53 -2.49,3.29 -3.22,2.81 -1.78,-1.16 -0.86,-1.15 -2.41,-2.65 -1.75,-1.69 -0.66,-3.73 -0.66,-5.93 0,-2.26 0.51,-4.25 0.51,-6.99 0,-1.54 0.16,-5.56 0.56,-6.88 0.39,-1.31 0.53,-6.13 0.53,-3.15 0,3.73 -0.83,7.12 -0.83,11.31 0,1.78 -1.11,10.63 -0.01,11.8 0.41,0.43 1.64,2.1 1.93,1.73 0.43,-0.55 3.48,-3.93 3.97,-3.89 0,-5.35 -1.26,-12.13 -1.94,-17.65 -0.08,-0.62 -0.17,-4.13 -0.72,-4.14 -0.54,-0.01 -1.01,-0.13 -1.58,-0.13"/>
  </g>
 </g>
</svg>
