<?xml version="1.0" encoding="UTF-8"?>
<!DOCTYPE svg PUBLIC "-//W3C//DTD SVG 1.1//EN" "http://www.w3.org/Graphics/SVG/1.1/DTD/svg11.dtd">
<!-- Creator: CorelDRAW 2019 (64-Bit) -->
<svg xmlns="http://www.w3.org/2000/svg" xml:space="preserve" width="0.487728in" height="0.48178in" version="1.1" style="shape-rendering:geometricPrecision; text-rendering:geometricPrecision; image-rendering:optimizeQuality; fill-rule:evenodd; clip-rule:evenodd"
viewBox="0 0 84.48 83.45"
 xmlns:xlink="http://www.w3.org/1999/xlink"
 xmlns:xodm="http://www.corel.com/coreldraw/odm/2003">
 <defs>
  <style type="text/css">
   <![CDATA[
    .str0 {stroke:#FEFEFE;stroke-width:0.48;stroke-miterlimit:2.61313}
    .fil2 {fill:none}
    .fil1 {fill:#FEFEFE;fill-rule:nonzero}
    .fil0 {fill:#383838;fill-rule:nonzero}
   ]]>
  </style>
 </defs>
 <g id="Layer_x0020_1">
  <metadata id="CorelCorpID_0Corel-Layer"/>
  <g>
   <path class="fil0" d="M82.04 40.53l-1 0.66 0 0 -0.05 -2.08 -0.16 -2.06 -0.26 -2.03 -0.36 -1.99 -0.45 -1.96 -0.55 -1.92 -0.64 -1.88 -0.73 -1.84 -0.81 -1.79 -0.89 -1.75 -0.98 -1.7 -1.05 -1.64 -1.13 -1.59 -1.2 -1.53 -1.27 -1.47 -1.34 -1.41 -1.41 -1.34 -1.47 -1.27 -1.53 -1.2 -1.59 -1.13 -1.64 -1.05 -1.7 -0.98 -1.75 -0.89 -1.79 -0.81 -1.84 -0.73 -1.88 -0.64 -1.92 -0.54 -1.96 -0.45 -1.99 -0.36 -2.03 -0.26 -2.06 -0.16 -2.08 -0.05 0.98 -0.68 2.09 0.05 2.06 0.16 2.03 0.26 2 0.36 1.96 0.45 1.92 0.55 1.88 0.64 1.84 0.73 1.79 0.81 1.75 0.89 1.7 0.98 1.64 1.05 1.59 1.13 1.53 1.2 1.47 1.27 1.41 1.34 1.34 1.41 1.27 1.47 1.2 1.53 1.13 1.59 1.05 1.64 0.98 1.7 0.9 1.75 0.81 1.8 0.73 1.84 0.64 1.88 0.55 1.92 0.45 1.96 0.36 2 0.26 2.03 0.16 2.06 0.05 2.09 0 0zm-41.51 41.19l0.98 -0.68 0 0 2.08 -0.05 2.05 -0.16 2.02 -0.26 1.99 -0.35 1.95 -0.45 1.91 -0.54 1.87 -0.63 1.81 -0.72 1.75 -0.79 1.67 -0.85 1.55 -0.89 1.43 -0.92 1.4 -1 1.42 -1.11 1.41 -1.22 1.38 -1.31 1.33 -1.39 1.26 -1.46 1.2 -1.52 1.13 -1.58 1.05 -1.64 0.97 -1.69 0.89 -1.74 0.81 -1.79 0.72 -1.84 0.64 -1.88 0.54 -1.92 0.45 -1.96 0.36 -1.99 0.26 -2.03 0.16 -2.06 0.05 -2.08 1 -0.66 -0.05 2.09 -0.16 2.06 -0.26 2.03 -0.36 2 -0.45 1.96 -0.55 1.92 -0.64 1.88 -0.73 1.84 -0.81 1.8 -0.9 1.75 -0.98 1.7 -1.06 1.65 -1.13 1.59 -1.21 1.54 -1.28 1.48 -1.36 1.42 -1.44 1.37 -1.53 1.32 -1.64 1.29 -1.78 1.26 -1.85 1.19 -1.84 1.06 -1.83 0.94 -1.84 0.83 -1.87 0.74 -1.9 0.64 -1.93 0.55 -1.97 0.45 -2 0.36 -2.03 0.26 -2.06 0.16 -2.09 0.05 0 0zm-40.53 -40.53l1 -0.66 0 0 0.05 2.08 0.16 2.06 0.26 2.03 0.36 1.99 0.45 1.96 0.55 1.92 0.64 1.88 0.73 1.84 0.81 1.79 0.89 1.75 0.98 1.7 1.05 1.64 1.13 1.59 1.2 1.53 1.27 1.47 1.34 1.41 1.41 1.34 1.47 1.27 1.53 1.2 1.59 1.13 1.64 1.05 1.7 0.98 1.75 0.89 1.79 0.81 1.84 0.73 1.88 0.64 1.92 0.54 1.96 0.45 1.99 0.36 2.03 0.26 2.06 0.16 2.08 0.05 -0.98 0.68 -2.09 -0.05 -2.06 -0.16 -2.03 -0.26 -2 -0.36 -1.96 -0.45 -1.92 -0.55 -1.88 -0.64 -1.84 -0.73 -1.79 -0.81 -1.75 -0.89 -1.7 -0.98 -1.64 -1.05 -1.59 -1.13 -1.53 -1.2 -1.47 -1.27 -1.41 -1.34 -1.34 -1.41 -1.27 -1.47 -1.2 -1.53 -1.13 -1.59 -1.05 -1.64 -0.98 -1.7 -0.9 -1.75 -0.81 -1.8 -0.73 -1.84 -0.64 -1.88 -0.55 -1.92 -0.45 -1.96 -0.36 -2 -0.26 -2.03 -0.16 -2.06 -0.05 -2.09 0 0zm41.51 -41.19l-0.98 0.68 0 0 -2.08 0.05 -2.05 0.16 -2.02 0.26 -1.99 0.35 -1.95 0.45 -1.91 0.54 -1.87 0.63 -1.81 0.72 -1.75 0.79 -1.67 0.85 -1.55 0.89 -1.44 0.92 -1.4 1 -1.42 1.11 -1.41 1.22 -1.38 1.31 -1.33 1.39 -1.26 1.46 -1.2 1.52 -1.13 1.58 -1.05 1.64 -0.97 1.69 -0.89 1.74 -0.81 1.79 -0.72 1.84 -0.64 1.88 -0.54 1.92 -0.45 1.96 -0.36 1.99 -0.26 2.03 -0.16 2.06 -0.05 2.08 -1 0.66 0.05 -2.09 0.16 -2.06 0.26 -2.03 0.36 -2 0.45 -1.96 0.55 -1.92 0.64 -1.88 0.73 -1.84 0.81 -1.8 0.9 -1.75 0.98 -1.7 1.06 -1.65 1.13 -1.59 1.21 -1.54 1.28 -1.48 1.36 -1.42 1.44 -1.37 1.53 -1.32 1.64 -1.29 1.78 -1.26 1.85 -1.19 1.84 -1.06 1.83 -0.94 1.84 -0.83 1.87 -0.74 1.9 -0.64 1.93 -0.55 1.97 -0.45 2 -0.36 2.03 -0.26 2.06 -0.16 2.09 -0.05 0 0z"/>
  </g>
  <g>
   <path class="fil1" d="M84.48 42.53l-0.6 0.39 0 0 -0.05 -2.08 -0.16 -2.06 -0.26 -2.03 -0.36 -2 -0.45 -1.96 -0.55 -1.92 -0.64 -1.88 -0.73 -1.84 -0.81 -1.79 -0.89 -1.75 -0.98 -1.7 -1.05 -1.64 -1.13 -1.59 -1.2 -1.53 -1.27 -1.47 -1.34 -1.41 -1.41 -1.34 -1.47 -1.27 -1.53 -1.2 -1.59 -1.13 -1.64 -1.05 -1.7 -0.98 -1.75 -0.89 -1.79 -0.81 -1.84 -0.73 -1.88 -0.64 -1.92 -0.55 -1.96 -0.45 -1.99 -0.36 -2.03 -0.26 -2.06 -0.16 -2.08 -0.05 0.59 -0.41 2.09 0.05 2.06 0.16 2.03 0.26 2 0.36 1.96 0.45 1.92 0.55 1.88 0.64 1.84 0.73 1.79 0.81 1.75 0.89 1.7 0.98 1.64 1.05 1.59 1.13 1.53 1.2 1.47 1.27 1.41 1.34 1.34 1.41 1.27 1.47 1.2 1.53 1.13 1.59 1.05 1.64 0.98 1.7 0.9 1.75 0.81 1.8 0.73 1.84 0.64 1.88 0.55 1.92 0.45 1.96 0.36 2 0.26 2.03 0.16 2.06 0.05 2.09 0 0zm-41.11 40.92l0.59 -0.41 0 0 2.08 -0.05 2.06 -0.16 2.03 -0.26 1.99 -0.36 1.96 -0.45 1.92 -0.54 1.87 -0.63 1.82 -0.72 1.77 -0.8 1.7 -0.87 1.61 -0.93 1.52 -0.97 1.47 -1.05 1.46 -1.15 1.43 -1.24 1.39 -1.32 1.33 -1.4 1.27 -1.46 1.2 -1.53 1.13 -1.59 1.05 -1.64 0.98 -1.7 0.89 -1.75 0.81 -1.79 0.72 -1.84 0.64 -1.88 0.54 -1.92 0.45 -1.96 0.36 -1.99 0.26 -2.03 0.16 -2.06 0.05 -2.09 0.6 -0.39 -0.05 2.09 -0.16 2.06 -0.26 2.03 -0.36 2 -0.45 1.96 -0.55 1.92 -0.64 1.88 -0.73 1.84 -0.81 1.79 -0.9 1.75 -0.98 1.7 -1.06 1.65 -1.13 1.59 -1.21 1.54 -1.28 1.48 -1.35 1.42 -1.42 1.36 -1.51 1.3 -1.6 1.26 -1.7 1.21 -1.77 1.13 -1.78 1.03 -1.8 0.92 -1.82 0.82 -1.85 0.73 -1.89 0.64 -1.93 0.55 -1.96 0.45 -2 0.36 -2.03 0.26 -2.06 0.16 -2.09 0.05 0 0zm-40.53 -40.52l0.6 -0.39 0 0 0.05 2.08 0.16 2.06 0.26 2.03 0.36 2 0.45 1.96 0.55 1.92 0.64 1.88 0.73 1.84 0.81 1.79 0.89 1.75 0.98 1.7 1.05 1.64 1.13 1.59 1.2 1.53 1.27 1.47 1.34 1.41 1.41 1.34 1.47 1.27 1.53 1.2 1.59 1.13 1.64 1.05 1.7 0.98 1.75 0.89 1.79 0.81 1.84 0.73 1.88 0.64 1.92 0.55 1.96 0.45 1.99 0.36 2.03 0.26 2.06 0.16 2.08 0.05 -0.59 0.41 -2.09 -0.05 -2.06 -0.16 -2.03 -0.26 -2 -0.36 -1.96 -0.45 -1.92 -0.55 -1.88 -0.64 -1.84 -0.73 -1.79 -0.81 -1.75 -0.89 -1.7 -0.98 -1.64 -1.05 -1.59 -1.13 -1.53 -1.2 -1.47 -1.27 -1.41 -1.34 -1.34 -1.41 -1.27 -1.47 -1.2 -1.53 -1.13 -1.59 -1.05 -1.64 -0.98 -1.7 -0.9 -1.75 -0.81 -1.79 -0.73 -1.84 -0.64 -1.88 -0.55 -1.92 -0.45 -1.96 -0.36 -2 -0.26 -2.03 -0.16 -2.06 -0.05 -2.09 0 0zm41.11 -40.92l-0.59 0.41 0 0 -2.08 0.05 -2.06 0.16 -2.03 0.26 -1.99 0.36 -1.96 0.45 -1.92 0.54 -1.87 0.63 -1.83 0.72 -1.77 0.8 -1.7 0.87 -1.61 0.93 -1.52 0.97 -1.48 1.05 -1.46 1.15 -1.43 1.24 -1.39 1.33 -1.33 1.4 -1.27 1.46 -1.2 1.53 -1.13 1.58 -1.05 1.64 -0.98 1.7 -0.89 1.75 -0.81 1.79 -0.72 1.84 -0.64 1.88 -0.54 1.92 -0.45 1.96 -0.36 1.99 -0.26 2.03 -0.16 2.06 -0.05 2.08 -0.6 0.39 0.05 -2.08 0.16 -2.06 0.26 -2.03 0.36 -2 0.45 -1.96 0.55 -1.92 0.64 -1.88 0.73 -1.84 0.81 -1.8 0.9 -1.75 0.98 -1.7 1.06 -1.65 1.13 -1.59 1.21 -1.54 1.28 -1.48 1.35 -1.42 1.43 -1.36 1.51 -1.3 1.6 -1.26 1.7 -1.21 1.77 -1.13 1.78 -1.03 1.8 -0.92 1.82 -0.82 1.86 -0.73 1.89 -0.64 1.93 -0.55 1.96 -0.45 2 -0.36 2.03 -0.26 2.06 -0.16 2.09 -0.05 0 0z"/>
  </g>
  <path class="fil2 str0" d="M41.67 47.12c-0.75,-1.91 -6.99,-8.41 -9.23,-10.58 -2.2,-2.13 -3.94,-8.58 -1.75,-11.61 2.03,-2.79 6.59,-4.05 9.6,-3.06 5.56,1.84 1.41,4.56 5.13,1.36 1.87,-1.61 6.97,-3.08 9.41,-1.43 3.05,2.06 5.81,3.69 5.61,8.11 -0.18,3.96 -11.59,13.01 -14.21,17.99 0.22,-1.69 9.2,-6.69 10.86,-9.94 1.99,-3.87 2.51,-4.22 2.51,-9.28 0,-6.83 -10.67,-6.45 -14.4,-3.45 -0.79,0.63 -3.07,-1.89 -6.14,-2.41 -4.46,-0.76 -8.68,-0.64 -10.5,4.36 -1.13,3.1 3.02,6.48 3.63,9.49 0.01,0.05 7.41,9.54 8.47,9.92 5.63,1.99 -5.88,-3.77 -8.74,-7.99 -3.77,-5.57 -2.9,-8.65 -1.26,-14.9 0.57,-2.17 6.75,-5.59 9.05,-3.1 0.45,0.49 3.8,3.59 3.82,3.58 2.02,-0.82 4.72,-3.55 7.9,-3.55 2.19,0 8.7,1.99 8.74,4.25 0,0.02 1.19,3.13 1.42,4.63 0.68,4.44 -4.22,7.92 -7.46,10.96 -0.84,0.79 -4.46,3.32 -5.78,3.75 -1.15,0.38 -2,2.82 -2.81,2.78"/>
  <path class="fil2 str0" d="M46.89 36.51c1.07,0.03 2.97,0 2.87,-1.4 -0.13,-1.8 0.22,-3.43 -2.59,-2.85 0.13,-0.44 -0.42,-2.21 -1.16,-2.79 -1.12,-0.87 -2.15,-0.39 -2.98,0.6 -0.47,0.56 1.18,2.42 -1.67,2.27 -2.12,-0.11 -2.32,4.2 -0.89,4.16 3.28,-0.08 1.03,0.4 2.43,2.59 0.17,0.27 3.11,1.17 3.11,-0.07 0,-0.29 0.4,-2.4 0.47,-2.4 2.54,0 3.7,-0.86 3.16,-3.51 -0.25,-1.24 -2.2,-0.38 -2.42,-1.42 -0.42,-2.04 -0.38,-2.95 -2.86,-2.69 -0.8,0.08 -1.28,1.63 -1.28,2.53 0,1.73 -1.18,0.17 -3.22,1.41 -0.68,0.41 -0.68,4.41 1.76,3.42 1.76,-0.72 0.62,3.21 2.35,3.21 2.71,0 2.81,-0.52 2.62,-2.7 -0.05,-0.59 0.8,-0.29 1.76,-0.45 1.78,-0.29 2.2,-2.57 1.41,-3.72 -1.08,-1.55 -2.83,-0.61 -2.87,-1.27 -0.24,-3.49 -3.93,-3.85 -3.93,-0.13 0,1.88 -0.33,0.73 -2.88,1.78 -1.17,0.48 -2.18,0.23 -1.62,2.61 0.4,1.7 2.57,0.62 3.39,1.07 1.63,0.9 -0.88,4.34 4.33,2.73 1.7,-0.53 0.78,-0.7 1,-2.64 0.05,-0.44 5.04,0.24 3.48,-3.88 -0.31,-0.82 -1.63,-1.5 -2.43,-1.25 -0.81,0.26 -0.7,0.39 -1.7,0.44"/>
  <path class="fil2 str0" d="M17.57 52.1c1.65,-5.79 -4.45,-7.11 6.21,-6.56 3.96,0.21 3.53,0.11 3.53,5.17 0,3.87 1.61,10.3 -3.07,10.3 -1.78,0 -6.63,0.83 -6.54,-1.65 0.03,-0.91 -0.6,-7.82 -0.24,-2.92 0.39,5.47 2.25,4.42 6.9,4.57 1.36,0.04 3.66,-2.14 3.77,-4.33 0.09,-1.75 0.02,-9.16 -1.83,-10.05 -3.93,-1.89 -8.66,-1.21 -7.42,4.05 0.49,2.07 -6.93,-7.07 8.17,-4.24 2.58,0.48 1.67,2.03 1.67,5.37 0,3.71 1.06,9.16 -3.14,9.09 -9.16,-0.16 -7.18,0.34 -7.18,-6.1"/>
  <path class="fil2 str0" d="M28.81 47.83c3.8,-3.49 3.01,-1.78 6.95,-1.65 1.74,0.05 3.13,0.65 4.87,0.59 2.94,-0.11 4.31,0.05 7.18,0.89 1.81,0.53 2.62,3.05 2.48,4.78 -0.17,2.1 -9.91,1.59 -10.53,1.29 0.7,-0.71 6.78,0.3 7.54,-0.45 1.3,-1.3 3.48,-3.66 0.67,-4.96 -1.1,-0.51 -10.76,-1.38 -11.4,-1.3 -0.14,0.02 -6.7,0.23 -6.76,0.36 -0.06,0.13 -1.56,0.44 1.27,0.69 3.78,0.34 1.98,-0.87 5.28,-0.48 4.49,0.53 6.28,-0.47 10.91,0.82 2,0.55 2.92,0.86 2.84,3.1 -0.04,1.2 -3.71,1.81 -4.43,1.87 -1.78,0.16 -3.17,0.02 -4.89,0.02"/>
  <path class="fil2 str0" d="M28.53 58.67c3.77,1.44 7.02,0.93 10.48,1.91 2.01,0.57 5.95,-1.34 8.18,-1.45 0.25,-0.01 1.52,-0.68 2.81,-0.7 1.16,-0.02 4.15,-1.22 6.5,-1.35 0.76,-0.04 4.99,-0.8 5.49,-1.41 0.85,-1.03 1.4,-4.05 -0.73,-4.05 -4.57,0 -7.66,-0.27 -12.23,0.57 -1.07,0.2 0.29,-0.75 3.51,-0.75 2.86,0 5.86,-1.01 8.3,0.11 1.43,0.65 3.15,1.45 2.52,3.53 -0.36,1.18 -5.35,3.13 -6.6,3.24 -2.01,0.17 -2.37,0.16 -4.4,0.54 -3.01,0.57 -2.24,0.17 -5.27,1.36 -3.54,1.39 -8.1,0.59 -11.71,0.2 -0.03,-0 -6.04,-1.97 -5.96,-2.09 0.66,-0.99 7.48,1.5 9.23,1.74 3.45,0.48 9.07,0.15 12.6,-0.2 3.59,-0.35 4.11,-0.42 7.45,-1.6 1.78,-0.63 2.33,-0.4 4.03,-1.74 1.59,-1.26 1.65,-2.27 0.86,-4.02 -0.65,-1.45 -7.08,-0.29 -8.27,-0.29 -1.27,-0.01 -4.16,0.22 -5.48,0.36l0.46 -0.14"/>
 </g>
</svg>
