<?xml version="1.0" encoding="UTF-8"?>
<!DOCTYPE svg PUBLIC "-//W3C//DTD SVG 1.1//EN" "http://www.w3.org/Graphics/SVG/1.1/DTD/svg11.dtd">
<!-- Creator: CorelDRAW 2019 (64-Bit) -->
<svg xmlns="http://www.w3.org/2000/svg" xml:space="preserve" width="0.429654in" height="0.173571in" version="1.1" style="shape-rendering:geometricPrecision; text-rendering:geometricPrecision; image-rendering:optimizeQuality; fill-rule:evenodd; clip-rule:evenodd"
viewBox="0 0 64.09 25.89"
 xmlns:xlink="http://www.w3.org/1999/xlink"
 xmlns:xodm="http://www.corel.com/coreldraw/odm/2003">
 <defs>
  <style type="text/css">
   <![CDATA[
    .fil0 {fill:white}
   ]]>
  </style>
 </defs>
 <g id="Layer_x0020_1">
  <metadata id="CorelCorpID_0Corel-Layer"/>
  <path class="fil0" d="M15.21 13.71c0,-0.39 0.46,-1.62 0.79,-1.97 0.23,-0.25 0.95,-0.57 1.47,-0.39 0.82,0.27 -0.5,1.98 -0.68,2.17 -0.57,0.59 -1.58,1.02 -1.58,0.19zm35.27 -7.15c0.15,0 0.28,-0.11 0.36,-0.22 0.23,-0.32 0.63,-0.52 1.01,-0.66 0.96,-0.37 4.23,-0.64 5.06,0.3 0.27,0.31 -0.15,0.85 -0.36,1.06 -0.9,0.93 -2.22,1.4 -3.42,1.79 -0.34,0.11 -0.66,0.23 -0.98,0.32 -0.98,0.27 -2.02,0.59 -2.97,0.94 -0.35,0.13 -0.6,0.22 -0.96,0.34 -1.18,0.42 -2.23,1.27 -2.95,2.27 -0.76,1.08 -0.89,1.75 -0.51,2.96 0.25,0.8 1.17,1.51 2.02,1.52 -0,0.25 -0.09,0.46 -0.13,0.7 -0.19,1.03 -0.04,2.47 0.36,3.3 0.34,0.71 0.41,1.02 0.96,1.7 0.78,0.95 1.91,1.73 3.04,2.23 0.64,0.28 1.22,0.5 2.03,0.63 0.47,0.08 1.76,0.19 2.44,0.08 1.06,-0.18 2.13,-0.43 3.1,-0.87l0.87 -0.44c0.31,-0.16 0.56,-0.32 0.84,-0.51 0.52,-0.35 1.04,-0.74 1.48,-1.18l0.91 -1.07c0.5,-0.68 0.94,-1.25 1.23,-2.06 0.11,-0.32 0.22,-0.9 0.18,-1.27 -0.01,-0.11 0,0.02 -0.01,-0.1l-0.09 -0.88c-0.3,-1.72 -1.59,-2.84 -3.3,-3.27 -0.66,-0.17 -1.39,-0.3 -2.07,-0.32 -0.06,-0 -0.03,0.1 -0.07,-0.01 -0,-0.01 -0.02,-0.01 -0.03,-0.01 -0.46,0 -0.74,0.11 -1.04,0.31 -0,0.22 0.01,0.18 0.04,0.32 0.04,0.2 0.02,0.46 0.21,0.68 0.4,0.49 0.8,0.2 0.9,0.2l0.52 0c1.06,0 2.93,0.75 3.41,1.7 0.28,0.55 0.24,1.52 -0.05,2.12 -0.23,0.47 -0.55,0.97 -0.89,1.35l-1.07 1.17c-0.98,0.97 -2.23,1.76 -3.55,2.18 -1.65,0.53 -3.11,0.73 -4.78,0.12 -1.04,-0.38 -1.84,-0.98 -2.69,-1.64 -0.26,-0.2 -0.5,-0.44 -0.69,-0.72 -0.62,-0.87 -0.89,-1.8 -0.72,-2.88 0.29,-1.8 0.45,-1.58 1.14,-1.73 0.53,-0.11 0.95,-0.29 1.41,-0.52 0.6,-0.3 0.96,-0.48 1.44,-0.96 0.23,-0.23 0.38,-0.39 0.55,-0.7 0.14,-0.26 0.24,-0.55 0.28,-0.87 0.07,-0.66 -0.16,-0.96 -0.8,-1.07 -0.36,-0.07 -0.63,-0.01 -0.87,0.08 -0.9,0.37 -2.62,1.17 -3.28,1.99 -0.08,0.1 -0.14,0.15 -0.22,0.25 -0.1,0.13 -0.24,0.52 -0.42,0.52 -0.57,0 -1.5,-0.17 -1.33,-0.96 0.13,-0.57 0.35,-0.9 0.64,-1.29 0.45,-0.59 0.99,-0.97 1.6,-1.37 0.4,-0.26 0.87,-0.45 1.32,-0.61l2.96 -0.95c0.26,-0.07 0.46,-0.17 0.73,-0.26 2.06,-0.68 5.69,-1.58 4.82,-4.62 -0.42,-1.49 -2.87,-1.72 -4.12,-1.72 -0.97,0 -1.66,0.06 -2.62,0.3 -0.53,0.14 -0.92,0.34 -1.33,0.65l-0.23 0.24c-0.07,0.11 -0.1,0.2 -0.1,0.37 -0,0.27 0.13,0.67 0.34,0.86 0.13,0.12 0.25,0.13 0.44,0.13zm-17.89 6.05c0,-0.42 0.25,-1.14 0.47,-1.46 0.09,-0.13 0.17,-0.24 0.26,-0.36 0.21,-0.28 1.11,-0.93 1.41,-1.1 0.71,-0.41 2.78,-1.24 3.66,-0.78 -0.13,0.25 -0.26,0.47 -0.44,0.65 -0.25,0.24 -0.52,0.69 -0.74,0.98 -0.21,0.28 -0.39,0.53 -0.6,0.81l-0.97 1.12c-0.12,0.1 -0.26,0.2 -0.39,0.29 -0.28,0.21 -0.51,0.4 -0.84,0.57 -0.95,0.48 -1.81,-0.15 -1.81,-0.71zm-7.15 -1.93c0.72,0 1.81,-0.48 2.38,-0.95 0.14,-0.11 0.24,-0.19 0.37,-0.31 0.15,-0.14 0.19,-0.21 0.32,-0.36 1.87,-2.31 0.41,-3.08 1.27,-3.16l1.19 -0.01c-0.02,0.25 -2.23,4.77 -2.54,5.29 -0.53,0.88 -1.25,1.66 -2.11,2.22 -1.02,0.65 -1.62,0.62 -2.62,0.03 -0.36,-0.21 -0.6,-0.44 -0.79,-0.83 -0.38,-0.75 0.35,-2.24 0.6,-2.43 0.18,0.05 0.12,0.07 0.29,0.18 0.13,0.08 0.17,0.09 0.32,0.15 0.5,0.22 0.82,0.19 1.32,0.19zm-19.51 -5.74c0.06,-0.23 0.67,-0.6 0.89,-0.73l3.66 -1.82c1.13,-0.46 3.18,-1.21 4.27,-1.21 -0.15,0.22 -0.66,0.5 -0.92,0.7 -0.57,0.45 -2.26,1.33 -3.01,1.68 -0.75,0.35 -4,1.38 -4.89,1.37zm-2.3 -0.1c-0.73,-0.17 -1.46,-0.48 -1.91,-1.12 -0.4,-0.57 0.35,-1.05 0.54,-1.51 0.07,-0.18 0.22,-0.36 0.22,-0.56 0,-0.7 -1.23,-0.47 -1.73,0.15 -0.1,0.12 -0.23,0.3 -0.3,0.43 -0.68,1.19 0.38,2.74 1.4,3.35l0.95 0.46c-0.03,0.35 -0.35,0.74 0.02,1.55l0.27 0.61c0.1,0.18 0.24,0.36 0.38,0.51 0.17,0.2 0.35,0.26 0.48,0.46 -0.18,0.1 -0.31,0.18 -0.5,0.28 -0.55,0.28 -1.47,0.89 -1.97,1.26l-0.88 0.79c-0.44,0.48 -0.75,1.03 -0.5,1.73 0.3,0.86 0.72,1.35 1.54,1.75 0.78,0.38 1.56,0.35 2.42,0.35l0.79 -0.15c0.18,-0.04 0.25,-0.07 0.41,-0.11 1.47,-0.39 1.1,-0.35 2.3,-0.94 0.47,-0.23 0.92,-0.5 1.33,-0.8 0.12,-0.09 0.18,-0.13 0.3,-0.22 0.14,-0.1 0.17,-0.14 0.29,-0.23 0.18,-0.13 0.47,-0.37 0.68,-0.42l-1.56 3.18c-0.08,0.17 -0.15,0.31 -0.24,0.49 -0.76,1.51 -2.13,4.01 -2.69,5.5 -0.54,1.46 0.75,2.03 1.19,1.29 0.08,-0.13 0.14,-0.32 0.21,-0.47 0.15,-0.33 0.27,-0.6 0.41,-0.95l0.65 -1.39c0.36,-0.77 0.74,-1.57 1.15,-2.29l1.34 -2.78c0.08,-0.19 0.15,-0.25 0.24,-0.44 0.35,-0.69 1.06,-2.26 1.36,-2.76 0.43,-0.71 0.76,-1.49 1.18,-2.21 0.36,-0.62 1.88,-3.33 2.11,-3.42 0.31,-0.12 1.08,-0.08 1.49,-0.08l1.04 -0.05c0.37,0 0.78,0.02 1.12,-0.03 0.54,-0.08 1.62,-0.02 2.22,-0.02 0.43,0 0.64,-0.06 1.04,-0.05 1.58,0.01 1.71,-0.2 1.82,0.42 0.04,0.23 0.04,0.26 0.17,0.4 0.24,0.26 0.76,0.33 0.92,-0.05 0.2,-0.46 0.68,-0.82 1.25,-0.83 0.34,-0.01 1.06,-0.04 1.36,-0 0.31,0.03 0.22,0.21 0.17,0.44 -0.06,0.26 -0.09,0.38 -0.17,0.57 -0.36,0.9 -1.07,1.8 -2,2.18 -0.36,0.15 -1.3,0.44 -1.54,-0.12 -0.09,-0.2 -0.1,-0.29 -0.22,-0.46 -0.22,-0.31 -0.42,-0.46 -0.77,-0.64 -1.54,-0.76 -4.05,-0.03 -5.48,0.46 -0.35,0.12 -0.72,0.25 -1.01,0.4 -1.31,0.66 -2.07,1.52 -2.73,2.8 -0.59,1.15 -0.64,2.06 -0.05,3.22 0.17,0.33 0.4,0.51 0.72,0.69 0.84,0.47 2,0.05 2.65,-0.44 0.41,-0.31 0.72,-0.73 0.97,-1.17 0.3,-0.55 0.75,-1.27 0.54,-2.12 -0.14,-0.58 -0.28,-0.98 -0.72,-1.37 -0.18,-0.16 -0.28,-0.15 -0.48,-0.25 0.06,-0.17 -0.07,-0.02 0.14,-0.17 0.09,-0.06 0.14,-0.07 0.26,-0.11 0.22,-0.07 0.29,-0.12 0.48,-0.19 0.32,-0.12 0.64,-0.24 1.02,-0.34 0.85,-0.21 1.38,-0.33 2.43,-0.34 -0.02,0.26 -0.34,0.64 -0.48,0.88 -0.36,0.62 -0.59,1.52 -0.51,2.3 0.08,0.71 0.48,1.33 0.92,1.85 0.45,0.53 1,0.88 1.65,1.16 1.37,0.59 2.1,-0.06 2.95,-0.13 -0.03,0.34 -1.17,2.54 -1.38,3 -0.23,0.52 -0.76,1.38 -0.76,1.9 0,0.21 0.08,0.45 0.16,0.57 0.05,0.09 0.31,0.36 0.42,0.36 0.45,0 0.7,-0.14 0.86,-0.55l0.48 -0.93c0.32,-0.71 0.74,-1.36 1.06,-2.07l1.2 -2.71c0.13,-0.35 0.28,-0.67 0.44,-1.02 0.3,-0.67 0.58,-1.29 0.87,-1.94 0.29,-0.63 0.68,-1.2 1.01,-1.8l1.32 -2.91c0.14,-0.32 0.33,-0.68 0.49,-0.98l0.83 -0c0.14,0 0.05,-0.03 0.26,-0.05l5.79 -0c-0.01,0.23 -0.07,0.3 -0.15,0.43l-0.58 1.24c-0.39,-0.01 -0.86,-0.21 -1.41,-0.21 -1.31,0 -2.77,0.51 -3.9,1.07 -1.5,0.75 -2.68,2.23 -2.68,3.95 -0,0.52 0.24,0.96 0.47,1.41 0.38,0.74 1.32,1.3 2.24,1.3 0.78,0 1.5,-0.39 2.14,-0.73 -0.17,0.75 -1.05,2.52 -1.4,3.29 -0.24,0.52 -0.39,0.98 -0.15,1.49 0.16,0.34 0.4,0.43 0.77,0.43 0.43,0 0.62,-0.72 0.78,-1.04 0.21,-0.42 0.39,-0.84 0.59,-1.29l0.43 -0.93c0.33,-0.75 0.58,-1.55 0.95,-2.29l0.6 -1.28c0.14,-0.31 0.35,-0.64 0.46,-0.94l0.34 -0.81c0.11,-0.22 0.25,-0.62 0.43,-0.77 0.35,-0.28 0.53,0.02 0.53,-0.62 0,-0.25 -0.06,-0.42 -0.05,-0.57 0.03,-0.33 0.85,-1.75 1.04,-2.14 0.07,-0.15 0.11,-0.27 0.19,-0.44 0.09,-0.19 0.12,-0.33 0.28,-0.4 0.22,-0.11 1.03,-0.03 1.3,-0.03 0.23,-0 0.45,-0.03 0.68,0.04 0.01,0 0.03,0.01 0.04,0.01l0.07 0.03c-0.03,0.15 -0.09,0.21 -0.15,0.32l-1.1 2.19c-0.65,1.26 -1.23,2.58 -1.81,3.87 -0.5,1.11 -0.91,2.29 -1.31,3.44 -0.52,1.52 0.8,2.35 1.34,1.02 0.08,-0.21 0.11,-0.19 0.2,-0.37 0.53,-1.05 0.77,-2.26 1.25,-3.34l1.78 -3.75c0.41,-0.86 1.45,-2.56 1.63,-3.33 0.9,0 1.27,-0.08 2.29,0 0.28,0.02 0.57,0.11 0.86,0.09 0.07,-0.01 0.01,0.02 0.11,-0.02 0.13,-0.04 0.24,-0.17 0.27,-0.31 0.04,-0.17 -0.03,-0.62 -0.03,-0.86 -0.55,-0.38 -1.84,-0.36 -2.61,-0.37 -0.7,-0 -1.29,0.13 -1.96,0.03l-1.35 -0.05c-0.2,0.02 -0.25,0.03 -0.45,0 -0.16,-0.02 -0.6,-0.03 -0.93,-0.03 -0.2,-0.3 -0.27,-0.41 -0.75,-0.45 -0.58,-0.04 -0.55,0.4 -0.76,0.4l-3.98 -0.04c-0.69,-0.08 -1.43,-0.02 -2.13,-0.02 -0.33,0 -0.47,0.05 -0.83,0.06 -0.2,-0.43 -0.19,-0.84 -0.82,-0.81 -0.64,0.03 -0.63,0.41 -0.9,0.81l-1.63 0.09c-0.22,0.03 -0.51,-0.04 -0.82,-0.04 -1.02,0.01 -1.15,-0.61 -2.99,-0.13 -0.26,0.07 -0.43,0.18 -0.71,0.18l-11.79 0c-0.29,0 -1.88,-0.34 -1.88,0.21 0,0.22 0.02,0.54 0.13,0.76 0.06,0.13 0.19,0.29 0.32,0.36 0.32,0.19 0.73,0.18 1.23,0.18 -0.02,0.21 -0.12,0.27 -0.21,0.42 -0.3,0.51 -0.49,1.16 -0.9,1.6l-0.37 0.41c-0.01,0.01 -0.02,0.02 -0.03,0.03l-1.22 1.13c-0.43,0.43 -0.83,0.88 -1.3,1.26 -1.02,0.81 -0.4,0.47 -1.8,1.39 -0.16,0.1 -0.26,0.15 -0.42,0.26 -0.53,0.35 -1.11,0.62 -1.72,0.83 -1.07,0.37 -1.96,0.58 -3.17,0.15 -0.39,-0.14 -0.57,-0.22 -0.82,-0.48 0.01,-0.61 0.63,-1.04 1.02,-1.33 0.97,-0.73 2.06,-1.32 3.16,-1.85 0.12,-0.06 0.11,-0.06 0.21,-0.11 0.56,-0.28 0.85,-0.24 1.45,-0.37 0.63,-0.14 0.97,-0.13 0.81,-0.75 -0.05,-0.2 -0.05,-0.34 -0.14,-0.49 -0.27,-0.48 -1.52,-0.13 -1.9,-0.03 -0.5,0.13 -1.84,-0.27 -2,-0.83 -0.05,-0.17 0.01,-0.45 0.04,-0.56 0.03,-0.09 0.12,-0.33 0.18,-0.4 0.18,-0.24 0.62,-0.13 0.87,-0.13 0.81,-0.01 1.79,-0.2 2.56,-0.4 0.16,-0.04 0.33,-0.07 0.47,-0.11l1.41 -0.42c0.31,-0.11 0.59,-0.17 0.9,-0.3 0.83,-0.32 1.71,-0.62 2.48,-1.07l1.85 -1.12c0.46,-0.31 0.89,-0.69 1.25,-1.1l0.27 -0.41c0.1,-0.39 0.01,-1.36 -0.76,-1.38 -0.76,-0.02 -1.06,-0.1 -1.93,0.05 -1.79,0.31 -3.85,1.11 -5.52,1.89 -0.97,0.45 -1.82,0.92 -2.71,1.52l-1.84 1.35z"/>
 </g>
</svg>
