<?xml version="1.0" encoding="UTF-8"?>
<!DOCTYPE svg PUBLIC "-//W3C//DTD SVG 1.1//EN" "http://www.w3.org/Graphics/SVG/1.1/DTD/svg11.dtd">
<!-- Creator: CorelDRAW 2019 (64-Bit) -->
<svg xmlns="http://www.w3.org/2000/svg" xml:space="preserve" width="0.459185in" height="0.148126in" version="1.1" style="shape-rendering:geometricPrecision; text-rendering:geometricPrecision; image-rendering:optimizeQuality; fill-rule:evenodd; clip-rule:evenodd"
viewBox="0 0 1176.13 379.4"
 xmlns:xlink="http://www.w3.org/1999/xlink"
 xmlns:xodm="http://www.corel.com/coreldraw/odm/2003">
 <defs>
  <style type="text/css">
   <![CDATA[
    .fil0 {fill:white}
   ]]>
  </style>
 </defs>
 <g id="Layer_x0020_1">
  <metadata id="CorelCorpID_0Corel-Layer"/>
  <path class="fil0" d="M84.37 238.4c18.98,-50.54 7.13,-66.99 4.25,-101.71l108.88 -0.07c3.08,36.24 0.26,82.66 0.5,120.13 0.08,13.93 2.77,19.32 -6.2,25.3 -33.99,22.65 -82.95,22 -111.48,-4.87 -13.43,-12.65 -3.31,-19.17 4.05,-38.78zm87.48 -157.43l20.93 -9.67c-0.16,-2.47 -15.29,-44.36 18.19,-46.18 10.89,-0.58 19.7,5.5 23.06,13.26 5.62,12.95 -0.76,22.16 -2.34,33.29l20.26 9.95c30.47,-32.89 6.06,-80.3 -37.1,-81.57 -24.23,-0.72 -40.38,10.14 -48.91,24.15 -14.49,23.77 -4.09,41.38 5.9,56.77zm-171.85 55.77l53.79 0c14.05,49.83 5.61,79.2 -16.55,122.31 -13.22,25.7 43.14,59.67 75.21,66.6 38.29,8.28 56.87,-3.31 85.36,-11.82l0.3 61.49 33.17 0.35 1.04 -238.85 153.77 -0.13 0.23 51.76c-37.98,16.08 -78.93,28.52 -92.49,81.57 -6.81,26.61 -1.76,53.75 11.77,71.91 15.05,20.17 23.96,26.08 50.34,37.19l13.55 -25.8c-13.32,-11.36 -57.08,-26.63 -41.34,-79.9 9.6,-32.53 50.06,-53.63 72.77,-56.38 13.09,-1.58 37.27,12.09 44.83,17.36 31.09,21.71 45.96,57.23 27.85,87.81 -11.54,19.46 -18.63,17.04 -34.54,31.18l10.37 25.03c38.88,-2.92 76,-54.7 63.46,-106.41 -9.87,-40.68 -51,-72.09 -91.12,-82.79l-0.5 -52.51 299.79 -0.03 0.16 44.22c-27.83,-0.72 -55.74,-0.1 -83.03,-0.13 -29.26,-0.03 -51.57,1.37 -69.1,16.53 -19.01,16.46 -36.67,86.57 39.63,98.01 -4.45,21.77 -8.8,33.34 4.26,52.34 30.98,45.08 120.73,34.34 148.12,15.42 -2.2,-9.28 -7.57,-15.39 -9.8,-24.05 -28.33,5.35 -44.35,16.53 -80.06,8.77 -26.74,-5.81 -41.35,-23.4 -26.96,-52.29l101.88 -0.15 0.69 -29.15c-31.9,-0.32 -63.57,-0.05 -95.12,-0.05 -29.67,0 -68.85,4.16 -64.43,-32.63 3.58,-29.7 43.52,-23.06 72.15,-23.06 21.77,0 77.81,2.7 95.6,-0.87l0.3 -72.9 72.52 0.11 0.65 130.73 33.78 1.03 0.55 -131.42 231.74 -0.5 0.47 87.29 -116.69 0.03 -0.86 -30.02c-38.71,-20.26 -74.87,19.89 -60.13,46.55 6.62,11.98 12.84,8.56 25.62,14.33 6.68,50.07 10.52,84.74 60.82,111.51 40.26,21.43 110.61,14.32 139.2,-10.98 -1.27,-6.25 -8.47,-19.07 -13.83,-23.36 -16.16,7.85 -27.24,14.17 -48.26,16.19 -21.98,2.12 -40.71,0.24 -58.16,-8.35 -34.04,-16.75 -50.33,-58.56 -43.77,-86.26l149.91 0 0.12 -116.78 46.42 -0.1 0.7 -28.67 -1175.67 -0.12 -0.45 28.85z"/>
 </g>
</svg>
