<?xml version="1.0" encoding="UTF-8"?>
<!DOCTYPE svg PUBLIC "-//W3C//DTD SVG 1.1//EN" "http://www.w3.org/Graphics/SVG/1.1/DTD/svg11.dtd">
<!-- Creator: CorelDRAW 2019 (64-Bit) -->
<svg xmlns="http://www.w3.org/2000/svg" xml:space="preserve" width="0.384874in" height="0.261795in" version="1.1" style="shape-rendering:geometricPrecision; text-rendering:geometricPrecision; image-rendering:optimizeQuality; fill-rule:evenodd; clip-rule:evenodd"
viewBox="0 0 147.81 100.54"
 xmlns:xlink="http://www.w3.org/1999/xlink"
 xmlns:xodm="http://www.corel.com/coreldraw/odm/2003">
 <defs>
  <style type="text/css">
   <![CDATA[
    .fil0 {fill:white}
   ]]>
  </style>
 </defs>
 <g id="Layer_x0020_1">
  <metadata id="CorelCorpID_0Corel-Layer"/>
  <g id="_1600543832848">
   <path class="fil0" d="M97.62 62.35c0.4,-0.66 0.02,-0.4 0.78,-0.65l0.46 1.58c1.02,2.8 4.53,6.24 8.03,6.84 2.22,0.38 5.47,0.35 6.98,-0.65 1.11,-0.74 2.75,-2.51 3.43,-3.65 0.63,-1.14 1.38,-2.22 2.04,-3.26l2.64 1.99c4.58,-0.28 7.46,-2.3 10.62,-5.92 5.41,4.59 13.19,-1.9 14.6,-8.28l-0.06 -1.77c-1.54,0.02 -0.65,-0.13 -1.83,0.77 -1.31,1.73 -2.7,4.12 -4.56,5.06 -1.17,0.59 -3.46,0.89 -4.01,-1.68 -0.38,-1.76 -0.39,-2.58 -3.53,0.89 -4.71,5.21 -5.85,5.59 -10.54,4.24l-0.87 -4.29c-2.11,0.29 -1.95,1 -4.08,4.56 -2.52,4.22 -7.91,4.87 -11.35,4 -7.08,-1.8 -5.39,-8.11 -5.41,-18.85 -0.03,-20.01 -3.09,-15.4 20.92,-27.38 5.03,-2.51 16.52,-8.6 17.72,-14.73l-0.07 -0.57 -0.7 -0.11c-1.49,0.55 -5.11,3.48 -6.93,4.66 -2.21,1.44 -5.06,2.92 -7.45,4.12 -5.14,2.59 -10.14,4.97 -15.56,7.67 -5.45,2.72 -9.05,5.89 -10.87,12.31 -2.6,9.17 1.22,27.02 -3.64,31.11 -3.44,2.9 -8.1,1.6 -9.09,1.65 -5.22,0.27 -10.82,7.02 -13.12,10.14 -5.44,7.38 -11.12,16.73 -17.78,22.99 -1.32,1.24 -2.51,1.38 -2.06,3.05 3.33,0.61 10.1,-6.55 11.79,-8.49 7.12,-8.1 9.45,-16.79 21.8,-19.34 3.69,-0.76 4.35,1.61 7.84,-1.78 1.65,-1.6 3.21,-3.73 3.86,-6.25z"/>
   <path class="fil0" d="M32.09 70.87l1.19 0.04c0.04,0.06 0.22,0.33 0.32,0.42 11.97,-1.18 11.02,-17.94 11.28,-25.81 -1.49,0.37 -0.6,-0.32 -1.57,1.39 -0.23,0.4 -0.45,0.93 -0.84,1.57 -0.82,1.35 -1.32,1.92 -1.4,3.97 -0.15,3.85 1.56,6.79 -1.28,8.91 -4.65,3.48 -10.58,0.68 -15.3,-1.3 -6.77,-2.84 -11.09,-0.52 -15.61,2.8 -2.67,1.96 -8.75,7.31 -8.88,11.75 4.22,-0.38 5.5,-8.5 14.72,-5.96 6.65,1.83 2.54,4.51 17.37,2.22z"/>
   <path class="fil0" d="M133.38 44.05l2.16 -0.07 0.62 -0.59 0.36 -0.47 0.29 -0.5 0.33 -0.44 0.57 -0.65 0.29 -0.51 0.51 -0.69 0.29 -0.51c0.33,-0.94 0.23,-0.53 0.4,-1.41l-6.51 -4.62 -3.4 4.73 -6.84 -3.96c-0.99,0.69 -4.38,4.86 -4.8,6.67 2.19,2.25 2.87,3.08 6.95,3.85 1.13,-1.32 2.61,-2.93 3.6,-4.25 1.23,1.64 2.7,2.86 5.18,3.41z"/>
   <path class="fil0" d="M50.93 94.86c-0.81,-1.45 -4.31,-3.93 -5.82,-4.47l-3.58 3.92 -4.28 -3c-1.01,-0.79 -0.53,-0.52 -1.56,-1.03 -1.41,0.94 -1.83,1.8 -3.09,3.08 -1.18,1.19 -1.94,1.53 -2.25,3.7 2.03,1.27 2.83,2.79 6.24,3.04l3.51 -3.54c1.61,1.49 3.16,3.67 6.12,3.98l4.73 -5.68z"/>
   <path class="fil0" d="M122.45 28.99c2,1.53 3.26,3.23 6.55,3.6 1.08,-2.03 3.52,-3.71 3.97,-6.1l-6.32 -4.1c-1.18,1.78 -3.9,4.34 -4.2,6.6z"/>
   <path class="fil0" d="M117.29 65.81l2.07 -2.83c1.24,0.97 0.34,1.06 2.61,1.56l-2.64 -1.99c-0.66,1.04 -1.41,2.11 -2.04,3.26z"/>
   <path class="fil0" d="M145.3 49.36c1.18,-0.9 0.29,-0.75 1.83,-0.77l0.06 1.77c1,-1.19 0.64,-1.07 -0.09,-2.14 -1.38,0.05 -1.2,0.18 -1.81,1.15z"/>
   <path class="fil0" d="M138.8 39.62l-0.29 0.51 -0.51 0.69 -0.29 0.51 -0.57 0.65 -0.33 0.44 -0.29 0.5 -0.36 0.47 -0.62 0.59 -2.16 0.07c0.83,0.6 1.35,0.77 2.16,-0.07l0.62 -0.59c0.6,0.04 0.45,0.16 0.36,-0.47l0.29 -0.5 0.33 -0.44 0.57 -0.65 0.29 -0.51 0.51 -0.69 0.29 -0.51c0.65,-0.75 0.91,-0.81 0.4,-1.41 -0.17,0.88 -0.07,0.47 -0.4,1.41z"/>
   <path class="fil0" d="M97.62 62.35c0.76,0.39 0.36,0.17 0.81,0.5 0.05,0.04 0.18,0.28 0.22,0.21 0.04,-0.07 0.13,0.15 0.2,0.23l-0.46 -1.58c-0.76,0.25 -0.38,-0.01 -0.78,0.65z"/>
   <path class="fil0" d="M139.53 0.61l0.07 0.57c0.42,-0.4 0.39,-0.18 -0.07,-0.57 -0.09,-1.28 -0.67,-0.14 -0.7,-0.11l0.7 0.11z"/>
   <path class="fil0" d="M33.6 71.34c-0.1,-0.09 -0.28,-0.37 -0.32,-0.42l-1.19 -0.04 1.51 0.47z"/>
  </g>
 </g>
</svg>
