<?xml version="1.0" encoding="UTF-8"?>
<!DOCTYPE svg PUBLIC "-//W3C//DTD SVG 1.1//EN" "http://www.w3.org/Graphics/SVG/1.1/DTD/svg11.dtd">
<!-- Creator: CorelDRAW 2019 (64-Bit) -->
<svg xmlns="http://www.w3.org/2000/svg" xml:space="preserve" width="0.44587in" height="0.117925in" version="1.1" style="shape-rendering:geometricPrecision; text-rendering:geometricPrecision; image-rendering:optimizeQuality; fill-rule:evenodd; clip-rule:evenodd"
viewBox="0 0 97.34 25.75"
 xmlns:xlink="http://www.w3.org/1999/xlink"
 xmlns:xodm="http://www.corel.com/coreldraw/odm/2003">
 <defs>
  <style type="text/css">
   <![CDATA[
    .fil0 {fill:white}
   ]]>
  </style>
 </defs>
 <g id="Layer_x0020_1">
  <metadata id="CorelCorpID_0Corel-Layer"/>
  <path class="fil0" d="M53.94 9.11c-1.3,1.87 -4.18,2.83 -1.75,5.43 0.78,0.83 1.33,0.95 2.66,0.56 0.24,-0.07 0.45,-0.23 0.67,-0.34l2.12 -1.89 4.9 -0.27c0.72,7.74 -2.52,14.45 6.13,11.65 -1.35,-8.61 -3.27,7.36 -3.14,-13.56l-0.73 -9.55c-0.06,-0.14 -0.21,-0.39 -0.34,-0.56 -2.12,0.95 -1.34,-1.23 -1.79,3.26 -0.13,1.34 0.05,4.38 0.02,5.97l-5.81 0.09c0.21,-17.78 -19.3,-8.33 -11.01,6.71 1.75,3.18 3.18,5.82 7.72,6.04 -1.01,-5.3 -4.47,-3.55 -6.3,-9.96 -2.93,-10.27 7.6,-13.65 6.62,-3.58zm-36.05 6.49l6.04 0.24 0.42 7.95c1.41,-0.07 1.22,-0.44 0.86,0.87l1.72 0.06 1.9 -0.78 0.47 -1.82 -2.88 -0.36c-0.91,-3.86 -0.53,-5.2 -0.52,-9.39 0,-2.26 0.1,-4.58 0.09,-6.81 -0.02,-5.76 -0.6,-3.95 -1.66,-4.52l-0.11 10.45c-0.58,2.22 0.49,0.82 -1.22,1.68l-1.56 1.1 -1.73 -0.44c-3.1,-1.43 -2.89,-1.15 -3.71,-4.72 -0.5,-2.19 -0.16,-1 -0.51,-1.76 -2.37,1.2 -0.9,-1.08 -1.47,2.45 -0.22,1.34 0.17,3.66 -1.33,5.73 -2.51,3.47 -5.73,1.33 -7.7,-1.41l1.21 -0.55c1.58,-2.39 4.71,-4.12 2.62,-8.91 -1.2,-2.76 -5.02,-5.5 -8.43,-3.27 1.9,3.74 5.25,-0.49 5.98,5.12 0.65,4.99 -2.64,4.81 -6.4,5.32 0.94,2.54 0.28,0.83 1.63,2.58 9.21,11.94 12.62,0.57 16.26,1.17zm72.39 -6.68c-1.5,4.85 -4.07,2.2 -8.03,4.3 1.34,3.1 1.62,0.58 3.11,3.84 0.19,0.42 1.99,11.27 9.93,7.8 3.6,-1.57 1.27,0.07 1.72,-2.36 -1.84,-1 -3.02,0.07 -6.11,0.12 -1.79,0.12 -1.7,0.69 -1.26,-0.82 -1,-0.47 -1,1.78 -0.97,-1.65l-0.77 -2.65c-0.24,-0.38 -2.5,-3.13 0.52,-2.37 2.97,-3.49 2.42,-0.19 4.39,-4.85 -0.34,-3.87 1.3,-4.25 -2.03,-7.39 -0.14,-0.13 -0.36,-0.25 -0.5,-0.38 -0.14,-0.13 -0.38,-0.28 -0.51,-0.39l-1.34 -1.57 -3.96 -0.07 0.24 2.2c0.22,0.01 2.24,0.09 2.31,0.1 0.21,0.03 0.45,0.06 0.65,0.11l2.53 1.44c2.74,3.24 0.08,4.54 0.05,4.58zm-49.46 14.43c-0.86,-1.85 0.43,-0.64 -2.69,-2.27 -0.11,-0.06 -0.38,-0.15 -0.55,-0.26l0.04 -16.11c-0.07,-4.37 0.53,-3.13 -1.85,-4.13 -2.03,3.13 -0.9,11.31 -0.92,15.18 -0.02,4.89 -0.34,14.46 5.97,7.6zm-17.81 -10.18l-1.56 1.1 1.56 -1.1c1.71,-0.86 0.64,0.54 1.22,-1.68l0.11 -10.45c1.06,0.57 1.64,-1.24 1.66,4.52 0.01,2.23 -0.09,4.55 -0.09,6.81 -0,4.19 -0.39,5.53 0.52,9.39l2.88 0.36 -0.47 1.82 -1.9 0.78 -1.72 -0.06c0.35,-1.31 0.55,-0.94 -0.86,-0.87l-0.42 -7.95 -6.04 -0.24c1.82,1.49 1.51,1.36 5.1,1.17l0.2 4.89c0.67,3.86 0.11,1.13 1.16,2.13 -0.6,1.77 -0.9,1.49 0.86,0.87 -0.43,1.56 -0.38,0.67 0.68,0.58 1.71,-0.14 0.16,0.42 1.05,-0.52 3.2,0.46 1.52,0.5 1.9,-0.78 3.27,1.38 0.48,-1.81 0.47,-1.82l-1.59 -0.88c-0.09,-0.05 -0.4,-0.19 -0.49,-0.23 -0.08,-0.04 -0.31,-0.14 -0.46,-0.2 -0.05,-3.68 -0.07,-7.3 -0.06,-10.97 0.03,-9.15 1.07,-7.89 -1.92,-9.85 -2.38,2.04 -1.71,1.72 -1.69,5.6 0.01,2.62 0.07,4.95 -0.09,7.58zm51.08 10.78c-0.67,1.75 -0.95,1.31 0.94,1.24 0,-1.67 0.5,-1.46 -0.94,-1.24 -1.01,-6 -0.49,-16.33 -0.5,-22.99 2.29,1.17 1.74,-3.72 1.75,9.73 0,3.82 -0.29,7.91 0.51,11.59l1.35 -0.44 1.14 0.38 0.11 1.43c-4.3,1.4 0.36,-0.44 -1.83,1.55l3.06 -0.93c-0.48,-4.27 -0.02,-1.21 -1.35,-2.05 1.01,-3.46 -0.79,-0.9 -1.14,-0.38 -1.55,-3.32 -0.67,-12.22 -0.75,-17.1 -0.07,-4.2 0.58,-2.94 -1.85,-4.73 -2.44,1.8 -1.81,0.68 -1.9,4.73l0.12 16.97c0.68,3.44 0.08,1.31 1.27,2.25zm0 0c1.44,-0.22 0.94,-0.43 0.94,1.24l1.59 0c2.19,-1.99 -2.47,-0.15 1.83,-1.55l-0.11 -1.43 -1.14 -0.38 -1.35 0.44c-0.8,-3.68 -0.51,-7.77 -0.51,-11.59 -0.01,-13.45 0.54,-8.55 -1.75,-9.73 0.01,6.66 -0.51,16.98 0.5,22.99zm10.4 -23.45c-1.84,0.93 -1.54,-1.49 -1.4,1.75 4.55,3.5 6.2,-1.61 7.19,6.68 0.03,-0.04 2.69,-1.34 -0.05,-4.58l-2.53 -1.44c-0.2,-0.05 -0.44,-0.08 -0.65,-0.11 -0.07,-0.01 -2.09,-0.09 -2.31,-0.1l-0.24 -2.2zm8.34 9.8c-1.97,4.67 -1.42,1.36 -4.39,4.85 -3.02,-0.76 -0.76,1.98 -0.52,2.37l0.77 2.65c-0.03,3.43 -0.03,1.18 0.97,1.65 -0.44,1.5 -0.53,0.94 1.26,0.82 0,-1.55 0.34,-1.17 -1.26,-0.82 -0.08,-3.07 0.19,-1.26 -0.97,-1.65 0.88,-2.17 -0.02,-2.15 -0.77,-2.65l0.52 -2.37c2.97,-1.36 3.79,-2.11 4.39,-4.85 1.55,-0.75 1.02,-3.61 0.38,-5.42 -0.97,-2.75 -1.63,-2.98 -4.75,-4.31l1.34 1.57c0.13,0.12 0.37,0.27 0.51,0.39 0.14,0.12 0.36,0.24 0.5,0.38 3.33,3.14 1.69,3.52 2.03,7.39zm-86.6 3.29l-1.21 0.55c1.97,2.74 5.19,4.88 7.7,1.41 1.5,-2.07 1.12,-4.39 1.33,-5.73 0.57,-3.53 -0.9,-1.24 1.47,-2.45 0.35,0.75 0,-0.44 0.51,1.76 0.82,3.57 0.61,3.29 3.71,4.72 -0.16,-0.19 -0.43,-0.7 -0.5,-0.54 -1.12,2.15 -2.46,-6.82 -2.49,-6.98l-2.92 0.16c-1.36,2.35 -0.32,13.75 -6.46,8.87 -0.59,-0.47 -0.91,-1.23 -1.13,-1.76zm51.43 -0.71l-2.12 1.89c-0.23,0.11 -0.44,0.27 -0.67,0.34 -1.33,0.38 -1.88,0.27 -2.66,-0.56 -2.43,-2.6 0.44,-3.55 1.75,-5.43l-3.44 2.42c0.85,3.4 1.34,3.74 4.69,4.84l2.46 -3.5z"/>
 </g>
</svg>
