<?xml version="1.0" encoding="UTF-8"?>
<!DOCTYPE svg PUBLIC "-//W3C//DTD SVG 1.1//EN" "http://www.w3.org/Graphics/SVG/1.1/DTD/svg11.dtd">
<!-- Creator: CorelDRAW 2019 (64-Bit) -->
<svg xmlns="http://www.w3.org/2000/svg" xml:space="preserve" width="0.981378in" height="0.216028in" version="1.1" style="shape-rendering:geometricPrecision; text-rendering:geometricPrecision; image-rendering:optimizeQuality; fill-rule:evenodd; clip-rule:evenodd"
viewBox="0 0 657.11 144.65"
 xmlns:xlink="http://www.w3.org/1999/xlink"
 xmlns:xodm="http://www.corel.com/coreldraw/odm/2003">
 <defs>
  <style type="text/css">
   <![CDATA[
    .str0 {stroke:#494338;stroke-width:3.26;stroke-miterlimit:2.61313}
    .fil0 {fill:none}
   ]]>
  </style>
 </defs>
 <g id="Layer_x0020_1">
  <metadata id="CorelCorpID_0Corel-Layer"/>
  <path class="fil0 str0" d="M71.18 6.4c-22.95,1.97 -40.26,-2.95 -43.81,27.02 -0.43,3.63 1.26,21.2 -2.72,21.08 -30.58,-0.98 -20.84,2.56 -22.77,17.63 -2.84,22.23 18.61,-4.63 18.32,13.96 -0.05,3.02 4.53,54.01 5.08,54.06 3.52,0.31 27.66,3.37 23.46,-4.81 -0.46,-0.9 -2.16,-53.55 0.8,-53.42 7.28,0.31 20.68,0.57 20.68,-8.18 0,-10.2 5.75,-14.14 -8.66,-15.91 -11.75,-1.44 -11.58,2.47 -10.14,-20.87 1.02,-16.55 24.27,4.37 21.64,-29.15 -1.77,-1.21 -24.23,-2.29 -31.34,3.08 -25.1,18.94 -13.53,5.58 -16.67,43.13 -0.41,4.87 -22.64,-3.86 -22.64,12.71 0,19.15 -2.91,13.59 21.41,15.18 2.39,0.16 -3.88,65.85 1.68,60.87 6.03,-5.4 23.45,2.36 23.53,-4.33 0.07,-6.57 6.85,-11.29 2.92,-26.73 -1.2,-4.73 -3.54,-27.07 -0.08,-28.42 12.27,-4.79 21.84,6.78 19.36,-23.04 -0.74,-8.86 -15.81,1.11 -17.31,-5.33 -1.2,-5.14 -1.48,-11.37 -1.48,-16.79 3.29,-0.68 20.68,-6.79 20.68,-10.46 0,-16.31 4.1,-18.65 -16.79,-19.36 -1.79,-0.06 -22.49,10.43 -23.92,13.34 -10.15,20.55 -3.6,24.3 -7.38,35.23 -5.93,0 -11.86,0 -17.79,0"/>
  <path class="fil0 str0" d="M175.26 127.7c3.93,-11.48 15.18,-28.34 10.51,-39.27 -6.61,-15.45 1.25,-53.31 10.32,-54.75 1.6,-6.94 27.47,-13.09 37.39,-13.09 23.5,0 36.86,6.9 48.35,29.21 6,11.65 0.71,46.23 -12,57.28 -27.33,23.74 -35.06,9.06 -63.62,6.29 -26.56,-2.57 -34.41,28.29 -25.43,0.65 12.98,-39.96 -24.17,-67.31 29.65,-90.94 17.41,-7.64 55.04,-3.48 63.72,18.6 8.48,21.56 20.06,31.03 6.84,57.11 -8.67,17.08 -24.19,24.16 -42.2,24.16 -34.69,0 -14.97,-22.63 -58.21,1.58 -16,8.96 18.23,-13.33 1.29,-32.23 -15.46,-17.26 -4.67,-25.55 -1.24,-45.41 2.38,-13.77 32.69,-31.05 50.38,-31.05 20.23,0 36.53,8.15 49,24.99 16.64,22.48 -0.57,73.07 -37.13,83.1 -20.84,5.72 -31.76,-11.52 -42.61,-10.51"/>
  <path class="fil0 str0" d="M213.64 45.59c6.08,0 11.36,11.73 5.68,15.84 -6.27,4.53 10.13,25.45 23.11,22.02 6.81,-1.8 0.85,2.35 5.81,-4.52 4.54,-6.31 24.77,19.11 -7.22,13.74 -9.31,-1.56 -25.79,-10.98 -28.37,-21.22 -1.92,-7.61 -6.41,-20.69 1.27,-26.26 0,-0.1 -12.56,5.59 -3.37,18.77 3.87,5.55 21.64,27.39 28.21,28.04 5.34,0.53 23.04,1.08 17.83,-8.65 -0.02,-0.04 -7.22,-6.45 -9.18,-1.44 -2.2,5.63 -5.95,5.12 -11.8,3.74 -7.33,-1.73 -23.05,-11.52 -24.37,-19.26 -1.93,-11.28 -5.64,-11.79 5.41,-13.93 0.23,-0.04 0.04,-0.19 0.87,-0.32"/>
  <path class="fil0 str0" d="M365.33 39.45c25.91,0 17.66,-3.81 21.84,33.09 0.91,8.01 -0.06,31.58 -0.06,41.7 -1.95,1.62 -20.33,8.75 -20.33,-7.45 0,-6.17 -1.89,-64.44 2.18,-64.44 19.59,0 14.52,-2.94 14.52,29.04 0,9.04 4.16,48.54 -11.62,36.85 -7.63,-5.65 -4.47,-51.7 -3.57,-62.8l-0.06 -1.64"/>
  <path class="fil0 str0" d="M404.54 39.45c0,9.92 2.93,65.34 5.93,76.84 9.08,3.15 16.96,-5.36 13.48,-18.57 -2.42,-9.19 0.9,-54.83 -3.44,-54.64 -17.79,0.76 -14.52,-9.69 -14.52,34.86 0,21.55 -5.44,34.85 15.98,34.85 0,-14.92 -2.97,-83.25 27.59,-54.02 9.22,8.82 4.42,36.07 8.05,53.96 0.43,2.1 21.72,0.82 21.72,-2.05 0,-17.15 2.87,-67.59 -19.67,-67.59 -21.52,0 -20.49,-1.73 -34.85,18.63 0,-12.51 39.56,-33.94 41.45,-10.1 0.01,0.1 6.49,17.74 7.74,23.17 2.61,11.32 1.13,62.41 -14.21,29.42 -3.23,-6.95 0.95,-62.25 -20.81,-50.83 -5.5,2.89 -4.98,8.09 -9.75,9.32"/>
  <path class="fil0 str0" d="M368.78 4.23c26.97,-13.65 23.93,31.23 2.09,15.85 -1.92,-1.35 -6.6,-20.54 15.24,-14.67 13.67,3.68 -2.27,32.32 -20.08,13.34 -3.26,-3.47 -0.51,-12.87 2.75,-14.53z"/>
  <path class="fil0 str0" d="M554.99 32.06c29.07,-14.82 39.42,-17.09 69.06,-12.16 24.05,4 9.74,-1.01 21.2,23.27 3.61,7.65 11.85,61.66 -5.89,66.81 -16.3,4.73 -48.69,10.85 -65.95,8.08 -20.28,-3.25 -14.41,-8.63 -19.91,-30.93 -4.44,-18.03 -9.89,-62.63 17.04,-65.05 8.12,-0.73 79.81,-3.95 79.77,7.85 -0.03,8.3 7.66,35.36 4.35,48.39 -0.8,3.14 -4.39,20.66 -6.5,21.61 -6.51,24.83 -42.49,18.36 -61.8,18.43 -1.95,0.01 -28.74,-6.32 -28.98,-11.93 -1.41,0.13 -4.15,-31.16 -2.45,-40.65 8.05,-44.83 -9.11,-40.41 61.13,-46.72"/>
  <path class="fil0 str0" d="M595.95 51.99c16.04,-3.08 20.43,1.17 23.77,17.49 2.93,14.31 -3.47,20.7 -17.57,21.15 -0.19,0.01 -12.22,-4.69 -13.74,-7.82 -4.1,-8.46 -13.87,-12.59 -1.53,-27.87 8.09,-10.03 37.94,-4.04 39.24,10.38 1.05,11.69 -3.84,12.53 -11.91,21.26 -6.1,6.6 -27.1,4.38 -28.1,2.26 -0.4,-0.84 -4.97,-20.6 -4.26,-23.5 0.72,-2.94 7.21,-13.34 12.45,-13.73 14.64,-1.1 27.91,0.01 29.43,16.98 0.93,10.3 -5.1,22.59 -16.23,23.68 -12.04,1.18 -14.84,-3.22 -23.26,-10.3 -0.67,-0.56 -0.88,-1.15 -1.08,-2"/>
  <path class="fil0 str0" d="M625.05 35.42c6.94,-7.83 9.93,20.44 -0.23,7.43 -4.3,-5.51 9.04,-11.03 8.46,-2.24 -3.92,2.54 -7.76,10.26 -9.34,-2.65 -0.22,-1.82 1.55,-3.11 3.19,-3.26"/>
 </g>
</svg>
