<?xml version="1.0" encoding="UTF-8"?>
<!DOCTYPE svg PUBLIC "-//W3C//DTD SVG 1.1//EN" "http://www.w3.org/Graphics/SVG/1.1/DTD/svg11.dtd">
<!-- Creator: CorelDRAW 2019 (64-Bit) -->
<svg xmlns="http://www.w3.org/2000/svg" xml:space="preserve" width="0.487382in" height="0.481433in" version="1.1" style="shape-rendering:geometricPrecision; text-rendering:geometricPrecision; image-rendering:optimizeQuality; fill-rule:evenodd; clip-rule:evenodd"
viewBox="0 0 88.19 87.11"
 xmlns:xlink="http://www.w3.org/1999/xlink"
 xmlns:xodm="http://www.corel.com/coreldraw/odm/2003">
 <defs>
  <style type="text/css">
   <![CDATA[
    .str0 {stroke:#727273;stroke-width:0.88;stroke-miterlimit:2.61313}
    .fil0 {fill:none}
    .fil2 {fill:#FEFEFE;fill-rule:nonzero}
    .fil1 {fill:#5E5E5E;fill-rule:nonzero}
   ]]>
  </style>
 </defs>
 <g id="Layer_x0020_1">
  <metadata id="CorelCorpID_0Corel-Layer"/>
  <path class="fil0 str0" d="M31.13 25.16c-1.38,4.94 -2.71,15.08 -5.69,19.3 -0.06,0.08 -2.07,10.53 -2.65,12.27 -2.35,7 2.22,5.27 2.15,2.64 -0.3,-11.17 10.82,-22.71 8.59,-34.63 -0.69,0 -7.26,23.99 -7.26,27.63 0,8.08 1.04,9.95 -6.41,9.95 -1.09,0 11.04,-37.33 12.38,-37.4 1.48,-0.07 7.08,-1.81 7.08,2.01 2.17,1.12 5.64,28.95 7.9,32.12 1.37,1.92 -1.01,2.15 2.49,2.15 0.08,-0.39 -8.17,-23.5 -8.87,-26.96 -1.29,-6.42 -8.93,-15.36 -2.32,2.87 1.36,3.75 2.25,14.65 4.47,21.03 1.18,3.4 1.27,3.06 7.37,3.06 0,-2.52 -10.7,-32.29 -11.94,-32.51 -0.26,-1.24 -1.71,-0.35 0.85,6.58 1.06,2.88 6.66,27.81 7.11,27.64 2.58,-0.91 8.4,1.06 4.15,-4.61 -0.2,-0.27 -0.5,-0.45 -0.83,-0.42"/>
  <path class="fil0 str0" d="M27.59 49.05c0.01,0 22.03,-1.21 16.27,0.14 -5.24,1.24 -8.97,4.38 -16.27,1.79 -2.91,-1.03 13.55,-0.61 15.92,-0.61"/>
  <path class="fil0 str0" d="M58.99 24.39c6.27,-6.51 6.59,8.69 -1.11,5.05 -4.95,-2.34 4.99,-14.5 5.53,-1.85 0.21,4.89 -8.86,1.4 -4.42,-3.21z"/>
  <path class="fil0 str0" d="M57 34.23c9.83,0 7.08,-2 7.08,12.61 0,1.94 0.72,15.26 -1.49,15.26 -7.41,0 -3,2.39 -5.11,-6.43 -0.2,-0.82 2.02,-28.95 -0.65,-21.43 -0.05,0.14 -1.04,27.48 0.11,27.42 13.92,-0.73 5.32,3.81 7.08,-12.44 0.21,-1.98 0.62,-14.55 -0.61,-14.55 -1.09,0 -3.77,-0.5 -4.42,0.44"/>
  <g>
   <path class="fil1" d="M85.43 42.3l-0.84 0.55 0 0 -0.05 -2.18 -0.16 -2.15 -0.27 -2.12 -0.37 -2.08 -0.47 -2.05 -0.57 -2.01 -0.67 -1.97 -0.76 -1.92 -0.85 -1.87 -0.93 -1.82 -1.02 -1.77 -1.1 -1.72 -1.18 -1.66 -1.26 -1.6 -1.33 -1.53 -1.4 -1.47 -1.47 -1.4 -1.53 -1.33 -1.6 -1.26 -1.66 -1.18 -1.72 -1.1 -1.77 -1.02 -1.82 -0.93 -1.87 -0.85 -1.92 -0.76 -1.96 -0.66 -2.01 -0.57 -2.05 -0.47 -2.08 -0.37 -2.12 -0.27 -2.15 -0.16 -2.17 -0.05 0.81 -0.57 2.18 0.05 2.15 0.16 2.12 0.27 2.08 0.37 2.05 0.47 2.01 0.57 1.97 0.67 1.92 0.76 1.87 0.85 1.82 0.93 1.77 1.02 1.72 1.1 1.66 1.18 1.6 1.26 1.54 1.33 1.47 1.4 1.4 1.47 1.33 1.53 1.26 1.6 1.18 1.66 1.1 1.72 1.02 1.77 0.93 1.82 0.85 1.87 0.76 1.92 0.67 1.97 0.57 2.01 0.47 2.05 0.37 2.08 0.27 2.12 0.16 2.15 0.05 2.18 0 0zm-43.12 42.85l0.81 -0.57 0 0 2.17 -0.05 2.15 -0.16 2.11 -0.27 2.08 -0.37 2.04 -0.47 2 -0.57 1.95 -0.66 1.9 -0.75 1.84 -0.83 1.76 -0.9 1.65 -0.95 1.54 -0.99 1.5 -1.07 1.5 -1.18 1.49 -1.29 1.44 -1.38 1.39 -1.45 1.32 -1.53 1.25 -1.59 1.18 -1.65 1.1 -1.71 1.02 -1.77 0.93 -1.82 0.85 -1.87 0.76 -1.92 0.67 -1.96 0.57 -2.01 0.47 -2.05 0.37 -2.08 0.27 -2.12 0.16 -2.15 0.05 -2.18 0.84 -0.55 -0.05 2.18 -0.16 2.15 -0.27 2.12 -0.37 2.08 -0.47 2.05 -0.57 2.01 -0.67 1.97 -0.76 1.92 -0.85 1.88 -0.94 1.83 -1.02 1.77 -1.1 1.72 -1.18 1.66 -1.26 1.61 -1.34 1.54 -1.41 1.48 -1.49 1.42 -1.58 1.37 -1.69 1.33 -1.82 1.29 -1.89 1.21 -1.89 1.09 -1.89 0.97 -1.91 0.86 -1.94 0.77 -1.98 0.67 -2.02 0.57 -2.05 0.47 -2.09 0.37 -2.12 0.27 -2.15 0.16 -2.18 0.05 0 0zm-42.31 -42.3l0.84 -0.55 0 0 0.05 2.18 0.16 2.15 0.27 2.12 0.37 2.08 0.47 2.05 0.57 2.01 0.67 1.97 0.76 1.92 0.85 1.87 0.93 1.82 1.02 1.77 1.1 1.72 1.18 1.66 1.26 1.6 1.33 1.53 1.4 1.47 1.47 1.4 1.53 1.33 1.6 1.26 1.66 1.18 1.72 1.1 1.77 1.02 1.82 0.93 1.87 0.85 1.92 0.76 1.96 0.66 2.01 0.57 2.05 0.47 2.08 0.37 2.12 0.27 2.15 0.16 2.17 0.05 -0.81 0.57 -2.18 -0.05 -2.15 -0.16 -2.12 -0.27 -2.08 -0.37 -2.05 -0.47 -2.01 -0.57 -1.97 -0.67 -1.92 -0.76 -1.87 -0.85 -1.82 -0.93 -1.77 -1.02 -1.72 -1.1 -1.66 -1.18 -1.6 -1.26 -1.54 -1.33 -1.47 -1.4 -1.4 -1.47 -1.33 -1.53 -1.26 -1.6 -1.18 -1.66 -1.1 -1.72 -1.02 -1.77 -0.93 -1.82 -0.85 -1.87 -0.76 -1.92 -0.67 -1.97 -0.57 -2.01 -0.47 -2.05 -0.37 -2.08 -0.27 -2.12 -0.16 -2.15 -0.05 -2.18 0 0zm43.12 -42.85l-0.81 0.57 0 0 -2.17 0.05 -2.15 0.16 -2.11 0.27 -2.08 0.37 -2.04 0.47 -2 0.57 -1.95 0.66 -1.9 0.75 -1.84 0.83 -1.76 0.9 -1.65 0.95 -1.54 0.99 -1.5 1.07 -1.5 1.18 -1.49 1.29 -1.44 1.38 -1.39 1.45 -1.32 1.53 -1.25 1.59 -1.18 1.65 -1.1 1.71 -1.02 1.77 -0.93 1.82 -0.85 1.87 -0.76 1.92 -0.67 1.96 -0.57 2.01 -0.47 2.05 -0.37 2.08 -0.27 2.12 -0.16 2.15 -0.05 2.18 -0.84 0.55 0.05 -2.18 0.16 -2.15 0.27 -2.12 0.37 -2.08 0.47 -2.05 0.57 -2.01 0.67 -1.97 0.76 -1.92 0.85 -1.88 0.94 -1.83 1.02 -1.77 1.1 -1.72 1.18 -1.66 1.26 -1.61 1.34 -1.54 1.41 -1.48 1.49 -1.42 1.58 -1.37 1.69 -1.33 1.82 -1.29 1.89 -1.21 1.89 -1.09 1.89 -0.97 1.91 -0.86 1.94 -0.77 1.98 -0.67 2.02 -0.57 2.05 -0.47 2.09 -0.37 2.12 -0.27 2.15 -0.16 2.18 -0.05 0 0z"/>
  </g>
  <g>
   <path class="fil2" d="M88.19 44.26l-0.84 0.55 0 0 -0.05 -2.18 -0.16 -2.15 -0.27 -2.12 -0.37 -2.08 -0.47 -2.05 -0.57 -2.01 -0.67 -1.97 -0.76 -1.92 -0.85 -1.87 -0.93 -1.82 -1.02 -1.77 -1.1 -1.72 -1.18 -1.66 -1.26 -1.6 -1.33 -1.53 -1.4 -1.47 -1.47 -1.4 -1.53 -1.33 -1.6 -1.26 -1.66 -1.18 -1.72 -1.1 -1.77 -1.02 -1.82 -0.93 -1.87 -0.85 -1.92 -0.76 -1.96 -0.66 -2.01 -0.57 -2.05 -0.47 -2.08 -0.37 -2.12 -0.27 -2.15 -0.16 -2.17 -0.05 0.81 -0.57 2.18 0.05 2.15 0.16 2.12 0.27 2.08 0.37 2.05 0.47 2.01 0.57 1.97 0.67 1.92 0.76 1.87 0.85 1.82 0.93 1.77 1.02 1.72 1.1 1.66 1.18 1.6 1.26 1.54 1.33 1.47 1.4 1.4 1.47 1.33 1.53 1.26 1.6 1.18 1.66 1.1 1.72 1.02 1.77 0.93 1.82 0.85 1.87 0.76 1.92 0.67 1.97 0.57 2.01 0.47 2.05 0.37 2.08 0.27 2.12 0.16 2.15 0.05 2.18 0 0zm-43.12 42.85l0.81 -0.57 0 0 2.17 -0.05 2.15 -0.16 2.11 -0.27 2.08 -0.37 2.04 -0.47 2 -0.57 1.95 -0.66 1.9 -0.75 1.84 -0.83 1.76 -0.9 1.65 -0.95 1.54 -0.99 1.5 -1.07 1.5 -1.18 1.49 -1.29 1.44 -1.38 1.39 -1.45 1.32 -1.53 1.25 -1.59 1.18 -1.65 1.1 -1.71 1.02 -1.77 0.93 -1.82 0.85 -1.87 0.76 -1.92 0.67 -1.96 0.57 -2.01 0.47 -2.05 0.37 -2.08 0.27 -2.12 0.16 -2.15 0.05 -2.18 0.84 -0.55 -0.05 2.18 -0.16 2.15 -0.27 2.12 -0.37 2.08 -0.47 2.05 -0.57 2.01 -0.67 1.97 -0.76 1.92 -0.85 1.88 -0.94 1.83 -1.02 1.77 -1.1 1.72 -1.18 1.66 -1.26 1.61 -1.34 1.54 -1.41 1.48 -1.49 1.42 -1.58 1.37 -1.69 1.33 -1.82 1.29 -1.89 1.21 -1.89 1.09 -1.89 0.97 -1.91 0.86 -1.94 0.77 -1.98 0.67 -2.02 0.57 -2.05 0.47 -2.09 0.37 -2.12 0.27 -2.15 0.16 -2.18 0.05 0 0zm-42.31 -42.3l0.84 -0.55 0 0 0.05 2.18 0.16 2.15 0.27 2.12 0.37 2.08 0.47 2.05 0.57 2.01 0.67 1.97 0.76 1.92 0.85 1.87 0.93 1.82 1.02 1.77 1.1 1.72 1.18 1.66 1.26 1.6 1.33 1.53 1.4 1.47 1.47 1.4 1.53 1.33 1.6 1.26 1.66 1.18 1.72 1.1 1.77 1.02 1.82 0.93 1.87 0.85 1.92 0.76 1.96 0.66 2.01 0.57 2.05 0.47 2.08 0.37 2.12 0.27 2.15 0.16 2.17 0.05 -0.81 0.57 -2.18 -0.05 -2.15 -0.16 -2.12 -0.27 -2.08 -0.37 -2.05 -0.47 -2.01 -0.57 -1.97 -0.67 -1.92 -0.76 -1.87 -0.85 -1.82 -0.93 -1.77 -1.02 -1.72 -1.1 -1.66 -1.18 -1.6 -1.26 -1.54 -1.33 -1.47 -1.4 -1.4 -1.47 -1.33 -1.53 -1.26 -1.6 -1.18 -1.66 -1.1 -1.72 -1.02 -1.77 -0.93 -1.82 -0.85 -1.87 -0.76 -1.92 -0.67 -1.97 -0.57 -2.01 -0.47 -2.05 -0.37 -2.08 -0.27 -2.12 -0.16 -2.15 -0.05 -2.18 0 0zm43.12 -42.85l-0.81 0.57 0 0 -2.17 0.05 -2.15 0.16 -2.11 0.27 -2.08 0.37 -2.04 0.47 -2 0.57 -1.95 0.66 -1.9 0.75 -1.84 0.83 -1.76 0.9 -1.65 0.95 -1.54 0.99 -1.5 1.07 -1.5 1.18 -1.49 1.29 -1.44 1.38 -1.39 1.45 -1.32 1.53 -1.25 1.59 -1.18 1.65 -1.1 1.71 -1.02 1.77 -0.93 1.82 -0.85 1.87 -0.76 1.92 -0.67 1.96 -0.57 2.01 -0.47 2.05 -0.37 2.08 -0.27 2.12 -0.16 2.15 -0.05 2.18 -0.84 0.55 0.05 -2.18 0.16 -2.15 0.27 -2.12 0.37 -2.08 0.47 -2.05 0.57 -2.01 0.67 -1.97 0.76 -1.92 0.85 -1.88 0.94 -1.83 1.02 -1.77 1.1 -1.72 1.18 -1.66 1.26 -1.61 1.34 -1.54 1.41 -1.48 1.49 -1.42 1.58 -1.37 1.69 -1.33 1.82 -1.29 1.89 -1.21 1.89 -1.09 1.89 -0.97 1.91 -0.86 1.94 -0.77 1.98 -0.67 2.02 -0.57 2.05 -0.47 2.09 -0.37 2.12 -0.27 2.15 -0.16 2.18 -0.05 0 0z"/>
  </g>
 </g>
</svg>
