<?xml version="1.0" encoding="UTF-8"?>
<!DOCTYPE svg PUBLIC "-//W3C//DTD SVG 1.1//EN" "http://www.w3.org/Graphics/SVG/1.1/DTD/svg11.dtd">
<!-- Creator: CorelDRAW 2019 (64-Bit) -->
<svg xmlns="http://www.w3.org/2000/svg" xml:space="preserve" width="0.476409in" height="0.470563in" version="1.1" style="shape-rendering:geometricPrecision; text-rendering:geometricPrecision; image-rendering:optimizeQuality; fill-rule:evenodd; clip-rule:evenodd"
viewBox="0 0 266.14 262.88"
 xmlns:xlink="http://www.w3.org/1999/xlink"
 xmlns:xodm="http://www.corel.com/coreldraw/odm/2003">
 <defs>
  <style type="text/css">
   <![CDATA[
    .str0 {stroke:#727273;stroke-width:2.72;stroke-miterlimit:2.61313}
    .fil2 {fill:none}
    .fil1 {fill:#FEFEFE;fill-rule:nonzero}
    .fil0 {fill:#5E5E5E;fill-rule:nonzero}
   ]]>
  </style>
 </defs>
 <g id="Layer_x0020_1">
  <metadata id="CorelCorpID_0Corel-Layer"/>
  <g>
   <path class="fil0" d="M257.82 127.64l-2.59 1.7 0 0 -0.16 -6.57 -0.49 -6.48 -0.81 -6.38 -1.12 -6.29 -1.43 -6.17 -1.72 -6.05 -2.01 -5.93 -2.29 -5.79 -2.56 -5.65 -2.82 -5.5 -3.07 -5.34 -3.32 -5.18 -3.56 -5 -3.79 -4.82 -4.01 -4.63 -4.23 -4.43 -4.43 -4.23 -4.63 -4.01 -4.82 -3.79 -5 -3.56 -5.18 -3.32 -5.34 -3.07 -5.5 -2.82 -5.65 -2.56 -5.8 -2.29 -5.93 -2 -6.05 -1.72 -6.17 -1.43 -6.28 -1.12 -6.38 -0.81 -6.47 -0.49 -6.56 -0.16 2.52 -1.75 6.57 0.16 6.48 0.5 6.39 0.81 6.29 1.12 6.18 1.43 6.06 1.72 5.93 2.01 5.8 2.29 5.65 2.56 5.51 2.82 5.34 3.07 5.18 3.32 5.01 3.56 4.82 3.79 4.63 4.01 4.43 4.23 4.23 4.43 4.01 4.63 3.79 4.82 3.56 5.01 3.32 5.18 3.07 5.34 2.82 5.51 2.56 5.65 2.29 5.8 2.01 5.93 1.72 6.05 1.43 6.18 1.12 6.29 0.81 6.39 0.49 6.48 0.16 6.57 0 0zm-130.17 129.34l2.52 -1.75 0 0 6.56 -0.16 6.47 -0.49 6.38 -0.81 6.27 -1.12 6.16 -1.42 6.03 -1.71 5.89 -1.99 5.73 -2.26 5.54 -2.51 5.3 -2.71 4.97 -2.85 4.64 -2.98 4.52 -3.21 4.53 -3.56 4.48 -3.88 4.35 -4.15 4.18 -4.39 3.99 -4.6 3.77 -4.8 3.55 -4.99 3.31 -5.17 3.07 -5.34 2.81 -5.5 2.55 -5.65 2.28 -5.79 2.01 -5.93 1.72 -6.05 1.43 -6.17 1.12 -6.28 0.81 -6.38 0.49 -6.48 0.16 -6.57 2.59 -1.7 -0.16 6.57 -0.49 6.48 -0.81 6.39 -1.12 6.29 -1.43 6.18 -1.72 6.06 -2.01 5.93 -2.29 5.8 -2.56 5.66 -2.82 5.51 -3.08 5.35 -3.33 5.19 -3.57 5.02 -3.8 4.84 -4.03 4.66 -4.27 4.48 -4.51 4.3 -4.78 4.14 -5.12 4.02 -5.49 3.9 -5.72 3.67 -5.72 3.29 -5.71 2.93 -5.77 2.61 -5.86 2.31 -5.97 2.02 -6.08 1.73 -6.19 1.43 -6.3 1.12 -6.4 0.81 -6.49 0.5 -6.57 0.16 0 0zm-127.65 -127.64l2.59 -1.7 0 0 0.16 6.57 0.49 6.48 0.81 6.38 1.12 6.28 1.43 6.17 1.72 6.06 2.01 5.93 2.29 5.79 2.56 5.65 2.82 5.5 3.07 5.34 3.32 5.18 3.56 5 3.79 4.82 4.01 4.63 4.22 4.43 4.43 4.22 4.63 4.01 4.82 3.79 5 3.56 5.18 3.32 5.34 3.07 5.5 2.82 5.65 2.56 5.8 2.29 5.93 2 6.05 1.72 6.17 1.43 6.28 1.12 6.38 0.81 6.48 0.49 6.56 0.16 -2.52 1.75 -6.57 -0.16 -6.49 -0.5 -6.39 -0.81 -6.29 -1.12 -6.18 -1.43 -6.06 -1.72 -5.93 -2.01 -5.8 -2.29 -5.65 -2.56 -5.51 -2.82 -5.34 -3.07 -5.18 -3.32 -5.01 -3.56 -4.82 -3.79 -4.63 -4.01 -4.43 -4.22 -4.22 -4.43 -4.01 -4.63 -3.79 -4.82 -3.56 -5.01 -3.32 -5.18 -3.07 -5.34 -2.82 -5.51 -2.56 -5.65 -2.29 -5.8 -2.01 -5.93 -1.72 -6.06 -1.43 -6.18 -1.12 -6.28 -0.81 -6.39 -0.49 -6.48 -0.16 -6.57 0 0zm130.17 -129.34l-2.52 1.75 0 0 -6.56 0.16 -6.47 0.49 -6.38 0.81 -6.27 1.12 -6.16 1.42 -6.03 1.71 -5.89 1.99 -5.73 2.26 -5.54 2.51 -5.3 2.71 -4.97 2.85 -4.64 2.97 -4.52 3.21 -4.53 3.56 -4.48 3.88 -4.35 4.15 -4.18 4.39 -3.99 4.6 -3.77 4.8 -3.55 4.99 -3.31 5.17 -3.07 5.34 -2.81 5.5 -2.55 5.65 -2.28 5.79 -2.01 5.93 -1.72 6.05 -1.43 6.17 -1.12 6.28 -0.81 6.38 -0.49 6.48 -0.16 6.57 -2.59 1.7 0.16 -6.57 0.49 -6.48 0.81 -6.39 1.12 -6.29 1.43 -6.18 1.72 -6.06 2.01 -5.93 2.29 -5.8 2.56 -5.66 2.82 -5.51 3.08 -5.35 3.33 -5.19 3.57 -5.02 3.8 -4.84 4.04 -4.66 4.27 -4.48 4.51 -4.3 4.78 -4.14 5.11 -4.02 5.49 -3.91 5.72 -3.66 5.72 -3.29 5.71 -2.93 5.77 -2.61 5.86 -2.31 5.97 -2.02 6.08 -1.73 6.19 -1.43 6.3 -1.12 6.4 -0.81 6.49 -0.5 6.57 -0.16 0 0z"/>
  </g>
  <g>
   <path class="fil1" d="M266.14 133.54l-2.59 1.7 0 0 -0.16 -6.57 -0.49 -6.48 -0.81 -6.38 -1.12 -6.28 -1.43 -6.17 -1.72 -6.06 -2.01 -5.93 -2.29 -5.79 -2.56 -5.65 -2.82 -5.5 -3.07 -5.34 -3.32 -5.18 -3.56 -5 -3.79 -4.82 -4.01 -4.63 -4.23 -4.43 -4.43 -4.22 -4.63 -4.01 -4.82 -3.79 -5 -3.56 -5.18 -3.32 -5.34 -3.07 -5.5 -2.82 -5.65 -2.56 -5.8 -2.29 -5.93 -2 -6.05 -1.72 -6.17 -1.43 -6.28 -1.12 -6.38 -0.81 -6.47 -0.49 -6.56 -0.16 2.52 -1.75 6.57 0.16 6.48 0.5 6.39 0.81 6.29 1.12 6.18 1.43 6.06 1.72 5.93 2.01 5.8 2.29 5.65 2.56 5.51 2.82 5.34 3.07 5.18 3.32 5.01 3.56 4.82 3.79 4.63 4.01 4.43 4.22 4.23 4.43 4.01 4.63 3.79 4.82 3.56 5.01 3.32 5.18 3.07 5.34 2.82 5.51 2.56 5.65 2.29 5.8 2.01 5.93 1.72 6.06 1.43 6.18 1.12 6.28 0.81 6.39 0.49 6.48 0.16 6.57 0 0zm-130.17 129.34l2.52 -1.75 0 0 6.56 -0.16 6.47 -0.49 6.38 -0.81 6.27 -1.12 6.16 -1.42 6.03 -1.71 5.89 -1.99 5.73 -2.26 5.54 -2.51 5.3 -2.71 4.97 -2.85 4.64 -2.97 4.52 -3.21 4.53 -3.56 4.48 -3.88 4.35 -4.15 4.18 -4.39 3.99 -4.6 3.77 -4.8 3.55 -4.99 3.31 -5.17 3.07 -5.34 2.81 -5.5 2.55 -5.65 2.28 -5.79 2.01 -5.93 1.72 -6.05 1.43 -6.17 1.12 -6.28 0.81 -6.38 0.49 -6.48 0.16 -6.57 2.59 -1.7 -0.16 6.57 -0.49 6.48 -0.81 6.39 -1.12 6.29 -1.43 6.18 -1.72 6.06 -2.01 5.93 -2.29 5.8 -2.56 5.66 -2.82 5.51 -3.08 5.35 -3.33 5.19 -3.57 5.02 -3.8 4.84 -4.03 4.66 -4.27 4.48 -4.51 4.3 -4.78 4.14 -5.11 4.02 -5.49 3.91 -5.72 3.66 -5.72 3.29 -5.71 2.93 -5.77 2.61 -5.86 2.31 -5.97 2.02 -6.08 1.73 -6.19 1.43 -6.3 1.12 -6.4 0.81 -6.49 0.5 -6.57 0.16 0 0zm-127.65 -127.64l2.59 -1.7 0 0 0.16 6.57 0.49 6.48 0.81 6.38 1.12 6.29 1.43 6.17 1.72 6.05 2.01 5.93 2.29 5.79 2.56 5.65 2.82 5.5 3.07 5.34 3.32 5.18 3.56 5 3.79 4.82 4.01 4.63 4.22 4.43 4.43 4.23 4.63 4.01 4.82 3.79 5 3.56 5.18 3.32 5.34 3.07 5.5 2.82 5.65 2.56 5.8 2.29 5.93 2 6.05 1.72 6.17 1.43 6.28 1.12 6.38 0.81 6.48 0.49 6.56 0.16 -2.52 1.75 -6.57 -0.16 -6.49 -0.5 -6.39 -0.81 -6.29 -1.12 -6.18 -1.43 -6.06 -1.72 -5.93 -2.01 -5.8 -2.29 -5.65 -2.56 -5.51 -2.82 -5.34 -3.07 -5.18 -3.32 -5.01 -3.56 -4.82 -3.79 -4.63 -4.01 -4.43 -4.23 -4.22 -4.43 -4.01 -4.63 -3.79 -4.82 -3.56 -5.01 -3.32 -5.18 -3.07 -5.34 -2.82 -5.51 -2.56 -5.65 -2.29 -5.8 -2.01 -5.93 -1.72 -6.05 -1.43 -6.18 -1.12 -6.29 -0.81 -6.39 -0.49 -6.48 -0.16 -6.57 0 0zm130.17 -129.34l-2.52 1.75 0 0 -6.56 0.16 -6.47 0.49 -6.38 0.81 -6.27 1.12 -6.16 1.42 -6.03 1.71 -5.89 1.99 -5.73 2.26 -5.54 2.51 -5.3 2.71 -4.97 2.85 -4.64 2.98 -4.52 3.21 -4.53 3.56 -4.48 3.88 -4.35 4.15 -4.18 4.39 -3.99 4.6 -3.77 4.8 -3.55 4.99 -3.31 5.17 -3.07 5.34 -2.81 5.5 -2.55 5.65 -2.28 5.79 -2.01 5.93 -1.72 6.05 -1.43 6.17 -1.12 6.28 -0.81 6.38 -0.49 6.48 -0.16 6.57 -2.59 1.7 0.16 -6.57 0.49 -6.48 0.81 -6.39 1.12 -6.29 1.43 -6.18 1.72 -6.06 2.01 -5.93 2.29 -5.8 2.56 -5.66 2.82 -5.51 3.08 -5.35 3.33 -5.19 3.57 -5.02 3.8 -4.84 4.04 -4.66 4.27 -4.48 4.51 -4.3 4.78 -4.14 5.12 -4.02 5.49 -3.9 5.72 -3.67 5.72 -3.29 5.71 -2.93 5.77 -2.61 5.86 -2.31 5.97 -2.02 6.08 -1.73 6.19 -1.43 6.3 -1.12 6.4 -0.81 6.49 -0.5 6.57 -0.16 0 0z"/>
  </g>
  <path class="fil2 str0" d="M57.23 69.99c0,31.06 7.86,69.62 7.07,104.93 -0.01,0.17 1.44,14.58 1.54,15.18 0.03,0.18 13.14,2.13 11.56,-3.63 -1.88,-6.85 -0.59,-95.57 -0.59,-116.28 -0.68,1.23 8.39,19.79 -0.35,24.37 -3.76,1.97 -5.9,93.25 -7.21,93.46 -8.11,1.33 -6.8,-6.95 -7.17,-17.72 -0.84,-25.39 3.65,-43.7 1.1,-73.16 -0.57,-6.6 1.11,-9.73 1.72,-15.04 7.19,-4.34 39.02,-1.34 47.25,1.89 9.31,3.66 8.3,9.41 9.29,22.62 1.61,21.44 -16.07,34.14 -36.61,29.31 -27.07,-6.36 7.88,27.78 40.23,-12.1 9.95,-12.26 6.65,-48.92 -28.32,-48.92 -1.03,0 -48.86,0.79 -32.95,-3.97 24.81,-7.41 74.89,-7.28 72.29,28.34 -1.74,23.91 -10.44,47.39 -36.83,47.39 -42.12,0 13.61,7.9 20.52,2.18 6.13,-5.08 18.25,-5.57 20.12,-22.2 1.98,-17.68 1.78,-40.62 -17.61,-46.17l-1.41 -0.68"/>
  <path class="fil2 str0" d="M214.26 103.69c-20.81,0.6 -31.09,-9.36 -50.06,3.71 -14.38,9.91 -6.61,31.43 4.4,41.96 2.72,2.6 33.05,6 26.5,24.46 -5.36,15.11 -37.15,-2.51 -38.92,-2.72 -0.02,0.07 1.24,19.06 2.86,19.02 13.91,-0.35 57.79,7.65 56.35,-22.38 -2.06,-42.99 -56.42,-16.4 -37.96,-41.81 7.84,-10.79 33.57,2.01 37.51,-7.57 8.11,-19.67 -8.79,-11.96 -20.12,-11.96 -19.37,0 -29.54,7.42 -27.38,27.77 1.3,12.17 38.11,8.78 38.11,33.85 0,28.67 -42.96,11.48 -43.89,13.68 -5.64,13.26 58.03,22.78 58.03,-28.01 -5.84,-2.02 -45.96,-14.61 -47.16,-19.93 -6.26,-27.69 27.83,-20.29 38.6,-13.92 0.84,0.49 0.29,-0.15 1.49,0.68"/>
 </g>
</svg>
