<?xml version="1.0" encoding="UTF-8"?>
<!DOCTYPE svg PUBLIC "-//W3C//DTD SVG 1.1//EN" "http://www.w3.org/Graphics/SVG/1.1/DTD/svg11.dtd">
<!-- Creator: CorelDRAW 2019 (64-Bit) -->
<svg xmlns="http://www.w3.org/2000/svg" xml:space="preserve" width="0.308402in" height="0.304102in" version="1.1" style="shape-rendering:geometricPrecision; text-rendering:geometricPrecision; image-rendering:optimizeQuality; fill-rule:evenodd; clip-rule:evenodd"
viewBox="0 0 29.41 29"
 xmlns:xlink="http://www.w3.org/1999/xlink"
 xmlns:xodm="http://www.corel.com/coreldraw/odm/2003">
 <defs>
  <style type="text/css">
   <![CDATA[
    .str0 {stroke:#727273;stroke-width:0.46;stroke-miterlimit:2.61313}
    .fil2 {fill:none}
    .fil0 {fill:#FEFEFE;fill-rule:nonzero}
    .fil1 {fill:#727273;fill-rule:nonzero}
   ]]>
  </style>
 </defs>
 <g id="Layer_x0020_1">
  <metadata id="CorelCorpID_0Corel-Layer"/>
  <g id="_1600752284064">
   <g>
    <path class="fil0" d="M28.5 14.03l-0.44 0.29 0 0 -0.02 -0.72 -0.05 -0.71 -0.09 -0.7 -0.12 -0.69 -0.16 -0.68 -0.19 -0.67 -0.22 -0.65 -0.25 -0.64 -0.28 -0.62 -0.31 -0.6 -0.34 -0.59 -0.36 -0.57 -0.39 -0.55 -0.42 -0.53 -0.44 -0.51 -0.46 -0.49 -0.49 -0.46 -0.51 -0.44 -0.53 -0.42 -0.55 -0.39 -0.57 -0.36 -0.59 -0.34 -0.6 -0.31 -0.62 -0.28 -0.64 -0.25 -0.65 -0.22 -0.67 -0.19 -0.68 -0.16 -0.69 -0.12 -0.7 -0.09 -0.71 -0.05 -0.72 -0.02 0.43 -0.3 0.72 0.02 0.71 0.05 0.7 0.09 0.69 0.12 0.68 0.16 0.67 0.19 0.65 0.22 0.64 0.25 0.62 0.28 0.61 0.31 0.59 0.34 0.57 0.36 0.55 0.39 0.53 0.42 0.51 0.44 0.49 0.46 0.46 0.49 0.44 0.51 0.42 0.53 0.39 0.55 0.36 0.57 0.34 0.59 0.31 0.61 0.28 0.62 0.25 0.64 0.22 0.65 0.19 0.67 0.16 0.68 0.12 0.69 0.09 0.7 0.05 0.71 0.02 0.72 0 0zm-14.46 14.32l0.43 -0.3 0 0 0.72 -0.02 0.71 -0.05 0.7 -0.09 0.69 -0.12 0.68 -0.16 0.66 -0.19 0.64 -0.22 0.63 -0.25 0.6 -0.27 0.57 -0.29 0.52 -0.3 0.48 -0.31 0.47 -0.33 0.48 -0.38 0.48 -0.42 0.47 -0.45 0.46 -0.48 0.44 -0.5 0.41 -0.53 0.39 -0.55 0.36 -0.57 0.34 -0.59 0.31 -0.6 0.28 -0.62 0.25 -0.64 0.22 -0.65 0.19 -0.66 0.16 -0.68 0.12 -0.69 0.09 -0.7 0.05 -0.71 0.02 -0.72 0.44 -0.29 -0.02 0.72 -0.05 0.71 -0.09 0.7 -0.12 0.69 -0.16 0.68 -0.19 0.67 -0.22 0.65 -0.25 0.64 -0.28 0.62 -0.31 0.61 -0.34 0.59 -0.37 0.57 -0.39 0.55 -0.42 0.53 -0.45 0.51 -0.47 0.49 -0.5 0.48 -0.53 0.46 -0.58 0.46 -0.63 0.45 -0.66 0.42 -0.65 0.38 -0.64 0.33 -0.64 0.29 -0.65 0.26 -0.66 0.22 -0.67 0.19 -0.68 0.16 -0.69 0.12 -0.7 0.09 -0.71 0.05 -0.72 0.02 0 0zm-14.03 -14.03l0.44 -0.29 0 0 0.02 0.72 0.05 0.71 0.09 0.7 0.12 0.69 0.16 0.68 0.19 0.67 0.22 0.65 0.25 0.64 0.28 0.62 0.31 0.6 0.34 0.59 0.36 0.57 0.39 0.55 0.42 0.53 0.44 0.51 0.46 0.49 0.49 0.46 0.51 0.44 0.53 0.42 0.55 0.39 0.57 0.36 0.59 0.34 0.6 0.31 0.62 0.28 0.64 0.25 0.65 0.22 0.67 0.19 0.68 0.16 0.69 0.12 0.7 0.09 0.71 0.05 0.72 0.02 -0.43 0.3 -0.72 -0.02 -0.71 -0.05 -0.7 -0.09 -0.69 -0.12 -0.68 -0.16 -0.67 -0.19 -0.65 -0.22 -0.64 -0.25 -0.62 -0.28 -0.61 -0.31 -0.59 -0.34 -0.57 -0.36 -0.55 -0.39 -0.53 -0.42 -0.51 -0.44 -0.49 -0.46 -0.46 -0.49 -0.44 -0.51 -0.42 -0.53 -0.39 -0.55 -0.36 -0.57 -0.34 -0.59 -0.31 -0.61 -0.28 -0.62 -0.25 -0.64 -0.22 -0.65 -0.19 -0.67 -0.16 -0.68 -0.12 -0.69 -0.09 -0.7 -0.05 -0.71 -0.02 -0.72 0 0zm14.46 -14.32l-0.43 0.3 0 0 -0.72 0.02 -0.71 0.05 -0.7 0.09 -0.69 0.12 -0.68 0.16 -0.66 0.19 -0.65 0.22 -0.63 0.25 -0.6 0.27 -0.57 0.29 -0.52 0.3 -0.48 0.31 -0.47 0.33 -0.48 0.38 -0.48 0.42 -0.47 0.45 -0.46 0.48 -0.44 0.5 -0.41 0.53 -0.39 0.55 -0.36 0.57 -0.34 0.59 -0.31 0.6 -0.28 0.62 -0.25 0.64 -0.22 0.65 -0.19 0.66 -0.16 0.68 -0.12 0.69 -0.09 0.7 -0.05 0.71 -0.02 0.72 -0.44 0.29 0.02 -0.72 0.05 -0.71 0.09 -0.7 0.12 -0.69 0.16 -0.68 0.19 -0.67 0.22 -0.65 0.25 -0.64 0.28 -0.62 0.31 -0.61 0.34 -0.59 0.37 -0.57 0.39 -0.55 0.42 -0.53 0.45 -0.51 0.47 -0.49 0.5 -0.48 0.53 -0.46 0.58 -0.46 0.63 -0.45 0.66 -0.42 0.65 -0.38 0.64 -0.33 0.64 -0.29 0.65 -0.26 0.66 -0.22 0.67 -0.19 0.68 -0.16 0.69 -0.12 0.7 -0.09 0.71 -0.05 0.72 -0.02 0 0z"/>
   </g>
   <g>
    <path class="fil1" d="M29.41 14.68l-0.44 0.29 0 0 -0.02 -0.72 -0.05 -0.71 -0.09 -0.7 -0.12 -0.69 -0.16 -0.68 -0.19 -0.67 -0.22 -0.65 -0.25 -0.64 -0.28 -0.62 -0.31 -0.6 -0.34 -0.59 -0.36 -0.57 -0.39 -0.55 -0.42 -0.53 -0.44 -0.51 -0.46 -0.49 -0.49 -0.46 -0.51 -0.44 -0.53 -0.42 -0.55 -0.39 -0.57 -0.36 -0.59 -0.34 -0.6 -0.31 -0.62 -0.28 -0.64 -0.25 -0.65 -0.22 -0.67 -0.19 -0.68 -0.16 -0.69 -0.12 -0.7 -0.09 -0.71 -0.05 -0.72 -0.02 0.43 -0.3 0.72 0.02 0.71 0.05 0.7 0.09 0.69 0.12 0.68 0.16 0.67 0.19 0.65 0.22 0.64 0.25 0.62 0.28 0.61 0.31 0.59 0.34 0.57 0.36 0.55 0.39 0.53 0.42 0.51 0.44 0.49 0.46 0.46 0.49 0.44 0.51 0.42 0.53 0.39 0.55 0.36 0.57 0.34 0.59 0.31 0.61 0.28 0.62 0.25 0.64 0.22 0.65 0.19 0.67 0.16 0.68 0.12 0.69 0.09 0.7 0.05 0.71 0.02 0.72 0 0zm-14.46 14.32l0.43 -0.3 0 0 0.72 -0.02 0.71 -0.05 0.7 -0.09 0.69 -0.12 0.68 -0.16 0.66 -0.19 0.65 -0.22 0.63 -0.25 0.6 -0.27 0.57 -0.29 0.52 -0.3 0.48 -0.31 0.47 -0.33 0.48 -0.38 0.48 -0.42 0.47 -0.45 0.46 -0.48 0.44 -0.5 0.41 -0.53 0.39 -0.55 0.36 -0.57 0.34 -0.59 0.31 -0.6 0.28 -0.62 0.25 -0.64 0.22 -0.65 0.19 -0.66 0.16 -0.68 0.12 -0.69 0.09 -0.7 0.05 -0.71 0.02 -0.72 0.44 -0.29 -0.02 0.72 -0.05 0.71 -0.09 0.7 -0.12 0.69 -0.16 0.68 -0.19 0.67 -0.22 0.65 -0.25 0.64 -0.28 0.62 -0.31 0.61 -0.34 0.59 -0.37 0.57 -0.39 0.55 -0.42 0.53 -0.45 0.51 -0.47 0.49 -0.5 0.48 -0.53 0.46 -0.58 0.46 -0.63 0.45 -0.66 0.42 -0.65 0.38 -0.64 0.33 -0.64 0.29 -0.65 0.26 -0.66 0.22 -0.67 0.19 -0.68 0.16 -0.69 0.12 -0.7 0.09 -0.71 0.05 -0.72 0.02 0 0zm-14.03 -14.03l0.44 -0.29 0 0 0.02 0.72 0.05 0.71 0.09 0.7 0.12 0.69 0.16 0.68 0.19 0.67 0.22 0.65 0.25 0.64 0.28 0.62 0.31 0.6 0.34 0.59 0.36 0.57 0.39 0.55 0.42 0.53 0.44 0.51 0.46 0.49 0.49 0.46 0.51 0.44 0.53 0.42 0.55 0.39 0.57 0.36 0.59 0.34 0.6 0.31 0.62 0.28 0.64 0.25 0.65 0.22 0.67 0.19 0.68 0.16 0.69 0.12 0.7 0.09 0.71 0.05 0.72 0.02 -0.43 0.3 -0.72 -0.02 -0.71 -0.05 -0.7 -0.09 -0.69 -0.12 -0.68 -0.16 -0.67 -0.19 -0.65 -0.22 -0.64 -0.25 -0.62 -0.28 -0.61 -0.31 -0.59 -0.34 -0.57 -0.36 -0.55 -0.39 -0.53 -0.42 -0.51 -0.44 -0.49 -0.46 -0.46 -0.49 -0.44 -0.51 -0.42 -0.53 -0.39 -0.55 -0.36 -0.57 -0.34 -0.59 -0.31 -0.61 -0.28 -0.62 -0.25 -0.64 -0.22 -0.65 -0.19 -0.67 -0.16 -0.68 -0.12 -0.69 -0.09 -0.7 -0.05 -0.71 -0.02 -0.72 0 0zm14.46 -14.32l-0.43 0.3 0 0 -0.72 0.02 -0.71 0.05 -0.7 0.09 -0.69 0.12 -0.68 0.16 -0.66 0.19 -0.64 0.22 -0.63 0.25 -0.6 0.27 -0.57 0.29 -0.52 0.3 -0.48 0.31 -0.47 0.33 -0.48 0.38 -0.48 0.42 -0.47 0.45 -0.46 0.48 -0.44 0.5 -0.41 0.53 -0.39 0.55 -0.36 0.57 -0.34 0.59 -0.31 0.6 -0.28 0.62 -0.25 0.64 -0.22 0.65 -0.19 0.66 -0.16 0.68 -0.12 0.69 -0.09 0.7 -0.05 0.71 -0.02 0.72 -0.44 0.29 0.02 -0.72 0.05 -0.71 0.09 -0.7 0.12 -0.69 0.16 -0.68 0.19 -0.67 0.22 -0.65 0.25 -0.64 0.28 -0.62 0.31 -0.61 0.34 -0.59 0.37 -0.57 0.39 -0.55 0.42 -0.53 0.45 -0.51 0.47 -0.49 0.5 -0.48 0.53 -0.46 0.58 -0.46 0.63 -0.45 0.66 -0.42 0.65 -0.38 0.64 -0.33 0.64 -0.29 0.65 -0.26 0.66 -0.22 0.67 -0.19 0.68 -0.16 0.69 -0.12 0.7 -0.09 0.71 -0.05 0.72 -0.02 0 0z"/>
   </g>
   <path class="fil2 str0" d="M4.78 8.85c0.88,1.87 3.95,3.71 5.2,5.3 1.3,1.65 3.1,2.06 4.06,4.27 0.32,0.74 4,6.91 2.59,6.91 -0.77,0 -4.64,-2.66 -6.13,-3.18 -2.36,-0.82 -5.43,-5.93 -8.27,-7.36 -0.69,-0.35 1.71,1.66 1.91,2.07 0.63,1.3 5.25,4.38 6.85,5.1 1.21,0.54 3.09,1.73 4.58,1.99 0.44,0.08 1.28,1.73 0.13,-1.02 -0.79,-1.87 -1.95,-4.05 -3.36,-5.52 -0.03,-0.03 -9.72,-10.54 -7.5,-7.19 0.98,1.48 5.43,4.28 7.61,7.39 0.26,0.37 3.96,5.91 3,5.83 -2.54,-0.22 -6.47,-3.98 -7.9,-5.97 -0.02,-0.02 -5.61,-5.18 -4.21,-5.13 1.62,0.06 4.94,6.7 7.52,6.47 1.34,-0.12 1.23,0.79 1.07,-0.99 -0.11,-1.2 1.63,2.58 -2.32,0.71 -2.31,-1.09 -3.85,-2.26 -5.3,-4.36 -0.87,-1.27 -1.22,2.75 5.75,6.18 0.28,0.14 5.19,2.6 4.2,1.85l-0.07 -0.13"/>
   <path class="fil2 str0" d="M17.19 18.06c0.49,0 4.33,0.42 4.28,0.5 -1.65,3 0.88,2.17 -2.84,2.32 -0.43,0.02 -1.36,-2.47 -0.87,-2.45 0.41,0.02 3.58,0.05 3.55,0.13 -0.83,2.24 0.35,1.95 -3.05,2.2 -0.85,0.06 -0.75,-1.53 -0.75,-2.14"/>
   <path class="fil2 str0" d="M16.1 3.87c0.06,1.78 0.46,3.06 0.88,5.21 0.32,1.69 0.77,3 1.13,4.49 0.23,0.93 0.66,2.02 0.84,2.8 0.04,0.19 0.82,0.23 0.82,0.1 0,-2.06 0.57,-3.14 0.53,-5.09 -0.02,-0.89 0.97,-3.24 1.16,-4.45 0.29,-1.74 0.69,-0.17 0.42,0.54 -0.46,1.19 -0.36,2.53 -0.85,3.9 -0.53,1.49 -0.83,2.91 -1.2,4.47 -0.02,0.07 -0.36,0.89 -0.7,0.09 -0.75,-1.77 -0.45,-1.86 -0.79,-3.71 -0.33,-1.77 -1.24,-3.5 -1.24,-5.31 0,-0.48 -0.47,-2.93 -0.47,-2.92 0,0.5 0.19,0.6 0.19,0.97"/>
   <path class="fil2 str0" d="M23.93 8.75c0,0 -0.54,1.19 -0.66,1.58 0.78,-1.86 -2.31,5.43 -2.62,5.89 -0.01,0.01 0.94,-0.5 1.15,-1.06 0.59,-1.52 1.7,-3.52 2.58,-4.91 0.12,-0.19 0.41,-0.98 0.52,-1.05 -0.11,0.74 -1.56,2.89 -1.95,4.02 -0.26,0.74 -1.37,3.15 -2.24,3.2 -0.03,-0.08 0.99,-1.56 1.13,-2.04 0.43,-1.53 0.81,-3.42 1.64,-4.75 0.07,-0.12 0.26,-0.67 0.42,-0.69"/>
   <path class="fil2 str0" d="M25.34 11.29c-0.74,0.46 -2.02,2.19 -2.36,3.05 -0.12,0.32 2.76,-3.19 2.73,-3.46"/>
   <path class="fil2 str0" d="M12.69 3.91c0,0 0.84,1.83 1.02,2.44 -1.21,-2.88 3.57,8.38 4.05,9.08 0.01,0.01 -1.45,-0.78 -1.78,-1.63 -0.91,-2.34 -2.63,-5.43 -3.99,-7.58 -0.19,-0.3 -0.63,-1.51 -0.81,-1.62 0.17,1.14 2.4,4.46 3.01,6.21 0.4,1.14 2.12,4.86 3.46,4.94 0.05,-0.12 -1.53,-2.41 -1.74,-3.15 -0.67,-2.37 -1.25,-5.27 -2.53,-7.33 -0.11,-0.18 -0.4,-1.03 -0.65,-1.07"/>
   <path class="fil2 str0" d="M9.34 4.61c1.31,1.18 3.96,5.67 4.81,7.91 0.31,0.82 -5.47,-8.25 -5.54,-8.97"/>
  </g>
 </g>
</svg>
