<?xml version="1.0" encoding="UTF-8"?>
<!DOCTYPE svg PUBLIC "-//W3C//DTD SVG 1.1//EN" "http://www.w3.org/Graphics/SVG/1.1/DTD/svg11.dtd">
<!-- Creator: CorelDRAW 2019 (64-Bit) -->
<svg xmlns="http://www.w3.org/2000/svg" xml:space="preserve" width="0.286634in" height="0.282531in" version="1.1" style="shape-rendering:geometricPrecision; text-rendering:geometricPrecision; image-rendering:optimizeQuality; fill-rule:evenodd; clip-rule:evenodd"
viewBox="0 0 99.87 98.44"
 xmlns:xlink="http://www.w3.org/1999/xlink"
 xmlns:xodm="http://www.corel.com/coreldraw/odm/2003">
 <defs>
  <style type="text/css">
   <![CDATA[
    .str0 {stroke:#727273;stroke-width:1.69;stroke-miterlimit:2.61313}
    .fil2 {fill:none}
    .fil1 {fill:#FEFEFE;fill-rule:nonzero}
    .fil0 {fill:#5E5E5E;fill-rule:nonzero}
   ]]>
  </style>
 </defs>
 <g id="Layer_x0020_1">
  <metadata id="CorelCorpID_0Corel-Layer"/>
  <g id="_1600544559584">
   <g>
    <path class="fil0" d="M96.77 47.59l-1.62 1.06 0 0 -0.06 -2.45 -0.18 -2.41 -0.3 -2.38 -0.42 -2.34 -0.53 -2.3 -0.64 -2.26 -0.75 -2.21 -0.85 -2.16 -0.95 -2.11 -1.05 -2.05 -1.15 -1.99 -1.24 -1.93 -1.33 -1.86 -1.41 -1.8 -1.5 -1.73 -1.57 -1.65 -1.65 -1.57 -1.72 -1.5 -1.8 -1.41 -1.86 -1.33 -1.93 -1.24 -1.99 -1.15 -2.05 -1.05 -2.11 -0.95 -2.16 -0.85 -2.21 -0.75 -2.26 -0.64 -2.3 -0.53 -2.34 -0.42 -2.38 -0.3 -2.41 -0.18 -2.45 -0.06 1.57 -1.09 2.45 0.06 2.42 0.19 2.38 0.3 2.34 0.42 2.3 0.53 2.26 0.64 2.21 0.75 2.16 0.85 2.11 0.95 2.05 1.05 1.99 1.15 1.93 1.24 1.87 1.33 1.8 1.41 1.73 1.5 1.65 1.57 1.57 1.65 1.5 1.73 1.41 1.8 1.33 1.87 1.24 1.93 1.15 1.99 1.05 2.05 0.95 2.11 0.85 2.16 0.75 2.21 0.64 2.26 0.53 2.3 0.42 2.34 0.3 2.38 0.18 2.42 0.06 2.45 0 0zm-49.17 48.65l1.57 -1.09 0 0 2.44 -0.06 2.41 -0.18 2.37 -0.3 2.33 -0.42 2.29 -0.53 2.24 -0.64 2.18 -0.74 2.12 -0.84 2.04 -0.92 1.92 -0.98 1.76 -1.01 1.6 -1.02 1.56 -1.11 1.62 -1.27 1.63 -1.41 1.6 -1.53 1.55 -1.63 1.48 -1.71 1.4 -1.78 1.32 -1.86 1.23 -1.92 1.14 -1.99 1.05 -2.05 0.95 -2.1 0.85 -2.16 0.75 -2.21 0.64 -2.26 0.53 -2.3 0.42 -2.34 0.3 -2.38 0.18 -2.41 0.06 -2.45 1.62 -1.06 -0.06 2.45 -0.18 2.42 -0.3 2.38 -0.42 2.34 -0.53 2.3 -0.64 2.26 -0.75 2.21 -0.85 2.16 -0.95 2.11 -1.05 2.05 -1.15 2 -1.24 1.94 -1.33 1.87 -1.42 1.81 -1.51 1.74 -1.6 1.68 -1.7 1.62 -1.82 1.58 -1.98 1.56 -2.17 1.54 -2.27 1.45 -2.22 1.28 -2.18 1.12 -2.18 0.98 -2.2 0.87 -2.24 0.76 -2.27 0.65 -2.31 0.53 -2.35 0.42 -2.39 0.3 -2.42 0.19 -2.45 0.06 0 0zm-47.6 -47.59l1.62 -1.06 0 0 0.06 2.45 0.18 2.41 0.3 2.38 0.42 2.34 0.53 2.3 0.64 2.26 0.75 2.21 0.85 2.16 0.95 2.11 1.05 2.05 1.15 1.99 1.24 1.93 1.33 1.86 1.41 1.8 1.5 1.73 1.57 1.65 1.65 1.57 1.72 1.5 1.8 1.41 1.86 1.33 1.93 1.24 1.99 1.15 2.05 1.05 2.11 0.95 2.16 0.85 2.21 0.75 2.26 0.64 2.3 0.53 2.34 0.42 2.38 0.3 2.41 0.18 2.45 0.06 -1.57 1.09 -2.45 -0.06 -2.42 -0.19 -2.38 -0.3 -2.34 -0.42 -2.3 -0.53 -2.26 -0.64 -2.21 -0.75 -2.16 -0.85 -2.11 -0.95 -2.05 -1.05 -1.99 -1.15 -1.93 -1.24 -1.87 -1.33 -1.8 -1.41 -1.73 -1.5 -1.65 -1.57 -1.57 -1.65 -1.5 -1.73 -1.41 -1.8 -1.33 -1.87 -1.24 -1.93 -1.15 -1.99 -1.05 -2.05 -0.95 -2.11 -0.85 -2.16 -0.75 -2.21 -0.64 -2.26 -0.53 -2.3 -0.42 -2.34 -0.3 -2.38 -0.18 -2.42 -0.06 -2.45 0 0zm49.17 -48.65l-1.57 1.09 0 0 -2.44 0.06 -2.41 0.18 -2.37 0.3 -2.33 0.42 -2.29 0.53 -2.24 0.64 -2.18 0.74 -2.12 0.84 -2.04 0.92 -1.92 0.98 -1.76 1.01 -1.6 1.02 -1.56 1.11 -1.62 1.27 -1.63 1.41 -1.6 1.53 -1.55 1.63 -1.48 1.71 -1.4 1.79 -1.32 1.86 -1.23 1.92 -1.14 1.99 -1.05 2.05 -0.95 2.11 -0.85 2.16 -0.75 2.21 -0.64 2.26 -0.53 2.3 -0.42 2.34 -0.3 2.38 -0.18 2.41 -0.06 2.45 -1.62 1.06 0.06 -2.45 0.18 -2.42 0.3 -2.38 0.42 -2.34 0.53 -2.3 0.64 -2.26 0.75 -2.21 0.85 -2.16 0.95 -2.11 1.05 -2.05 1.15 -2 1.24 -1.94 1.33 -1.87 1.42 -1.81 1.51 -1.74 1.6 -1.68 1.7 -1.62 1.82 -1.58 1.98 -1.56 2.17 -1.54 2.27 -1.45 2.22 -1.28 2.18 -1.12 2.18 -0.98 2.2 -0.87 2.24 -0.76 2.27 -0.65 2.31 -0.53 2.35 -0.42 2.39 -0.3 2.42 -0.19 2.45 -0.06 0 0z"/>
   </g>
   <g>
    <path class="fil1" d="M99.87 49.79l-1.62 1.06 0 0 -0.06 -2.45 -0.18 -2.41 -0.3 -2.38 -0.42 -2.34 -0.53 -2.3 -0.64 -2.26 -0.75 -2.21 -0.85 -2.16 -0.95 -2.11 -1.05 -2.05 -1.15 -1.99 -1.24 -1.93 -1.33 -1.86 -1.41 -1.8 -1.5 -1.73 -1.57 -1.65 -1.65 -1.57 -1.72 -1.5 -1.8 -1.41 -1.86 -1.33 -1.93 -1.24 -1.99 -1.15 -2.05 -1.05 -2.11 -0.95 -2.16 -0.85 -2.21 -0.75 -2.26 -0.64 -2.3 -0.53 -2.34 -0.42 -2.38 -0.3 -2.41 -0.18 -2.45 -0.06 1.57 -1.09 2.45 0.06 2.42 0.19 2.38 0.3 2.34 0.42 2.3 0.53 2.26 0.64 2.21 0.75 2.16 0.85 2.11 0.95 2.05 1.05 1.99 1.15 1.93 1.24 1.87 1.33 1.8 1.41 1.73 1.5 1.65 1.57 1.57 1.65 1.5 1.73 1.41 1.8 1.33 1.87 1.24 1.93 1.15 1.99 1.05 2.05 0.95 2.11 0.85 2.16 0.75 2.21 0.64 2.26 0.53 2.3 0.42 2.34 0.3 2.38 0.18 2.42 0.06 2.45 0 0zm-49.17 48.65l1.57 -1.09 0 0 2.44 -0.06 2.41 -0.18 2.37 -0.3 2.33 -0.42 2.29 -0.53 2.24 -0.64 2.18 -0.74 2.12 -0.84 2.04 -0.92 1.92 -0.98 1.76 -1.01 1.6 -1.02 1.56 -1.11 1.62 -1.27 1.63 -1.41 1.6 -1.53 1.55 -1.63 1.48 -1.71 1.4 -1.79 1.32 -1.86 1.23 -1.92 1.14 -1.99 1.05 -2.05 0.95 -2.11 0.85 -2.16 0.75 -2.21 0.64 -2.26 0.53 -2.3 0.42 -2.34 0.3 -2.38 0.18 -2.41 0.06 -2.45 1.62 -1.06 -0.06 2.45 -0.18 2.42 -0.3 2.38 -0.42 2.34 -0.53 2.3 -0.64 2.26 -0.75 2.21 -0.85 2.16 -0.95 2.11 -1.05 2.05 -1.15 2 -1.24 1.94 -1.33 1.87 -1.42 1.81 -1.51 1.74 -1.6 1.68 -1.7 1.62 -1.82 1.58 -1.98 1.56 -2.17 1.54 -2.27 1.45 -2.22 1.28 -2.18 1.12 -2.18 0.98 -2.2 0.87 -2.24 0.76 -2.27 0.65 -2.31 0.53 -2.35 0.42 -2.39 0.3 -2.42 0.19 -2.45 0.06 0 0zm-47.6 -47.59l1.62 -1.06 0 0 0.06 2.45 0.18 2.41 0.3 2.38 0.42 2.34 0.53 2.3 0.64 2.26 0.75 2.21 0.85 2.16 0.95 2.11 1.05 2.05 1.15 1.99 1.24 1.93 1.33 1.86 1.41 1.8 1.5 1.73 1.57 1.65 1.65 1.57 1.72 1.5 1.8 1.41 1.86 1.33 1.93 1.24 1.99 1.15 2.05 1.05 2.11 0.95 2.16 0.85 2.21 0.75 2.26 0.64 2.3 0.53 2.34 0.42 2.38 0.3 2.41 0.18 2.45 0.06 -1.57 1.09 -2.45 -0.06 -2.42 -0.19 -2.38 -0.3 -2.34 -0.42 -2.3 -0.53 -2.26 -0.64 -2.21 -0.75 -2.16 -0.85 -2.11 -0.95 -2.05 -1.05 -1.99 -1.15 -1.93 -1.24 -1.87 -1.33 -1.8 -1.41 -1.73 -1.5 -1.65 -1.57 -1.57 -1.65 -1.5 -1.73 -1.41 -1.8 -1.33 -1.87 -1.24 -1.93 -1.15 -1.99 -1.05 -2.05 -0.95 -2.11 -0.85 -2.16 -0.75 -2.21 -0.64 -2.26 -0.53 -2.3 -0.42 -2.34 -0.3 -2.38 -0.18 -2.42 -0.06 -2.45 0 0zm49.17 -48.65l-1.57 1.09 0 0 -2.44 0.06 -2.41 0.18 -2.37 0.3 -2.33 0.42 -2.29 0.53 -2.24 0.64 -2.19 0.74 -2.12 0.84 -2.04 0.92 -1.92 0.98 -1.76 1.01 -1.59 1.02 -1.56 1.11 -1.61 1.27 -1.63 1.42 -1.6 1.53 -1.55 1.63 -1.48 1.71 -1.4 1.79 -1.32 1.86 -1.23 1.92 -1.14 1.99 -1.05 2.05 -0.95 2.11 -0.85 2.16 -0.75 2.21 -0.64 2.26 -0.53 2.3 -0.42 2.34 -0.3 2.38 -0.18 2.41 -0.06 2.45 -1.62 1.06 0.06 -2.45 0.18 -2.42 0.3 -2.38 0.42 -2.34 0.53 -2.3 0.64 -2.26 0.75 -2.21 0.85 -2.16 0.95 -2.11 1.05 -2.05 1.15 -2 1.24 -1.94 1.33 -1.87 1.42 -1.81 1.51 -1.74 1.6 -1.68 1.7 -1.62 1.82 -1.57 1.98 -1.56 2.17 -1.54 2.27 -1.45 2.23 -1.28 2.18 -1.12 2.18 -0.98 2.2 -0.87 2.24 -0.76 2.27 -0.65 2.31 -0.53 2.35 -0.42 2.39 -0.3 2.42 -0.19 2.45 -0.06 0 0z"/>
   </g>
   <path class="fil2 str0" d="M58.61 47.71c16.14,-15.79 16.95,21.08 -2.85,12.25 -12.75,-5.69 12.84,-35.17 14.23,-4.48 0.54,11.86 -22.8,3.4 -11.38,-7.78z"/>
   <path class="fil2 str0" d="M50.6 41.63c-0.53,6.25 -0.43,11.74 -0.43,17.85 0,0.92 -10.34,0.53 -11.77,-0.24 -5.77,-3.1 -6.22,-10.26 -2.68,-15.01 1.86,-2.48 15.28,-1.37 14.52,-1.94 -0.49,-0.37 -7.97,0.19 -9.42,1.04 -2.76,1.6 -3.03,-0.34 -6.49,3.98 -1.81,2.26 -1.07,5.29 -1.17,8.43 -0.03,1.03 3.03,3 4.99,2.9 1.53,-0.08 11.47,3.03 11.95,1.26 0.91,-3.4 0.99,-13.05 0.38,-16.99"/>
   <path class="fil2 str0" d="M50.6 61.5c0,3.16 1.03,14.28 -3.08,16.08 -4.63,2.03 -7.93,2.86 -12.43,-0.53 -1,-0.75 -2.84,-7.94 -1.94,-10.11 3.46,-8.36 9.26,-5.31 17.24,-5.76 1.68,-0.1 -6.22,1.42 -7.91,1.38 -2.24,-0.05 -9.12,3.19 -8.78,6.04 0.02,0.17 -0.53,2.07 -0.53,2.79 0,3.19 0.96,6.02 4.25,7.43 7.28,3.11 10,-2.45 12.12,-8.32 0.47,-1.3 0.42,-5.57 0.42,-7.3"/>
   <path class="fil2 str0" d="M50.91 21.65c0,1.68 0.23,19.13 -0.53,19.13 -5.85,0 -14.37,0.69 -17.03,-5.35 -1.82,-4.12 0.26,-9.91 4.44,-11.69 2.56,-1.09 9.99,-1.56 13.05,-1.56 -5.09,0 -15.08,-1.65 -18.55,4.25 -1.08,1.84 -0.57,10.73 4.16,12.1 5.49,1.6 7.07,0.71 12.22,1.69 1.82,0.35 0.86,-2.53 0.86,-4.99 0,-4.75 0.64,-7.83 0.64,-12.64 -6.42,0 -17.75,-1.51 -17.75,7.2 0,5.44 0.6,7.26 5.79,9.65 1.28,0.59 9.22,1.32 10.36,1.32"/>
   <path class="fil2 str0" d="M50.98 21.65c0,1.68 -0.23,19.13 0.53,19.13 5.85,0 14.37,0.69 17.03,-5.35 1.82,-4.12 -0.26,-9.91 -4.44,-11.69 -2.56,-1.09 -9.99,-1.56 -13.05,-1.56 5.09,0 15.08,-1.65 18.55,4.25 1.08,1.84 0.57,10.73 -4.16,12.1 -5.49,1.6 -7.07,0.71 -12.22,1.69 -1.82,0.35 -0.86,-2.53 -0.86,-4.99 0,-4.75 -0.64,-7.83 -0.64,-12.64 6.42,0 17.75,-1.51 17.75,7.2 0,5.44 -0.6,7.26 -5.79,9.65 -1.28,0.59 -9.22,1.32 -10.36,1.32"/>
  </g>
 </g>
</svg>
