<?xml version="1.0" encoding="UTF-8"?>
<!DOCTYPE svg PUBLIC "-//W3C//DTD SVG 1.1//EN" "http://www.w3.org/Graphics/SVG/1.1/DTD/svg11.dtd">
<!-- Creator: CorelDRAW 2019 (64-Bit) -->
<svg xmlns="http://www.w3.org/2000/svg" xml:space="preserve" width="0.38698in" height="0.381957in" version="1.1" style="shape-rendering:geometricPrecision; text-rendering:geometricPrecision; image-rendering:optimizeQuality; fill-rule:evenodd; clip-rule:evenodd"
viewBox="0 0 1371.71 1353.9"
 xmlns:xlink="http://www.w3.org/1999/xlink"
 xmlns:xodm="http://www.corel.com/coreldraw/odm/2003">
 <defs>
  <style type="text/css">
   <![CDATA[
    .str0 {stroke:#727273;stroke-width:17.23;stroke-miterlimit:2.61313}
    .fil2 {fill:none}
    .fil1 {fill:#FEFEFE;fill-rule:nonzero}
    .fil0 {fill:#5E5E5E;fill-rule:nonzero}
   ]]>
  </style>
 </defs>
 <g id="Layer_x0020_1">
  <metadata id="CorelCorpID_0Corel-Layer"/>
  <g>
   <path class="fil0" d="M1328.92 656.4l-16.44 10.77 0 0 -0.85 -33.77 -2.54 -33.31 -4.16 -32.82 -5.76 -32.32 -7.33 -31.73 -8.85 -31.15 -10.31 -30.49 -11.75 -29.78 -13.15 -29.07 -14.49 -28.29 -15.8 -27.48 -17.07 -26.63 -18.3 -25.72 -19.47 -24.78 -20.63 -23.81 -21.73 -22.79 -22.8 -21.73 -23.79 -20.63 -24.78 -19.47 -25.72 -18.3 -26.63 -17.07 -27.48 -15.8 -28.29 -14.49 -29.05 -13.15 -29.79 -11.75 -30.48 -10.3 -31.13 -8.85 -31.73 -7.33 -32.31 -5.76 -32.81 -4.17 -33.3 -2.53 -33.74 -0.85 15.96 -11.08 33.8 0.85 33.35 2.55 32.86 4.17 32.33 5.76 31.76 7.33 31.16 8.85 30.51 10.33 29.79 11.75 29.08 13.15 28.32 14.51 27.48 15.8 26.63 17.07 25.75 18.3 24.78 19.5 23.82 20.63 22.8 21.73 21.73 22.82 20.63 23.81 19.5 24.78 18.3 25.75 17.07 26.63 15.8 27.48 14.51 28.32 13.15 29.07 11.75 29.81 10.31 30.49 8.85 31.15 7.33 31.76 5.76 32.32 4.19 32.85 2.54 33.34 0.85 33.77 0 0zm-672.45 667.16l15.96 -11.08 0 0 33.73 -0.85 33.28 -2.53 32.77 -4.17 32.24 -5.75 31.64 -7.3 30.98 -8.79 30.23 -10.23 29.39 -11.58 28.34 -12.82 26.98 -13.82 25.11 -14.42 23.21 -14.88 22.62 -16.09 22.93 -18.03 22.84 -19.8 22.31 -21.25 21.45 -22.51 20.47 -23.63 19.38 -24.66 18.23 -25.65 17.03 -26.56 15.77 -27.42 14.47 -28.25 13.13 -29.04 11.74 -29.78 10.31 -30.46 8.83 -31.11 7.33 -31.73 5.76 -32.31 4.16 -32.82 2.54 -33.31 0.85 -33.76 16.44 -10.77 -0.85 33.79 -2.54 33.34 -4.19 32.85 -5.76 32.33 -7.33 31.76 -8.86 31.16 -10.31 30.52 -11.76 29.84 -13.16 29.1 -14.53 28.33 -15.83 27.53 -17.11 26.7 -18.37 25.82 -19.58 24.91 -20.78 24.02 -22.01 23.07 -23.29 22.2 -24.77 21.45 -26.64 20.93 -28.85 20.5 -30.05 19.26 -29.85 17.18 -29.63 15.18 -29.79 13.47 -30.2 11.92 -30.76 10.4 -31.32 8.9 -31.86 7.35 -32.4 5.78 -32.91 4.17 -33.37 2.55 -33.81 0.85 0 0zm-656.47 -656.39l16.44 -10.77 0 0 0.85 33.77 2.54 33.31 4.16 32.82 5.76 32.32 7.33 31.73 8.85 31.13 10.31 30.49 11.75 29.79 13.15 29.07 14.49 28.27 15.8 27.48 17.07 26.63 18.3 25.72 19.47 24.78 20.63 23.82 21.73 22.78 22.79 21.73 23.81 20.63 24.78 19.47 25.72 18.3 26.63 17.07 27.48 15.8 28.27 14.49 29.05 13.15 29.81 11.75 30.48 10.3 31.12 8.85 31.73 7.33 32.31 5.76 32.81 4.17 33.3 2.53 33.74 0.85 -15.96 11.08 -33.8 -0.85 -33.35 -2.55 -32.86 -4.17 -32.33 -5.76 -31.76 -7.33 -31.15 -8.85 -30.51 -10.33 -29.81 -11.75 -29.08 -13.15 -28.3 -14.51 -27.48 -15.8 -26.63 -17.07 -25.75 -18.3 -24.78 -19.5 -23.84 -20.63 -22.79 -21.73 -21.73 -22.8 -20.63 -23.82 -19.5 -24.78 -18.3 -25.75 -17.07 -26.63 -15.8 -27.48 -14.51 -28.3 -13.15 -29.07 -11.75 -29.82 -10.31 -30.49 -8.85 -31.13 -7.33 -31.76 -5.76 -32.32 -4.19 -32.85 -2.54 -33.34 -0.85 -33.77 0 0zm672.44 -667.17l-15.96 11.08 0 0 -33.73 0.85 -33.28 2.53 -32.77 4.17 -32.24 5.75 -31.64 7.3 -30.97 8.79 -30.23 10.23 -29.4 11.58 -28.34 12.81 -26.96 13.83 -25.11 14.42 -23.21 14.88 -22.62 16.09 -22.93 18.03 -22.86 19.8 -22.3 21.25 -21.45 22.52 -20.47 23.63 -19.38 24.65 -18.23 25.65 -17.03 26.56 -15.77 27.42 -14.47 28.26 -13.13 29.04 -11.74 29.77 -10.31 30.46 -8.83 31.12 -7.33 31.73 -5.76 32.31 -4.16 32.82 -2.54 33.31 -0.85 33.76 -16.44 10.77 0.85 -33.79 2.54 -33.34 4.19 -32.85 5.76 -32.33 7.33 -31.76 8.86 -31.18 10.31 -30.52 11.76 -29.82 13.16 -29.1 14.53 -28.34 15.83 -27.53 17.11 -26.7 18.37 -25.82 19.58 -24.92 20.78 -23.99 22.01 -23.08 23.28 -22.2 24.78 -21.45 26.64 -20.93 28.85 -20.5 30.05 -19.26 29.85 -17.18 29.61 -15.17 29.79 -13.48 30.21 -11.92 30.76 -10.4 31.3 -8.9 31.86 -7.35 32.4 -5.78 32.91 -4.17 33.37 -2.55 33.81 -0.85 0 0z"/>
  </g>
  <g>
   <path class="fil1" d="M1371.71 686.74l-16.44 10.77 0 0 -0.85 -33.77 -2.54 -33.31 -4.16 -32.82 -5.76 -32.32 -7.33 -31.73 -8.85 -31.15 -10.31 -30.49 -11.75 -29.78 -13.15 -29.07 -14.49 -28.29 -15.8 -27.48 -17.07 -26.63 -18.3 -25.72 -19.47 -24.78 -20.63 -23.81 -21.73 -22.79 -22.8 -21.73 -23.79 -20.63 -24.78 -19.47 -25.72 -18.3 -26.63 -17.07 -27.48 -15.8 -28.29 -14.49 -29.05 -13.15 -29.79 -11.75 -30.48 -10.3 -31.13 -8.85 -31.73 -7.33 -32.31 -5.76 -32.81 -4.17 -33.3 -2.53 -33.74 -0.85 15.96 -11.08 33.8 0.85 33.35 2.55 32.86 4.17 32.33 5.76 31.76 7.33 31.16 8.85 30.51 10.33 29.79 11.75 29.08 13.15 28.32 14.51 27.48 15.8 26.63 17.07 25.75 18.3 24.78 19.5 23.82 20.63 22.8 21.73 21.73 22.82 20.63 23.81 19.5 24.78 18.3 25.75 17.07 26.63 15.8 27.48 14.51 28.32 13.15 29.07 11.75 29.81 10.31 30.49 8.85 31.15 7.33 31.76 5.76 32.32 4.19 32.85 2.54 33.34 0.85 33.77 0 0zm-672.45 667.16l15.96 -11.08 0 0 33.73 -0.85 33.28 -2.53 32.77 -4.17 32.24 -5.75 31.64 -7.3 30.98 -8.79 30.23 -10.23 29.39 -11.58 28.34 -12.82 26.98 -13.82 25.11 -14.42 23.21 -14.88 22.62 -16.09 22.93 -18.03 22.84 -19.8 22.31 -21.25 21.45 -22.51 20.47 -23.63 19.38 -24.66 18.23 -25.65 17.03 -26.56 15.77 -27.42 14.47 -28.25 13.13 -29.04 11.74 -29.78 10.31 -30.46 8.83 -31.11 7.33 -31.73 5.76 -32.31 4.16 -32.82 2.54 -33.31 0.85 -33.76 16.44 -10.77 -0.85 33.79 -2.54 33.34 -4.19 32.85 -5.76 32.33 -7.33 31.76 -8.86 31.16 -10.31 30.52 -11.76 29.84 -13.16 29.1 -14.53 28.33 -15.83 27.53 -17.11 26.7 -18.37 25.82 -19.58 24.91 -20.78 24.02 -22.01 23.07 -23.29 22.2 -24.77 21.45 -26.64 20.93 -28.85 20.5 -30.05 19.26 -29.85 17.18 -29.63 15.18 -29.79 13.47 -30.2 11.92 -30.76 10.4 -31.32 8.9 -31.86 7.35 -32.4 5.78 -32.91 4.17 -33.37 2.55 -33.81 0.85 0 0zm-656.47 -656.39l16.44 -10.77 0 0 0.85 33.77 2.54 33.31 4.16 32.82 5.76 32.32 7.33 31.73 8.85 31.13 10.31 30.49 11.75 29.79 13.15 29.07 14.47 28.27 15.81 27.48 17.07 26.63 18.3 25.72 19.47 24.78 20.63 23.82 21.73 22.78 22.79 21.73 23.79 20.63 24.8 19.47 25.71 18.3 26.63 17.07 27.48 15.8 28.29 14.49 29.05 13.15 29.79 11.75 30.48 10.3 31.13 8.85 31.73 7.33 32.31 5.76 32.81 4.17 33.3 2.53 33.74 0.85 -15.96 11.08 -33.8 -0.85 -33.35 -2.55 -32.86 -4.17 -32.33 -5.76 -31.76 -7.33 -31.16 -8.85 -30.51 -10.33 -29.79 -11.75 -29.08 -13.15 -28.32 -14.51 -27.48 -15.8 -26.63 -17.07 -25.73 -18.3 -24.8 -19.5 -23.82 -20.63 -22.79 -21.73 -21.73 -22.8 -20.63 -23.82 -19.5 -24.78 -18.3 -25.75 -17.07 -26.63 -15.81 -27.48 -14.5 -28.3 -13.15 -29.07 -11.75 -29.82 -10.31 -30.49 -8.85 -31.13 -7.33 -31.76 -5.76 -32.32 -4.19 -32.85 -2.54 -33.34 -0.85 -33.77 0 0zm672.44 -667.17l-15.96 11.08 0 0 -33.73 0.85 -33.28 2.53 -32.77 4.17 -32.24 5.75 -31.64 7.3 -30.98 8.79 -30.23 10.23 -29.39 11.58 -28.34 12.82 -26.98 13.82 -25.11 14.42 -23.19 14.88 -22.62 16.09 -22.94 18.03 -22.84 19.8 -22.3 21.25 -21.45 22.52 -20.47 23.63 -19.38 24.65 -18.23 25.65 -17.03 26.56 -15.78 27.42 -14.46 28.26 -13.13 29.04 -11.74 29.77 -10.31 30.46 -8.83 31.12 -7.33 31.73 -5.76 32.31 -4.16 32.82 -2.54 33.31 -0.85 33.76 -16.44 10.77 0.85 -33.79 2.54 -33.34 4.19 -32.85 5.76 -32.33 7.33 -31.76 8.86 -31.18 10.31 -30.52 11.76 -29.82 13.16 -29.1 14.51 -28.34 15.84 -27.53 17.11 -26.7 18.37 -25.82 19.58 -24.92 20.78 -23.99 22.01 -23.08 23.28 -22.2 24.77 -21.45 26.65 -20.93 28.82 -20.5 30.06 -19.26 29.85 -17.18 29.63 -15.18 29.79 -13.47 30.2 -11.92 30.76 -10.4 31.32 -8.9 31.86 -7.35 32.4 -5.78 32.91 -4.17 33.37 -2.55 33.81 -0.85 0 0z"/>
  </g>
  <path class="fil2 str0" d="M279.65 452.72c36.38,94.49 117.91,158.23 149.8,233.19 19.5,45.84 91.97,120.17 114.43,179.69 3.61,9.57 33.4,44.39 31.89,62.07 17.95,0 80.91,7.9 85.52,0.13 9.34,-15.77 21.44,20.24 -15.39,-43.53 -29.82,-51.59 -23.46,-35.03 -48.13,-88.03 -11.82,-25.37 -125.74,-199.23 -142.2,-213.06 -16.48,-13.83 -22.52,-69.22 -81.37,-120.78 -12.39,-10.86 -76.34,-19.79 -75.71,4.38 0.27,10.48 77.38,107.3 92.47,141.83 22.76,52.12 81.69,107.72 112.62,180.96 5.5,13.03 79.38,139.57 88.21,139.57 32.92,0 14.72,-12.98 66.61,2.79 25.51,7.76 16.68,-8.99 6.04,-38.49 -10.3,-28.45 -86.03,-144.48 -107.73,-158.91 -15.8,-10.48 -107.64,-170.23 -124.45,-201.18 -7.12,-13.09 -52.92,-88.87 -64.75,-81.14 -24.94,16.36 -40.62,4.9 -65.84,4.9 65.98,23.67 124.8,178.32 166.15,237.23 37.26,53.06 45.28,64.17 88.9,115.55 15.18,17.86 56.94,105.71 74.79,111.91"/>
  <path class="fil2 str0" d="M677.47 452.72c-36.37,94.49 -117.91,158.23 -149.8,233.19 -19.48,45.84 -91.95,120.17 -114.42,179.69 -3.61,9.57 -33.41,44.39 -31.89,62.07 -17.95,0 -80.93,7.9 -85.52,0.13 -9.34,-15.77 -21.44,20.24 15.39,-43.53 29.81,-51.59 23.46,-35.03 48.13,-88.03 11.81,-25.37 125.74,-199.23 142.19,-213.06 16.5,-13.83 22.52,-69.22 81.37,-120.78 12.39,-10.86 76.35,-19.79 75.71,4.38 -0.27,10.48 -77.38,107.3 -92.45,141.83 -22.78,52.12 -81.69,107.72 -112.62,180.96 -5.51,13.03 -79.39,139.57 -88.21,139.57 -32.92,0 -14.74,-12.98 -66.62,2.79 -25.5,7.76 -16.66,-8.99 -6.03,-38.49 10.29,-28.45 86.02,-144.48 107.72,-158.91 15.8,-10.48 107.65,-170.23 124.45,-201.18 7.13,-13.09 52.92,-88.87 64.75,-81.14 24.95,16.36 40.64,4.9 65.86,4.9 -65.98,23.67 -124.8,178.32 -166.15,237.23 -37.26,53.06 -45.3,64.17 -88.91,115.55 -15.18,17.86 -56.94,105.71 -74.77,111.91"/>
  <path class="fil2 str0" d="M948.14 568.57c-81.47,-12.39 -119.11,-4.81 -156.84,43.61 -25.31,32.5 -45.17,44.78 -59.14,88.31 -16.45,51.3 18.32,164.3 66.48,197.65 59.76,41.41 109.44,40.86 187.61,44.22 6.87,0.29 52.25,-17.77 52.54,-17.82 0.2,-0.46 -86.52,13.42 -106.76,13.42 -47.82,0 -128.21,-10.98 -150.87,-55.71 -36.42,-71.91 -36.48,-74.2 -15.87,-160.4 16.03,-67.01 48.66,-124.86 122.37,-123.95 24.66,0.29 82.95,-1.52 82.46,-1.49 -31.11,1.33 -45.63,-21.46 -100.28,15.77 -74.19,50.53 -86.26,42.76 -134.26,139.34 -36.53,73.47 68.63,185.17 80.9,190.7 24.67,11.12 28.29,14.36 79.29,19.59 23.67,2.43 123.5,5.89 120.89,-10.52 -18.17,-113.88 1.83,-375.52 1.83,-511.99 0,-16.41 -41.42,-12.92 -63.02,-12.92 0,74.19 -4.88,79.03 5.61,158.67 3.63,27.51 -10.63,335.26 17.96,333.98 69.48,-3.13 53.92,10.77 57.17,-75.97 3.61,-96.93 -0.14,-219.01 -0.14,-318.85 0,-44.96 -1.26,-60.73 -4.52,-102.35 -0.53,-6.78 -86.83,-12.5 -86.34,1.83 3.03,89.15 8.19,167.56 26,255.19 7.45,36.73 -9.89,102.42 -9.89,147.2 0,69.08 -5.61,146.6 -8.93,12.46 -1.8,-73.56 -7.26,-119.29 19.2,-186.54 27.49,-69.89 32.26,-119.19 32.26,-193.36"/>
  <path class="fil2 str0" d="M956.94 614.09c-132.3,25.16 -59.94,-18.91 -132.06,48.24 -9.02,8.43 -37.76,143.31 -19.52,170.3 15.03,22.2 17.05,55.5 61.07,71.33 20.77,7.45 73.39,11.09 99.32,6.25"/>
 </g>
</svg>
