<?xml version="1.0" encoding="UTF-8"?>
<!DOCTYPE svg PUBLIC "-//W3C//DTD SVG 1.1//EN" "http://www.w3.org/Graphics/SVG/1.1/DTD/svg11.dtd">
<!-- Creator: CorelDRAW 2019 (64-Bit) -->
<svg xmlns="http://www.w3.org/2000/svg" xml:space="preserve" width="0.343315in" height="0.344866in" version="1.1" style="shape-rendering:geometricPrecision; text-rendering:geometricPrecision; image-rendering:optimizeQuality; fill-rule:evenodd; clip-rule:evenodd"
viewBox="0 0 56.54 56.79"
 xmlns:xlink="http://www.w3.org/1999/xlink"
 xmlns:xodm="http://www.corel.com/coreldraw/odm/2003">
 <defs>
  <style type="text/css">
   <![CDATA[
    .fil1 {fill:#FEFEFE;fill-rule:nonzero}
    .fil0 {fill:#383838;fill-rule:nonzero}
   ]]>
  </style>
 </defs>
 <g id="Layer_x0020_1">
  <metadata id="CorelCorpID_0Corel-Layer"/>
  <g>
   <path class="fil0" d="M56.54 28.96l-0.95 0.62 0 0 -0.04 -1.4 -0.11 -1.38 -0.17 -1.36 -0.24 -1.34 -0.3 -1.32 -0.37 -1.29 -0.43 -1.26 -0.49 -1.24 -0.54 -1.2 -0.6 -1.17 -0.65 -1.14 -0.71 -1.1 -0.76 -1.07 -0.81 -1.03 -0.86 -0.99 -0.9 -0.94 -0.94 -0.9 -0.99 -0.85 -1.03 -0.81 -1.07 -0.76 -1.1 -0.71 -1.14 -0.65 -1.17 -0.6 -1.2 -0.54 -1.23 -0.49 -1.26 -0.43 -1.29 -0.37 -1.32 -0.3 -1.34 -0.24 -1.36 -0.17 -1.38 -0.11 -1.4 -0.04 0.93 -0.64 1.4 0.04 1.38 0.11 1.36 0.17 1.34 0.24 1.32 0.3 1.29 0.37 1.26 0.43 1.24 0.49 1.21 0.55 1.17 0.6 1.14 0.65 1.1 0.71 1.07 0.76 1.03 0.81 0.99 0.86 0.94 0.9 0.9 0.94 0.86 0.99 0.81 1.03 0.76 1.07 0.71 1.1 0.65 1.14 0.6 1.17 0.54 1.21 0.49 1.24 0.43 1.26 0.37 1.29 0.3 1.32 0.24 1.34 0.17 1.36 0.11 1.38 0.04 1.4 0 0zm-28.13 27.83l0.93 -0.64 0 0 1.4 -0.04 1.38 -0.1 1.36 -0.17 1.33 -0.24 1.31 -0.3 1.28 -0.36 1.25 -0.42 1.21 -0.48 1.16 -0.53 1.1 -0.56 1 -0.58 0.9 -0.58 0.89 -0.63 0.92 -0.72 0.93 -0.81 0.92 -0.87 0.88 -0.93 0.85 -0.98 0.8 -1.02 0.75 -1.06 0.7 -1.1 0.65 -1.14 0.6 -1.17 0.54 -1.2 0.49 -1.23 0.43 -1.26 0.37 -1.29 0.3 -1.31 0.24 -1.34 0.17 -1.36 0.11 -1.38 0.04 -1.4 0.95 -0.62 -0.04 1.4 -0.11 1.38 -0.17 1.36 -0.24 1.34 -0.3 1.32 -0.37 1.29 -0.43 1.26 -0.49 1.24 -0.55 1.21 -0.6 1.18 -0.66 1.14 -0.71 1.11 -0.76 1.07 -0.81 1.03 -0.86 1 -0.92 0.96 -0.97 0.93 -1.04 0.9 -1.14 0.89 -1.25 0.89 -1.3 0.84 -1.28 0.73 -1.25 0.64 -1.25 0.56 -1.26 0.5 -1.28 0.43 -1.3 0.37 -1.32 0.31 -1.34 0.24 -1.36 0.17 -1.38 0.11 -1.4 0.04 0 0zm-27.21 -27.2l0.95 -0.62 0 0 0.04 1.4 0.11 1.38 0.17 1.36 0.24 1.34 0.3 1.31 0.37 1.29 0.43 1.26 0.49 1.24 0.54 1.2 0.6 1.17 0.65 1.14 0.71 1.1 0.76 1.07 0.81 1.03 0.86 0.99 0.9 0.94 0.94 0.9 0.99 0.85 1.03 0.81 1.07 0.76 1.1 0.71 1.14 0.65 1.17 0.6 1.2 0.54 1.23 0.49 1.26 0.43 1.29 0.37 1.31 0.3 1.34 0.24 1.36 0.17 1.38 0.11 1.4 0.04 -0.93 0.64 -1.4 -0.04 -1.38 -0.11 -1.36 -0.17 -1.34 -0.24 -1.32 -0.3 -1.29 -0.37 -1.26 -0.43 -1.24 -0.49 -1.21 -0.55 -1.17 -0.6 -1.14 -0.65 -1.1 -0.71 -1.07 -0.76 -1.03 -0.81 -0.99 -0.86 -0.95 -0.9 -0.9 -0.94 -0.86 -0.99 -0.81 -1.03 -0.76 -1.07 -0.71 -1.1 -0.65 -1.14 -0.6 -1.17 -0.54 -1.21 -0.49 -1.24 -0.43 -1.26 -0.37 -1.29 -0.3 -1.32 -0.24 -1.34 -0.17 -1.36 -0.11 -1.38 -0.04 -1.4 0 0zm28.14 -27.83l-0.93 0.64 0 0 -1.4 0.04 -1.38 0.1 -1.36 0.17 -1.33 0.24 -1.31 0.3 -1.28 0.36 -1.25 0.42 -1.21 0.48 -1.16 0.53 -1.1 0.56 -1 0.58 -0.91 0.58 -0.89 0.63 -0.92 0.72 -0.93 0.81 -0.92 0.87 -0.88 0.93 -0.85 0.98 -0.8 1.02 -0.75 1.06 -0.7 1.1 -0.65 1.14 -0.6 1.17 -0.54 1.2 -0.49 1.23 -0.43 1.26 -0.37 1.29 -0.3 1.32 -0.24 1.34 -0.17 1.36 -0.11 1.38 -0.04 1.4 -0.95 0.62 0.04 -1.4 0.11 -1.38 0.17 -1.36 0.24 -1.34 0.3 -1.32 0.37 -1.29 0.43 -1.26 0.49 -1.24 0.55 -1.21 0.6 -1.17 0.66 -1.14 0.71 -1.11 0.76 -1.07 0.81 -1.03 0.86 -1 0.92 -0.96 0.97 -0.93 1.04 -0.9 1.14 -0.89 1.25 -0.89 1.3 -0.83 1.28 -0.73 1.25 -0.64 1.25 -0.56 1.26 -0.5 1.28 -0.43 1.3 -0.37 1.32 -0.31 1.34 -0.24 1.36 -0.17 1.38 -0.11 1.4 -0.04 0 0z"/>
  </g>
  <g>
   <path class="fil1" d="M54.96 27.2l-0.57 0.37 0 0 -0.04 -1.4 -0.11 -1.38 -0.17 -1.36 -0.24 -1.34 -0.3 -1.32 -0.37 -1.29 -0.43 -1.26 -0.49 -1.24 -0.54 -1.2 -0.6 -1.17 -0.65 -1.14 -0.71 -1.1 -0.76 -1.07 -0.81 -1.03 -0.86 -0.99 -0.9 -0.94 -0.94 -0.9 -0.99 -0.86 -1.03 -0.81 -1.07 -0.76 -1.1 -0.71 -1.14 -0.65 -1.17 -0.6 -1.2 -0.54 -1.23 -0.49 -1.26 -0.43 -1.29 -0.37 -1.31 -0.3 -1.34 -0.24 -1.36 -0.17 -1.38 -0.11 -1.4 -0.04 0.56 -0.39 1.4 0.04 1.38 0.11 1.36 0.17 1.34 0.24 1.32 0.3 1.29 0.37 1.26 0.43 1.24 0.49 1.2 0.54 1.17 0.6 1.14 0.65 1.1 0.71 1.07 0.76 1.03 0.81 0.99 0.86 0.94 0.9 0.9 0.94 0.86 0.99 0.81 1.03 0.76 1.07 0.71 1.1 0.65 1.14 0.6 1.17 0.54 1.21 0.49 1.24 0.43 1.26 0.37 1.29 0.3 1.32 0.24 1.34 0.17 1.36 0.11 1.38 0.04 1.4 0 0zm-27.76 27.57l0.56 -0.39 0 0 1.4 -0.04 1.38 -0.11 1.36 -0.17 1.34 -0.24 1.31 -0.3 1.28 -0.37 1.25 -0.42 1.22 -0.48 1.18 -0.53 1.13 -0.58 1.06 -0.61 0.98 -0.63 0.96 -0.68 0.96 -0.76 0.95 -0.83 0.93 -0.88 0.89 -0.93 0.85 -0.98 0.8 -1.02 0.76 -1.06 0.71 -1.1 0.65 -1.14 0.6 -1.17 0.54 -1.2 0.49 -1.23 0.43 -1.26 0.37 -1.29 0.3 -1.32 0.24 -1.34 0.17 -1.36 0.11 -1.38 0.04 -1.4 0.57 -0.37 -0.04 1.4 -0.11 1.38 -0.17 1.36 -0.24 1.34 -0.3 1.32 -0.37 1.29 -0.43 1.26 -0.49 1.24 -0.54 1.21 -0.6 1.17 -0.66 1.14 -0.71 1.11 -0.76 1.07 -0.81 1.03 -0.86 0.99 -0.91 0.95 -0.96 0.92 -1.02 0.88 -1.09 0.86 -1.17 0.84 -1.22 0.78 -1.22 0.7 -1.22 0.62 -1.23 0.56 -1.25 0.49 -1.27 0.43 -1.3 0.37 -1.32 0.31 -1.34 0.24 -1.36 0.17 -1.38 0.11 -1.4 0.04 0 0zm-27.2 -27.2l0.57 -0.37 0 0 0.04 1.4 0.11 1.38 0.17 1.36 0.24 1.34 0.3 1.32 0.37 1.29 0.43 1.26 0.49 1.24 0.54 1.2 0.6 1.17 0.65 1.14 0.71 1.1 0.76 1.07 0.81 1.03 0.86 0.99 0.9 0.94 0.94 0.9 0.99 0.86 1.03 0.81 1.07 0.76 1.1 0.71 1.14 0.65 1.17 0.6 1.2 0.54 1.23 0.49 1.26 0.43 1.29 0.37 1.32 0.3 1.34 0.24 1.36 0.17 1.38 0.11 1.4 0.04 -0.56 0.39 -1.4 -0.04 -1.38 -0.11 -1.36 -0.17 -1.34 -0.24 -1.32 -0.3 -1.29 -0.37 -1.26 -0.43 -1.24 -0.49 -1.2 -0.54 -1.17 -0.6 -1.14 -0.65 -1.1 -0.71 -1.07 -0.76 -1.03 -0.81 -0.99 -0.86 -0.94 -0.9 -0.9 -0.94 -0.86 -0.99 -0.81 -1.03 -0.76 -1.07 -0.71 -1.1 -0.65 -1.14 -0.6 -1.17 -0.54 -1.21 -0.49 -1.24 -0.43 -1.26 -0.37 -1.29 -0.3 -1.32 -0.24 -1.34 -0.17 -1.36 -0.11 -1.38 -0.04 -1.4 0 0zm27.76 -27.57l-0.56 0.39 0 0 -1.4 0.04 -1.38 0.11 -1.36 0.17 -1.34 0.24 -1.31 0.3 -1.28 0.37 -1.25 0.42 -1.22 0.48 -1.18 0.53 -1.13 0.58 -1.06 0.61 -0.98 0.63 -0.96 0.68 -0.96 0.76 -0.95 0.83 -0.93 0.88 -0.89 0.93 -0.85 0.98 -0.8 1.02 -0.76 1.06 -0.71 1.1 -0.65 1.14 -0.6 1.17 -0.54 1.2 -0.49 1.23 -0.43 1.26 -0.37 1.29 -0.3 1.31 -0.24 1.34 -0.17 1.36 -0.11 1.38 -0.04 1.4 -0.57 0.37 0.04 -1.4 0.11 -1.38 0.17 -1.36 0.24 -1.34 0.3 -1.32 0.37 -1.29 0.43 -1.26 0.49 -1.24 0.54 -1.21 0.6 -1.17 0.66 -1.14 0.71 -1.11 0.76 -1.07 0.81 -1.03 0.86 -0.99 0.91 -0.95 0.96 -0.92 1.02 -0.88 1.09 -0.86 1.17 -0.83 1.22 -0.78 1.22 -0.7 1.22 -0.62 1.23 -0.56 1.25 -0.49 1.27 -0.43 1.3 -0.37 1.32 -0.31 1.34 -0.24 1.36 -0.17 1.38 -0.11 1.4 -0.04 0 0z"/>
  </g>
  <g>
   <path class="fil1" d="M31.36 10.35l-0.56 0.39 -0 -0 -0.05 -0.07 -0.11 -0.06 -0.18 -0.05 -0.23 -0.04 -0.29 -0.03 -0.34 -0.02 -0.38 -0.01 -0.42 -0.01 -0.46 0 -0.49 0.01 -0.51 0.01 -0.54 0.02 -0.55 0.02 -0.57 0.03 -0.58 0.03 -0.58 0.03 -0.58 0.04 -0.58 0.04 -0.58 0.04 -0.56 0.04 -0.55 0.04 -0.53 0.04 -0.5 0.04 -0.47 0.03 -0.44 0.03 -0.4 0.03 -0.36 0.03 -0.31 0.02 -0.26 0.02 -0.21 0.01 -0.15 0 -0.09 -0 0.56 -0.39 0.08 0 0.15 -0 0.21 -0.01 0.26 -0.02 0.31 -0.02 0.36 -0.03 0.4 -0.03 0.44 -0.03 0.47 -0.03 0.5 -0.04 0.53 -0.04 0.55 -0.04 0.56 -0.04 0.58 -0.04 0.58 -0.04 0.59 -0.04 0.58 -0.03 0.58 -0.03 0.57 -0.03 0.56 -0.02 0.54 -0.02 0.51 -0.01 0.49 -0.01 0.46 -0 0.42 0.01 0.38 0.01 0.34 0.02 0.29 0.03 0.24 0.04 0.18 0.05 0.12 0.06 0.05 0.08 -0 -0zm-0.56 0.39l-0 -0 -0 -0 0 0zm-1.19 6.31l0.56 -0.39 0 0 0.3 -0.01 0.28 -0.04 0.25 -0.07 0.18 -0.08 -0.03 0.02 0.02 -0.02 0.14 -0.15 0.15 -0.19 0.14 -0.21 0.12 -0.23 0.1 -0.25 0.09 -0.26 0.07 -0.27 0.05 -0.28 0.04 -0.28 0.02 -0.29 0.01 -0.29 -0.01 -0.29 -0.02 -0.29 -0.03 -0.28 -0.05 -0.27 -0.06 -0.26 -0.07 -0.25 -0.08 -0.24 -0.09 -0.22 -0.1 -0.2 -0.11 -0.18 -0.12 -0.16 -0.13 -0.14 -0.14 -0.11 -0.14 -0.08 -0.15 -0.05 0.56 -0.39 0.15 0.05 0.14 0.08 0.14 0.11 0.13 0.14 0.12 0.16 0.11 0.18 0.1 0.2 0.09 0.22 0.08 0.24 0.07 0.25 0.06 0.26 0.05 0.27 0.03 0.28 0.02 0.29 0.01 0.29 -0.01 0.29 -0.02 0.29 -0.04 0.28 -0.05 0.28 -0.07 0.27 -0.09 0.26 -0.1 0.25 -0.12 0.24 -0.14 0.22 -0.17 0.21 -0.21 0.21 -0.38 0.29 -0.47 0.28 -0.3 0.13 -0.28 0.08 -0.29 0.04 -0.31 0.01 0 0zm-10.9 0.45l0.57 -0.38 0 0 0.27 0.09 0.29 0.08 0.31 0.06 0.32 0.05 0.33 0.04 0.34 0.03 0.35 0.02 0.36 0.01 0.37 -0 0.38 -0.01 0.38 -0.02 0.39 -0.03 0.39 -0.03 0.39 -0.04 0.39 -0.04 0.39 -0.04 0.39 -0.05 0.39 -0.05 0.38 -0.05 0.38 -0.05 0.37 -0.05 0.36 -0.05 0.35 -0.05 0.34 -0.05 0.33 -0.04 0.32 -0.04 0.31 -0.03 0.29 -0.03 0.28 -0.02 0.26 -0.02 0.24 -0.01 0.22 0 -0.56 0.39 -0.22 -0 -0.24 0.01 -0.26 0.02 -0.28 0.02 -0.29 0.03 -0.31 0.03 -0.32 0.04 -0.33 0.04 -0.34 0.05 -0.35 0.05 -0.36 0.05 -0.37 0.05 -0.38 0.05 -0.38 0.05 -0.39 0.05 -0.39 0.05 -0.39 0.04 -0.39 0.04 -0.39 0.04 -0.39 0.03 -0.39 0.03 -0.38 0.02 -0.38 0.01 -0.37 0 -0.36 -0.01 -0.35 -0.02 -0.34 -0.03 -0.33 -0.04 -0.32 -0.05 -0.31 -0.06 -0.29 -0.08 -0.28 -0.09 0 0zm-1.56 -4.08l-0.51 0.37 0.54 -0.37 0 0.44 0 0.4 0 0.36 0 0.33 0.01 0.3 0.01 0.26 0.01 0.24 0.01 0.21 0.02 0.18 0.02 0.16 0.03 0.14 0.03 0.11 0.03 0.1 0.04 0.08 0.04 0.06 0.05 0.05 0.05 0.04 0.06 0.03 0.07 0.02 0.07 0.01 0.08 0 0.09 0 0.1 -0 0.1 -0 0.11 0 0.12 0 0.13 0.01 0.14 0.02 0.15 0.02 0.16 0.03 0.17 0.05 0.18 0.06 -0.57 0.38 -0.18 -0.06 -0.17 -0.05 -0.16 -0.03 -0.15 -0.02 -0.14 -0.02 -0.13 -0.01 -0.12 -0 -0.11 -0 -0.1 0 -0.1 0 -0.09 -0 -0.08 -0 -0.08 -0.01 -0.07 -0.02 -0.06 -0.03 -0.06 -0.04 -0.05 -0.05 -0.04 -0.06 -0.04 -0.08 -0.03 -0.1 -0.03 -0.12 -0.03 -0.14 -0.02 -0.16 -0.02 -0.18 -0.01 -0.21 -0.01 -0.24 -0.01 -0.27 -0.01 -0.3 -0 -0.33 -0 -0.36 -0 -0.4 -0 -0.44 0.54 -0.37zm-0.54 0.37l0 -0.19 0.54 -0.19 -0.54 0.37zm10.76 -3.21l-0.56 0.39 0 0 -0.93 -0.01 -0.86 0 -0.8 0.02 -0.73 0.03 -0.67 0.04 -0.62 0.05 -0.56 0.06 -0.51 0.07 -0.46 0.08 -0.41 0.09 -0.37 0.1 -0.33 0.1 -0.28 0.1 -0.24 0.1 -0.18 0.09 -0.08 0.05 -0.02 0.01 -0.07 0.06 -0.11 0.09 -0.11 0.11 -0.11 0.12 -0.1 0.12 -0.09 0.12 -0.09 0.12 -0.09 0.12 -0.09 0.11 -0.1 0.12 -0.13 0.13 -0.23 0.18 -0.36 0.24 -0.25 0.13 -0.19 0.08 0.51 -0.37 0.13 -0.05 0.03 -0.02 -0.11 0.07 -0 -0 0.07 -0.07 0.09 -0.09 0.09 -0.11 0.09 -0.11 0.09 -0.12 0.1 -0.12 0.11 -0.13 0.12 -0.13 0.14 -0.14 0.18 -0.16 0.25 -0.2 0.34 -0.24 0.33 -0.2 0.29 -0.15 0.29 -0.12 0.31 -0.11 0.34 -0.11 0.38 -0.1 0.42 -0.09 0.46 -0.08 0.51 -0.07 0.56 -0.06 0.62 -0.05 0.67 -0.04 0.73 -0.03 0.8 -0.02 0.86 -0 0.93 0.01 0 0zm4.25 5.84l0.56 -0.39 -0.57 0.38 -0 -0.52 -0 -0.48 -0 -0.45 -0.01 -0.42 -0.01 -0.39 -0.02 -0.36 -0.02 -0.33 -0.03 -0.3 -0.03 -0.28 -0.04 -0.25 -0.05 -0.23 -0.06 -0.2 -0.07 -0.18 -0.08 -0.16 -0.1 -0.14 -0.11 -0.13 -0.12 -0.11 -0.14 -0.1 -0.15 -0.08 -0.17 -0.07 -0.18 -0.06 -0.2 -0.05 -0.22 -0.04 -0.24 -0.03 -0.26 -0.02 -0.28 -0.02 -0.31 -0.01 -0.33 -0.01 -0.35 -0.01 -0.38 -0.01 -0.4 -0.01 -0.43 -0.01 0.56 -0.39 0.43 0.01 0.4 0.01 0.38 0.01 0.35 0.01 0.33 0.01 0.31 0.01 0.28 0.02 0.26 0.02 0.24 0.03 0.22 0.04 0.2 0.05 0.19 0.06 0.17 0.07 0.15 0.08 0.14 0.1 0.12 0.11 0.11 0.13 0.1 0.15 0.08 0.17 0.07 0.18 0.06 0.21 0.05 0.23 0.04 0.25 0.03 0.28 0.03 0.3 0.02 0.33 0.02 0.36 0.01 0.39 0.01 0.42 0 0.45 0 0.48 0 0.52 -0.57 0.38zm0.57 -0.38l0 0.43 -0.57 -0.05 0.57 -0.38zm-15.78 -0.28l0.57 -0.37 0 0 0.04 0.39 0.11 0.34 0.18 0.3 0.24 0.25 0.3 0.22 0.36 0.18 0.41 0.14 0.46 0.11 0.5 0.08 0.53 0.05 0.57 0.03 0.6 0 0.62 -0.02 0.64 -0.04 0.65 -0.05 0.66 -0.07 0.67 -0.08 0.67 -0.09 0.67 -0.1 0.66 -0.11 0.65 -0.11 0.63 -0.11 0.61 -0.11 0.58 -0.11 0.55 -0.1 0.52 -0.09 0.48 -0.08 0.44 -0.07 0.39 -0.05 0.33 -0.04 0.28 -0.02 0.22 0 -0.56 0.39 -0.21 -0 -0.27 0.02 -0.33 0.04 -0.38 0.05 -0.43 0.07 -0.48 0.08 -0.52 0.09 -0.55 0.1 -0.58 0.11 -0.61 0.11 -0.63 0.11 -0.65 0.11 -0.66 0.11 -0.67 0.1 -0.67 0.09 -0.67 0.08 -0.66 0.07 -0.65 0.05 -0.64 0.04 -0.62 0.02 -0.6 -0 -0.57 -0.03 -0.54 -0.05 -0.5 -0.08 -0.46 -0.11 -0.41 -0.14 -0.36 -0.18 -0.31 -0.22 -0.25 -0.26 -0.18 -0.3 -0.11 -0.34 -0.04 -0.39 0 0zm1.85 -5.14l-0.56 0.39 0 0 -0.15 0.02 -0.13 0.04 -0.06 0.02 0.16 -0.1 0.03 -0.02 -0.07 0.08 -0.08 0.11 -0.08 0.12 -0.07 0.14 -0.06 0.15 -0.06 0.16 -0.05 0.17 -0.04 0.17 -0.03 0.18 -0.03 0.19 -0.02 0.19 -0.02 0.19 -0.01 0.19 -0.01 0.2 -0.01 0.2 -0 0.19 0 0.19 0 0.19 0.01 0.19 0.01 0.18 0.01 0.18 0.01 0.17 0.01 0.16 0.01 0.15 0.01 0.14 0 0.13 0 0.12 -0.57 0.37 -0 -0.12 -0 -0.13 -0.01 -0.14 -0.01 -0.15 -0.01 -0.16 -0.01 -0.17 -0.01 -0.18 -0.01 -0.18 -0.01 -0.19 -0 -0.19 -0 -0.19 0 -0.19 0.01 -0.2 0.01 -0.2 0.01 -0.19 0.02 -0.19 0.02 -0.19 0.03 -0.19 0.03 -0.18 0.04 -0.18 0.05 -0.17 0.06 -0.16 0.06 -0.15 0.07 -0.14 0.08 -0.13 0.1 -0.13 0.13 -0.13 0.25 -0.2 0.4 -0.25 0.21 -0.09 0.16 -0.05 0.16 -0.02 0 0zm-0 0l0 0 0 0 -0 0zm-0.32 0.4l-0.24 -0.02 0.56 -0.39 0.24 0.02 0 0 -0.56 0.39zm0.56 -0.39l0 0 -0 0 -0 0z"/>
  </g>
  <g>
   <path class="fil1" d="M17.37 28.19l-0.57 0.38 0 0 -0.08 -0.56 -0.07 -0.52 -0.05 -0.49 -0.03 -0.46 -0.02 -0.44 -0 -0.41 0.01 -0.39 0.03 -0.36 0.04 -0.34 0.05 -0.33 0.06 -0.31 0.07 -0.3 0.09 -0.29 0.1 -0.28 0.1 -0.27 0.11 -0.26 0.12 -0.26 0.13 -0.26 0.14 -0.26 0.14 -0.26 0.15 -0.26 0.15 -0.27 0.16 -0.28 0.16 -0.29 0.17 -0.3 0.17 -0.31 0.17 -0.33 0.18 -0.35 0.18 -0.37 0.18 -0.39 0.18 -0.41 0.18 -0.44 0.57 -0.37 -0.18 0.44 -0.18 0.41 -0.18 0.39 -0.18 0.37 -0.18 0.35 -0.17 0.33 -0.17 0.31 -0.17 0.3 -0.16 0.29 -0.16 0.28 -0.15 0.27 -0.15 0.26 -0.14 0.26 -0.14 0.25 -0.13 0.25 -0.12 0.26 -0.11 0.26 -0.1 0.27 -0.1 0.27 -0.08 0.28 -0.07 0.29 -0.06 0.31 -0.05 0.33 -0.04 0.34 -0.03 0.36 -0.01 0.39 0 0.41 0.02 0.43 0.03 0.46 0.05 0.49 0.07 0.52 0.08 0.56 0 0zm0.92 17.13l-0.57 0.38 0 0 -0.16 -0.16 -0.14 -0.22 -0.13 -0.28 -0.11 -0.34 -0.1 -0.39 -0.08 -0.44 -0.07 -0.48 -0.06 -0.52 -0.04 -0.56 -0.04 -0.59 -0.03 -0.62 -0.02 -0.64 -0.01 -0.66 -0 -0.68 0 -0.69 0.01 -0.7 0.01 -0.71 0.01 -0.71 0.02 -0.7 0.02 -0.7 0.02 -0.68 0.02 -0.67 0.02 -0.65 0.01 -0.63 0.01 -0.6 0.01 -0.57 0 -0.53 -0.01 -0.5 -0.01 -0.45 -0.02 -0.41 -0.03 -0.36 -0.04 -0.3 0.57 -0.38 0.04 0.3 0.03 0.36 0.02 0.41 0.01 0.45 0.01 0.5 -0 0.53 -0.01 0.57 -0.01 0.6 -0.01 0.63 -0.02 0.65 -0.02 0.67 -0.02 0.68 -0.02 0.7 -0.02 0.7 -0.01 0.71 -0.01 0.71 -0.01 0.7 -0 0.69 0 0.68 0.01 0.66 0.02 0.64 0.03 0.62 0.04 0.59 0.04 0.56 0.06 0.52 0.07 0.48 0.08 0.44 0.1 0.39 0.11 0.34 0.12 0.28 0.14 0.22 0.16 0.15 0 0zm13.85 0.16l0.57 -0.37 0 0 -0.09 0.2 -0.21 0.23 -0.59 0.4 -0.39 0.19 -0.36 0.12 -0.4 0.1 -0.44 0.08 -0.48 0.07 -0.52 0.05 -0.55 0.04 -0.58 0.03 -0.6 0.01 -0.62 0 -0.63 -0.01 -0.64 -0.02 -0.65 -0.03 -0.65 -0.03 -0.64 -0.04 -0.63 -0.05 -0.62 -0.05 -0.6 -0.06 -0.58 -0.06 -0.55 -0.06 -0.52 -0.06 -0.48 -0.06 -0.44 -0.06 -0.39 -0.06 -0.34 -0.06 -0.29 -0.06 -0.23 -0.05 -0.16 -0.05 -0.1 -0.05 0.57 -0.38 0.09 0.04 0.16 0.05 0.23 0.05 0.29 0.06 0.34 0.06 0.39 0.06 0.44 0.06 0.48 0.06 0.52 0.06 0.55 0.06 0.58 0.06 0.6 0.06 0.62 0.05 0.63 0.05 0.64 0.04 0.65 0.03 0.65 0.03 0.64 0.02 0.63 0.01 0.62 -0 0.6 -0.01 0.58 -0.03 0.55 -0.04 0.52 -0.05 0.48 -0.07 0.43 -0.08 0.38 -0.1 0.32 -0.11 0.18 -0.08 -0.14 0.1 0.1 -0.12 0.08 -0.19 0 0zm0.6 -17.95l0.57 -0.37 0 0 -0.06 0.48 -0.05 0.51 -0.04 0.53 -0.03 0.54 -0.02 0.56 -0.02 0.58 -0.01 0.59 -0.01 0.6 -0 0.61 0 0.62 0.01 0.63 0.01 0.63 0.01 0.63 0.01 0.64 0.01 0.64 0.01 0.64 0.01 0.63 0.01 0.63 0.01 0.62 0 0.61 -0 0.6 -0 0.59 -0.01 0.58 -0.02 0.56 -0.02 0.54 -0.03 0.52 -0.04 0.5 -0.05 0.48 -0.05 0.46 -0.06 0.43 -0.08 0.4 -0.09 0.38 -0.57 0.37 0.09 -0.37 0.08 -0.4 0.06 -0.43 0.05 -0.46 0.05 -0.48 0.04 -0.5 0.03 -0.52 0.02 -0.54 0.02 -0.56 0.01 -0.58 0 -0.59 0 -0.6 -0 -0.61 -0.01 -0.62 -0.01 -0.63 -0.01 -0.63 -0.01 -0.64 -0.01 -0.64 -0.01 -0.64 -0.01 -0.63 -0.01 -0.63 -0.01 -0.63 -0 -0.62 0 -0.61 0.01 -0.6 0.01 -0.59 0.02 -0.58 0.02 -0.56 0.03 -0.54 0.04 -0.53 0.05 -0.51 0.06 -0.48 0 0zm-4.02 -10.23l-0.57 0.38 0 0 0.58 -0.38 0.04 0.03 0.07 0.05 0.1 0.06 0.12 0.08 0.14 0.1 0.16 0.12 0.18 0.14 0.19 0.16 0.21 0.18 0.22 0.2 0.23 0.22 0.23 0.24 0.24 0.26 0.24 0.28 0.24 0.3 0.24 0.32 0.23 0.34 0.22 0.36 0.21 0.38 0.2 0.39 0.19 0.42 0.17 0.43 0.16 0.45 0.14 0.48 0.11 0.49 0.09 0.51 0.06 0.53 0.03 0.55 0 0.57 -0.03 0.59 -0.07 0.61 -0.57 0.37 0.07 -0.61 0.03 -0.59 -0 -0.57 -0.03 -0.55 -0.06 -0.53 -0.09 -0.51 -0.11 -0.49 -0.14 -0.47 -0.16 -0.45 -0.17 -0.43 -0.19 -0.41 -0.2 -0.39 -0.21 -0.38 -0.22 -0.36 -0.23 -0.34 -0.24 -0.32 -0.24 -0.3 -0.24 -0.28 -0.24 -0.26 -0.23 -0.24 -0.23 -0.22 -0.22 -0.2 -0.21 -0.18 -0.19 -0.16 -0.18 -0.14 -0.16 -0.12 -0.14 -0.1 -0.12 -0.08 -0.1 -0.06 -0.07 -0.05 -0.04 -0.03 0.56 -0.39 0 0zm4.93 17.72l-0.57 0.37 0 0 -0 -0.41 -0.01 -0.45 -0.02 -0.48 -0.03 -0.52 -0.04 -0.54 -0.04 -0.57 -0.05 -0.59 -0.06 -0.61 -0.07 -0.63 -0.08 -0.65 -0.09 -0.66 -0.1 -0.67 -0.11 -0.67 -0.12 -0.68 -0.13 -0.68 -0.14 -0.67 -0.15 -0.67 -0.16 -0.66 -0.17 -0.65 -0.18 -0.64 -0.2 -0.62 -0.21 -0.6 -0.22 -0.58 -0.23 -0.56 -0.24 -0.53 -0.26 -0.5 -0.27 -0.47 -0.28 -0.43 -0.3 -0.39 -0.31 -0.35 -0.32 -0.31 -0.34 -0.26 0.57 -0.38 0.34 0.26 0.32 0.31 0.31 0.35 0.3 0.39 0.28 0.43 0.27 0.47 0.26 0.5 0.24 0.53 0.23 0.56 0.22 0.58 0.21 0.6 0.2 0.62 0.18 0.64 0.17 0.65 0.16 0.66 0.15 0.67 0.14 0.67 0.13 0.68 0.12 0.68 0.11 0.67 0.1 0.67 0.09 0.66 0.08 0.65 0.07 0.63 0.06 0.61 0.05 0.59 0.04 0.57 0.04 0.54 0.03 0.52 0.02 0.48 0.01 0.45 0 0.41 0 0zm-1.72 11.02l0.55 -0.39 0 0 0.13 -0.03 -0.25 0.16 0.05 -0.05 0.12 -0.17 0.11 -0.21 0.1 -0.25 0.09 -0.28 0.08 -0.31 0.07 -0.34 0.06 -0.36 0.05 -0.39 0.04 -0.4 0.03 -0.42 0.03 -0.43 0.02 -0.44 0.01 -0.45 0.01 -0.45 0 -0.46 -0 -0.45 -0.01 -0.45 -0.01 -0.44 -0.01 -0.43 -0.01 -0.42 -0.01 -0.4 -0.02 -0.39 -0.02 -0.37 -0.01 -0.34 -0.01 -0.32 -0.01 -0.29 -0.01 -0.26 -0.01 -0.22 -0 -0.18 0.57 -0.37 0 0.18 0.01 0.22 0.01 0.25 0.01 0.29 0.01 0.32 0.01 0.34 0.02 0.37 0.02 0.39 0.01 0.41 0.01 0.42 0.01 0.43 0.01 0.44 0.01 0.45 0 0.45 -0 0.46 -0.01 0.45 -0.01 0.45 -0.02 0.44 -0.03 0.43 -0.03 0.42 -0.04 0.4 -0.05 0.39 -0.06 0.36 -0.07 0.34 -0.08 0.31 -0.09 0.29 -0.1 0.25 -0.12 0.22 -0.14 0.19 -0.24 0.22 -0.57 0.36 -0.21 0.06 0 0zm-15.43 -2.65l0.57 -0.37 0 0 0.04 0.35 0.11 0.33 0.17 0.3 0.23 0.27 0.29 0.25 0.35 0.23 0.4 0.2 0.44 0.18 0.48 0.16 0.52 0.14 0.55 0.12 0.58 0.11 0.61 0.09 0.63 0.08 0.64 0.06 0.65 0.05 0.66 0.03 0.67 0.02 0.67 0.01 0.66 0 0.65 -0.01 0.64 -0.01 0.62 -0.02 0.6 -0.03 0.58 -0.03 0.55 -0.03 0.51 -0.04 0.47 -0.04 0.43 -0.04 0.39 -0.04 0.34 -0.04 0.28 -0.04 -0.55 0.39 -0.28 0.04 -0.34 0.04 -0.39 0.04 -0.43 0.04 -0.48 0.04 -0.51 0.04 -0.55 0.03 -0.58 0.03 -0.6 0.03 -0.62 0.02 -0.64 0.01 -0.65 0.01 -0.66 -0 -0.67 -0.01 -0.67 -0.02 -0.66 -0.03 -0.66 -0.05 -0.64 -0.06 -0.63 -0.08 -0.61 -0.09 -0.58 -0.11 -0.55 -0.12 -0.52 -0.14 -0.48 -0.16 -0.44 -0.18 -0.4 -0.2 -0.35 -0.23 -0.29 -0.25 -0.24 -0.27 -0.17 -0.3 -0.11 -0.33 -0.04 -0.35 0 0zm3.06 -24.99l0.55 -0.34 0 0 -0.45 0.61 -0.41 0.63 -0.38 0.65 -0.34 0.68 -0.31 0.69 -0.27 0.71 -0.24 0.73 -0.21 0.74 -0.18 0.76 -0.16 0.77 -0.13 0.79 -0.11 0.79 -0.09 0.8 -0.07 0.81 -0.05 0.82 -0.03 0.83 -0.02 0.83 -0 0.84 0.01 0.84 0.02 0.84 0.03 0.84 0.03 0.84 0.04 0.84 0.04 0.83 0.04 0.83 0.04 0.82 0.04 0.82 0.04 0.81 0.03 0.8 0.02 0.79 0.02 0.78 0.01 0.77 -0.57 0.37 -0.01 -0.77 -0.02 -0.78 -0.02 -0.79 -0.03 -0.8 -0.04 -0.81 -0.04 -0.82 -0.04 -0.82 -0.04 -0.83 -0.04 -0.83 -0.04 -0.84 -0.03 -0.84 -0.03 -0.84 -0.02 -0.84 -0.01 -0.84 0 -0.84 0.02 -0.83 0.03 -0.83 0.05 -0.82 0.07 -0.81 0.09 -0.8 0.11 -0.8 0.13 -0.79 0.16 -0.77 0.18 -0.76 0.21 -0.75 0.24 -0.73 0.27 -0.71 0.31 -0.7 0.34 -0.68 0.38 -0.66 0.42 -0.64 0.46 -0.62 0 0zm1.38 -1.42l-0.55 0.39 -0.01 0 0.01 -0 0.08 -0.04 0.17 -0.11 0.09 -0.07 0.01 -0.01 -0.01 0.01 -0.02 0.02 -0.02 0.03 -0.03 0.03 -0.03 0.03 -0.03 0.04 -0.03 0.04 -0.03 0.04 -0.03 0.04 -0.03 0.04 -0.03 0.04 -0.03 0.04 -0.03 0.04 -0.03 0.04 -0.03 0.04 -0.03 0.04 -0.03 0.04 -0.02 0.04 -0.02 0.04 -0.02 0.04 -0.02 0.04 -0.02 0.03 -0.02 0.03 -0.02 0.03 -0.02 0.03 -0.02 0.03 -0.55 0.34 0.01 -0.02 0.02 -0.02 0.02 -0.03 0.02 -0.03 0.02 -0.03 0.02 -0.04 0.02 -0.04 0.02 -0.04 0.02 -0.04 0.03 -0.04 0.03 -0.04 0.03 -0.04 0.03 -0.04 0.03 -0.04 0.03 -0.04 0.03 -0.04 0.03 -0.04 0.03 -0.04 0.03 -0.04 0.03 -0.04 0.03 -0.04 0.03 -0.04 0.03 -0.04 0.03 -0.04 0.04 -0.04 0.05 -0.04 0.07 -0.06 0.15 -0.11 0.23 -0.15 0.13 -0.07 0.06 -0.02 0.04 -0.01z"/>
  </g>
  <g>
   <path class="fil1" d="M38.48 23.81l0.52 -0.3 0 0 -0.11 0.11 -0.12 0.13 -0.13 0.14 -0.14 0.15 -0.15 0.16 -0.15 0.17 -0.16 0.18 -0.16 0.19 -0.17 0.19 -0.17 0.2 -0.18 0.2 -0.18 0.2 -0.18 0.21 -0.18 0.21 -0.18 0.21 -0.18 0.21 -0.18 0.2 -0.18 0.2 -0.18 0.2 -0.17 0.19 -0.17 0.19 -0.17 0.18 -0.16 0.17 -0.16 0.16 -0.15 0.15 -0.14 0.14 -0.14 0.13 -0.14 0.12 -0.14 0.12 -0.17 0.13 -0.25 0.18 -0.26 0.15 0.38 -0.32 -0.09 0.06 -0.07 0.04 0.04 -0.03 0.09 -0.07 0.11 -0.1 0.12 -0.12 0.13 -0.13 0.14 -0.15 0.15 -0.16 0.16 -0.17 0.16 -0.18 0.17 -0.18 0.17 -0.19 0.17 -0.19 0.18 -0.2 0.18 -0.2 0.18 -0.21 0.18 -0.21 0.18 -0.21 0.18 -0.21 0.18 -0.2 0.18 -0.2 0.17 -0.2 0.17 -0.19 0.16 -0.19 0.16 -0.18 0.15 -0.17 0.15 -0.16 0.14 -0.15 0.13 -0.14 0.13 -0.13 0.12 -0.12 0 0zm8.85 -0.67l-0.57 0.38 0 0 -0.41 -0.45 -0.39 -0.42 -0.36 -0.38 -0.34 -0.35 -0.32 -0.31 -0.3 -0.28 -0.28 -0.24 -0.26 -0.21 -0.25 -0.18 -0.23 -0.15 -0.22 -0.12 -0.21 -0.09 -0.2 -0.06 -0.2 -0.03 -0.19 0 -0.18 0.03 -0.17 0.05 -0.15 0.06 -0.07 0.04 -0.01 0.01 -0.1 0.08 -0.17 0.14 -0.2 0.18 -0.22 0.21 -0.23 0.24 -0.25 0.26 -0.26 0.28 -0.28 0.3 -0.3 0.32 -0.32 0.33 -0.34 0.35 -0.36 0.37 -0.52 0.3 0.36 -0.36 0.34 -0.35 0.32 -0.33 0.3 -0.31 0.28 -0.3 0.26 -0.28 0.25 -0.26 0.24 -0.24 0.23 -0.23 0.23 -0.21 0.24 -0.21 0.3 -0.23 0.38 -0.25 0.31 -0.17 0.23 -0.1 0.2 -0.06 0.2 -0.03 0.2 0 0.2 0.03 0.21 0.06 0.21 0.09 0.22 0.12 0.23 0.15 0.25 0.18 0.26 0.21 0.28 0.24 0.3 0.28 0.32 0.31 0.34 0.35 0.36 0.38 0.39 0.42 0.41 0.45 0 0zm-13.66 17.36l-0.56 0.34 0 0 0.24 -0.29 0.3 -0.34 0.36 -0.39 0.42 -0.43 0.47 -0.46 0.51 -0.5 0.55 -0.53 0.58 -0.56 0.61 -0.58 0.63 -0.6 0.65 -0.62 0.66 -0.64 0.67 -0.65 0.67 -0.66 0.67 -0.67 0.66 -0.67 0.64 -0.67 0.63 -0.67 0.6 -0.66 0.57 -0.66 0.53 -0.64 0.49 -0.63 0.45 -0.61 0.4 -0.59 0.34 -0.57 0.28 -0.54 0.21 -0.51 0.14 -0.47 0.06 -0.44 -0.03 -0.4 -0.11 -0.36 -0.21 -0.31 0.57 -0.38 0.21 0.31 0.11 0.36 0.03 0.4 -0.06 0.44 -0.14 0.48 -0.21 0.51 -0.28 0.54 -0.34 0.57 -0.4 0.6 -0.45 0.62 -0.5 0.63 -0.54 0.65 -0.57 0.66 -0.61 0.67 -0.63 0.68 -0.65 0.68 -0.66 0.68 -0.67 0.67 -0.68 0.67 -0.67 0.65 -0.67 0.64 -0.65 0.62 -0.63 0.6 -0.61 0.58 -0.58 0.55 -0.55 0.53 -0.51 0.49 -0.46 0.46 -0.41 0.42 -0.35 0.38 -0.29 0.33 -0.23 0.28 0 0zm2.82 -3.21l0.18 -0.03 0 -0 0.03 -0.02 -0.05 0.04 -0.08 0.08 -0.1 0.09 -0.11 0.11 -0.12 0.12 -0.13 0.13 -0.13 0.14 -0.14 0.15 -0.14 0.15 -0.15 0.16 -0.15 0.16 -0.15 0.16 -0.15 0.17 -0.15 0.16 -0.14 0.16 -0.14 0.16 -0.14 0.16 -0.13 0.15 -0.12 0.14 -0.12 0.13 -0.11 0.12 -0.1 0.11 -0.09 0.1 -0.08 0.09 -0.06 0.07 -0.05 0.06 -0.04 0.04 -0.17 0.14 -0.4 0.21 0.02 -0.03 0.03 -0.05 0.56 -0.34 -0.03 0.04 -0.01 0.02 -0.39 0.22 -0.13 0.1 0.03 -0.03 0.05 -0.05 0.06 -0.07 0.08 -0.09 0.09 -0.1 0.1 -0.11 0.11 -0.12 0.12 -0.13 0.13 -0.14 0.13 -0.15 0.14 -0.16 0.14 -0.16 0.15 -0.16 0.15 -0.16 0.15 -0.17 0.15 -0.17 0.15 -0.16 0.15 -0.16 0.15 -0.16 0.14 -0.15 0.14 -0.14 0.13 -0.14 0.13 -0.13 0.12 -0.12 0.12 -0.11 0.11 -0.1 0.12 -0.1 0.18 -0.14 0 -0zm4.68 -5.05l0.57 -0.37 0 0 -0.03 0.1 -0.05 0.12 -0.07 0.13 -0.09 0.14 -0.1 0.15 -0.12 0.16 -0.13 0.17 -0.14 0.18 -0.15 0.19 -0.16 0.19 -0.17 0.2 -0.18 0.2 -0.19 0.2 -0.19 0.21 -0.2 0.21 -0.2 0.21 -0.2 0.21 -0.2 0.2 -0.2 0.2 -0.2 0.2 -0.2 0.19 -0.2 0.19 -0.19 0.18 -0.19 0.17 -0.18 0.17 -0.18 0.16 -0.17 0.15 -0.16 0.14 -0.15 0.13 -0.15 0.12 -0.15 0.11 -0.17 0.12 -0.18 0.03 0.03 -0.02 0.08 -0.06 0.11 -0.09 0.13 -0.11 0.14 -0.12 0.15 -0.14 0.16 -0.15 0.17 -0.16 0.18 -0.17 0.19 -0.18 0.19 -0.18 0.2 -0.19 0.2 -0.19 0.2 -0.2 0.2 -0.2 0.2 -0.2 0.2 -0.2 0.19 -0.2 0.19 -0.2 0.18 -0.2 0.18 -0.2 0.17 -0.19 0.16 -0.19 0.15 -0.18 0.14 -0.18 0.13 -0.17 0.11 -0.16 0.1 -0.15 0.08 -0.14 0.07 -0.13 0.05 -0.11 0.03 -0.1 0 0zm4.92 -10.23l0.57 -0.38 0 0 0.07 0.7 0.03 0.65 0 0.61 -0.03 0.57 -0.06 0.53 -0.08 0.5 -0.1 0.46 -0.13 0.43 -0.15 0.4 -0.16 0.37 -0.18 0.35 -0.2 0.32 -0.21 0.3 -0.22 0.28 -0.23 0.26 -0.24 0.25 -0.25 0.24 -0.26 0.23 -0.26 0.22 -0.25 0.21 -0.24 0.19 -0.23 0.18 -0.21 0.17 -0.2 0.17 -0.19 0.17 -0.18 0.17 -0.17 0.18 -0.16 0.2 -0.14 0.21 -0.12 0.22 -0.1 0.24 -0.08 0.25 -0.57 0.37 0.08 -0.26 0.1 -0.24 0.13 -0.23 0.15 -0.22 0.17 -0.21 0.19 -0.21 0.21 -0.2 0.22 -0.2 0.24 -0.2 0.24 -0.2 0.24 -0.19 0.23 -0.18 0.22 -0.18 0.22 -0.19 0.22 -0.2 0.22 -0.21 0.22 -0.23 0.22 -0.25 0.21 -0.27 0.2 -0.29 0.19 -0.32 0.18 -0.34 0.16 -0.37 0.15 -0.4 0.13 -0.43 0.1 -0.46 0.08 -0.49 0.06 -0.53 0.03 -0.57 -0 -0.61 -0.03 -0.65 -0.07 -0.7 0 0zm0.57 -0.38l0 0 0 0 -0 -0zm-7.32 1.03l-0.42 0.21 -0 0 0.31 -0.25 0.3 -0.24 0.3 -0.23 0.3 -0.22 0.31 -0.22 0.31 -0.21 0.31 -0.19 0.29 -0.17 0.27 -0.14 0.24 -0.12 0.23 -0.1 0.22 -0.08 0.21 -0.07 0.2 -0.05 0.2 -0.04 0.2 -0.02 0.2 -0.01 0.2 -0 0.2 0.01 0.2 0.02 0.2 0.03 0.2 0.04 0.21 0.06 0.21 0.07 0.22 0.08 0.22 0.09 0.23 0.1 0.24 0.11 0.25 0.11 0.26 0.12 0.26 0.13 0.28 0.14 -0.57 0.38 -0.28 -0.14 -0.26 -0.13 -0.26 -0.12 -0.25 -0.11 -0.24 -0.11 -0.23 -0.1 -0.22 -0.09 -0.22 -0.08 -0.21 -0.07 -0.21 -0.06 -0.2 -0.04 -0.2 -0.03 -0.2 -0.02 -0.19 -0.01 -0.19 0 -0.19 0.01 -0.19 0.02 -0.19 0.04 -0.19 0.05 -0.19 0.06 -0.19 0.07 -0.19 0.08 -0.18 0.09 -0.17 0.09 -0.17 0.1 -0.16 0.1 -0.17 0.12 -0.19 0.14 -0.22 0.16 -0.24 0.18 -0.26 0.21 -0.28 0.23 -0 0zm-2.78 2.01l-0.57 0.36 0 0 0.12 -0.19 0.12 -0.18 0.11 -0.16 0.11 -0.15 0.11 -0.14 0.11 -0.13 0.11 -0.12 0.12 -0.11 0.13 -0.11 0.16 -0.13 0.2 -0.14 0.22 -0.14 0.18 -0.11 0.14 -0.07 0.12 -0.05 0.1 -0.04 0.1 -0.04 0.09 -0.03 0.09 -0.03 0.08 -0.02 0.08 -0.02 0.08 -0.02 0.08 -0.02 0.07 -0.02 0.07 -0.02 0.07 -0.02 0.06 -0.02 0.05 -0.02 0.02 -0.01 -0.05 0.03 -0.09 0.06 -0.03 0.03 0.42 -0.21 -0.17 0.13 -0.23 0.15 -0.19 0.11 -0.12 0.06 -0.09 0.04 -0.08 0.03 -0.08 0.03 -0.08 0.02 -0.08 0.02 -0.08 0.02 -0.08 0.02 -0.08 0.02 -0.08 0.02 -0.08 0.02 -0.08 0.03 -0.08 0.03 -0.07 0.03 -0.06 0.03 -0.04 0.02 -0.01 0 0.03 -0.02 0.01 -0 -0.04 0.03 -0.07 0.06 -0.09 0.08 -0.1 0.1 -0.1 0.11 -0.11 0.13 -0.11 0.14 -0.11 0.16 -0.11 0.17 -0.12 0.19 0 0zm-2.83 4.68l0.33 -0.14 -0 0 -0.3 0.22 -0.33 0.19 -0.15 0.06 -0.07 -0 -0.03 -0.04 -0.01 -0.06 0.02 -0.09 0.04 -0.11 0.06 -0.14 0.08 -0.16 0.09 -0.17 0.11 -0.19 0.12 -0.2 0.13 -0.21 0.14 -0.22 0.14 -0.23 0.15 -0.23 0.15 -0.24 0.16 -0.24 0.16 -0.24 0.16 -0.23 0.15 -0.22 0.15 -0.22 0.14 -0.21 0.13 -0.19 0.12 -0.18 0.11 -0.16 0.1 -0.14 0.08 -0.12 0.07 -0.1 0.05 -0.07 0.03 -0.04 0.57 -0.36 -0.03 0.04 -0.05 0.07 -0.07 0.1 -0.08 0.12 -0.1 0.14 -0.11 0.16 -0.12 0.18 -0.13 0.19 -0.14 0.21 -0.15 0.22 -0.15 0.22 -0.16 0.23 -0.16 0.23 -0.16 0.24 -0.15 0.24 -0.15 0.23 -0.14 0.23 -0.14 0.22 -0.13 0.21 -0.12 0.2 -0.11 0.19 -0.09 0.17 -0.07 0.15 -0.06 0.13 -0.04 0.11 -0.02 0.09 0.01 0.06 0.03 0.03 0.04 0 0.02 -0 -0.1 0.06 -0.01 0.01 -0 0zm14.55 -5.3l-0.57 0.38 0 0 -0.29 -0.84 -0.31 -0.72 -0.34 -0.6 -0.36 -0.49 -0.38 -0.39 -0.4 -0.29 -0.41 -0.2 -0.43 -0.12 -0.44 -0.04 -0.45 0.04 -0.46 0.11 -0.45 0.16 -0.43 0.2 -0.37 0.21 -0.35 0.24 -0.41 0.31 -0.46 0.38 -0.48 0.42 -0.49 0.46 -0.5 0.48 -0.49 0.5 -0.49 0.51 -0.49 0.51 -0.48 0.51 -0.47 0.5 -0.46 0.49 -0.45 0.47 -0.44 0.45 -0.42 0.42 -0.41 0.39 -0.4 0.36 -0.42 0.34 -0.33 0.14 0.3 -0.25 0.36 -0.32 0.39 -0.37 0.41 -0.41 0.43 -0.44 0.45 -0.47 0.46 -0.49 0.47 -0.5 0.48 -0.51 0.49 -0.52 0.5 -0.51 0.5 -0.51 0.51 -0.49 0.52 -0.48 0.53 -0.46 0.55 -0.44 0.59 -0.44 0.64 -0.43 0.61 -0.36 0.54 -0.26 0.5 -0.18 0.48 -0.11 0.46 -0.04 0.45 0.04 0.43 0.12 0.41 0.2 0.4 0.3 0.38 0.39 0.36 0.5 0.34 0.6 0.31 0.72 0.29 0.84 0 0zm-5.32 8.26l-0.55 0.34 0 0 0.18 -0.22 0.2 -0.23 0.21 -0.23 0.22 -0.24 0.23 -0.24 0.23 -0.24 0.24 -0.25 0.24 -0.25 0.25 -0.25 0.25 -0.25 0.25 -0.26 0.24 -0.26 0.24 -0.26 0.24 -0.26 0.23 -0.26 0.23 -0.26 0.22 -0.27 0.21 -0.27 0.2 -0.27 0.19 -0.27 0.17 -0.27 0.16 -0.27 0.14 -0.27 0.13 -0.27 0.11 -0.27 0.09 -0.27 0.06 -0.27 0.04 -0.27 0.02 -0.26 -0.01 -0.26 -0.04 -0.26 -0.06 -0.26 0.57 -0.38 0.06 0.26 0.04 0.26 0.01 0.26 -0.02 0.26 -0.04 0.27 -0.06 0.27 -0.09 0.27 -0.11 0.27 -0.13 0.27 -0.14 0.27 -0.16 0.27 -0.18 0.27 -0.19 0.27 -0.2 0.27 -0.21 0.27 -0.22 0.27 -0.23 0.27 -0.24 0.27 -0.24 0.27 -0.25 0.26 -0.25 0.26 -0.25 0.26 -0.25 0.26 -0.25 0.25 -0.24 0.25 -0.24 0.24 -0.23 0.24 -0.22 0.24 -0.21 0.23 -0.2 0.23 -0.19 0.22 -0.18 0.22 0 0zm-2.69 3.14l-0.57 0.37 0.02 -0.08 0.03 -0.08 0.04 -0.09 0.05 -0.09 0.06 -0.1 0.07 -0.1 0.07 -0.1 0.08 -0.11 0.09 -0.11 0.09 -0.11 0.1 -0.11 0.1 -0.11 0.1 -0.12 0.11 -0.12 0.11 -0.12 0.11 -0.12 0.11 -0.12 0.11 -0.11 0.11 -0.11 0.11 -0.11 0.11 -0.11 0.11 -0.11 0.1 -0.11 0.1 -0.1 0.1 -0.1 0.09 -0.09 0.09 -0.09 0.08 -0.08 0.07 -0.08 0.07 -0.07 0.06 -0.07 0.05 -0.06 0.55 -0.34 -0.05 0.07 -0.06 0.07 -0.07 0.08 -0.08 0.08 -0.08 0.09 -0.09 0.09 -0.09 0.1 -0.1 0.1 -0.1 0.1 -0.1 0.11 -0.11 0.11 -0.11 0.11 -0.11 0.11 -0.11 0.11 -0.11 0.11 -0.11 0.11 -0.11 0.11 -0.11 0.11 -0.11 0.11 -0.1 0.11 -0.1 0.11 -0.09 0.11 -0.09 0.11 -0.08 0.11 -0.08 0.1 -0.07 0.1 -0.06 0.1 -0.06 0.09 -0.05 0.09 -0.04 0.08 -0.03 0.08 -0.02 0.07z"/>
  </g>
  <g>
   <path class="fil1" d="M38.63 31.53l0.57 -0.38 0 0 0.33 0.52 0.27 0.45 0.21 0.37 0.16 0.3 0.11 0.24 0.06 0.18 0.02 0.12 -0.08 0.13 -0.57 0.33 -0.1 -0.03 -0.13 -0.08 -0.16 -0.11 -0.18 -0.15 -0.2 -0.18 -0.22 -0.21 -0.24 -0.23 -0.25 -0.25 -0.26 -0.27 -0.27 -0.28 -0.27 -0.28 -0.27 -0.29 -0.27 -0.29 -0.27 -0.28 -0.26 -0.28 -0.24 -0.26 -0.23 -0.25 -0.21 -0.23 -0.19 -0.21 -0.17 -0.18 -0.14 -0.15 -0.11 -0.11 -0.07 -0.07 0.57 -0.38 0.07 0.08 0.11 0.11 0.14 0.15 0.17 0.18 0.19 0.21 0.21 0.23 0.23 0.25 0.24 0.26 0.26 0.28 0.26 0.28 0.27 0.29 0.27 0.29 0.27 0.28 0.27 0.28 0.26 0.27 0.25 0.25 0.24 0.23 0.22 0.21 0.2 0.18 0.18 0.15 0.16 0.11 0.13 0.08 0.09 0.03 -0.45 0.31 -0.03 -0 -0.02 -0.12 -0.06 -0.17 -0.11 -0.24 -0.16 -0.3 -0.21 -0.37 -0.27 -0.45 -0.33 -0.52 0 0zm1.14 0.53l-0.57 0.38 0 0 -0.43 -0.41 -0.4 -0.41 -0.38 -0.39 -0.35 -0.38 -0.32 -0.37 -0.3 -0.36 -0.27 -0.34 -0.24 -0.32 -0.22 -0.3 -0.19 -0.28 -0.16 -0.25 -0.14 -0.23 -0.11 -0.2 -0.08 -0.18 -0.06 -0.15 -0.03 -0.11 -0 -0.08 0.12 -0.14 0.52 -0.29 0.08 0.03 0.1 0.07 0.13 0.11 0.15 0.15 0.18 0.2 0.21 0.24 0.23 0.29 0.26 0.34 0.29 0.39 0.31 0.44 0.34 0.5 0.37 0.55 0.39 0.61 -0.57 0.38 -0.39 -0.61 -0.37 -0.55 -0.34 -0.5 -0.31 -0.44 -0.29 -0.39 -0.26 -0.34 -0.23 -0.29 -0.21 -0.24 -0.18 -0.2 -0.15 -0.15 -0.13 -0.11 -0.1 -0.07 -0.07 -0.03 0.42 -0.27 0.08 -0.05 0 0.08 0.03 0.11 0.06 0.15 0.08 0.17 0.11 0.2 0.14 0.23 0.16 0.25 0.19 0.28 0.22 0.3 0.24 0.32 0.27 0.34 0.3 0.36 0.32 0.37 0.35 0.38 0.38 0.39 0.4 0.41 0.43 0.41 0 0zm0.71 1.08l-0.57 0.37 0 -0.03 -0 -0.03 -0.01 -0.03 -0.01 -0.03 -0.01 -0.03 -0.01 -0.04 -0.01 -0.04 -0.02 -0.04 -0.02 -0.04 -0.02 -0.04 -0.02 -0.04 -0.02 -0.04 -0.02 -0.04 -0.03 -0.04 -0.03 -0.04 -0.03 -0.04 -0.03 -0.04 -0.03 -0.04 -0.03 -0.04 -0.03 -0.04 -0.03 -0.04 -0.03 -0.04 -0.03 -0.03 -0.03 -0.03 -0.03 -0.03 -0.03 -0.03 -0.03 -0.03 -0.03 -0.03 -0.03 -0.03 -0.02 -0.02 -0.02 -0.02 -0.02 -0.02 0.57 -0.38 0.02 0.02 0.02 0.02 0.02 0.02 0.03 0.03 0.03 0.03 0.03 0.03 0.03 0.03 0.03 0.03 0.03 0.03 0.03 0.03 0.03 0.04 0.03 0.04 0.03 0.04 0.03 0.04 0.03 0.04 0.03 0.04 0.03 0.04 0.03 0.04 0.03 0.04 0.02 0.04 0.02 0.04 0.02 0.04 0.02 0.04 0.02 0.04 0.02 0.04 0.01 0.04 0.01 0.04 0.01 0.04 0.01 0.03 0.01 0.03 0 0.03 -0 0.03z"/>
  </g>
  <g>
   <path class="fil1" d="M25.36 28.62l-0.56 0.39 0 0 -0.16 0 -0.15 0.01 -0.14 0.02 -0.12 0.03 -0.11 0.03 -0.09 0.03 -0.04 0.02 0.07 -0.04 0.1 -0.07 -0.01 0.01 -0.05 0.06 -0.06 0.07 -0.06 0.08 -0.06 0.09 -0.05 0.1 -0.04 0.11 -0.04 0.11 -0.04 0.12 -0.03 0.12 -0.03 0.13 -0.02 0.13 -0.02 0.14 -0.02 0.14 -0.01 0.14 -0.01 0.15 -0.01 0.15 -0.01 0.16 -0 0.16 -0 0.16 -0 0.16 -0 0.17 0 0.17 -0.57 0.37 0 -0.17 0 -0.17 0 -0.16 0 -0.16 0 -0.16 0.01 -0.16 0.01 -0.15 0.01 -0.15 0.01 -0.14 0.02 -0.14 0.02 -0.14 0.02 -0.13 0.03 -0.13 0.03 -0.12 0.04 -0.12 0.04 -0.11 0.05 -0.11 0.05 -0.1 0.06 -0.1 0.07 -0.09 0.08 -0.09 0.1 -0.1 0.15 -0.13 0.28 -0.2 0.26 -0.15 0.16 -0.08 0.14 -0.05 0.13 -0.04 0.13 -0.03 0.14 -0.02 0.15 -0.01 0.16 -0 0 0zm1.33 3.25l-0.56 0.39 0 0 -0.16 -0.01 -0.13 -0.03 -0.11 -0.04 -0.08 -0.06 -0.06 -0.07 -0.04 -0.09 -0.02 -0.1 -0.01 -0.11 0.01 -0.12 0.02 -0.13 0.03 -0.13 0.03 -0.14 0.04 -0.15 0.04 -0.15 0.04 -0.15 0.04 -0.15 0.04 -0.15 0.04 -0.15 0.03 -0.15 0.02 -0.14 0.01 -0.14 -0 -0.13 -0.01 -0.13 -0.03 -0.12 -0.05 -0.11 -0.07 -0.1 -0.09 -0.09 -0.11 -0.07 -0.14 -0.06 -0.17 -0.04 -0.2 -0.03 -0.23 -0.01 0.56 -0.39 0.23 0.01 0.2 0.03 0.17 0.04 0.14 0.06 0.12 0.07 0.09 0.09 0.07 0.1 0.05 0.11 0.03 0.12 0.01 0.13 0 0.13 -0.01 0.14 -0.02 0.15 -0.03 0.15 -0.04 0.15 -0.04 0.15 -0.04 0.15 -0.04 0.15 -0.04 0.15 -0.04 0.15 -0.03 0.14 -0.03 0.13 -0.02 0.13 -0.01 0.12 0.01 0.11 0.02 0.1 0.04 0.09 0.06 0.07 0.08 0.06 0.1 0.04 0.13 0.03 0.15 0.01 0 0zm2.78 2.42l-0.57 0.37 0 0 0.01 -0.23 0.01 -0.21 0 -0.2 -0 -0.19 -0.01 -0.17 -0.01 -0.16 -0.02 -0.15 -0.03 -0.13 -0.03 -0.12 -0.04 -0.11 -0.05 -0.1 -0.05 -0.09 -0.06 -0.08 -0.07 -0.07 -0.07 -0.06 -0.08 -0.06 -0.09 -0.05 -0.09 -0.04 -0.1 -0.04 -0.11 -0.03 -0.11 -0.03 -0.12 -0.02 -0.13 -0.02 -0.14 -0.01 -0.14 -0.01 -0.15 -0.01 -0.16 -0 -0.17 -0 -0.18 -0 -0.18 0 -0.19 0 -0.2 0 0.56 -0.39 0.2 0 0.19 -0 0.18 -0 0.18 0 0.17 0 0.16 0 0.15 0.01 0.14 0.01 0.14 0.01 0.13 0.02 0.12 0.02 0.12 0.03 0.11 0.03 0.1 0.04 0.09 0.04 0.09 0.05 0.08 0.06 0.07 0.07 0.07 0.07 0.06 0.08 0.05 0.09 0.05 0.1 0.04 0.11 0.03 0.12 0.03 0.13 0.02 0.15 0.01 0.16 0.01 0.17 0 0.19 -0 0.2 -0.01 0.22 -0.01 0.23 0 0zm-2.52 2.71l-0.57 0.37 0 0 0.04 -0.41 0.05 -0.37 0.06 -0.32 0.07 -0.28 0.07 -0.25 0.08 -0.21 0.09 -0.18 0.09 -0.15 0.11 -0.13 0.17 -0.15 0.43 -0.29 0.22 -0.11 0.13 -0.04 0.11 -0.01 0.11 0 0.11 0.01 0.11 0.02 0.1 0.03 0.1 0.03 0.1 0.04 0.1 0.03 0.09 0.03 0.09 0.03 0.08 0.02 0.07 0.01 0.06 -0 -0 0.01 -0.4 0.27 0.01 -0.02 0.03 -0.07 0.03 -0.1 0.02 -0.13 0.57 -0.37 -0.02 0.13 -0.03 0.11 -0.04 0.08 -0.08 0.09 -0.51 0.34 -0.13 0.04 -0.08 0.01 -0.08 -0.01 -0.08 -0.02 -0.09 -0.03 -0.09 -0.03 -0.1 -0.03 -0.1 -0.03 -0.1 -0.03 -0.1 -0.03 -0.11 -0.02 -0.11 -0.01 -0.1 -0 -0.1 0.01 -0.08 0.02 0.01 -0.01 0.23 -0.16 -0.03 0.03 -0.08 0.1 -0.09 0.14 -0.08 0.17 -0.08 0.21 -0.07 0.24 -0.07 0.28 -0.06 0.32 -0.05 0.36 -0.04 0.41 0 0zm-3.19 -1.08l0.57 -0.38 0 0 0.03 0.28 0.04 0.27 0.05 0.25 0.06 0.24 0.07 0.22 0.08 0.21 0.08 0.19 0.09 0.17 0.09 0.16 0.1 0.14 0.1 0.13 0.11 0.11 0.11 0.1 0.11 0.08 0.11 0.07 0.11 0.05 0.11 0.04 0.11 0.02 0.11 0.01 0.1 -0.01 0.09 -0.02 0.05 -0.02 -0.13 0.08 -0.13 0.09 0.05 -0.05 0.07 -0.09 0.07 -0.11 0.06 -0.13 0.05 -0.14 0.04 -0.16 0.03 -0.17 0.02 -0.19 0.57 -0.37 -0.02 0.19 -0.03 0.17 -0.04 0.16 -0.05 0.14 -0.06 0.13 -0.07 0.12 -0.09 0.11 -0.12 0.12 -0.31 0.23 -0.32 0.19 -0.15 0.06 -0.12 0.03 -0.11 0.01 -0.11 -0.01 -0.11 -0.02 -0.11 -0.04 -0.11 -0.05 -0.11 -0.07 -0.11 -0.08 -0.11 -0.1 -0.11 -0.11 -0.1 -0.13 -0.1 -0.14 -0.09 -0.16 -0.09 -0.17 -0.08 -0.19 -0.08 -0.21 -0.07 -0.22 -0.06 -0.24 -0.05 -0.25 -0.04 -0.27 -0.03 -0.28 0 0zm-3.27 -3.37l0.57 -0.37 0 0 -0.08 0.42 -0.05 0.38 -0.02 0.34 0 0.3 0.03 0.26 0.05 0.23 0.07 0.2 0.08 0.17 0.1 0.14 0.12 0.12 0.13 0.09 0.14 0.07 0.15 0.05 0.16 0.04 0.16 0.03 0.17 0.01 0.17 0 0.18 -0 0.18 -0.01 0.17 -0.01 0.17 -0.01 0.17 -0.01 0.16 -0 0.15 0 0.14 0.01 0.13 0.02 0.12 0.04 0.1 0.05 0.08 0.07 0.07 0.09 0.05 0.11 0.02 0.14 -0.57 0.38 -0.02 -0.13 -0.04 -0.11 -0.07 -0.09 -0.08 -0.07 -0.1 -0.05 -0.11 -0.04 -0.13 -0.02 -0.14 -0.01 -0.15 -0 -0.16 0 -0.16 0.01 -0.17 0.01 -0.17 0.01 -0.18 0.01 -0.18 0 -0.18 -0 -0.17 -0.01 -0.17 -0.03 -0.16 -0.04 -0.15 -0.06 -0.14 -0.07 -0.13 -0.09 -0.12 -0.12 -0.1 -0.14 -0.09 -0.17 -0.07 -0.2 -0.05 -0.23 -0.03 -0.27 -0 -0.3 0.02 -0.34 0.05 -0.38 0.08 -0.42 0 0zm2.42 -1.17l0.57 -0.37 0 0 -0.01 0.16 -0.02 0.14 -0.03 0.12 -0.04 0.1 -0.05 0.09 -0.08 0.09 -0.31 0.24 -0.32 0.18 -0.12 0.04 -0.1 0.02 -0.1 0.01 -0.1 0 -0.1 -0.01 -0.1 -0.01 -0.11 -0.01 -0.11 -0.02 -0.11 -0.02 -0.11 -0.02 -0.11 -0.02 -0.11 -0.01 -0.1 -0.01 -0.1 -0.01 -0.1 0 -0.09 0.01 -0.08 0.01 -0.05 0.02 0.11 -0.06 0.23 -0.16 -0.02 0.03 -0.04 0.07 -0.04 0.09 -0.03 0.11 -0.57 0.37 0.03 -0.12 0.04 -0.1 0.06 -0.09 0.09 -0.1 0.36 -0.26 0.26 -0.14 0.11 -0.04 0.09 -0.02 0.1 -0.01 0.1 0 0.1 0.01 0.1 0.01 0.11 0.01 0.11 0.02 0.11 0.02 0.11 0.02 0.11 0.02 0.1 0.01 0.1 0.01 0.1 0.01 0.09 -0 0.09 -0.01 0.08 -0.02 0.04 -0.01 -0.17 0.1 -0.17 0.13 0.03 -0.04 0.05 -0.08 0.04 -0.1 0.03 -0.12 0.02 -0.14 0.01 -0.16 0 0zm3.82 0.39l-0.57 0.37 0 0 0.01 -0.43 -0.01 -0.4 -0.03 -0.38 -0.05 -0.35 -0.06 -0.33 -0.08 -0.3 -0.09 -0.28 -0.11 -0.25 -0.12 -0.23 -0.13 -0.2 -0.13 -0.17 -0.14 -0.15 -0.15 -0.12 -0.15 -0.09 -0.15 -0.07 -0.15 -0.04 -0.15 -0.02 -0.15 0.01 -0.14 0.03 -0.07 0.03 0.17 -0.11 -0.02 0.02 -0.11 0.13 -0.12 0.17 -0.11 0.2 -0.1 0.23 -0.09 0.26 -0.08 0.29 -0.06 0.31 -0.05 0.34 -0.03 0.37 -0.01 0.4 -0.57 0.37 0.01 -0.4 0.03 -0.37 0.05 -0.34 0.06 -0.32 0.08 -0.29 0.09 -0.26 0.11 -0.23 0.12 -0.21 0.13 -0.18 0.15 -0.17 0.26 -0.22 0.46 -0.29 0.23 -0.1 0.17 -0.04 0.16 -0.01 0.16 0.02 0.16 0.04 0.16 0.07 0.15 0.1 0.15 0.12 0.14 0.15 0.13 0.17 0.13 0.2 0.12 0.23 0.11 0.25 0.09 0.28 0.08 0.3 0.06 0.33 0.05 0.35 0.03 0.38 0.01 0.4 -0.01 0.43 0 0zm2.4 2.79l0.51 -0.37 -0.54 0.37 -0.01 -0.35 -0.02 -0.31 -0.04 -0.28 -0.05 -0.25 -0.07 -0.22 -0.08 -0.19 -0.09 -0.16 -0.1 -0.14 -0.11 -0.12 -0.12 -0.1 -0.12 -0.07 -0.13 -0.06 -0.13 -0.04 -0.13 -0.03 -0.14 -0.02 -0.14 -0 -0.14 0 -0.14 0.01 -0.13 0.02 -0.13 0.02 -0.13 0.02 -0.12 0.02 -0.12 0.02 -0.11 0.02 -0.1 0.01 -0.09 0 -0.08 -0 -0.07 -0.01 -0.05 -0.03 -0.04 -0.04 -0.02 -0.06 -0.01 -0.08 0.57 -0.37 0.01 0.07 0.02 0.06 0.04 0.04 0.05 0.03 0.06 0.01 0.07 0 0.09 -0 0.1 -0.01 0.11 -0.02 0.11 -0.02 0.12 -0.02 0.13 -0.02 0.13 -0.02 0.14 -0.02 0.14 -0.01 0.14 -0 0.14 0 0.14 0.02 0.14 0.03 0.13 0.04 0.13 0.06 0.12 0.08 0.12 0.1 0.11 0.12 0.1 0.14 0.09 0.16 0.08 0.19 0.07 0.22 0.05 0.25 0.04 0.28 0.02 0.31 0.01 0.35 -0.54 0.37zm0.54 -0.37l0 0.19 -0.54 0.19 0.54 -0.37zm-2.63 0.64l-0.56 0.35 0.56 -0.37 0.21 -0 0.2 -0 0.18 -0 0.16 -0 0.15 -0.01 0.13 -0.01 0.12 -0.01 0.1 -0.01 0.09 -0.01 0.08 -0.01 0.07 -0.01 0.06 -0.01 0.05 -0.01 0.04 -0.01 0.03 -0.01 0 -0 -0.03 0.02 -0.09 0.05 -0.08 0.05 0 -0 0.02 -0.02 0.04 -0.03 0.08 -0.06 0.1 -0.07 0.12 -0.08 0.15 -0.09 0.11 -0.06 0.1 -0.05 0.09 -0.04 0.1 -0.04 0.1 -0.04 0.11 -0.04 -0.51 0.37 -0.1 0.04 -0.09 0.03 -0.07 0.03 -0.05 0.02 -0.03 0.02 -0.01 0 0.04 -0.03 0.03 -0.02 0.01 -0.01 0 0 -0.03 0.02 -0.04 0.03 -0.06 0.05 -0.14 0.1 -0.16 0.1 -0.11 0.06 -0.08 0.04 -0.06 0.03 -0.06 0.02 -0.06 0.02 -0.07 0.01 -0.08 0.01 -0.08 0.01 -0.09 0.01 -0.11 0.01 -0.12 0.01 -0.13 0.01 -0.15 0.01 -0.16 0 -0.18 0 -0.2 0 -0.21 0 0.56 -0.37zm-0.56 0.35l0.23 -0.37 0.33 0 -0.56 0.37zm-2.73 3.35l0.57 -0.38 0 0 0.21 0.09 0.2 0.05 0.18 0.03 0.17 0 0.16 -0.02 0.14 -0.04 0.06 -0.03 -0.13 0.08 0 -0 0.09 -0.1 0.11 -0.13 0.1 -0.14 0.1 -0.16 0.09 -0.17 0.08 -0.17 0.08 -0.18 0.07 -0.18 0.06 -0.18 0.06 -0.18 0.05 -0.18 0.05 -0.18 0.04 -0.17 0.04 -0.16 0.03 -0.15 0.03 -0.14 0.02 -0.13 0.02 -0.12 0.01 -0.1 0.01 -0.08 0.01 -0.06 0.01 -0.04 0.01 -0.02 0.56 -0.35 0 0.01 -0.01 0.04 -0.01 0.06 -0.01 0.08 -0.01 0.1 -0.02 0.12 -0.02 0.13 -0.03 0.14 -0.03 0.15 -0.04 0.16 -0.04 0.17 -0.05 0.18 -0.05 0.18 -0.06 0.18 -0.06 0.18 -0.07 0.18 -0.08 0.18 -0.09 0.18 -0.09 0.17 -0.1 0.16 -0.11 0.15 -0.12 0.15 -0.15 0.15 -0.26 0.21 -0.41 0.26 -0.24 0.11 -0.18 0.05 -0.18 0.03 -0.18 0 -0.19 -0.03 -0.2 -0.06 -0.21 -0.09 0 0zm-1.77 -3.15l0.53 -0.38 0 0 0.27 -0.07 0.24 -0.05 0.21 -0.02 0.18 -0 0.15 0.01 0.12 0.03 0.1 0.05 0.07 0.06 0.05 0.08 0.04 0.09 0.02 0.1 0.01 0.11 -0 0.12 -0.01 0.13 -0.02 0.14 -0.03 0.15 -0.03 0.15 -0.03 0.15 -0.03 0.16 -0.03 0.16 -0.03 0.16 -0.02 0.16 -0.01 0.15 0 0.15 0.01 0.15 0.03 0.14 0.04 0.14 0.06 0.13 0.08 0.12 0.1 0.11 0.13 0.1 0.15 0.09 -0.57 0.38 -0.16 -0.09 -0.13 -0.1 -0.11 -0.11 -0.08 -0.12 -0.06 -0.13 -0.04 -0.14 -0.03 -0.14 -0.01 -0.15 0 -0.15 0.01 -0.16 0.02 -0.16 0.03 -0.16 0.03 -0.16 0.03 -0.16 0.03 -0.15 0.03 -0.15 0.03 -0.14 0.02 -0.14 0.01 -0.13 0 -0.12 -0.01 -0.11 -0.02 -0.1 -0.04 -0.09 -0.05 -0.08 -0.07 -0.06 -0.09 -0.05 -0.12 -0.03 -0.14 -0.01 -0.17 0 -0.2 0.02 -0.23 0.04 -0.26 0.07 0 0zm0.56 -3.33l-0.57 0.38 0 0 -0.27 -0.1 -0.25 -0.07 -0.22 -0.04 -0.2 -0.01 -0.17 0.02 -0.14 0.04 0.03 -0.02 0.22 -0.15 -0.06 0.07 -0.07 0.11 -0.06 0.13 -0.04 0.15 -0.02 0.16 -0.01 0.17 0.01 0.17 0.02 0.18 0.04 0.18 0.05 0.18 0.06 0.18 0.08 0.17 0.09 0.17 0.1 0.16 0.11 0.15 0.12 0.14 0.12 0.12 0.13 0.11 0.14 0.09 0.14 0.07 0.15 0.05 0.15 0.02 0.15 -0 0.15 -0.03 -0.53 0.38 -0.17 0.03 -0.16 0 -0.16 -0.02 -0.15 -0.05 -0.14 -0.07 -0.14 -0.09 -0.13 -0.11 -0.12 -0.13 -0.12 -0.14 -0.11 -0.15 -0.1 -0.16 -0.09 -0.17 -0.08 -0.18 -0.06 -0.18 -0.05 -0.18 -0.04 -0.18 -0.02 -0.18 -0.01 -0.17 0.01 -0.17 0.02 -0.16 0.04 -0.15 0.06 -0.14 0.08 -0.13 0.13 -0.14 0.45 -0.32 0.3 -0.15 0.18 -0.05 0.18 -0.02 0.2 0.01 0.23 0.04 0.25 0.07 0.27 0.1 0 0zm0.58 -2.01l0.57 -0.37 0 0.08 0 0.08 0 0.09 -0 0.1 -0 0.1 -0 0.11 -0 0.11 -0 0.11 -0.01 0.11 -0.01 0.11 -0.01 0.11 -0.01 0.11 -0.01 0.11 -0.02 0.11 -0.02 0.11 -0.02 0.11 -0.03 0.1 -0.03 0.1 -0.04 0.09 -0.04 0.09 -0.05 0.08 -0.05 0.08 -0.06 0.08 -0.11 0.1 -0.32 0.23 -0.26 0.14 -0.11 0.04 -0.09 0.02 -0.09 0 -0.1 -0.01 -0.1 -0.02 -0.11 -0.04 0.57 -0.38 0.11 0.04 0.1 0.02 0.09 0.01 0.08 -0 0.07 -0.01 0.04 -0.01 -0.12 0.07 -0.2 0.14 0.01 -0.01 0.04 -0.05 0.05 -0.07 0.04 -0.08 0.04 -0.09 0.04 -0.09 0.03 -0.1 0.03 -0.1 0.02 -0.11 0.02 -0.11 0.02 -0.11 0.01 -0.11 0.01 -0.11 0.01 -0.11 0.01 -0.11 0.01 -0.11 0 -0.11 0 -0.11 0 -0.11 0 -0.1 0 -0.1 0 -0.09 0 -0.08 0 -0.08z"/>
  </g>
 </g>
</svg>
