<?xml version="1.0" encoding="UTF-8"?>
<!DOCTYPE svg PUBLIC "-//W3C//DTD SVG 1.1//EN" "http://www.w3.org/Graphics/SVG/1.1/DTD/svg11.dtd">
<!-- Creator: CorelDRAW 2019 (64-Bit) -->
<svg xmlns="http://www.w3.org/2000/svg" xml:space="preserve" width="0.445886in" height="0.449366in" version="1.1" style="shape-rendering:geometricPrecision; text-rendering:geometricPrecision; image-rendering:optimizeQuality; fill-rule:evenodd; clip-rule:evenodd"
viewBox="0 0 214.61 216.29"
 xmlns:xlink="http://www.w3.org/1999/xlink"
 xmlns:xodm="http://www.corel.com/coreldraw/odm/2003">
 <defs>
  <style type="text/css">
   <![CDATA[
    .str0 {stroke:#FEFEFE;stroke-width:1.34;stroke-miterlimit:2.61313}
    .fil2 {fill:none}
    .fil1 {fill:#FEFEFE;fill-rule:nonzero}
    .fil0 {fill:#383838;fill-rule:nonzero}
   ]]>
  </style>
 </defs>
 <g id="Layer_x0020_1">
  <metadata id="CorelCorpID_0Corel-Layer"/>
  <g id="_1601857356176">
   <g>
    <path class="fil0" d="M210.37 110.65l-2.79 1.83 0 0 -0.13 -5.34 -0.4 -5.27 -0.66 -5.19 -0.91 -5.11 -1.16 -5.02 -1.4 -4.93 -1.63 -4.82 -1.86 -4.71 -2.08 -4.6 -2.29 -4.48 -2.5 -4.35 -2.7 -4.21 -2.89 -4.07 -3.08 -3.92 -3.26 -3.77 -3.44 -3.6 -3.6 -3.44 -3.77 -3.26 -3.92 -3.08 -4.07 -2.89 -4.21 -2.7 -4.35 -2.5 -4.47 -2.29 -4.6 -2.08 -4.71 -1.86 -4.82 -1.63 -4.93 -1.4 -5.02 -1.16 -5.11 -0.91 -5.19 -0.66 -5.27 -0.4 -5.34 -0.13 2.71 -1.88 5.35 0.13 5.27 0.4 5.2 0.66 5.11 0.91 5.02 1.16 4.93 1.4 4.82 1.63 4.72 1.86 4.6 2.08 4.48 2.29 4.35 2.5 4.21 2.7 4.07 2.89 3.92 3.08 3.77 3.27 3.61 3.44 3.44 3.6 3.26 3.77 3.08 3.92 2.89 4.07 2.7 4.21 2.5 4.35 2.29 4.48 2.08 4.6 1.86 4.71 1.63 4.82 1.4 4.93 1.16 5.02 0.91 5.11 0.66 5.19 0.4 5.27 0.13 5.34 0 0zm-106.54 105.64l2.71 -1.88 0 0 5.34 -0.13 5.26 -0.4 5.18 -0.66 5.1 -0.91 5 -1.15 4.9 -1.39 4.78 -1.62 4.64 -1.83 4.47 -2.02 4.25 -2.18 3.95 -2.26 3.63 -2.33 3.54 -2.52 3.6 -2.83 3.6 -3.12 3.52 -3.36 3.39 -3.56 3.23 -3.73 3.06 -3.9 2.88 -4.05 2.69 -4.2 2.5 -4.34 2.29 -4.47 2.07 -4.59 1.86 -4.71 1.63 -4.82 1.4 -4.92 1.16 -5.02 0.91 -5.11 0.66 -5.19 0.4 -5.27 0.13 -5.34 2.79 -1.83 -0.13 5.34 -0.4 5.27 -0.66 5.2 -0.92 5.11 -1.16 5.02 -1.4 4.93 -1.63 4.83 -1.86 4.72 -2.08 4.6 -2.29 4.48 -2.5 4.35 -2.71 4.22 -2.9 4.09 -3.1 3.94 -3.29 3.8 -3.48 3.65 -3.69 3.52 -3.93 3.4 -4.24 3.33 -4.6 3.27 -4.79 3.07 -4.75 2.73 -4.7 2.41 -4.72 2.14 -4.79 1.89 -4.86 1.65 -4.96 1.41 -5.04 1.16 -5.13 0.92 -5.21 0.66 -5.28 0.4 -5.35 0.13 0 0zm-103.83 -103.82l2.79 -1.83 0 0 0.13 5.34 0.4 5.27 0.66 5.19 0.91 5.11 1.16 5.02 1.4 4.93 1.63 4.82 1.86 4.71 2.08 4.6 2.29 4.48 2.5 4.35 2.7 4.21 2.89 4.07 3.08 3.92 3.26 3.77 3.44 3.6 3.6 3.44 3.77 3.26 3.92 3.08 4.07 2.89 4.21 2.7 4.35 2.5 4.47 2.29 4.6 2.08 4.71 1.86 4.82 1.63 4.92 1.4 5.02 1.16 5.11 0.91 5.19 0.66 5.27 0.4 5.33 0.13 -2.71 1.88 -5.35 -0.13 -5.28 -0.4 -5.2 -0.66 -5.11 -0.91 -5.02 -1.16 -4.93 -1.4 -4.82 -1.63 -4.71 -1.86 -4.6 -2.08 -4.48 -2.29 -4.35 -2.5 -4.21 -2.7 -4.07 -2.89 -3.92 -3.08 -3.77 -3.27 -3.61 -3.44 -3.44 -3.6 -3.26 -3.77 -3.08 -3.92 -2.89 -4.07 -2.7 -4.21 -2.5 -4.35 -2.29 -4.48 -2.08 -4.6 -1.86 -4.71 -1.63 -4.82 -1.4 -4.93 -1.16 -5.02 -0.91 -5.11 -0.66 -5.19 -0.4 -5.27 -0.13 -5.34 0 0zm106.54 -105.64l-2.71 1.88 0 0 -5.33 0.13 -5.26 0.4 -5.18 0.66 -5.1 0.91 -5 1.15 -4.9 1.39 -4.78 1.62 -4.64 1.83 -4.48 2.02 -4.25 2.18 -3.94 2.26 -3.63 2.33 -3.54 2.52 -3.61 2.83 -3.6 3.12 -3.52 3.36 -3.39 3.56 -3.23 3.73 -3.06 3.9 -2.88 4.05 -2.69 4.2 -2.49 4.34 -2.29 4.47 -2.07 4.59 -1.86 4.71 -1.63 4.82 -1.4 4.92 -1.16 5.02 -0.91 5.11 -0.66 5.19 -0.4 5.27 -0.13 5.34 -2.79 1.83 0.13 -5.34 0.4 -5.27 0.66 -5.2 0.92 -5.11 1.16 -5.02 1.4 -4.93 1.63 -4.83 1.86 -4.72 2.08 -4.6 2.3 -4.48 2.5 -4.35 2.71 -4.22 2.9 -4.09 3.1 -3.94 3.29 -3.8 3.48 -3.65 3.69 -3.52 3.93 -3.4 4.24 -3.33 4.6 -3.27 4.79 -3.08 4.75 -2.73 4.7 -2.41 4.72 -2.14 4.78 -1.89 4.87 -1.65 4.95 -1.41 5.04 -1.16 5.13 -0.92 5.21 -0.66 5.28 -0.4 5.35 -0.13 0 0z"/>
   </g>
   <g>
    <path class="fil1" d="M214.61 103.8l-1.67 1.1 0 0 -0.13 -5.34 -0.4 -5.27 -0.66 -5.19 -0.91 -5.11 -1.16 -5.02 -1.4 -4.92 -1.63 -4.82 -1.86 -4.71 -2.08 -4.6 -2.29 -4.48 -2.5 -4.35 -2.7 -4.21 -2.89 -4.07 -3.08 -3.92 -3.26 -3.77 -3.43 -3.6 -3.6 -3.43 -3.77 -3.26 -3.92 -3.08 -4.07 -2.89 -4.21 -2.7 -4.35 -2.5 -4.47 -2.29 -4.6 -2.08 -4.71 -1.86 -4.82 -1.63 -4.92 -1.4 -5.02 -1.16 -5.11 -0.91 -5.19 -0.66 -5.27 -0.4 -5.34 -0.13 1.63 -1.13 5.34 0.13 5.27 0.4 5.2 0.66 5.11 0.91 5.02 1.16 4.93 1.4 4.82 1.64 4.71 1.86 4.6 2.08 4.48 2.29 4.35 2.5 4.21 2.7 4.07 2.89 3.92 3.08 3.77 3.26 3.6 3.44 3.44 3.6 3.26 3.77 3.08 3.92 2.89 4.07 2.7 4.21 2.5 4.35 2.29 4.48 2.08 4.6 1.86 4.71 1.63 4.82 1.4 4.93 1.16 5.02 0.91 5.11 0.66 5.2 0.4 5.27 0.13 5.34 0 0zm-105.44 104.9l1.63 -1.13 0 0 5.34 -0.13 5.27 -0.4 5.19 -0.66 5.1 -0.91 5.01 -1.15 4.91 -1.39 4.8 -1.62 4.67 -1.84 4.52 -2.05 4.34 -2.22 4.1 -2.36 3.86 -2.48 3.75 -2.67 3.73 -2.93 3.67 -3.18 3.55 -3.39 3.41 -3.58 3.25 -3.75 3.07 -3.91 2.89 -4.06 2.69 -4.2 2.5 -4.34 2.29 -4.47 2.08 -4.6 1.86 -4.71 1.63 -4.82 1.4 -4.92 1.16 -5.02 0.91 -5.11 0.66 -5.19 0.4 -5.27 0.13 -5.34 1.67 -1.1 -0.13 5.34 -0.4 5.27 -0.66 5.2 -0.91 5.11 -1.16 5.02 -1.4 4.93 -1.63 4.82 -1.86 4.72 -2.08 4.6 -2.3 4.48 -2.5 4.35 -2.71 4.22 -2.9 4.08 -3.09 3.93 -3.28 3.79 -3.46 3.63 -3.65 3.48 -3.87 3.35 -4.11 3.23 -4.38 3.12 -4.56 2.92 -4.59 2.64 -4.61 2.36 -4.67 2.11 -4.75 1.87 -4.85 1.64 -4.94 1.4 -5.03 1.16 -5.12 0.92 -5.2 0.66 -5.28 0.4 -5.34 0.13 0 0zm-103.81 -103.8l1.67 -1.1 0 0 0.13 5.34 0.4 5.27 0.66 5.19 0.91 5.11 1.16 5.02 1.4 4.92 1.63 4.82 1.86 4.71 2.08 4.6 2.29 4.48 2.5 4.35 2.7 4.21 2.89 4.07 3.08 3.92 3.26 3.77 3.43 3.6 3.6 3.43 3.77 3.26 3.92 3.08 4.07 2.89 4.21 2.7 4.35 2.5 4.47 2.29 4.6 2.08 4.71 1.86 4.82 1.63 4.92 1.4 5.02 1.16 5.11 0.91 5.19 0.66 5.27 0.4 5.34 0.13 -1.63 1.13 -5.34 -0.13 -5.27 -0.4 -5.2 -0.66 -5.11 -0.91 -5.02 -1.16 -4.93 -1.4 -4.82 -1.64 -4.71 -1.86 -4.6 -2.08 -4.48 -2.29 -4.35 -2.5 -4.21 -2.7 -4.07 -2.89 -3.92 -3.08 -3.77 -3.26 -3.6 -3.44 -3.44 -3.6 -3.26 -3.77 -3.08 -3.92 -2.89 -4.07 -2.7 -4.21 -2.5 -4.35 -2.29 -4.48 -2.08 -4.6 -1.86 -4.71 -1.63 -4.82 -1.4 -4.93 -1.16 -5.02 -0.91 -5.11 -0.66 -5.2 -0.4 -5.27 -0.13 -5.34 0 0zm105.44 -104.9l-1.63 1.13 0 0 -5.34 0.13 -5.27 0.4 -5.19 0.66 -5.1 0.91 -5.01 1.15 -4.91 1.39 -4.8 1.62 -4.67 1.84 -4.52 2.05 -4.34 2.22 -4.1 2.36 -3.86 2.48 -3.75 2.67 -3.73 2.93 -3.67 3.18 -3.55 3.39 -3.41 3.58 -3.25 3.75 -3.07 3.91 -2.89 4.06 -2.69 4.2 -2.5 4.34 -2.29 4.47 -2.08 4.6 -1.86 4.71 -1.63 4.82 -1.4 4.92 -1.16 5.02 -0.91 5.11 -0.66 5.19 -0.4 5.27 -0.13 5.34 -1.67 1.1 0.13 -5.34 0.4 -5.27 0.66 -5.2 0.91 -5.11 1.16 -5.02 1.4 -4.93 1.63 -4.82 1.86 -4.72 2.08 -4.6 2.3 -4.48 2.5 -4.35 2.71 -4.22 2.9 -4.08 3.09 -3.93 3.28 -3.79 3.46 -3.63 3.65 -3.48 3.87 -3.35 4.11 -3.23 4.38 -3.12 4.56 -2.92 4.59 -2.64 4.61 -2.36 4.67 -2.11 4.75 -1.87 4.85 -1.64 4.94 -1.4 5.03 -1.16 5.12 -0.92 5.2 -0.66 5.28 -0.4 5.34 -0.13 0 0z"/>
   </g>
   <path class="fil2 str0" d="M42.97 79.6c5.01,-5.11 15.38,-3.56 23.58,-8.42 5.07,-3 18.18,-4.86 28.45,-11.64 0.06,-0.04 19.61,-10.22 5.43,-2.83 -5.67,2.96 -55.6,19.32 -55.76,21.15 -0.06,0.73 49.15,19.63 54.8,19.85 8.13,0.31 13.44,4.53 -3.97,-3.48 -8.27,-3.8 -37.13,-13.37 -45.7,-14.54 -1.2,-0.16 -2.64,-1.22 -2.77,-2.31"/>
   <path class="fil2 str0" d="M104.85 53.22c0.06,1.46 49.48,22.07 57.87,23.45 16.7,2.76 -20.03,-8.91 -22.85,-10.43 -2.79,-1.51 -32.29,-11.82 -35.09,-11.82 -12.47,0 27.13,14.64 29.35,15.04 9.89,1.79 18.24,5.76 30.73,7.16 9.74,1.09 -19.15,8.13 -21.42,9.33 -4.78,2.54 -31,8.94 -40.47,12.84 -6.45,2.65 10.21,-6.5 12.29,-7.33 10.61,-4.22 14.33,-3.17 23.37,-6.31 3.72,-1.29 5.73,-2.64 10.79,-3.71 5.3,-1.12 26.97,-9 11.62,2.13 -3.22,2.33 -39.97,9.13 -45.75,9.61 -2.83,0.23 -10.04,2.7 -12.32,4.32"/>
   <path class="fil2 str0" d="M141.29 85.61c1.08,18.09 7.69,33.17 -19.39,36.11 -12.05,1.31 -27.5,1.98 -39.02,-1.75 -10.83,-3.5 -11.51,-8.99 -14.36,-19.22 -1.14,-4.09 1.1,-23.78 2.35,-7.86 0.33,4.2 -0.22,8.08 1.4,11.99 2.13,5.15 -2.81,11.82 11.51,13.49 11.16,1.3 11.09,2.34 24.08,2.13 25.13,-0.41 11.08,-1.62 28.6,-7.58 6.68,-2.28 6.54,-40.49 2.03,-20.87 -2.67,11.62 3.78,10.48 -6.55,23.57 -8.62,10.91 -34.66,6.79 -46.4,4.03 -1.21,-0.28 -4.78,-1.62 -5.59,-1.08"/>
   <path class="fil2 str0" d="M153.12 86.06c2.28,2.31 0.67,19.75 2.13,18.39 0.17,-0.16 0.58,-34.25 0.58,-11.96 0,2.55 0.65,8.56 0.43,10.34"/>
   <path class="fil2 str0" d="M152.22 103.11c3.76,1.05 5.71,-0.18 5.71,6.75 0,3.03 -2.38,3.22 -5.27,2.54 -2.01,-0.47 -6.95,-8.7 1.06,-9.01 2.77,-0.11 6.14,9.99 -1.49,9.18 -5.39,-0.57 -4.8,-12.35 6.44,-10.09 0.04,0.01 1.48,6.49 -2.09,8.97 -0.52,0.37 -0.52,-0.5 -0.7,-1.21"/>
   <path class="fil2 str0" d="M156.59 111.45c1.12,8.28 9.87,14.51 1.3,12.7 -1.9,-0.4 -10.06,-0.16 -9.11,-1.79 1.06,-1.81 7.41,-14.85 1.18,-7.5 -0.4,0.47 -3.37,7.77 -2.79,8.16 1.1,0.73 14.23,1.6 14.5,-1.46 0.44,-5.07 -1.27,-2.8 -4.49,-8.77 -0.5,-0.92 -0.42,-0.1 -0.59,-1.34z"/>
   <path class="fil2 str0" d="M66.66 103.44c1.2,3.01 -8.93,4.98 -11.03,5.66 -4.32,1.4 -5.04,0.22 -9.53,2.87 -0.4,0.24 -6.87,3.45 -6.93,3.47 -0.01,0.06 7.31,-6 13.23,-6.84 3.69,-0.52 4.55,-1.74 9.67,-2.35 4.57,-0.55 11.82,-6.32 -0.49,2.78 -9.9,7.32 -17.2,4.6 -21.82,8.06 -1.52,1.14 -4.09,13.41 2.81,15.13 0.1,0.02 7.3,3.26 8.78,3.8 13.64,4.99 27.8,7.8 41.6,12.19 2.65,0.84 11.63,5.03 13.63,5.03 3.27,0 13.13,-2.33 14.93,-3.47 2.72,-1.72 19.43,-5.89 25.46,-9.02 4.84,-2.51 10.63,-2.45 13.84,-4.94 4.1,-3.17 12.63,-2.83 10.67,-4.82 -4.1,-4.18 -3.78,-12.62 -0.53,-17.13 1.22,-1.7 -0.62,0.63 -5.42,2.22 -5.37,1.77 -7.02,3.94 -14.27,6.16 -9.33,2.86 -12.43,2.64 -21.21,6.87 -4.29,2.07 -8.92,2.34 -14.37,5.38 -1.01,0.56 -8.53,3.89 -9.98,3.89 -1.15,0 -7.61,-3.36 -12.49,-3.74 -2.72,-0.21 -31.66,-13.02 -36.14,-14.42 -1.03,-0.32 -17.96,-5.09 -14.16,-5.13 0.67,-0.01 21.5,7.46 25.71,8.5 6.3,1.56 28.7,5.95 32.69,9.23 5.52,4.54 -3.67,12.35 5.21,20.77 1.75,1.66 -7.6,3.62 -3.83,-10.86 1.22,-4.7 10.65,-6.32 15.46,-9.12 1.01,-0.59 17.96,-5.51 20.92,-6.81 2.33,-1.02 31.36,-14.67 30.99,-12.39 -0.97,5.9 -4.04,3 -3.74,16.36 0.07,3.27 10.4,-1.31 -4.19,5.48 -1.69,0.79 -22.08,7.5 -22.57,7.65 -8.16,2.35 -18.09,4.42 -26.52,6.19 -19.06,4.01 -6.71,3.5 -27.19,-2.22 -9.21,-2.57 -11.08,-3.06 -19.86,-7.11 -7.29,-3.36 -27.62,-5.54 -28.18,-14.45 -0.26,-4.06 3.88,-8.06 2.96,-9.72 -0.77,-1.39 -6.94,5.53 0.18,11.78 9.56,8.39 13.91,8.33 26.54,11.34 9.84,2.34 20.7,2.99 29.94,6.7 5.92,2.38 17.64,4.6 23.96,1.87 5.1,-2.2 9.59,-4.57 14.87,-5.59 4.05,-0.78 8.74,-3.52 14.81,-4.17 2.26,-0.24 7.56,-1.61 9.65,-2.76 3.25,-1.79 7.86,-5.1 7.86,-9.14 0,-4.1 -0.43,-9.83 1.55,-13.43 0.52,-0.94 -12.23,-7.43 -10.84,-4.33 0.02,0.04 7.99,2.65 9.69,3.31 8.99,3.51 3.31,3.84 -1.99,1.37 -2.82,-1.31 -7.56,-1.98 -8.39,-2.42l0.26 0.74"/>
  </g>
 </g>
</svg>
