<?xml version="1.0" encoding="UTF-8"?>
<!DOCTYPE svg PUBLIC "-//W3C//DTD SVG 1.1//EN" "http://www.w3.org/Graphics/SVG/1.1/DTD/svg11.dtd">
<!-- Creator: CorelDRAW 2019 (64-Bit) -->
<svg xmlns="http://www.w3.org/2000/svg" xml:space="preserve" width="0.296882in" height="0.299067in" version="1.1" style="shape-rendering:geometricPrecision; text-rendering:geometricPrecision; image-rendering:optimizeQuality; fill-rule:evenodd; clip-rule:evenodd"
viewBox="0 0 271.37 273.37"
 xmlns:xlink="http://www.w3.org/1999/xlink"
 xmlns:xodm="http://www.corel.com/coreldraw/odm/2003">
 <defs>
  <style type="text/css">
   <![CDATA[
    .str0 {stroke:#FEFEFE;stroke-width:2.54;stroke-miterlimit:2.61313}
    .fil2 {fill:none}
    .fil1 {fill:#FEFEFE;fill-rule:nonzero}
    .fil0 {fill:#383838;fill-rule:nonzero}
   ]]>
  </style>
 </defs>
 <g id="Layer_x0020_1">
  <metadata id="CorelCorpID_0Corel-Layer"/>
  <g id="_1601857379120">
   <g>
    <path class="fil0" d="M271.37 139.57l-5.3 3.47 0 0 -0.17 -6.7 -0.5 -6.61 -0.83 -6.52 -1.14 -6.41 -1.45 -6.3 -1.75 -6.18 -2.05 -6.05 -2.33 -5.92 -2.61 -5.77 -2.87 -5.62 -3.14 -5.45 -3.39 -5.29 -3.63 -5.1 -3.86 -4.92 -4.1 -4.72 -4.31 -4.53 -4.52 -4.31 -4.73 -4.09 -4.92 -3.87 -5.11 -3.63 -5.28 -3.39 -5.46 -3.14 -5.61 -2.88 -5.77 -2.61 -5.91 -2.33 -6.05 -2.05 -6.18 -1.75 -6.3 -1.46 -6.41 -1.14 -6.51 -0.82 -6.61 -0.5 -6.69 -0.17 5.15 -3.57 6.72 0.17 6.62 0.5 6.53 0.83 6.42 1.14 6.3 1.46 6.19 1.76 6.06 2.05 5.92 2.33 5.78 2.61 5.62 2.88 5.46 3.14 5.29 3.39 5.11 3.63 4.93 3.87 4.73 4.1 4.53 4.31 4.31 4.53 4.1 4.73 3.87 4.92 3.63 5.11 3.39 5.29 3.14 5.46 2.88 5.62 2.61 5.77 2.33 5.92 2.05 6.06 1.75 6.18 1.46 6.31 1.14 6.42 0.83 6.52 0.5 6.62 0.17 6.71 0 0zm-135.5 133.8l5.15 -3.57 0 0 6.69 -0.17 6.6 -0.5 6.5 -0.83 6.39 -1.14 6.27 -1.45 6.13 -1.74 5.97 -2.02 5.78 -2.28 5.54 -2.5 5.19 -2.66 4.68 -2.69 4.19 -2.68 4.11 -2.92 4.32 -3.4 4.42 -3.83 4.37 -4.16 4.23 -4.43 4.04 -4.67 3.83 -4.88 3.61 -5.08 3.37 -5.26 3.13 -5.44 2.87 -5.6 2.6 -5.76 2.33 -5.91 2.05 -6.05 1.75 -6.18 1.46 -6.3 1.14 -6.41 0.83 -6.52 0.5 -6.61 0.17 -6.7 5.3 -3.47 -0.17 6.71 -0.5 6.62 -0.83 6.52 -1.15 6.42 -1.46 6.3 -1.76 6.19 -2.05 6.06 -2.34 5.93 -2.62 5.78 -2.88 5.63 -3.15 5.47 -3.4 5.31 -3.66 5.14 -3.9 4.96 -4.15 4.79 -4.4 4.61 -4.68 4.47 -5.03 4.36 -5.52 4.34 -6.1 4.34 -6.39 4.1 -6.23 3.58 -6.04 3.09 -6 2.71 -6.05 2.39 -6.14 2.08 -6.24 1.77 -6.34 1.46 -6.45 1.15 -6.54 0.83 -6.63 0.51 -6.72 0.17 0 0zm-130.35 -130.33l5.3 -3.47 0 0 0.17 6.7 0.5 6.61 0.83 6.52 1.14 6.41 1.45 6.3 1.76 6.18 2.05 6.05 2.33 5.92 2.61 5.77 2.87 5.61 3.14 5.45 3.39 5.29 3.63 5.11 3.87 4.92 4.09 4.73 4.31 4.52 4.52 4.31 4.73 4.09 4.92 3.87 5.11 3.63 5.28 3.39 5.46 3.14 5.61 2.88 5.77 2.61 5.91 2.33 6.05 2.05 6.18 1.75 6.3 1.46 6.41 1.14 6.51 0.82 6.61 0.5 6.69 0.17 -5.15 3.57 -6.72 -0.17 -6.62 -0.5 -6.53 -0.83 -6.42 -1.14 -6.3 -1.46 -6.19 -1.76 -6.06 -2.05 -5.92 -2.33 -5.78 -2.61 -5.62 -2.88 -5.46 -3.14 -5.29 -3.39 -5.11 -3.63 -4.92 -3.87 -4.73 -4.1 -4.53 -4.31 -4.31 -4.52 -4.09 -4.73 -3.87 -4.92 -3.63 -5.11 -3.39 -5.29 -3.14 -5.46 -2.88 -5.61 -2.61 -5.78 -2.33 -5.92 -2.05 -6.06 -1.76 -6.18 -1.46 -6.3 -1.14 -6.42 -0.83 -6.52 -0.5 -6.62 -0.17 -6.71 0 0zm135.5 -133.8l-5.15 3.57 0 0 -6.69 0.17 -6.6 0.5 -6.5 0.83 -6.39 1.14 -6.27 1.45 -6.13 1.74 -5.97 2.02 -5.78 2.28 -5.54 2.5 -5.19 2.65 -4.69 2.7 -4.19 2.68 -4.11 2.92 -4.32 3.4 -4.42 3.83 -4.36 4.16 -4.23 4.44 -4.04 4.66 -3.84 4.88 -3.61 5.07 -3.38 5.26 -3.13 5.44 -2.87 5.6 -2.6 5.76 -2.33 5.91 -2.05 6.05 -1.75 6.17 -1.46 6.3 -1.14 6.41 -0.83 6.52 -0.5 6.61 -0.17 6.7 -5.3 3.47 0.17 -6.71 0.5 -6.62 0.83 -6.52 1.15 -6.42 1.46 -6.31 1.76 -6.19 2.05 -6.06 2.34 -5.93 2.62 -5.78 2.88 -5.63 3.15 -5.47 3.4 -5.31 3.65 -5.14 3.9 -4.96 4.15 -4.79 4.4 -4.62 4.69 -4.46 5.03 -4.36 5.52 -4.34 6.11 -4.34 6.38 -4.1 6.23 -3.58 6.04 -3.1 6 -2.71 6.05 -2.39 6.14 -2.08 6.24 -1.77 6.34 -1.46 6.45 -1.15 6.54 -0.83 6.63 -0.51 6.72 -0.17 0 0z"/>
   </g>
   <g>
    <path class="fil1" d="M263.73 130.31l-3.17 2.08 0 0 -0.17 -6.7 -0.5 -6.61 -0.83 -6.52 -1.14 -6.42 -1.46 -6.3 -1.76 -6.18 -2.05 -6.05 -2.33 -5.92 -2.61 -5.77 -2.87 -5.61 -3.14 -5.46 -3.39 -5.29 -3.63 -5.11 -3.87 -4.92 -4.09 -4.73 -4.31 -4.52 -4.52 -4.31 -4.73 -4.09 -4.92 -3.87 -5.11 -3.63 -5.29 -3.39 -5.46 -3.14 -5.61 -2.88 -5.77 -2.61 -5.91 -2.33 -6.05 -2.04 -6.18 -1.76 -6.3 -1.46 -6.41 -1.14 -6.52 -0.83 -6.61 -0.5 -6.7 -0.17 3.09 -2.14 6.71 0.17 6.62 0.5 6.52 0.83 6.42 1.14 6.3 1.46 6.19 1.76 6.05 2.05 5.92 2.33 5.77 2.61 5.62 2.88 5.46 3.14 5.29 3.39 5.11 3.63 4.92 3.87 4.73 4.09 4.52 4.32 4.32 4.52 4.09 4.73 3.87 4.92 3.63 5.11 3.39 5.29 3.14 5.46 2.88 5.61 2.61 5.78 2.33 5.92 2.05 6.05 1.76 6.19 1.46 6.3 1.14 6.42 0.83 6.52 0.5 6.61 0.17 6.71 0 0zm-133.41 132.39l3.09 -2.14 0 0 6.7 -0.17 6.6 -0.5 6.51 -0.83 6.4 -1.14 6.28 -1.45 6.15 -1.75 6 -2.03 5.84 -2.3 5.63 -2.55 5.36 -2.74 5 -2.87 4.63 -2.97 4.51 -3.21 4.56 -3.59 4.54 -3.93 4.43 -4.22 4.26 -4.47 4.06 -4.69 3.85 -4.89 3.62 -5.09 3.38 -5.27 3.13 -5.45 2.87 -5.6 2.61 -5.77 2.33 -5.91 2.05 -6.05 1.75 -6.18 1.46 -6.3 1.14 -6.41 0.83 -6.52 0.5 -6.61 0.17 -6.7 3.17 -2.08 -0.17 6.7 -0.5 6.62 -0.83 6.52 -1.14 6.42 -1.46 6.3 -1.76 6.19 -2.05 6.06 -2.34 5.92 -2.61 5.78 -2.88 5.62 -3.14 5.46 -3.4 5.3 -3.64 5.13 -3.89 4.94 -4.12 4.76 -4.37 4.58 -4.62 4.41 -4.92 4.25 -5.28 4.15 -5.71 4.06 -5.95 3.81 -5.92 3.4 -5.87 3.01 -5.91 2.67 -6 2.36 -6.1 2.07 -6.22 1.76 -6.32 1.46 -6.43 1.15 -6.53 0.83 -6.63 0.5 -6.71 0.17 0 0zm-130.32 -130.31l3.17 -2.08 0 0 0.17 6.7 0.5 6.61 0.83 6.52 1.14 6.42 1.46 6.3 1.75 6.18 2.05 6.05 2.33 5.92 2.61 5.77 2.87 5.61 3.14 5.46 3.39 5.29 3.63 5.11 3.87 4.92 4.1 4.73 4.31 4.52 4.52 4.31 4.73 4.09 4.92 3.87 5.1 3.63 5.29 3.39 5.46 3.14 5.61 2.88 5.77 2.61 5.91 2.33 6.05 2.04 6.18 1.76 6.3 1.46 6.41 1.14 6.52 0.83 6.61 0.5 6.7 0.17 -3.09 2.14 -6.71 -0.17 -6.62 -0.5 -6.52 -0.83 -6.42 -1.14 -6.3 -1.46 -6.19 -1.76 -6.05 -2.05 -5.92 -2.33 -5.77 -2.61 -5.62 -2.88 -5.46 -3.14 -5.29 -3.39 -5.11 -3.63 -4.92 -3.87 -4.73 -4.09 -4.52 -4.32 -4.32 -4.52 -4.1 -4.73 -3.87 -4.92 -3.63 -5.11 -3.39 -5.29 -3.14 -5.46 -2.88 -5.61 -2.61 -5.78 -2.33 -5.92 -2.05 -6.05 -1.75 -6.19 -1.46 -6.3 -1.14 -6.42 -0.83 -6.52 -0.5 -6.61 -0.17 -6.71 0 0zm133.41 -132.39l-3.09 2.14 0 0 -6.7 0.17 -6.6 0.5 -6.51 0.83 -6.4 1.14 -6.28 1.45 -6.15 1.75 -6 2.03 -5.84 2.3 -5.63 2.55 -5.36 2.74 -5 2.87 -4.62 2.97 -4.51 3.21 -4.56 3.59 -4.54 3.93 -4.43 4.22 -4.26 4.47 -4.06 4.69 -3.85 4.89 -3.62 5.09 -3.38 5.27 -3.13 5.45 -2.87 5.6 -2.61 5.77 -2.33 5.91 -2.05 6.05 -1.75 6.18 -1.46 6.3 -1.14 6.41 -0.83 6.52 -0.5 6.61 -0.17 6.7 -3.17 2.08 0.17 -6.7 0.5 -6.62 0.83 -6.52 1.14 -6.42 1.46 -6.3 1.76 -6.19 2.05 -6.06 2.34 -5.92 2.61 -5.78 2.88 -5.62 3.14 -5.46 3.4 -5.3 3.65 -5.13 3.88 -4.94 4.13 -4.76 4.37 -4.58 4.62 -4.4 4.91 -4.25 5.28 -4.15 5.7 -4.06 5.95 -3.81 5.92 -3.4 5.87 -3.01 5.91 -2.67 6 -2.36 6.1 -2.07 6.22 -1.76 6.32 -1.46 6.43 -1.15 6.53 -0.83 6.63 -0.5 6.71 -0.17 0 0z"/>
   </g>
   <path class="fil2 str0" d="M55.56 129.14c20.55,-11.41 23.32,-25.7 38.82,-36.89 5.78,-4.18 35.46,-37.95 37.25,-36.16 6.72,6.72 4.64,10.72 19.34,20.67 2.21,1.49 14.81,16.09 17.18,16.7 1.03,2.97 -6.5,-23.62 -2.38,-23.62 31.2,0 6.66,4.99 16.83,29.65 3.44,8.34 43.82,46.9 22.46,19.47 -9.92,-12.74 -24.62,-10.63 -20.28,-29.28 7.18,-30.84 -18.14,-21.01 -18.14,-20.85 0,1.7 3.35,24.8 1.18,22.49 -4.99,-5.31 -8.94,-11.07 -15.79,-17.92 -3.48,-3.48 -13.43,-19.45 -19.19,-13.24 -7.18,7.75 -12.3,2.63 -27.86,26.57 -11.2,17.23 -28.11,31.61 -45.9,41.33 -4.43,2.42 16.53,-12.4 21.2,-18.01 6.37,-7.66 28.38,-20.29 32.41,-36.19 0.91,-3.58 10.63,-13.07 15.75,-13.07"/>
   <path class="fil2 str0" d="M76.67 127.13c0,8.33 -0.08,72.47 2.14,76.31 28.95,4.48 66.57,4.26 95.5,1.18 23.04,-2.46 14.45,2.79 14.45,-33.26 0,-2.5 -1.68,-54.37 2.38,-46.61 1.14,2.17 1.41,76.53 0.63,78.78 -5.79,0.74 -3.79,5.07 -22.75,4.53 -14.19,-0.41 -89.52,5.3 -93.86,1 -0.24,-0.23 -6.97,-82.79 1.51,-82.43 3.97,0.17 2.01,18.44 2.01,22.62 0,5.77 -1.23,61.16 5.44,59.18 8.4,-2.49 88.03,-0.87 104.13,-0.87"/>
   <path class="fil2 str0" d="M108.84 181.92c-1.61,-6.61 -5.27,-37.06 2.14,-37.78 2.82,-0.28 47.52,-8.1 44.78,-0.79 -4.25,11.32 -2.64,91.04 2.71,57.34 0.71,-4.43 -6.26,-31.08 -3.34,-45.36 3.62,-17.72 -30.42,-12.61 -44.28,-12.61 -1.63,0 1.78,47.86 -1.93,42.05 -0.86,-1.35 -3.91,-45.06 10.21,-45.06 5.15,0 55.49,5.53 40.97,5.53 0,4.05 -3.14,63.6 1.51,64.33"/>
  </g>
 </g>
</svg>
