<?xml version="1.0" encoding="UTF-8"?>
<!DOCTYPE svg PUBLIC "-//W3C//DTD SVG 1.1//EN" "http://www.w3.org/Graphics/SVG/1.1/DTD/svg11.dtd">
<!-- Creator: CorelDRAW 2019 (64-Bit) -->
<svg xmlns="http://www.w3.org/2000/svg" xml:space="preserve" width="1.13912in" height="0.779433in" version="1.1" style="shape-rendering:geometricPrecision; text-rendering:geometricPrecision; image-rendering:optimizeQuality; fill-rule:evenodd; clip-rule:evenodd"
viewBox="0 0 386.13 264.21"
 xmlns:xlink="http://www.w3.org/1999/xlink"
 xmlns:xodm="http://www.corel.com/coreldraw/odm/2003">
 <defs>
  <style type="text/css">
   <![CDATA[
    .str0 {stroke:#727273;stroke-width:1.65;stroke-miterlimit:2.61313}
    .fil1 {fill:none}
    .fil4 {fill:#B59041}
    .fil2 {fill:#5E5E5E;fill-rule:nonzero}
    .fil0 {fill:#7D7D7D;fill-rule:nonzero}
    .fil3 {fill:#B59041;fill-rule:nonzero}
   ]]>
  </style>
 </defs>
 <g id="Layer_x0020_1">
  <metadata id="CorelCorpID_0Corel-Layer"/>
  <path class="fil0" d="M-0 225.38l14.18 -31.51 5.76 0 14.22 31.51 -6.12 0 -12.2 -28.4 2.34 0 -12.15 28.4 -6.03 0zm6.53 -7.29l1.58 -4.59 17.02 0 1.57 4.59 -20.17 0zm41.05 7.61c-2.31,0 -4.39,-0.52 -6.23,-1.55 -1.85,-1.03 -3.29,-2.47 -4.34,-4.3 -1.05,-1.83 -1.57,-3.99 -1.57,-6.48 0,-2.49 0.52,-4.65 1.57,-6.48 1.05,-1.83 2.5,-3.26 4.34,-4.28 1.85,-1.02 3.92,-1.53 6.23,-1.53 2.01,0 3.81,0.44 5.4,1.33 1.59,0.88 2.85,2.23 3.78,4.03 0.93,1.8 1.39,4.11 1.39,6.93 0,2.79 -0.45,5.09 -1.35,6.91 -0.9,1.81 -2.14,3.17 -3.74,4.07 -1.59,0.9 -3.42,1.35 -5.49,1.35zm0.68 -4.82c1.35,0 2.56,-0.3 3.62,-0.9 1.06,-0.6 1.92,-1.47 2.57,-2.61 0.64,-1.14 0.97,-2.48 0.97,-4.01 0,-1.56 -0.32,-2.9 -0.97,-4.03 -0.65,-1.13 -1.5,-1.99 -2.57,-2.59 -1.06,-0.6 -2.27,-0.9 -3.62,-0.9 -1.35,0 -2.56,0.3 -3.62,0.9 -1.07,0.6 -1.92,1.46 -2.57,2.59 -0.65,1.13 -0.97,2.47 -0.97,4.03 0,1.53 0.32,2.87 0.97,4.01 0.64,1.14 1.5,2.01 2.57,2.61 1.06,0.6 2.27,0.9 3.62,0.9zm7.29 4.5l0 -5.67 0.23 -6.39 -0.45 -6.39 0 -14.95 5.58 0 0 33.4 -5.36 0zm23.59 0.31c-2.46,0 -4.65,-0.53 -6.57,-1.6 -1.92,-1.07 -3.44,-2.53 -4.55,-4.39 -1.11,-1.86 -1.67,-3.98 -1.67,-6.35 0,-2.4 0.56,-4.52 1.67,-6.37 1.11,-1.85 2.63,-3.29 4.55,-4.34 1.92,-1.05 4.11,-1.57 6.57,-1.57 2.49,0 4.7,0.52 6.64,1.57 1.94,1.05 3.45,2.49 4.55,4.32 1.1,1.83 1.64,3.96 1.64,6.39 0,2.37 -0.55,4.49 -1.64,6.35 -1.1,1.86 -2.61,3.32 -4.55,4.39 -1.94,1.06 -4.15,1.6 -6.64,1.6zm0 -4.82c1.38,0 2.61,-0.3 3.69,-0.9 1.08,-0.6 1.93,-1.47 2.54,-2.61 0.62,-1.14 0.92,-2.48 0.92,-4.01 0,-1.56 -0.31,-2.9 -0.92,-4.03 -0.62,-1.13 -1.46,-1.99 -2.54,-2.59 -1.08,-0.6 -2.3,-0.9 -3.65,-0.9 -1.38,0 -2.6,0.3 -3.67,0.9 -1.06,0.6 -1.91,1.46 -2.54,2.59 -0.63,1.13 -0.94,2.47 -0.94,4.03 0,1.53 0.31,2.87 0.94,4.01 0.63,1.14 1.48,2.01 2.54,2.61 1.06,0.6 2.27,0.9 3.62,0.9zm31.55 4.82c-2.04,0 -3.86,-0.45 -5.45,-1.35 -1.59,-0.9 -2.84,-2.26 -3.76,-4.07 -0.92,-1.82 -1.37,-4.12 -1.37,-6.91 0,-2.82 0.47,-5.13 1.42,-6.93 0.94,-1.8 2.22,-3.14 3.83,-4.03 1.61,-0.89 3.38,-1.33 5.33,-1.33 2.37,0 4.46,0.51 6.28,1.53 1.82,1.02 3.26,2.44 4.32,4.28 1.07,1.83 1.6,3.99 1.6,6.48 0,2.49 -0.53,4.65 -1.6,6.48 -1.06,1.83 -2.5,3.26 -4.32,4.3 -1.81,1.04 -3.91,1.55 -6.28,1.55zm-13.32 -0.31l0 -33.4 5.63 0 0 14.95 -0.45 6.39 0.18 6.39 0 5.67 -5.36 0zm12.69 -4.5c1.35,0 2.56,-0.3 3.62,-0.9 1.06,-0.6 1.91,-1.47 2.54,-2.61 0.63,-1.14 0.94,-2.48 0.94,-4.01 0,-1.56 -0.31,-2.9 -0.94,-4.03 -0.63,-1.13 -1.48,-1.99 -2.54,-2.59 -1.06,-0.6 -2.27,-0.9 -3.62,-0.9 -1.35,0 -2.57,0.3 -3.65,0.9 -1.08,0.6 -1.94,1.46 -2.57,2.59 -0.63,1.13 -0.94,2.47 -0.94,4.03 0,1.53 0.31,2.87 0.94,4.01 0.63,1.14 1.49,2.01 2.57,2.61 1.08,0.6 2.3,0.9 3.65,0.9zm29.48 4.82c-2.67,0 -5,-0.53 -7,-1.6 -2,-1.07 -3.54,-2.53 -4.64,-4.39 -1.1,-1.86 -1.64,-3.98 -1.64,-6.35 0,-2.4 0.53,-4.52 1.6,-6.37 1.06,-1.85 2.54,-3.29 4.41,-4.34 1.88,-1.05 4.01,-1.57 6.41,-1.57 2.34,0 4.43,0.51 6.26,1.53 1.83,1.02 3.27,2.46 4.32,4.32 1.05,1.86 1.57,4.05 1.57,6.57 0,0.24 -0.01,0.51 -0.02,0.81 -0.01,0.3 -0.04,0.59 -0.07,0.86l-20.03 0 0 -3.74 17.06 0 -2.21 1.17c0.03,-1.38 -0.25,-2.6 -0.86,-3.65 -0.6,-1.05 -1.42,-1.88 -2.45,-2.48 -1.04,-0.6 -2.23,-0.9 -3.58,-0.9 -1.38,0 -2.59,0.3 -3.62,0.9 -1.04,0.6 -1.85,1.43 -2.43,2.5 -0.59,1.07 -0.88,2.32 -0.88,3.76l0 0.9c0,1.44 0.33,2.72 0.99,3.83 0.66,1.11 1.59,1.96 2.79,2.56 1.2,0.6 2.58,0.9 4.14,0.9 1.35,0 2.57,-0.21 3.65,-0.63 1.08,-0.42 2.04,-1.08 2.88,-1.98l3.02 3.47c-1.08,1.26 -2.44,2.23 -4.07,2.9 -1.63,0.68 -3.5,1.01 -5.6,1.01zm29.12 -0.31l0 -24.04 5.63 0 0 24.04 -5.63 0zm2.84 -28c-1.05,0 -1.91,-0.33 -2.59,-0.99 -0.68,-0.66 -1.01,-1.46 -1.01,-2.39 0,-0.96 0.34,-1.76 1.01,-2.41 0.68,-0.65 1.54,-0.97 2.59,-0.97 1.05,0 1.91,0.31 2.59,0.92 0.68,0.62 1.01,1.39 1.01,2.32 0,0.99 -0.33,1.82 -0.99,2.5 -0.66,0.68 -1.53,1.01 -2.61,1.01zm10.17 28l0 -33.4 5.63 0 0 33.4 -5.63 0zm13.01 0l0 -33.4 5.63 0 0 33.4 -5.63 0zm23.18 0.31c-2.04,0 -3.84,-0.38 -5.4,-1.15 -1.56,-0.76 -2.78,-1.94 -3.65,-3.51 -0.87,-1.57 -1.31,-3.56 -1.31,-5.96l0 -13.73 5.63 0 0 12.96c0,2.16 0.49,3.77 1.46,4.84 0.98,1.07 2.36,1.6 4.16,1.6 1.32,0 2.47,-0.27 3.44,-0.81 0.98,-0.54 1.74,-1.35 2.3,-2.43 0.56,-1.08 0.83,-2.42 0.83,-4.01l0 -12.15 5.63 0 0 24.04 -5.36 0 0 -6.48 0.95 1.98c-0.81,1.56 -2,2.75 -3.56,3.58 -1.56,0.82 -3.27,1.24 -5.13,1.24zm27.91 0c-2.01,0 -3.94,-0.26 -5.78,-0.79 -1.85,-0.53 -3.31,-1.16 -4.39,-1.91l2.16 -4.28c1.08,0.69 2.37,1.26 3.87,1.71 1.5,0.45 3,0.68 4.5,0.68 1.77,0 3.05,-0.24 3.85,-0.72 0.8,-0.48 1.19,-1.13 1.19,-1.94 0,-0.66 -0.27,-1.16 -0.81,-1.51 -0.54,-0.35 -1.25,-0.61 -2.12,-0.79 -0.87,-0.18 -1.84,-0.34 -2.9,-0.5 -1.06,-0.15 -2.13,-0.35 -3.2,-0.61 -1.06,-0.25 -2.03,-0.63 -2.9,-1.13 -0.87,-0.5 -1.57,-1.16 -2.12,-2 -0.54,-0.84 -0.81,-1.95 -0.81,-3.33 0,-1.53 0.44,-2.86 1.31,-3.98 0.87,-1.13 2.09,-2 3.67,-2.61 1.58,-0.62 3.44,-0.92 5.61,-0.92 1.62,0 3.25,0.18 4.91,0.54 1.65,0.36 3.02,0.87 4.1,1.53l-2.16 4.28c-1.14,-0.69 -2.29,-1.16 -3.44,-1.42 -1.16,-0.25 -2.3,-0.38 -3.44,-0.38 -1.71,0 -2.98,0.25 -3.8,0.76 -0.83,0.51 -1.24,1.16 -1.24,1.94 0,0.72 0.27,1.26 0.81,1.62 0.54,0.36 1.25,0.64 2.12,0.85 0.87,0.21 1.84,0.38 2.9,0.52 1.06,0.14 2.12,0.34 3.17,0.61 1.05,0.27 2.02,0.64 2.9,1.1 0.88,0.47 1.6,1.12 2.14,1.96 0.54,0.84 0.81,1.94 0.81,3.29 0,1.5 -0.44,2.81 -1.33,3.92 -0.88,1.11 -2.14,1.97 -3.76,2.59 -1.62,0.62 -3.56,0.92 -5.81,0.92zm24.8 0c-2.64,0 -4.68,-0.68 -6.12,-2.05 -1.44,-1.37 -2.16,-3.38 -2.16,-6.05l0 -21.56 5.63 0 0 21.43c0,1.14 0.29,2.02 0.88,2.66 0.59,0.63 1.4,0.94 2.45,0.94 1.26,0 2.31,-0.33 3.15,-0.99l1.57 4.01c-0.66,0.54 -1.47,0.94 -2.43,1.22 -0.96,0.27 -1.95,0.4 -2.97,0.4zm-12.24 -19.67l0 -4.5 16.03 0 0 4.5 -16.03 0zm22.28 19.36l0 -24.04 5.36 0 0 6.62 -0.63 -1.94c0.72,-1.62 1.85,-2.85 3.4,-3.69 1.55,-0.84 3.47,-1.26 5.78,-1.26l0 5.36c-0.24,-0.06 -0.46,-0.1 -0.68,-0.11 -0.21,-0.01 -0.42,-0.02 -0.63,-0.02 -2.13,0 -3.83,0.62 -5.09,1.87 -1.26,1.25 -1.89,3.1 -1.89,5.56l0 11.66 -5.63 0zm31.78 0l0 -4.86 -0.31 -1.04 0 -8.51c0,-1.65 -0.5,-2.93 -1.49,-3.85 -0.99,-0.91 -2.49,-1.37 -4.5,-1.37 -1.35,0 -2.68,0.21 -3.98,0.63 -1.31,0.42 -2.41,1 -3.31,1.75l-2.21 -4.1c1.29,-0.99 2.83,-1.73 4.61,-2.23 1.79,-0.5 3.64,-0.74 5.56,-0.74 3.48,0 6.17,0.83 8.08,2.5 1.91,1.67 2.86,4.24 2.86,7.72l0 14.09 -5.31 0zm-7.56 0.31c-1.8,0 -3.38,-0.31 -4.73,-0.92 -1.35,-0.62 -2.39,-1.47 -3.13,-2.57 -0.74,-1.1 -1.1,-2.33 -1.1,-3.71 0,-1.35 0.32,-2.56 0.97,-3.65 0.65,-1.08 1.7,-1.94 3.17,-2.56 1.47,-0.63 3.42,-0.95 5.85,-0.95l6.98 0 0 3.74 -6.57 0c-1.92,0 -3.21,0.31 -3.87,0.92 -0.66,0.62 -0.99,1.37 -0.99,2.27 0,1.02 0.4,1.83 1.22,2.43 0.81,0.6 1.94,0.9 3.38,0.9 1.38,0 2.62,-0.31 3.71,-0.95 1.1,-0.63 1.88,-1.56 2.36,-2.79l0.94 3.38c-0.54,1.41 -1.51,2.5 -2.9,3.29 -1.4,0.78 -3.16,1.17 -5.29,1.17zm29.12 0c-2.64,0 -4.68,-0.68 -6.12,-2.05 -1.44,-1.37 -2.16,-3.38 -2.16,-6.05l0 -21.56 5.63 0 0 21.43c0,1.14 0.29,2.02 0.88,2.66 0.59,0.63 1.4,0.94 2.45,0.94 1.26,0 2.31,-0.33 3.15,-0.99l1.57 4.01c-0.66,0.54 -1.47,0.94 -2.43,1.22 -0.96,0.27 -1.95,0.4 -2.97,0.4zm-12.24 -19.67l0 -4.5 16.03 0 0 4.5 -16.03 0zm32.27 19.67c-2.46,0 -4.65,-0.53 -6.57,-1.6 -1.92,-1.07 -3.44,-2.53 -4.55,-4.39 -1.11,-1.86 -1.67,-3.98 -1.67,-6.35 0,-2.4 0.56,-4.52 1.67,-6.37 1.11,-1.85 2.63,-3.29 4.55,-4.34 1.92,-1.05 4.11,-1.57 6.57,-1.57 2.49,0 4.7,0.52 6.64,1.57 1.94,1.05 3.45,2.49 4.55,4.32 1.1,1.83 1.64,3.96 1.64,6.39 0,2.37 -0.55,4.49 -1.64,6.35 -1.1,1.86 -2.61,3.32 -4.55,4.39 -1.94,1.06 -4.15,1.6 -6.64,1.6zm0 -4.82c1.38,0 2.61,-0.3 3.69,-0.9 1.08,-0.6 1.93,-1.47 2.54,-2.61 0.62,-1.14 0.92,-2.48 0.92,-4.01 0,-1.56 -0.31,-2.9 -0.92,-4.03 -0.62,-1.13 -1.46,-1.99 -2.54,-2.59 -1.08,-0.6 -2.3,-0.9 -3.65,-0.9 -1.38,0 -2.6,0.3 -3.67,0.9 -1.06,0.6 -1.91,1.46 -2.54,2.59 -0.63,1.13 -0.94,2.47 -0.94,4.03 0,1.53 0.31,2.87 0.94,4.01 0.63,1.14 1.48,2.01 2.54,2.61 1.06,0.6 2.27,0.9 3.62,0.9zm18.23 4.5l0 -24.04 5.36 0 0 6.62 -0.63 -1.94c0.72,-1.62 1.85,-2.85 3.4,-3.69 1.55,-0.84 3.47,-1.26 5.78,-1.26l0 5.36c-0.24,-0.06 -0.46,-0.1 -0.68,-0.11 -0.21,-0.01 -0.42,-0.02 -0.63,-0.02 -2.13,0 -3.83,0.62 -5.09,1.87 -1.26,1.25 -1.89,3.1 -1.89,5.56l0 11.66 -5.63 0z"/>
  <path class="fil1 str0" d="M171.37 47.14c-2.58,9.25 -5.08,28.25 -10.67,36.15 -0.11,0.15 -3.88,19.72 -4.97,22.99 -4.4,13.12 4.17,9.88 4.04,4.94 -0.56,-20.92 20.27,-42.55 16.08,-64.87 -1.3,0 -13.6,44.94 -13.6,51.75 0,15.14 1.95,18.64 -12.01,18.64 -2.04,0 20.68,-69.93 23.2,-70.05 2.77,-0.13 13.26,-3.39 13.26,3.77 4.07,2.1 10.57,54.23 14.81,60.18 2.56,3.59 -1.89,4.04 4.66,4.04 0.15,-0.73 -15.31,-44.02 -16.61,-50.51 -2.42,-12.03 -16.74,-28.77 -4.34,5.38 2.55,7.02 4.22,27.45 8.38,39.39 2.22,6.36 2.37,5.73 13.82,5.73 0,-4.71 -20.04,-60.49 -22.37,-60.9 -0.49,-2.33 -3.19,-0.66 1.59,12.33 1.99,5.4 12.47,52.09 13.33,51.78 4.83,-1.71 15.74,1.98 7.77,-8.63 -0.38,-0.5 -0.94,-0.84 -1.55,-0.79"/>
  <path class="fil1 str0" d="M164.74 91.88c0.01,0 41.28,-2.27 30.49,0.27 -9.82,2.32 -16.8,8.2 -30.49,3.35 -5.46,-1.94 25.39,-1.14 29.83,-1.14"/>
  <path class="fil1 str0" d="M223.56 45.69c11.75,-12.19 12.34,16.28 -2.07,9.46 -9.28,-4.39 9.34,-27.16 10.36,-3.46 0.39,9.16 -16.59,2.62 -8.28,-6.01z"/>
  <path class="fil1 str0" d="M219.83 64.12c18.42,0 13.26,-3.74 13.26,23.61 0,3.64 1.35,28.59 -2.79,28.59 -13.87,0 -5.63,4.48 -9.56,-12.05 -0.37,-1.55 3.78,-54.23 -1.21,-40.15 -0.09,0.26 -1.95,51.49 0.2,51.37 26.08,-1.36 9.96,7.13 13.26,-23.3 0.4,-3.71 1.16,-27.25 -1.14,-27.25 -2.04,0 -7.07,-0.94 -8.29,0.83"/>
  <g>
   <path class="fil2" d="M273.09 79.25l-1.57 1.03 0 0 -0.1 -4.08 -0.31 -4.02 -0.5 -3.96 -0.7 -3.9 -0.88 -3.83 -1.07 -3.76 -1.25 -3.68 -1.42 -3.6 -1.59 -3.51 -1.75 -3.42 -1.91 -3.32 -2.06 -3.21 -2.21 -3.11 -2.35 -2.99 -2.49 -2.87 -2.62 -2.75 -2.75 -2.62 -2.87 -2.49 -2.99 -2.35 -3.11 -2.21 -3.21 -2.06 -3.32 -1.91 -3.42 -1.75 -3.51 -1.59 -3.6 -1.42 -3.68 -1.25 -3.76 -1.07 -3.83 -0.88 -3.9 -0.7 -3.96 -0.5 -4.02 -0.31 -4.07 -0.1 1.53 -1.06 4.08 0.1 4.03 0.31 3.97 0.5 3.9 0.7 3.84 0.88 3.76 1.07 3.68 1.25 3.6 1.42 3.51 1.59 3.42 1.75 3.32 1.91 3.21 2.06 3.11 2.21 2.99 2.35 2.88 2.49 2.75 2.62 2.62 2.75 2.49 2.87 2.35 2.99 2.21 3.11 2.06 3.21 1.91 3.32 1.75 3.42 1.59 3.51 1.42 3.6 1.25 3.68 1.07 3.76 0.88 3.84 0.7 3.9 0.5 3.97 0.31 4.02 0.1 4.08 0 0zm-80.78 80.28l1.53 -1.06 0 0 4.07 -0.1 4.02 -0.31 3.96 -0.5 3.89 -0.7 3.82 -0.88 3.74 -1.06 3.66 -1.24 3.56 -1.4 3.44 -1.56 3.29 -1.68 3.09 -1.78 2.89 -1.85 2.81 -2 2.82 -2.21 2.78 -2.41 2.71 -2.58 2.6 -2.73 2.48 -2.86 2.34 -2.98 2.2 -3.1 2.06 -3.21 1.91 -3.31 1.75 -3.41 1.59 -3.51 1.42 -3.6 1.25 -3.68 1.07 -3.76 0.88 -3.83 0.7 -3.9 0.5 -3.96 0.31 -4.02 0.1 -4.08 1.57 -1.03 -0.1 4.08 -0.31 4.03 -0.5 3.97 -0.7 3.9 -0.88 3.83 -1.07 3.76 -1.25 3.68 -1.42 3.6 -1.59 3.51 -1.75 3.42 -1.91 3.32 -2.06 3.22 -2.22 3.11 -2.36 3.01 -2.5 2.89 -2.65 2.78 -2.8 2.67 -2.97 2.57 -3.17 2.49 -3.4 2.42 -3.54 2.27 -3.55 2.04 -3.54 1.81 -3.58 1.62 -3.64 1.43 -3.71 1.25 -3.78 1.07 -3.84 0.89 -3.91 0.7 -3.97 0.5 -4.03 0.31 -4.08 0.1 0 0zm-79.26 -79.25l1.57 -1.03 0 0 0.1 4.08 0.31 4.02 0.5 3.96 0.7 3.9 0.88 3.83 1.07 3.76 1.25 3.68 1.42 3.6 1.59 3.51 1.75 3.42 1.91 3.32 2.06 3.21 2.21 3.11 2.35 2.99 2.49 2.87 2.62 2.75 2.75 2.62 2.87 2.49 2.99 2.35 3.11 2.21 3.21 2.06 3.32 1.91 3.42 1.75 3.51 1.59 3.6 1.42 3.68 1.25 3.76 1.07 3.83 0.88 3.9 0.7 3.96 0.5 4.02 0.31 4.07 0.1 -1.53 1.06 -4.08 -0.1 -4.03 -0.31 -3.97 -0.5 -3.9 -0.7 -3.83 -0.88 -3.76 -1.07 -3.68 -1.25 -3.6 -1.42 -3.51 -1.59 -3.42 -1.75 -3.32 -1.91 -3.21 -2.06 -3.11 -2.21 -2.99 -2.35 -2.88 -2.49 -2.75 -2.62 -2.62 -2.75 -2.49 -2.87 -2.35 -2.99 -2.21 -3.11 -2.06 -3.21 -1.91 -3.32 -1.75 -3.42 -1.59 -3.51 -1.42 -3.6 -1.25 -3.68 -1.07 -3.76 -0.88 -3.83 -0.7 -3.9 -0.5 -3.97 -0.31 -4.03 -0.1 -4.08 0 0zm80.78 -80.28l-1.53 1.06 0 0 -4.07 0.1 -4.02 0.31 -3.96 0.5 -3.89 0.7 -3.82 0.88 -3.74 1.06 -3.66 1.24 -3.56 1.4 -3.44 1.56 -3.29 1.68 -3.09 1.78 -2.89 1.85 -2.81 2 -2.82 2.21 -2.78 2.41 -2.71 2.58 -2.6 2.73 -2.48 2.86 -2.34 2.98 -2.2 3.1 -2.06 3.21 -1.91 3.31 -1.75 3.41 -1.59 3.51 -1.42 3.6 -1.25 3.68 -1.07 3.76 -0.88 3.83 -0.7 3.9 -0.5 3.96 -0.31 4.02 -0.1 4.08 -1.57 1.03 0.1 -4.08 0.31 -4.02 0.5 -3.97 0.7 -3.9 0.88 -3.84 1.07 -3.76 1.25 -3.68 1.42 -3.6 1.59 -3.51 1.75 -3.42 1.91 -3.32 2.06 -3.22 2.22 -3.11 2.36 -3.01 2.5 -2.89 2.65 -2.78 2.8 -2.67 2.97 -2.57 3.17 -2.49 3.4 -2.42 3.54 -2.27 3.55 -2.04 3.54 -1.81 3.58 -1.62 3.64 -1.43 3.71 -1.25 3.78 -1.07 3.84 -0.89 3.91 -0.7 3.97 -0.5 4.03 -0.31 4.08 -0.1 0 0z"/>
  </g>
  <g>
   <path class="fil3" d="M278.26 82.91l-1.57 1.03 0 0 -0.1 -4.08 -0.31 -4.02 -0.5 -3.96 -0.7 -3.9 -0.88 -3.83 -1.07 -3.76 -1.25 -3.68 -1.42 -3.6 -1.59 -3.51 -1.75 -3.42 -1.91 -3.32 -2.06 -3.21 -2.21 -3.11 -2.35 -2.99 -2.49 -2.87 -2.62 -2.75 -2.75 -2.62 -2.87 -2.49 -2.99 -2.35 -3.11 -2.21 -3.21 -2.06 -3.32 -1.91 -3.42 -1.75 -3.51 -1.59 -3.6 -1.42 -3.68 -1.25 -3.76 -1.07 -3.83 -0.88 -3.9 -0.7 -3.96 -0.5 -4.02 -0.31 -4.07 -0.1 1.53 -1.06 4.08 0.1 4.03 0.31 3.97 0.5 3.9 0.7 3.84 0.88 3.76 1.07 3.68 1.25 3.6 1.42 3.51 1.59 3.42 1.75 3.32 1.91 3.21 2.06 3.11 2.21 2.99 2.35 2.88 2.49 2.75 2.62 2.62 2.75 2.49 2.87 2.35 2.99 2.21 3.11 2.06 3.21 1.91 3.32 1.75 3.42 1.59 3.51 1.42 3.6 1.25 3.68 1.07 3.76 0.88 3.84 0.7 3.9 0.5 3.97 0.31 4.02 0.1 4.08 0 0zm-80.78 80.28l1.53 -1.06 0 0 4.07 -0.1 4.02 -0.31 3.96 -0.5 3.89 -0.7 3.82 -0.88 3.74 -1.06 3.66 -1.24 3.56 -1.4 3.44 -1.56 3.29 -1.68 3.09 -1.78 2.89 -1.85 2.81 -2 2.82 -2.21 2.78 -2.41 2.71 -2.58 2.6 -2.73 2.48 -2.86 2.34 -2.98 2.2 -3.1 2.06 -3.21 1.91 -3.31 1.75 -3.41 1.59 -3.51 1.42 -3.6 1.25 -3.68 1.07 -3.76 0.88 -3.83 0.7 -3.9 0.5 -3.96 0.31 -4.02 0.1 -4.08 1.57 -1.03 -0.1 4.08 -0.31 4.03 -0.5 3.97 -0.7 3.9 -0.88 3.83 -1.07 3.76 -1.25 3.68 -1.42 3.6 -1.59 3.51 -1.75 3.42 -1.91 3.32 -2.06 3.22 -2.22 3.11 -2.36 3.01 -2.5 2.89 -2.65 2.78 -2.8 2.67 -2.97 2.57 -3.17 2.49 -3.4 2.42 -3.54 2.27 -3.55 2.04 -3.54 1.81 -3.58 1.62 -3.64 1.43 -3.71 1.25 -3.78 1.07 -3.84 0.89 -3.91 0.7 -3.97 0.5 -4.03 0.31 -4.08 0.1 0 0zm-79.26 -79.25l1.57 -1.03 0 0 0.1 4.08 0.31 4.02 0.5 3.96 0.7 3.9 0.88 3.83 1.07 3.76 1.25 3.68 1.42 3.6 1.59 3.51 1.75 3.42 1.91 3.32 2.06 3.21 2.21 3.11 2.35 2.99 2.49 2.87 2.62 2.75 2.75 2.62 2.87 2.49 2.99 2.35 3.11 2.21 3.21 2.06 3.32 1.91 3.42 1.75 3.51 1.59 3.6 1.42 3.68 1.25 3.76 1.07 3.83 0.88 3.9 0.7 3.96 0.5 4.02 0.31 4.07 0.1 -1.53 1.06 -4.08 -0.1 -4.03 -0.31 -3.97 -0.5 -3.9 -0.7 -3.83 -0.88 -3.76 -1.07 -3.68 -1.25 -3.6 -1.42 -3.51 -1.59 -3.42 -1.75 -3.32 -1.91 -3.21 -2.06 -3.11 -2.21 -2.99 -2.35 -2.88 -2.49 -2.75 -2.62 -2.62 -2.75 -2.49 -2.87 -2.35 -2.99 -2.21 -3.11 -2.06 -3.21 -1.91 -3.32 -1.75 -3.42 -1.59 -3.51 -1.42 -3.6 -1.25 -3.68 -1.07 -3.76 -0.88 -3.83 -0.7 -3.9 -0.5 -3.97 -0.31 -4.03 -0.1 -4.08 0 0zm80.78 -80.28l-1.53 1.06 0 0 -4.07 0.1 -4.02 0.31 -3.96 0.5 -3.89 0.7 -3.82 0.88 -3.74 1.06 -3.66 1.24 -3.56 1.4 -3.44 1.56 -3.29 1.68 -3.09 1.78 -2.89 1.85 -2.81 2 -2.82 2.21 -2.78 2.41 -2.71 2.58 -2.6 2.73 -2.48 2.86 -2.34 2.98 -2.2 3.1 -2.06 3.21 -1.91 3.31 -1.75 3.41 -1.59 3.51 -1.42 3.6 -1.25 3.68 -1.07 3.76 -0.88 3.83 -0.7 3.9 -0.5 3.96 -0.31 4.02 -0.1 4.08 -1.57 1.03 0.1 -4.08 0.31 -4.02 0.5 -3.97 0.7 -3.9 0.88 -3.84 1.07 -3.76 1.25 -3.68 1.42 -3.6 1.59 -3.51 1.75 -3.42 1.91 -3.32 2.06 -3.22 2.22 -3.11 2.36 -3.01 2.5 -2.89 2.65 -2.78 2.8 -2.67 2.97 -2.57 3.17 -2.49 3.4 -2.42 3.54 -2.27 3.55 -2.04 3.54 -1.81 3.58 -1.62 3.64 -1.43 3.71 -1.25 3.78 -1.07 3.84 -0.89 3.91 -0.7 3.97 -0.5 4.03 -0.31 4.08 -0.1 0 0z"/>
  </g>
  <g>
   <circle class="fil4" cx="128.28" cy="254.65" r="9.56"/>
   <circle class="fil4" cx="160.5" cy="254.65" r="9.56"/>
   <circle class="fil4" cx="192.72" cy="254.65" r="9.56"/>
   <circle class="fil4" cx="224.93" cy="254.65" r="9.56"/>
   <circle class="fil4" cx="257.86" cy="254.65" r="9.56"/>
  </g>
 </g>
</svg>
