<?xml version="1.0" encoding="UTF-8"?>
<!DOCTYPE svg PUBLIC "-//W3C//DTD SVG 1.1//EN" "http://www.w3.org/Graphics/SVG/1.1/DTD/svg11.dtd">
<!-- Creator: CorelDRAW 2019 (64-Bit) -->
<svg xmlns="http://www.w3.org/2000/svg" xml:space="preserve" width="1.86302in" height="0.470563in" version="1.1" style="shape-rendering:geometricPrecision; text-rendering:geometricPrecision; image-rendering:optimizeQuality; fill-rule:evenodd; clip-rule:evenodd"
viewBox="0 0 4069.9 1027.98"
 xmlns:xlink="http://www.w3.org/1999/xlink"
 xmlns:xodm="http://www.corel.com/coreldraw/odm/2003">
 <defs>
  <style type="text/css">
   <![CDATA[
    .str0 {stroke:#727273;stroke-width:10.62;stroke-miterlimit:2.61313}
    .fil5 {fill:none}
    .fil2 {fill:#999999}
    .fil1 {fill:#B59041}
    .fil3 {fill:#5E5E5E;fill-rule:nonzero}
    .fil0 {fill:#7D7D7D;fill-rule:nonzero}
    .fil4 {fill:#B59041;fill-rule:nonzero}
   ]]>
  </style>
 </defs>
 <g id="Layer_x0020_1">
  <metadata id="CorelCorpID_0Corel-Layer"/>
  <path class="fil0" d="M1221.42 491.44l96.82 -215.14 39.34 0 97.12 215.14 -41.8 0 -83.29 -193.94 15.98 0 -82.98 193.94 -41.19 0zm44.57 -49.79l10.76 -31.35 116.17 0 10.76 31.35 -137.69 0zm280.3 51.94c-15.77,0 -29.96,-3.53 -42.56,-10.6 -12.6,-7.07 -22.49,-16.85 -29.66,-29.35 -7.17,-12.51 -10.76,-27.26 -10.76,-44.26 0,-17.01 3.59,-31.76 10.76,-44.26 7.16,-12.5 17.06,-22.23 29.66,-29.2 12.6,-6.97 26.79,-10.45 42.56,-10.45 13.74,0 26.03,3.02 36.89,9.07 10.85,6.05 19.46,15.21 25.81,27.51 6.36,12.29 9.53,28.06 9.53,47.33 0,19.05 -3.07,34.78 -9.22,47.17 -6.15,12.39 -14.65,21.67 -25.51,27.81 -10.86,6.15 -23.36,9.22 -37.5,9.22zm4.61 -32.88c9.22,0 17.47,-2.06 24.74,-6.15 7.28,-4.1 13.12,-10.05 17.52,-17.83 4.4,-7.78 6.61,-16.9 6.61,-27.35 0,-10.66 -2.2,-19.82 -6.61,-27.51 -4.4,-7.68 -10.24,-13.57 -17.52,-17.67 -7.28,-4.1 -15.52,-6.15 -24.74,-6.15 -9.22,0 -17.47,2.05 -24.74,6.15 -7.28,4.09 -13.12,9.99 -17.52,17.67 -4.4,7.69 -6.61,16.86 -6.61,27.51 0,10.45 2.2,19.57 6.61,27.35 4.4,7.78 10.24,13.73 17.52,17.83 7.27,4.09 15.52,6.15 24.74,6.15zm49.79 30.73l0 -38.73 1.54 -43.64 -3.07 -43.64 0 -102.04 38.11 0 0 228.05 -36.58 0zm161.06 2.15c-16.81,0 -31.76,-3.64 -44.88,-10.91 -13.11,-7.28 -23.45,-17.27 -31.04,-29.97 -7.58,-12.7 -11.37,-27.14 -11.37,-43.33 0,-16.39 3.79,-30.89 11.37,-43.49 7.59,-12.6 17.93,-22.48 31.04,-29.66 13.12,-7.17 28.07,-10.76 44.88,-10.76 17,0 32.12,3.59 45.33,10.76 13.21,7.17 23.56,17 31.04,29.5 7.47,12.51 11.22,27.05 11.22,43.65 0,16.19 -3.74,30.63 -11.22,43.33 -7.48,12.7 -17.83,22.7 -31.04,29.97 -13.22,7.27 -28.33,10.91 -45.33,10.91zm0 -32.88c9.43,0 17.82,-2.06 25.2,-6.15 7.38,-4.1 13.17,-10.05 17.36,-17.83 4.2,-7.78 6.3,-16.9 6.3,-27.35 0,-10.66 -2.11,-19.82 -6.3,-27.51 -4.2,-7.68 -9.99,-13.57 -17.36,-17.67 -7.38,-4.1 -15.68,-6.15 -24.9,-6.15 -9.42,0 -17.77,2.05 -25.05,6.15 -7.28,4.09 -13.06,9.99 -17.36,17.67 -4.3,7.69 -6.45,16.86 -6.45,27.51 0,10.45 2.15,19.57 6.45,27.35 4.3,7.78 10.09,13.73 17.36,17.83 7.28,4.09 15.52,6.15 24.74,6.15zm215.45 32.88c-13.93,0 -26.33,-3.07 -37.19,-9.22 -10.86,-6.15 -19.41,-15.42 -25.66,-27.81 -6.25,-12.39 -9.37,-28.12 -9.37,-47.17 0,-19.27 3.23,-35.04 9.68,-47.33 6.45,-12.3 15.16,-21.47 26.12,-27.51 10.97,-6.05 23.1,-9.07 36.42,-9.07 16.19,0 30.48,3.48 42.87,10.45 12.39,6.97 22.23,16.7 29.5,29.2 7.28,12.5 10.91,27.25 10.91,44.26 0,17 -3.64,31.75 -10.91,44.26 -7.27,12.5 -17.11,22.28 -29.5,29.35 -12.39,7.07 -26.69,10.6 -42.87,10.6zm-90.98 -2.15l0 -228.05 38.42 0 0 102.04 -3.07 43.64 1.23 43.64 0 38.73 -36.58 0zm86.68 -30.73c9.22,0 17.46,-2.06 24.74,-6.15 7.28,-4.1 13.06,-10.05 17.36,-17.83 4.31,-7.78 6.46,-16.9 6.46,-27.35 0,-10.66 -2.15,-19.82 -6.46,-27.51 -4.3,-7.68 -10.09,-13.57 -17.36,-17.67 -7.28,-4.1 -15.52,-6.15 -24.74,-6.15 -9.23,0 -17.52,2.05 -24.9,6.15 -7.38,4.09 -13.22,9.99 -17.52,17.67 -4.3,7.69 -6.45,16.86 -6.45,27.51 0,10.45 2.15,19.57 6.45,27.35 4.3,7.78 10.14,13.73 17.52,17.83 7.38,4.09 15.67,6.15 24.9,6.15zm201.31 32.88c-18.24,0 -34.17,-3.64 -47.79,-10.91 -13.62,-7.28 -24.18,-17.27 -31.66,-29.97 -7.47,-12.7 -11.22,-27.14 -11.22,-43.33 0,-16.39 3.64,-30.89 10.91,-43.49 7.27,-12.6 17.31,-22.48 30.12,-29.66 12.81,-7.17 27.4,-10.76 43.79,-10.76 15.98,0 30.22,3.48 42.72,10.45 12.5,6.97 22.34,16.81 29.51,29.51 7.16,12.7 10.75,27.66 10.75,44.87 0,1.64 -0.05,3.48 -0.15,5.53 -0.1,2.05 -0.25,4 -0.46,5.84l-136.77 0 0 -25.51 116.48 0 -15.06 7.99c0.21,-9.43 -1.74,-17.72 -5.84,-24.89 -4.09,-7.17 -9.68,-12.81 -16.75,-16.91 -7.07,-4.09 -15.21,-6.14 -24.43,-6.14 -9.43,0 -17.67,2.05 -24.74,6.14 -7.07,4.1 -12.6,9.79 -16.6,17.06 -3.99,7.27 -5.99,15.83 -5.99,25.66l0 6.15c0,9.84 2.25,18.54 6.76,26.13 4.51,7.58 10.85,13.42 19.05,17.52 8.2,4.09 17.62,6.14 28.28,6.14 9.22,0 17.52,-1.44 24.89,-4.3 7.38,-2.87 13.93,-7.38 19.68,-13.52l20.59 23.66c-7.38,8.61 -16.65,15.21 -27.81,19.82 -11.17,4.61 -23.93,6.91 -38.26,6.91zm202.54 -2.15l0 -215.14 88.52 0c19.05,0 35.39,3.07 49.02,9.22 13.62,6.14 24.12,14.96 31.5,26.43 7.38,11.47 11.07,25.1 11.07,40.88 0,15.77 -3.69,29.4 -11.07,40.87 -7.37,11.47 -17.87,20.29 -31.5,26.43 -13.63,6.15 -29.97,9.23 -49.02,9.23l-66.39 0 17.83 -18.75 0 80.83 -39.96 0zm39.96 -76.53l-17.83 -19.36 64.54 0c17.62,0 30.89,-3.74 39.8,-11.22 8.91,-7.47 13.37,-17.98 13.37,-31.5 0,-13.74 -4.46,-24.29 -13.37,-31.66 -8.91,-7.38 -22.18,-11.07 -39.8,-11.07l-64.54 0 17.83 -19.67 0 124.48zm272.62 -89.44c13.12,0 24.85,2.56 35.19,7.68 10.35,5.13 18.49,12.96 24.43,23.51 5.93,10.55 8.91,24.12 8.91,40.72l0 94.05 -38.42 0 0 -89.13c0,-14.55 -3.43,-25.41 -10.3,-32.58 -6.86,-7.17 -16.44,-10.76 -28.73,-10.76 -9.02,0 -17.01,1.85 -23.98,5.53 -6.97,3.69 -12.34,9.18 -16.13,16.44 -3.78,7.28 -5.69,16.44 -5.69,27.51l0 82.98 -38.42 0 0 -228.05 38.42 0 0 108.18 -8.3 -13.52c5.74,-10.45 14.09,-18.49 25.05,-24.12 10.96,-5.63 23.61,-8.45 37.95,-8.45zm191.48 168.12c-16.81,0 -31.76,-3.64 -44.88,-10.91 -13.11,-7.28 -23.45,-17.27 -31.04,-29.97 -7.58,-12.7 -11.37,-27.14 -11.37,-43.33 0,-16.39 3.79,-30.89 11.37,-43.49 7.59,-12.6 17.93,-22.48 31.04,-29.66 13.12,-7.17 28.07,-10.76 44.88,-10.76 17,0 32.12,3.59 45.33,10.76 13.21,7.17 23.56,17 31.04,29.5 7.47,12.51 11.22,27.05 11.22,43.65 0,16.19 -3.74,30.63 -11.22,43.33 -7.48,12.7 -17.83,22.7 -31.04,29.97 -13.22,7.27 -28.33,10.91 -45.33,10.91zm0 -32.88c9.43,0 17.82,-2.06 25.2,-6.15 7.38,-4.1 13.17,-10.05 17.36,-17.83 4.2,-7.78 6.3,-16.9 6.3,-27.35 0,-10.66 -2.11,-19.82 -6.3,-27.51 -4.2,-7.68 -9.99,-13.57 -17.36,-17.67 -7.38,-4.1 -15.68,-6.15 -24.9,-6.15 -9.42,0 -17.77,2.05 -25.05,6.15 -7.28,4.09 -13.06,9.99 -17.36,17.67 -4.3,7.69 -6.45,16.86 -6.45,27.51 0,10.45 2.15,19.57 6.45,27.35 4.3,7.78 10.09,13.73 17.36,17.83 7.28,4.09 15.52,6.15 24.74,6.15zm186.25 32.88c-18.03,0 -31.96,-4.66 -41.8,-13.98 -9.83,-9.32 -14.75,-23.1 -14.75,-41.33l0 -147.22 38.42 0 0 146.3c0,7.78 2,13.83 5.99,18.13 4,4.3 9.58,6.45 16.75,6.45 8.61,0 15.77,-2.25 21.51,-6.76l10.76 27.36c-4.51,3.69 -10.04,6.45 -16.59,8.3 -6.56,1.84 -13.32,2.76 -20.29,2.76zm-83.6 -134.31l0 -30.74 109.42 0 0 30.74 -109.42 0zm220.37 134.31c-16.81,0 -31.76,-3.64 -44.88,-10.91 -13.11,-7.28 -23.45,-17.27 -31.04,-29.97 -7.58,-12.7 -11.37,-27.14 -11.37,-43.33 0,-16.39 3.79,-30.89 11.37,-43.49 7.59,-12.6 17.93,-22.48 31.04,-29.66 13.12,-7.17 28.07,-10.76 44.88,-10.76 17,0 32.12,3.59 45.33,10.76 13.21,7.17 23.56,17 31.04,29.5 7.47,12.51 11.22,27.05 11.22,43.65 0,16.19 -3.74,30.63 -11.22,43.33 -7.48,12.7 -17.83,22.7 -31.04,29.97 -13.22,7.27 -28.33,10.91 -45.33,10.91zm0 -32.88c9.43,0 17.82,-2.06 25.2,-6.15 7.38,-4.1 13.17,-10.05 17.36,-17.83 4.2,-7.78 6.3,-16.9 6.3,-27.35 0,-10.66 -2.11,-19.82 -6.3,-27.51 -4.2,-7.68 -9.99,-13.57 -17.36,-17.67 -7.38,-4.1 -15.68,-6.15 -24.9,-6.15 -9.42,0 -17.77,2.05 -25.05,6.15 -7.28,4.09 -13.06,9.99 -17.36,17.67 -4.3,7.69 -6.45,16.86 -6.45,27.51 0,10.45 2.15,19.57 6.45,27.35 4.3,7.78 10.09,13.73 17.36,17.83 7.28,4.09 15.52,6.15 24.74,6.15zm175.19 32.88c-13.74,0 -26.89,-1.79 -39.49,-5.38 -12.61,-3.59 -22.59,-7.94 -29.97,-13.06l14.76 -29.2c7.37,4.71 16.19,8.61 26.43,11.68 10.24,3.08 20.49,4.61 30.73,4.61 12.09,0 20.85,-1.63 26.28,-4.92 5.43,-3.28 8.14,-7.68 8.14,-13.21 0,-4.51 -1.85,-7.94 -5.53,-10.3 -3.69,-2.36 -8.51,-4.15 -14.45,-5.38 -5.94,-1.23 -12.55,-2.36 -19.82,-3.38 -7.28,-1.02 -14.54,-2.41 -21.82,-4.15 -7.28,-1.75 -13.88,-4.3 -19.82,-7.69 -5.94,-3.38 -10.76,-7.94 -14.45,-13.68 -3.68,-5.74 -5.53,-13.31 -5.53,-22.74 0,-10.45 2.98,-19.51 8.92,-27.2 5.93,-7.68 14.29,-13.62 25.05,-17.82 10.76,-4.21 23.51,-6.3 38.26,-6.3 11.06,0 22.23,1.23 33.5,3.69 11.27,2.46 20.59,5.94 27.97,10.45l-14.75 29.2c-7.79,-4.71 -15.63,-7.94 -23.51,-9.68 -7.89,-1.74 -15.73,-2.61 -23.51,-2.61 -11.68,0 -20.33,1.75 -25.97,5.23 -5.64,3.48 -8.45,7.89 -8.45,13.21 0,4.92 1.84,8.61 5.53,11.07 3.69,2.46 8.51,4.4 14.45,5.84 5.94,1.44 12.55,2.61 19.82,3.53 7.27,0.92 14.49,2.3 21.67,4.15 7.17,1.85 13.78,4.35 19.82,7.53 6.05,3.17 10.91,7.63 14.6,13.37 3.69,5.74 5.53,13.22 5.53,22.44 0,10.24 -3.02,19.15 -9.07,26.74 -6.05,7.58 -14.6,13.47 -25.66,17.67 -11.06,4.2 -24.28,6.3 -39.64,6.3zm200.7 -168.12c13.12,0 24.85,2.56 35.19,7.68 10.35,5.13 18.49,12.96 24.43,23.51 5.93,10.55 8.91,24.12 8.91,40.72l0 94.05 -38.42 0 0 -89.13c0,-14.55 -3.43,-25.41 -10.3,-32.58 -6.86,-7.17 -16.44,-10.76 -28.73,-10.76 -9.02,0 -17.01,1.85 -23.98,5.53 -6.97,3.69 -12.34,9.18 -16.13,16.44 -3.78,7.28 -5.69,16.44 -5.69,27.51l0 82.98 -38.42 0 0 -228.05 38.42 0 0 108.18 -8.3 -13.52c5.74,-10.45 14.09,-18.49 25.05,-24.12 10.96,-5.63 23.61,-8.45 37.95,-8.45zm191.48 168.12c-16.81,0 -31.76,-3.64 -44.88,-10.91 -13.11,-7.28 -23.45,-17.27 -31.04,-29.97 -7.58,-12.7 -11.37,-27.14 -11.37,-43.33 0,-16.39 3.79,-30.89 11.37,-43.49 7.59,-12.6 17.93,-22.48 31.04,-29.66 13.12,-7.17 28.07,-10.76 44.88,-10.76 17,0 32.12,3.59 45.33,10.76 13.21,7.17 23.56,17 31.04,29.5 7.47,12.51 11.22,27.05 11.22,43.65 0,16.19 -3.74,30.63 -11.22,43.33 -7.48,12.7 -17.83,22.7 -31.04,29.97 -13.22,7.27 -28.33,10.91 -45.33,10.91zm0 -32.88c9.43,0 17.82,-2.06 25.2,-6.15 7.38,-4.1 13.17,-10.05 17.36,-17.83 4.2,-7.78 6.3,-16.9 6.3,-27.35 0,-10.66 -2.11,-19.82 -6.3,-27.51 -4.2,-7.68 -9.99,-13.57 -17.36,-17.67 -7.38,-4.1 -15.68,-6.15 -24.9,-6.15 -9.42,0 -17.77,2.05 -25.05,6.15 -7.28,4.09 -13.06,9.99 -17.36,17.67 -4.3,7.69 -6.45,16.86 -6.45,27.51 0,10.45 2.15,19.57 6.45,27.35 4.3,7.78 10.09,13.73 17.36,17.83 7.28,4.09 15.52,6.15 24.74,6.15zm215.45 32.88c-13.32,0 -25.46,-3.07 -36.42,-9.22 -10.96,-6.15 -19.67,-15.42 -26.12,-27.81 -6.46,-12.39 -9.68,-28.12 -9.68,-47.17 0,-19.27 3.12,-35.04 9.37,-47.33 6.25,-12.3 14.8,-21.47 25.66,-27.51 10.86,-6.05 23.26,-9.07 37.19,-9.07 16.19,0 30.48,3.48 42.87,10.45 12.39,6.97 22.23,16.7 29.5,29.2 7.28,12.5 10.91,27.25 10.91,44.26 0,17 -3.64,31.81 -10.91,44.41 -7.27,12.61 -17.11,22.39 -29.5,29.35 -12.39,6.97 -26.69,10.45 -42.87,10.45zm-90.98 57.48l0 -223.75 36.58 0 0 38.72 -1.23 43.64 3.07 43.65 0 97.74 -38.42 0zm86.68 -90.36c9.22,0 17.46,-2.06 24.74,-6.15 7.28,-4.1 13.06,-10.05 17.36,-17.83 4.31,-7.78 6.46,-16.9 6.46,-27.35 0,-10.66 -2.15,-19.82 -6.46,-27.51 -4.3,-7.68 -10.09,-13.57 -17.36,-17.67 -7.28,-4.1 -15.52,-6.15 -24.74,-6.15 -9.23,0 -17.52,2.05 -24.9,6.15 -7.38,4.09 -13.22,9.99 -17.52,17.67 -4.3,7.69 -6.45,16.86 -6.45,27.51 0,10.45 2.15,19.57 6.45,27.35 4.3,7.78 10.14,13.73 17.52,17.83 7.38,4.09 15.67,6.15 24.9,6.15z"/>
  <g id="_2882775380976">
   <circle class="fil1" cx="1272.62" cy="646.72" r="51.2"/>
   <circle class="fil1" cx="1445.19" cy="646.72" r="51.2"/>
   <circle class="fil1" cx="1617.77" cy="646.72" r="51.2"/>
   <circle class="fil1" cx="1790.34" cy="646.72" r="51.2"/>
   <circle class="fil2" cx="1966.71" cy="646.72" r="51.2"/>
  </g>
  <g>
   <path class="fil3" d="M1008.22 499.13l-10.13 6.64 0 0 -0.65 -25.68 -1.94 -25.33 -3.17 -24.97 -4.39 -24.58 -5.57 -24.13 -6.73 -23.68 -7.84 -23.19 -8.94 -22.65 -9.99 -22.1 -11.01 -21.51 -12.02 -20.9 -12.98 -20.25 -13.92 -19.56 -14.81 -18.85 -15.68 -18.1 -16.53 -17.32 -17.33 -16.53 -18.1 -15.68 -18.85 -14.81 -19.56 -13.92 -20.25 -12.98 -20.9 -12.02 -21.51 -11.01 -22.1 -9.99 -22.66 -8.94 -23.18 -7.84 -23.67 -6.73 -24.13 -5.57 -24.57 -4.39 -24.96 -3.17 -25.32 -1.93 -25.66 -0.65 9.84 -6.83 25.7 0.65 25.35 1.94 24.99 3.17 24.59 4.39 24.15 5.57 23.69 6.73 23.2 7.85 22.66 8.94 22.11 9.99 21.53 11.03 20.9 12.02 20.25 12.98 19.58 13.92 18.85 14.83 18.11 15.68 17.33 16.53 16.53 17.34 15.68 18.1 14.83 18.85 13.92 19.58 12.98 20.25 12.02 20.9 11.03 21.53 9.99 22.1 8.94 22.67 7.84 23.19 6.73 23.68 5.57 24.15 4.39 24.58 3.18 24.99 1.94 25.35 0.65 25.68 0 0zm-509.02 505.78l9.84 -6.83 0 0 25.66 -0.65 25.31 -1.93 24.93 -3.17 24.53 -4.38 24.07 -5.56 23.57 -6.69 23.02 -7.79 22.41 -8.83 21.66 -9.8 20.71 -10.6 19.42 -11.16 18.14 -11.64 17.66 -12.55 17.7 -13.92 17.52 -15.18 17.03 -16.23 16.36 -17.16 15.58 -17.98 14.76 -18.78 13.87 -19.51 12.95 -20.2 12 -20.87 11 -21.49 9.99 -22.09 8.93 -22.65 7.84 -23.17 6.72 -23.67 5.57 -24.13 4.39 -24.56 3.17 -24.97 1.94 -25.34 0.65 -25.67 10.13 -6.64 -0.65 25.69 -1.94 25.35 -3.18 24.99 -4.39 24.58 -5.57 24.15 -6.73 23.7 -7.84 23.2 -8.94 22.68 -10 22.12 -11.03 21.54 -12.03 20.93 -13 20.29 -13.96 19.62 -14.88 18.93 -15.77 18.22 -16.7 17.5 -17.63 16.81 -18.69 16.2 -20.01 15.71 -21.48 15.27 -22.35 14.34 -22.38 12.87 -22.33 11.44 -22.55 10.19 -22.91 9.04 -23.35 7.9 -23.78 6.76 -24.21 5.59 -24.63 4.39 -25.02 3.17 -25.36 1.94 -25.71 0.65 0 0zm-499.19 -499.14l10.13 -6.64 0 0 0.65 25.68 1.94 25.34 3.17 24.97 4.39 24.57 5.57 24.13 6.73 23.69 7.84 23.19 8.94 22.65 9.99 22.1 11.01 21.51 12.02 20.9 12.99 20.25 13.91 19.56 14.81 18.85 15.69 18.1 16.52 17.32 17.33 16.52 18.1 15.69 18.85 14.81 19.56 13.91 20.25 12.99 20.9 12.02 21.51 11.01 22.1 9.99 22.66 8.94 23.18 7.84 23.68 6.73 24.13 5.57 24.56 4.39 24.96 3.17 25.33 1.93 25.66 0.65 -9.84 6.83 -25.7 -0.65 -25.36 -1.94 -24.99 -3.17 -24.58 -4.39 -24.15 -5.57 -23.69 -6.73 -23.2 -7.85 -22.66 -8.94 -22.11 -9.99 -21.53 -11.03 -20.9 -12.02 -20.25 -12.99 -19.58 -13.91 -18.85 -14.83 -18.11 -15.69 -17.33 -16.52 -16.52 -17.34 -15.69 -18.1 -14.83 -18.85 -13.91 -19.58 -12.99 -20.25 -12.02 -20.9 -11.03 -21.53 -9.99 -22.1 -8.94 -22.67 -7.84 -23.19 -6.73 -23.69 -5.57 -24.15 -4.39 -24.57 -3.18 -24.99 -1.94 -25.35 -0.65 -25.68 0 0zm509.03 -505.77l-9.84 6.83 0 0 -25.66 0.65 -25.32 1.93 -24.93 3.17 -24.52 4.38 -24.07 5.56 -23.58 6.69 -23.02 7.79 -22.41 8.83 -21.66 9.8 -20.71 10.6 -19.43 11.16 -18.13 11.63 -17.66 12.56 -17.71 13.92 -17.51 15.17 -17.03 16.24 -16.35 17.16 -15.59 17.99 -14.76 18.77 -13.86 19.51 -12.96 20.2 -12 20.87 -11 21.49 -9.99 22.09 -8.93 22.65 -7.84 23.17 -6.72 23.66 -5.57 24.13 -4.39 24.57 -3.17 24.97 -1.94 25.33 -0.65 25.67 -10.13 6.64 0.65 -25.69 1.94 -25.35 3.18 -24.99 4.39 -24.59 5.57 -24.15 6.73 -23.69 7.84 -23.2 8.94 -22.68 10 -22.12 11.03 -21.54 12.03 -20.93 13.01 -20.29 13.95 -19.62 14.88 -18.94 15.78 -18.22 16.69 -17.5 17.63 -16.82 18.7 -16.19 20 -15.71 21.48 -15.27 22.36 -14.33 22.37 -12.87 22.33 -11.44 22.55 -10.19 22.91 -9.04 23.35 -7.9 23.79 -6.76 24.21 -5.59 24.62 -4.39 25.02 -3.17 25.37 -1.94 25.71 -0.65 0 0z"/>
  </g>
  <g>
   <path class="fil4" d="M1040.75 522.21l-10.13 6.64 0 0 -0.65 -25.68 -1.94 -25.34 -3.17 -24.97 -4.39 -24.57 -5.57 -24.13 -6.73 -23.69 -7.84 -23.19 -8.94 -22.65 -9.99 -22.1 -11.01 -21.51 -12.02 -20.9 -12.98 -20.25 -13.92 -19.56 -14.81 -18.85 -15.68 -18.1 -16.53 -17.32 -17.33 -16.52 -18.1 -15.69 -18.85 -14.81 -19.56 -13.91 -20.25 -12.99 -20.9 -12.02 -21.51 -11.01 -22.1 -9.99 -22.66 -8.94 -23.18 -7.84 -23.67 -6.73 -24.13 -5.57 -24.57 -4.39 -24.96 -3.17 -25.32 -1.93 -25.66 -0.65 9.84 -6.83 25.7 0.65 25.35 1.94 24.99 3.17 24.59 4.39 24.15 5.57 23.69 6.73 23.2 7.85 22.66 8.94 22.11 9.99 21.53 11.03 20.9 12.02 20.25 12.99 19.58 13.91 18.85 14.83 18.11 15.69 17.33 16.52 16.53 17.34 15.68 18.1 14.83 18.85 13.92 19.58 12.98 20.25 12.02 20.9 11.03 21.53 9.99 22.1 8.94 22.67 7.84 23.19 6.73 23.69 5.57 24.15 4.39 24.57 3.18 24.99 1.94 25.35 0.65 25.68 0 0zm-509.02 505.77l9.84 -6.83 0 0 25.66 -0.65 25.31 -1.93 24.93 -3.17 24.53 -4.38 24.07 -5.56 23.57 -6.69 23.02 -7.79 22.41 -8.83 21.66 -9.8 20.71 -10.6 19.43 -11.16 18.13 -11.63 17.66 -12.56 17.71 -13.92 17.51 -15.17 17.03 -16.24 16.36 -17.16 15.58 -17.98 14.76 -18.78 13.87 -19.51 12.95 -20.2 12 -20.87 11 -21.49 9.99 -22.09 8.93 -22.65 7.84 -23.17 6.72 -23.66 5.57 -24.13 4.39 -24.57 3.17 -24.97 1.94 -25.33 0.65 -25.67 10.13 -6.64 -0.65 25.69 -1.94 25.35 -3.18 24.99 -4.39 24.59 -5.57 24.15 -6.73 23.69 -7.84 23.2 -8.94 22.68 -10 22.12 -11.03 21.54 -12.03 20.93 -13 20.29 -13.96 19.62 -14.88 18.93 -15.77 18.22 -16.7 17.5 -17.63 16.82 -18.7 16.19 -20 15.71 -21.48 15.27 -22.36 14.33 -22.37 12.87 -22.33 11.44 -22.55 10.19 -22.91 9.04 -23.35 7.9 -23.78 6.76 -24.21 5.59 -24.63 4.39 -25.02 3.17 -25.36 1.94 -25.71 0.65 0 0zm-499.19 -499.13l10.13 -6.64 0 0 0.65 25.68 1.94 25.33 3.17 24.97 4.39 24.58 5.57 24.13 6.73 23.68 7.84 23.19 8.94 22.65 9.99 22.1 11.01 21.51 12.02 20.9 12.99 20.25 13.91 19.56 14.81 18.85 15.69 18.1 16.52 17.32 17.33 16.53 18.1 15.68 18.85 14.81 19.56 13.92 20.25 12.98 20.9 12.02 21.51 11.01 22.1 9.99 22.66 8.94 23.18 7.84 23.68 6.73 24.13 5.57 24.56 4.39 24.96 3.17 25.33 1.93 25.66 0.65 -9.84 6.83 -25.7 -0.65 -25.36 -1.94 -24.99 -3.17 -24.58 -4.39 -24.15 -5.57 -23.69 -6.73 -23.2 -7.85 -22.66 -8.94 -22.11 -9.99 -21.53 -11.03 -20.9 -12.02 -20.25 -12.98 -19.58 -13.92 -18.85 -14.83 -18.11 -15.68 -17.33 -16.53 -16.52 -17.34 -15.69 -18.1 -14.83 -18.85 -13.91 -19.58 -12.99 -20.25 -12.02 -20.9 -11.03 -21.53 -9.99 -22.1 -8.94 -22.67 -7.84 -23.19 -6.73 -23.68 -5.57 -24.15 -4.39 -24.58 -3.18 -24.99 -1.94 -25.35 -0.65 -25.68 0 0zm509.03 -505.78l-9.84 6.83 0 0 -25.66 0.65 -25.32 1.93 -24.93 3.17 -24.52 4.38 -24.07 5.56 -23.58 6.69 -23.02 7.79 -22.41 8.83 -21.66 9.8 -20.71 10.6 -19.42 11.16 -18.14 11.64 -17.66 12.55 -17.7 13.92 -17.52 15.18 -17.03 16.23 -16.35 17.16 -15.59 17.99 -14.76 18.77 -13.86 19.51 -12.96 20.2 -12 20.87 -11 21.49 -9.99 22.09 -8.93 22.65 -7.84 23.17 -6.72 23.67 -5.57 24.13 -4.39 24.56 -3.17 24.97 -1.94 25.34 -0.65 25.67 -10.13 6.64 0.65 -25.69 1.94 -25.35 3.18 -24.99 4.39 -24.58 5.57 -24.15 6.73 -23.7 7.84 -23.2 8.94 -22.68 10 -22.12 11.03 -21.54 12.03 -20.93 13.01 -20.29 13.95 -19.62 14.88 -18.94 15.78 -18.22 16.69 -17.5 17.63 -16.81 18.69 -16.2 20.01 -15.71 21.48 -15.27 22.35 -14.34 22.38 -12.87 22.33 -11.44 22.55 -10.19 22.91 -9.04 23.35 -7.9 23.79 -6.76 24.21 -5.59 24.62 -4.39 25.02 -3.17 25.37 -1.94 25.71 -0.65 0 0z"/>
  </g>
  <path class="fil5 str0" d="M223.78 273.68c0,121.46 30.74,272.26 27.63,410.33 -0.03,0.65 5.65,57.02 6.01,59.35 0.12,0.7 51.38,8.33 45.21,-14.21 -7.36,-26.79 -2.31,-373.74 -2.31,-454.74 -2.64,4.82 32.8,77.37 -1.38,95.3 -14.72,7.71 -23.08,364.65 -28.2,365.49 -31.72,5.19 -26.61,-27.18 -28.02,-69.31 -3.28,-99.28 14.26,-170.9 4.28,-286.09 -2.24,-25.81 4.34,-38.05 6.73,-58.8 28.13,-16.97 152.6,-5.23 184.79,7.41 36.39,14.31 32.46,36.79 36.31,88.44 6.29,83.83 -62.83,133.51 -143.17,114.63 -105.86,-24.86 30.82,108.63 157.32,-47.33 38.92,-47.96 26.02,-191.32 -110.73,-191.32 -4.03,0 -191.07,3.09 -128.86,-15.51 97.02,-28.98 292.85,-28.49 282.68,110.81 -6.8,93.5 -40.84,185.33 -144.02,185.33 -164.69,0 53.23,30.88 80.23,8.51 23.95,-19.87 71.37,-21.78 78.66,-86.8 7.73,-69.14 6.96,-158.86 -68.88,-180.55l-5.52 -2.67"/>
  <path class="fil5 str0" d="M837.88 405.5c-81.4,2.33 -121.59,-36.6 -195.78,14.53 -56.23,38.76 -25.86,122.9 17.2,164.08 10.65,10.18 129.25,23.46 103.64,95.67 -20.96,59.07 -145.26,-9.83 -152.18,-10.62 -0.07,0.29 4.87,74.55 11.19,74.4 54.4,-1.38 226,29.91 220.37,-87.53 -8.04,-168.11 -220.62,-64.13 -148.46,-163.52 30.64,-42.21 131.27,7.85 146.7,-29.59 31.73,-76.92 -34.39,-46.76 -78.66,-46.76 -75.73,0 -115.53,29 -107.05,108.59 5.09,47.58 149.02,34.33 149.02,132.37 0,112.1 -167.99,44.9 -171.65,53.51 -22.06,51.85 226.95,89.08 226.95,-109.52 -22.85,-7.9 -179.72,-57.14 -184.42,-77.93 -24.49,-108.3 108.84,-79.33 150.94,-54.42 3.28,1.93 1.12,-0.6 5.84,2.66"/>
 </g>
</svg>
