<?xml version="1.0" encoding="UTF-8"?>
<!DOCTYPE svg PUBLIC "-//W3C//DTD SVG 1.1//EN" "http://www.w3.org/Graphics/SVG/1.1/DTD/svg11.dtd">
<!-- Creator: CorelDRAW 2019 (64-Bit) -->
<svg xmlns="http://www.w3.org/2000/svg" xml:space="preserve" width="1.17355in" height="0.304102in" version="1.1" style="shape-rendering:geometricPrecision; text-rendering:geometricPrecision; image-rendering:optimizeQuality; fill-rule:evenodd; clip-rule:evenodd"
viewBox="0 0 425.89 110.36"
 xmlns:xlink="http://www.w3.org/1999/xlink"
 xmlns:xodm="http://www.corel.com/coreldraw/odm/2003">
 <defs>
  <style type="text/css">
   <![CDATA[
    .str0 {stroke:#727273;stroke-width:1.76;stroke-miterlimit:2.61313}
    .fil4 {fill:none}
    .fil1 {fill:#B59041}
    .fil3 {fill:#727273;fill-rule:nonzero}
    .fil0 {fill:#7D7D7D;fill-rule:nonzero}
    .fil2 {fill:#B59041;fill-rule:nonzero}
   ]]>
  </style>
 </defs>
 <g id="Layer_x0020_1">
  <metadata id="CorelCorpID_0Corel-Layer"/>
  <path class="fil0" d="M158.05 55.37c-2.72,0 -5.25,-0.45 -7.58,-1.35 -2.33,-0.9 -4.36,-2.18 -6.08,-3.83 -1.72,-1.65 -3.05,-3.6 -4.01,-5.85 -0.95,-2.25 -1.43,-4.7 -1.43,-7.35 0,-2.65 0.48,-5.11 1.43,-7.35 0.95,-2.25 2.3,-4.19 4.03,-5.85 1.74,-1.65 3.76,-2.93 6.08,-3.83 2.31,-0.9 4.85,-1.35 7.61,-1.35 2.93,0 5.6,0.5 8.02,1.51 2.42,1 4.46,2.49 6.13,4.47l-4.29 4.03c-1.29,-1.4 -2.74,-2.44 -4.34,-3.14 -1.6,-0.7 -3.33,-1.05 -5.21,-1.05 -1.87,0 -3.58,0.31 -5.13,0.92 -1.55,0.61 -2.89,1.48 -4.03,2.6 -1.14,1.12 -2.03,2.45 -2.65,3.98 -0.63,1.53 -0.94,3.22 -0.94,5.06 0,1.84 0.31,3.52 0.94,5.06 0.63,1.53 1.51,2.86 2.65,3.98 1.14,1.12 2.48,1.99 4.03,2.6 1.55,0.61 3.26,0.92 5.13,0.92 1.87,0 3.61,-0.35 5.21,-1.05 1.6,-0.7 3.05,-1.76 4.34,-3.19l4.29 4.08c-1.67,1.94 -3.71,3.42 -6.13,4.44 -2.42,1.02 -5.11,1.53 -8.07,1.53zm31.2 -0.15c-2.79,0 -5.28,-0.6 -7.46,-1.81 -2.18,-1.21 -3.9,-2.87 -5.16,-4.98 -1.26,-2.11 -1.89,-4.51 -1.89,-7.2 0,-2.72 0.63,-5.13 1.89,-7.23 1.26,-2.09 2.98,-3.73 5.16,-4.93 2.18,-1.19 4.66,-1.79 7.46,-1.79 2.82,0 5.34,0.6 7.53,1.79 2.19,1.19 3.91,2.82 5.16,4.9 1.24,2.08 1.86,4.49 1.86,7.25 0,2.69 -0.62,5.09 -1.86,7.2 -1.24,2.11 -2.96,3.77 -5.16,4.98 -2.2,1.21 -4.71,1.81 -7.53,1.81zm0 -5.46c1.57,0 2.96,-0.34 4.19,-1.02 1.23,-0.68 2.19,-1.67 2.88,-2.96 0.7,-1.29 1.05,-2.81 1.05,-4.54 0,-1.77 -0.35,-3.29 -1.05,-4.57 -0.7,-1.28 -1.66,-2.25 -2.88,-2.93 -1.23,-0.68 -2.6,-1.02 -4.14,-1.02 -1.56,0 -2.95,0.34 -4.16,1.02 -1.21,0.68 -2.17,1.66 -2.88,2.93 -0.71,1.28 -1.07,2.8 -1.07,4.57 0,1.74 0.36,3.25 1.07,4.54 0.71,1.29 1.68,2.28 2.88,2.96 1.21,0.68 2.58,1.02 4.11,1.02zm20.68 5.11l0 -27.26 6.08 0 0 7.51 -0.72 -2.2c0.82,-1.84 2.1,-3.23 3.85,-4.19 1.75,-0.95 3.94,-1.43 6.56,-1.43l0 6.08c-0.27,-0.07 -0.53,-0.11 -0.77,-0.13 -0.24,-0.02 -0.48,-0.03 -0.71,-0.03 -2.42,0 -4.34,0.71 -5.77,2.12 -1.43,1.41 -2.14,3.51 -2.14,6.31l0 13.22 -6.38 0zm33.75 0.36c-3.03,0 -5.68,-0.6 -7.94,-1.81 -2.26,-1.21 -4.02,-2.87 -5.26,-4.98 -1.24,-2.11 -1.86,-4.51 -1.86,-7.2 0,-2.72 0.6,-5.13 1.81,-7.23 1.21,-2.09 2.88,-3.73 5,-4.93 2.13,-1.19 4.55,-1.79 7.28,-1.79 2.65,0 5.02,0.58 7.1,1.74 2.08,1.16 3.71,2.79 4.9,4.9 1.19,2.11 1.79,4.59 1.79,7.45 0,0.27 -0.01,0.58 -0.03,0.92 -0.02,0.34 -0.04,0.66 -0.08,0.97l-22.72 0 0 -4.24 19.35 0 -2.5 1.33c0.03,-1.57 -0.29,-2.94 -0.97,-4.13 -0.68,-1.19 -1.61,-2.13 -2.78,-2.81 -1.17,-0.68 -2.53,-1.02 -4.06,-1.02 -1.57,0 -2.94,0.34 -4.11,1.02 -1.17,0.68 -2.09,1.63 -2.76,2.83 -0.66,1.21 -0.99,2.63 -0.99,4.26l0 1.02c0,1.63 0.37,3.08 1.12,4.34 0.75,1.26 1.8,2.23 3.16,2.91 1.36,0.68 2.93,1.02 4.7,1.02 1.53,0 2.91,-0.24 4.13,-0.71 1.23,-0.48 2.31,-1.23 3.27,-2.25l3.42 3.93c-1.23,1.43 -2.77,2.53 -4.62,3.29 -1.86,0.77 -3.97,1.15 -6.36,1.15zm18.94 -0.36l0 -37.88 6.38 0 0 37.88 -6.38 0zm29.46 0l0 -35.74 15.62 0c3.88,0 7.28,0.75 10.21,2.25 2.93,1.5 5.21,3.57 6.84,6.23 1.63,2.65 2.45,5.79 2.45,9.39 0,3.57 -0.82,6.7 -2.45,9.37 -1.63,2.67 -3.91,4.76 -6.84,6.26 -2.93,1.5 -6.33,2.25 -10.21,2.25l-15.62 0zm6.64 -5.62l8.68 0c2.69,0 5.01,-0.51 6.97,-1.53 1.96,-1.02 3.47,-2.45 4.54,-4.29 1.07,-1.84 1.61,-3.98 1.61,-6.43 0,-2.48 -0.54,-4.64 -1.61,-6.46 -1.07,-1.82 -2.59,-3.24 -4.54,-4.26 -1.96,-1.02 -4.28,-1.53 -6.97,-1.53l-8.68 0 0 24.51zm34.92 5.62l0 -27.26 6.08 0 0 7.51 -0.72 -2.2c0.82,-1.84 2.1,-3.23 3.85,-4.19 1.75,-0.95 3.94,-1.43 6.56,-1.43l0 6.08c-0.27,-0.07 -0.53,-0.11 -0.77,-0.13 -0.24,-0.02 -0.48,-0.03 -0.71,-0.03 -2.42,0 -4.34,0.71 -5.77,2.12 -1.43,1.41 -2.14,3.51 -2.14,6.31l0 13.22 -6.38 0zm36.05 0l0 -5.51 -0.36 -1.17 0 -9.65c0,-1.87 -0.56,-3.33 -1.68,-4.37 -1.12,-1.04 -2.83,-1.56 -5.11,-1.56 -1.53,0 -3.04,0.24 -4.52,0.71 -1.48,0.48 -2.73,1.14 -3.75,1.99l-2.5 -4.64c1.46,-1.12 3.21,-1.97 5.23,-2.53 2.02,-0.56 4.13,-0.84 6.31,-0.84 3.95,0 7,0.94 9.17,2.83 2.16,1.89 3.24,4.81 3.24,8.76l0 15.98 -6.03 0zm-8.58 0.36c-2.04,0 -3.83,-0.35 -5.36,-1.05 -1.53,-0.7 -2.71,-1.67 -3.55,-2.91 -0.83,-1.24 -1.25,-2.65 -1.25,-4.21 0,-1.53 0.37,-2.91 1.1,-4.14 0.73,-1.23 1.93,-2.2 3.6,-2.91 1.67,-0.71 3.88,-1.07 6.64,-1.07l7.91 0 0 4.24 -7.45 0c-2.18,0 -3.64,0.35 -4.39,1.05 -0.75,0.7 -1.12,1.56 -1.12,2.58 0,1.16 0.46,2.08 1.38,2.76 0.92,0.68 2.19,1.02 3.83,1.02 1.57,0 2.97,-0.36 4.21,-1.07 1.24,-0.71 2.14,-1.77 2.68,-3.17l1.07 3.83c-0.61,1.6 -1.71,2.84 -3.29,3.73 -1.58,0.88 -3.58,1.33 -6,1.33zm28.29 -0.36l-10.01 -27.26 6.03 0 8.58 24.05 -2.86 0 8.99 -24.05 5.36 0 8.73 24.05 -2.81 0 8.83 -24.05 5.67 0 -10.06 27.26 -6.13 0 -7.97 -21.29 1.89 0 -8.12 21.29 -6.13 0z"/>
  <path class="fil1" d="M147.46 83.16c4.7,0 8.51,3.81 8.51,8.51 0,4.7 -3.81,8.51 -8.51,8.51 -4.7,0 -8.51,-3.81 -8.51,-8.51 0,-4.7 3.81,-8.51 8.51,-8.51zm114.67 0c4.7,0 8.51,3.81 8.51,8.51 0,4.7 -3.81,8.51 -8.51,8.51 -4.7,0 -8.51,-3.81 -8.51,-8.51 0,-4.7 3.81,-8.51 8.51,-8.51zm-28.67 0c4.7,0 8.51,3.81 8.51,8.51 0,4.7 -3.81,8.51 -8.51,8.51 -4.7,0 -8.51,-3.81 -8.51,-8.51 0,-4.7 3.81,-8.51 8.51,-8.51zm-28.67 0c4.7,0 8.51,3.81 8.51,8.51 0,4.7 -3.81,8.51 -8.51,8.51 -4.7,0 -8.51,-3.81 -8.51,-8.51 0,-4.7 3.81,-8.51 8.51,-8.51zm-28.67 0c4.7,0 8.51,3.81 8.51,8.51 0,4.7 -3.81,8.51 -8.51,8.51 -4.7,0 -8.51,-3.81 -8.51,-8.51 0,-4.7 3.81,-8.51 8.51,-8.51z"/>
  <g id="_2918627422496">
   <g>
    <path class="fil2" d="M108.44 53.4l-1.68 1.1 0 0 -0.07 -2.75 -0.21 -2.71 -0.34 -2.67 -0.47 -2.63 -0.6 -2.58 -0.72 -2.53 -0.84 -2.48 -0.96 -2.42 -1.07 -2.36 -1.18 -2.3 -1.29 -2.23 -1.39 -2.17 -1.49 -2.09 -1.58 -2.02 -1.68 -1.94 -1.77 -1.85 -1.85 -1.77 -1.94 -1.68 -2.02 -1.58 -2.09 -1.49 -2.17 -1.39 -2.23 -1.29 -2.3 -1.18 -2.36 -1.07 -2.42 -0.96 -2.48 -0.84 -2.53 -0.72 -2.58 -0.6 -2.63 -0.47 -2.67 -0.34 -2.71 -0.2 -2.74 -0.07 1.63 -1.13 2.75 0.07 2.71 0.21 2.67 0.34 2.63 0.47 2.58 0.6 2.53 0.72 2.48 0.84 2.42 0.96 2.37 1.07 2.3 1.18 2.23 1.29 2.17 1.39 2.09 1.49 2.02 1.59 1.94 1.68 1.85 1.77 1.77 1.85 1.68 1.94 1.59 2.02 1.49 2.09 1.39 2.17 1.29 2.23 1.18 2.3 1.07 2.36 0.96 2.43 0.84 2.48 0.72 2.53 0.6 2.58 0.47 2.63 0.34 2.67 0.21 2.71 0.07 2.75 0 0zm-55.04 54.5l1.63 -1.13 0 0 2.74 -0.07 2.71 -0.2 2.66 -0.34 2.62 -0.47 2.57 -0.59 2.52 -0.71 2.45 -0.83 2.38 -0.94 2.29 -1.04 2.17 -1.11 1.99 -1.14 1.82 -1.16 1.78 -1.26 1.82 -1.43 1.84 -1.59 1.8 -1.72 1.74 -1.82 1.66 -1.92 1.57 -2 1.48 -2.08 1.38 -2.16 1.28 -2.23 1.18 -2.3 1.07 -2.36 0.95 -2.42 0.84 -2.48 0.72 -2.53 0.6 -2.58 0.47 -2.63 0.34 -2.67 0.21 -2.71 0.07 -2.75 1.68 -1.1 -0.07 2.75 -0.21 2.71 -0.34 2.67 -0.47 2.63 -0.6 2.58 -0.72 2.54 -0.84 2.48 -0.96 2.43 -1.07 2.37 -1.18 2.31 -1.29 2.24 -1.39 2.17 -1.49 2.1 -1.59 2.03 -1.69 1.96 -1.8 1.88 -1.9 1.82 -2.03 1.76 -2.21 1.73 -2.41 1.71 -2.51 1.61 -2.48 1.43 -2.44 1.25 -2.44 1.1 -2.47 0.97 -2.51 0.85 -2.55 0.73 -2.59 0.6 -2.64 0.47 -2.68 0.34 -2.71 0.21 -2.75 0.07 0 0zm-53.41 -53.4l1.68 -1.1 0 0 0.07 2.75 0.21 2.71 0.34 2.67 0.47 2.63 0.6 2.58 0.72 2.53 0.84 2.48 0.96 2.42 1.07 2.36 1.18 2.3 1.29 2.23 1.39 2.17 1.49 2.09 1.58 2.02 1.68 1.94 1.77 1.85 1.85 1.77 1.94 1.68 2.02 1.58 2.09 1.49 2.17 1.39 2.23 1.29 2.3 1.18 2.36 1.07 2.42 0.96 2.48 0.84 2.53 0.72 2.58 0.6 2.63 0.47 2.67 0.34 2.71 0.2 2.74 0.07 -1.63 1.13 -2.75 -0.07 -2.71 -0.21 -2.67 -0.34 -2.63 -0.47 -2.58 -0.6 -2.53 -0.72 -2.48 -0.84 -2.42 -0.96 -2.37 -1.07 -2.3 -1.18 -2.23 -1.29 -2.17 -1.39 -2.09 -1.49 -2.02 -1.59 -1.94 -1.68 -1.85 -1.77 -1.77 -1.85 -1.68 -1.94 -1.59 -2.02 -1.49 -2.09 -1.39 -2.17 -1.29 -2.23 -1.18 -2.3 -1.07 -2.36 -0.96 -2.43 -0.84 -2.48 -0.72 -2.53 -0.6 -2.58 -0.47 -2.63 -0.34 -2.67 -0.21 -2.71 -0.07 -2.75 0 0zm55.04 -54.5l-1.63 1.13 0 0 -2.74 0.07 -2.71 0.2 -2.66 0.34 -2.62 0.47 -2.57 0.59 -2.52 0.71 -2.45 0.83 -2.38 0.94 -2.29 1.04 -2.17 1.11 -1.99 1.14 -1.82 1.16 -1.78 1.26 -1.82 1.43 -1.84 1.59 -1.8 1.72 -1.74 1.82 -1.66 1.92 -1.57 2 -1.48 2.08 -1.38 2.16 -1.28 2.23 -1.18 2.3 -1.07 2.36 -0.95 2.42 -0.84 2.48 -0.72 2.53 -0.6 2.58 -0.47 2.63 -0.34 2.67 -0.21 2.71 -0.07 2.75 -1.68 1.1 0.07 -2.75 0.21 -2.71 0.34 -2.67 0.47 -2.63 0.6 -2.58 0.72 -2.54 0.84 -2.48 0.96 -2.43 1.07 -2.37 1.18 -2.31 1.29 -2.24 1.39 -2.17 1.49 -2.1 1.59 -2.03 1.69 -1.96 1.8 -1.88 1.9 -1.82 2.03 -1.76 2.21 -1.73 2.41 -1.71 2.51 -1.61 2.48 -1.43 2.44 -1.25 2.44 -1.1 2.47 -0.97 2.51 -0.85 2.55 -0.73 2.59 -0.6 2.64 -0.47 2.68 -0.34 2.71 -0.21 2.75 -0.07 0 0z"/>
   </g>
   <g>
    <path class="fil3" d="M111.92 55.86l-1.68 1.1 0 0 -0.07 -2.75 -0.21 -2.71 -0.34 -2.67 -0.47 -2.63 -0.6 -2.58 -0.72 -2.53 -0.84 -2.48 -0.96 -2.42 -1.07 -2.36 -1.18 -2.3 -1.29 -2.23 -1.39 -2.17 -1.49 -2.09 -1.58 -2.02 -1.68 -1.94 -1.77 -1.85 -1.85 -1.77 -1.94 -1.68 -2.02 -1.58 -2.09 -1.49 -2.17 -1.39 -2.23 -1.29 -2.3 -1.18 -2.36 -1.07 -2.42 -0.96 -2.48 -0.84 -2.53 -0.72 -2.58 -0.6 -2.63 -0.47 -2.67 -0.34 -2.71 -0.2 -2.74 -0.07 1.63 -1.13 2.75 0.07 2.71 0.21 2.67 0.34 2.63 0.47 2.58 0.6 2.53 0.72 2.48 0.84 2.42 0.96 2.37 1.07 2.3 1.18 2.23 1.29 2.17 1.39 2.09 1.49 2.02 1.59 1.94 1.68 1.85 1.77 1.77 1.85 1.68 1.94 1.59 2.02 1.49 2.09 1.39 2.17 1.29 2.23 1.18 2.3 1.07 2.36 0.96 2.43 0.84 2.48 0.72 2.53 0.6 2.58 0.47 2.63 0.34 2.67 0.21 2.71 0.07 2.75 0 0zm-55.04 54.5l1.63 -1.13 0 0 2.74 -0.07 2.71 -0.2 2.66 -0.34 2.62 -0.47 2.57 -0.59 2.52 -0.71 2.45 -0.83 2.38 -0.94 2.29 -1.04 2.17 -1.11 1.99 -1.14 1.82 -1.16 1.78 -1.26 1.82 -1.43 1.84 -1.59 1.8 -1.72 1.74 -1.82 1.66 -1.92 1.57 -2 1.48 -2.08 1.38 -2.16 1.28 -2.23 1.18 -2.3 1.07 -2.36 0.95 -2.42 0.84 -2.48 0.72 -2.53 0.6 -2.58 0.47 -2.63 0.34 -2.67 0.21 -2.71 0.07 -2.75 1.68 -1.1 -0.07 2.75 -0.21 2.71 -0.34 2.67 -0.47 2.63 -0.6 2.58 -0.72 2.54 -0.84 2.48 -0.96 2.43 -1.07 2.37 -1.18 2.31 -1.29 2.24 -1.39 2.17 -1.49 2.1 -1.59 2.03 -1.69 1.96 -1.8 1.88 -1.9 1.82 -2.03 1.76 -2.21 1.73 -2.41 1.71 -2.51 1.61 -2.48 1.43 -2.44 1.25 -2.44 1.1 -2.47 0.97 -2.51 0.85 -2.55 0.73 -2.59 0.6 -2.64 0.47 -2.68 0.34 -2.71 0.21 -2.75 0.07 0 0zm-53.4 -53.4l1.68 -1.1 0 0 0.07 2.75 0.21 2.71 0.34 2.67 0.47 2.63 0.6 2.58 0.72 2.53 0.84 2.48 0.96 2.42 1.07 2.36 1.18 2.3 1.29 2.23 1.39 2.17 1.49 2.09 1.58 2.02 1.68 1.94 1.77 1.85 1.85 1.77 1.94 1.68 2.02 1.58 2.09 1.49 2.17 1.39 2.23 1.29 2.3 1.18 2.36 1.07 2.42 0.96 2.48 0.84 2.53 0.72 2.58 0.6 2.63 0.47 2.67 0.34 2.71 0.2 2.74 0.07 -1.63 1.13 -2.75 -0.07 -2.71 -0.21 -2.67 -0.34 -2.63 -0.47 -2.58 -0.6 -2.53 -0.72 -2.48 -0.84 -2.42 -0.96 -2.37 -1.07 -2.3 -1.18 -2.23 -1.29 -2.17 -1.39 -2.09 -1.49 -2.02 -1.59 -1.94 -1.68 -1.85 -1.77 -1.77 -1.85 -1.68 -1.94 -1.59 -2.02 -1.49 -2.09 -1.39 -2.17 -1.29 -2.23 -1.18 -2.3 -1.07 -2.36 -0.96 -2.43 -0.84 -2.48 -0.72 -2.53 -0.6 -2.58 -0.47 -2.63 -0.34 -2.67 -0.21 -2.71 -0.07 -2.75 0 0zm55.04 -54.5l-1.63 1.13 0 0 -2.74 0.07 -2.71 0.2 -2.66 0.34 -2.62 0.47 -2.57 0.59 -2.52 0.71 -2.45 0.83 -2.38 0.94 -2.29 1.04 -2.17 1.11 -1.99 1.14 -1.82 1.16 -1.78 1.26 -1.82 1.43 -1.84 1.59 -1.8 1.72 -1.74 1.82 -1.66 1.92 -1.57 2 -1.48 2.08 -1.38 2.16 -1.28 2.23 -1.18 2.3 -1.07 2.36 -0.95 2.42 -0.84 2.48 -0.72 2.53 -0.6 2.58 -0.47 2.63 -0.34 2.67 -0.21 2.71 -0.07 2.75 -1.68 1.1 0.07 -2.75 0.21 -2.71 0.34 -2.67 0.47 -2.63 0.6 -2.58 0.72 -2.54 0.84 -2.48 0.96 -2.43 1.07 -2.37 1.18 -2.31 1.29 -2.24 1.39 -2.17 1.49 -2.1 1.59 -2.03 1.69 -1.96 1.8 -1.88 1.9 -1.82 2.03 -1.76 2.21 -1.73 2.41 -1.71 2.51 -1.61 2.48 -1.43 2.44 -1.25 2.44 -1.1 2.47 -0.97 2.51 -0.85 2.55 -0.73 2.59 -0.6 2.64 -0.47 2.68 -0.34 2.71 -0.21 2.75 -0.07 0 0z"/>
   </g>
   <path class="fil4 str0" d="M18.21 33.67c3.35,7.11 15.03,14.12 19.79,20.19 4.93,6.27 11.81,7.86 15.44,16.24 1.22,2.81 15.21,26.3 9.84,26.3 -2.92,0 -17.67,-10.14 -23.31,-12.1 -8.97,-3.12 -20.66,-22.57 -31.48,-28.02 -2.63,-1.32 6.5,6.32 7.27,7.89 2.4,4.94 20,16.68 26.06,19.4 4.59,2.06 11.75,6.6 17.43,7.59 1.67,0.29 4.88,6.57 0.49,-3.88 -2.99,-7.13 -7.41,-15.43 -12.79,-21.01 -0.13,-0.13 -36.98,-40.09 -28.56,-27.34 3.72,5.62 20.65,16.3 28.96,28.14 1,1.42 15.08,22.49 11.41,22.18 -9.66,-0.82 -24.64,-15.16 -30.05,-22.73 -0.06,-0.09 -21.34,-19.71 -16.02,-19.52 6.15,0.23 18.8,25.49 28.63,24.6 5.1,-0.46 4.67,3.02 4.06,-3.75 -0.42,-4.57 6.22,9.8 -8.84,2.68 -8.77,-4.15 -14.65,-8.59 -20.17,-16.6 -3.32,-4.82 -4.64,10.48 21.9,23.51 1.05,0.52 19.77,9.91 16,7.04l-0.28 -0.48"/>
   <path class="fil4 str0" d="M65.43 68.72c1.88,0 16.46,1.61 16.3,1.91 -6.27,11.4 3.33,8.27 -10.81,8.82 -1.62,0.06 -5.19,-9.39 -3.32,-9.32 1.54,0.06 13.63,0.17 13.51,0.5 -3.15,8.52 1.33,7.42 -11.62,8.36 -3.23,0.24 -2.86,-5.82 -2.86,-8.13"/>
   <path class="fil4 str0" d="M61.25 14.71c0.21,6.79 1.76,11.63 3.33,19.81 1.23,6.43 2.91,11.4 4.3,17.1 0.86,3.54 2.53,7.67 3.21,10.64 0.16,0.72 3.11,0.88 3.11,0.38 0,-7.85 2.16,-11.94 2.03,-19.36 -0.06,-3.39 3.68,-12.34 4.43,-16.92 1.09,-6.63 2.63,-0.63 1.59,2.06 -1.76,4.54 -1.39,9.64 -3.24,14.83 -2.02,5.68 -3.16,11.09 -4.56,16.99 -0.06,0.25 -1.38,3.4 -2.66,0.36 -2.85,-6.74 -1.7,-7.09 -3,-14.12 -1.24,-6.72 -4.73,-13.32 -4.73,-20.2 0,-1.81 -1.78,-11.15 -1.78,-11.1 0,1.91 0.71,2.27 0.71,3.7"/>
   <path class="fil4 str0" d="M91.06 33.31c0,0 -2.07,4.51 -2.52,6.02 2.97,-7.09 -8.8,20.67 -9.98,22.4 -0.02,0.03 3.58,-1.92 4.39,-4.02 2.25,-5.78 6.48,-13.4 9.83,-18.69 0.46,-0.73 1.56,-3.72 1.99,-4 -0.42,2.8 -5.92,10.99 -7.42,15.31 -0.98,2.82 -5.23,11.99 -8.52,12.18 -0.12,-0.3 3.77,-5.95 4.28,-7.76 1.64,-5.84 3.08,-13 6.24,-18.08 0.28,-0.44 0.98,-2.54 1.6,-2.64"/>
   <path class="fil4 str0" d="M96.43 42.97c-2.8,1.74 -7.69,8.34 -8.97,11.62 -0.47,1.21 10.5,-12.12 10.4,-13.18"/>
   <path class="fil4 str0" d="M48.28 14.89c0,0 3.19,6.97 3.89,9.29 -4.59,-10.94 13.58,31.89 15.4,34.57 0.03,0.05 -5.52,-2.96 -6.78,-6.2 -3.47,-8.92 -10,-20.68 -15.17,-28.84 -0.71,-1.13 -2.4,-5.74 -3.06,-6.18 0.65,4.32 9.14,16.96 11.46,23.62 1.52,4.36 8.07,18.51 13.15,18.8 0.18,-0.46 -5.82,-9.18 -6.61,-11.98 -2.54,-9.01 -4.75,-20.06 -9.63,-27.91 -0.43,-0.68 -1.51,-3.91 -2.47,-4.08"/>
   <path class="fil4 str0" d="M35.52 17.54c4.99,4.5 15.05,21.59 18.29,30.11 1.19,3.13 -20.83,-31.41 -21.09,-34.13"/>
  </g>
 </g>
</svg>
