<?xml version="1.0" encoding="UTF-8"?>
<!DOCTYPE svg PUBLIC "-//W3C//DTD SVG 1.1//EN" "http://www.w3.org/Graphics/SVG/1.1/DTD/svg11.dtd">
<!-- Creator: CorelDRAW 2019 (64-Bit) -->
<svg xmlns="http://www.w3.org/2000/svg" xml:space="preserve" width="1.34615in" height="0.381957in" version="1.1" style="shape-rendering:geometricPrecision; text-rendering:geometricPrecision; image-rendering:optimizeQuality; fill-rule:evenodd; clip-rule:evenodd"
viewBox="0 0 16598.56 4709.68"
 xmlns:xlink="http://www.w3.org/1999/xlink"
 xmlns:xodm="http://www.corel.com/coreldraw/odm/2003">
 <defs>
  <style type="text/css">
   <![CDATA[
    .str0 {stroke:#727273;stroke-width:59.95;stroke-miterlimit:2.61313}
    .fil2 {fill:none}
    .fil5 {fill:#999999}
    .fil4 {fill:#B59041}
    .fil0 {fill:#5E5E5E;fill-rule:nonzero}
    .fil3 {fill:#7D7D7D;fill-rule:nonzero}
    .fil1 {fill:#B59041;fill-rule:nonzero}
   ]]>
  </style>
 </defs>
 <g id="Layer_x0020_1">
  <metadata id="CorelCorpID_0Corel-Layer"/>
  <g>
   <path class="fil0" d="M4622.78 2283.36l-57.19 37.48 0 0 -2.96 -117.48 -8.84 -115.88 -14.47 -114.18 -20.05 -112.43 -25.49 -110.39 -30.78 -108.35 -35.87 -106.07 -40.87 -103.59 -45.73 -101.12 -50.39 -98.4 -54.95 -95.58 -59.37 -92.62 -63.64 -89.47 -67.72 -86.22 -71.75 -82.82 -75.58 -79.27 -79.32 -75.58 -82.77 -71.75 -86.22 -67.72 -89.47 -63.64 -92.62 -59.37 -95.58 -54.95 -98.4 -50.39 -101.07 -45.73 -103.64 -40.87 -106.02 -35.83 -108.3 -30.78 -110.39 -25.49 -112.38 -20.05 -114.13 -14.51 -115.83 -8.79 -117.38 -2.96 55.54 -38.54 117.58 2.96 116.02 8.88 114.32 14.51 112.48 20.05 110.49 25.49 108.4 30.78 106.12 35.92 103.64 40.87 101.17 45.73 98.5 50.49 95.58 54.95 92.62 59.37 89.57 63.64 86.22 67.82 82.87 71.75 79.32 75.58 75.58 79.37 71.75 82.82 67.82 86.22 63.64 89.57 59.37 92.62 54.95 95.58 50.49 98.5 45.73 101.12 40.87 103.69 35.87 106.07 30.78 108.35 25.49 110.49 20.05 112.43 14.56 114.27 8.84 115.97 2.96 117.48 0 0zm-2339.18 2320.79l55.54 -38.54 0 0 117.33 -2.96 115.78 -8.79 113.98 -14.51 112.14 -20 110.05 -25.39 107.77 -30.58 105.15 -35.58 102.24 -40.29 98.59 -44.61 93.84 -48.06 87.33 -50.15 80.73 -51.75 78.69 -55.97 79.76 -62.72 79.47 -68.89 77.62 -73.93 74.61 -78.3 71.22 -82.19 67.43 -85.78 63.4 -89.23 59.22 -92.38 54.86 -95.39 50.34 -98.25 45.68 -101.02 40.83 -103.59 35.87 -105.97 30.73 -108.21 25.49 -110.39 20.05 -112.38 14.47 -114.18 8.84 -115.88 2.96 -117.43 57.19 -37.48 -2.96 117.53 -8.84 115.97 -14.56 114.27 -20.05 112.48 -25.49 110.49 -30.83 108.4 -35.87 106.17 -40.92 103.79 -45.78 101.22 -50.54 98.55 -55.05 95.78 -59.52 92.87 -63.89 89.81 -68.11 86.65 -72.28 83.55 -76.56 80.24 -81.02 77.23 -86.17 74.61 -92.67 72.82 -100.34 71.31 -104.52 66.99 -103.84 59.76 -103.06 52.82 -103.64 46.85 -105.05 41.46 -106.99 36.17 -108.93 30.97 -110.83 25.58 -112.72 20.1 -114.47 14.51 -116.07 8.88 -117.62 2.96 0 0zm-2283.6 -2283.31l57.19 -37.48 0 0 2.96 117.48 8.84 115.88 14.47 114.18 20.05 112.43 25.49 110.39 30.78 108.3 35.87 106.07 40.87 103.64 45.73 101.12 50.39 98.35 54.95 95.58 59.37 92.62 63.64 89.47 67.72 86.22 71.75 82.87 75.58 79.23 79.27 75.58 82.82 71.75 86.22 67.72 89.47 63.64 92.62 59.37 95.58 54.95 98.35 50.39 101.07 45.73 103.69 40.87 106.02 35.83 108.26 30.78 110.39 25.49 112.38 20.05 114.13 14.51 115.83 8.79 117.38 2.96 -55.54 38.54 -117.58 -2.96 -116.02 -8.88 -114.32 -14.51 -112.48 -20.05 -110.49 -25.49 -108.35 -30.78 -106.12 -35.92 -103.69 -40.87 -101.17 -45.73 -98.45 -50.49 -95.58 -54.95 -92.62 -59.37 -89.57 -63.64 -86.22 -67.82 -82.91 -71.75 -79.27 -75.58 -75.58 -79.32 -71.75 -82.87 -67.82 -86.22 -63.64 -89.57 -59.37 -92.62 -54.95 -95.58 -50.49 -98.45 -45.73 -101.12 -40.87 -103.74 -35.87 -106.07 -30.78 -108.3 -25.49 -110.49 -20.05 -112.43 -14.56 -114.27 -8.84 -115.97 -2.96 -117.48 0 0zm2339.14 -2320.83l-55.54 38.54 0 0 -117.33 2.96 -115.78 8.79 -113.98 14.51 -112.14 20 -110.05 25.39 -107.72 30.58 -105.15 35.58 -102.28 40.29 -98.59 44.56 -93.79 48.11 -87.33 50.15 -80.73 51.75 -78.69 55.97 -79.76 62.72 -79.52 68.89 -77.57 73.93 -74.61 78.35 -71.22 82.19 -67.43 85.73 -63.4 89.23 -59.22 92.38 -54.86 95.39 -50.34 98.3 -45.68 101.02 -40.83 103.55 -35.87 105.97 -30.73 108.26 -25.49 110.39 -20.05 112.38 -14.47 114.18 -8.84 115.88 -2.96 117.43 -57.19 37.48 2.96 -117.53 8.84 -115.97 14.56 -114.27 20.05 -112.48 25.49 -110.49 30.83 -108.45 35.87 -106.17 40.92 -103.74 45.78 -101.22 50.54 -98.59 55.05 -95.78 59.52 -92.87 63.89 -89.81 68.11 -86.7 72.28 -83.45 76.56 -80.29 80.97 -77.23 86.22 -74.61 92.67 -72.82 100.34 -71.31 104.52 -66.99 103.84 -59.76 103.01 -52.77 103.64 -46.89 105.1 -41.46 106.99 -36.17 108.89 -30.97 110.83 -25.58 112.72 -20.1 114.47 -14.51 116.07 -8.88 117.62 -2.96 0 0z"/>
  </g>
  <g>
   <path class="fil1" d="M4771.62 2388.89l-57.19 37.48 0 0 -2.96 -117.48 -8.84 -115.88 -14.47 -114.18 -20.05 -112.43 -25.49 -110.39 -30.78 -108.35 -35.87 -106.07 -40.87 -103.59 -45.73 -101.12 -50.39 -98.4 -54.95 -95.58 -59.37 -92.62 -63.64 -89.47 -67.72 -86.22 -71.75 -82.82 -75.58 -79.27 -79.32 -75.58 -82.77 -71.75 -86.22 -67.72 -89.47 -63.64 -92.62 -59.37 -95.58 -54.95 -98.4 -50.39 -101.07 -45.73 -103.64 -40.87 -106.02 -35.83 -108.3 -30.78 -110.39 -25.49 -112.38 -20.05 -114.13 -14.51 -115.83 -8.79 -117.38 -2.96 55.54 -38.54 117.58 2.96 116.02 8.88 114.32 14.51 112.48 20.05 110.49 25.49 108.4 30.78 106.12 35.92 103.64 40.87 101.17 45.73 98.5 50.49 95.58 54.95 92.62 59.37 89.57 63.64 86.22 67.82 82.87 71.75 79.32 75.58 75.58 79.37 71.75 82.82 67.82 86.22 63.64 89.57 59.37 92.62 54.95 95.58 50.49 98.5 45.73 101.12 40.87 103.69 35.87 106.07 30.78 108.35 25.49 110.49 20.05 112.43 14.56 114.27 8.84 115.97 2.96 117.48 0 0zm-2339.18 2320.79l55.54 -38.54 0 0 117.33 -2.96 115.78 -8.79 113.98 -14.51 112.14 -20 110.05 -25.39 107.77 -30.58 105.15 -35.58 102.24 -40.29 98.59 -44.61 93.84 -48.06 87.33 -50.15 80.73 -51.75 78.69 -55.97 79.76 -62.72 79.47 -68.89 77.62 -73.93 74.61 -78.3 71.22 -82.19 67.43 -85.78 63.4 -89.23 59.22 -92.38 54.86 -95.39 50.34 -98.25 45.68 -101.02 40.83 -103.59 35.87 -105.97 30.73 -108.21 25.49 -110.39 20.05 -112.38 14.47 -114.18 8.84 -115.88 2.96 -117.43 57.19 -37.48 -2.96 117.53 -8.84 115.97 -14.56 114.27 -20.05 112.48 -25.49 110.49 -30.83 108.4 -35.87 106.17 -40.92 103.79 -45.78 101.22 -50.54 98.55 -55.05 95.78 -59.52 92.87 -63.89 89.81 -68.11 86.65 -72.28 83.55 -76.56 80.24 -81.02 77.23 -86.17 74.61 -92.67 72.82 -100.34 71.31 -104.52 66.99 -103.84 59.76 -103.06 52.82 -103.64 46.85 -105.05 41.46 -106.99 36.17 -108.93 30.97 -110.83 25.58 -112.72 20.1 -114.47 14.51 -116.07 8.88 -117.62 2.96 0 0zm-2283.6 -2283.31l57.19 -37.48 0 0 2.96 117.48 8.84 115.88 14.47 114.18 20.05 112.43 25.49 110.39 30.78 108.3 35.87 106.07 40.87 103.64 45.73 101.12 50.34 98.35 55 95.58 59.37 92.62 63.64 89.47 67.72 86.22 71.75 82.87 75.58 79.23 79.27 75.58 82.77 71.75 86.26 67.72 89.42 63.64 92.62 59.37 95.58 54.95 98.4 50.39 101.07 45.73 103.64 40.87 106.02 35.83 108.3 30.78 110.39 25.49 112.38 20.05 114.13 14.51 115.83 8.79 117.38 2.96 -55.54 38.54 -117.58 -2.96 -116.02 -8.88 -114.32 -14.51 -112.48 -20.05 -110.49 -25.49 -108.4 -30.78 -106.12 -35.92 -103.64 -40.87 -101.17 -45.73 -98.5 -50.49 -95.58 -54.95 -92.62 -59.37 -89.52 -63.64 -86.26 -67.82 -82.87 -71.75 -79.27 -75.58 -75.58 -79.32 -71.75 -82.87 -67.82 -86.22 -63.64 -89.57 -59.37 -92.62 -55 -95.58 -50.44 -98.45 -45.73 -101.12 -40.87 -103.74 -35.87 -106.07 -30.78 -108.3 -25.49 -110.49 -20.05 -112.43 -14.56 -114.27 -8.84 -115.97 -2.96 -117.48 0 0zm2339.14 -2320.83l-55.54 38.54 0 0 -117.33 2.96 -115.78 8.79 -113.98 14.51 -112.14 20 -110.05 25.39 -107.77 30.58 -105.15 35.58 -102.24 40.29 -98.59 44.61 -93.84 48.06 -87.33 50.15 -80.68 51.75 -78.69 55.97 -79.81 62.72 -79.47 68.89 -77.57 73.93 -74.61 78.35 -71.22 82.19 -67.43 85.73 -63.4 89.23 -59.22 92.38 -54.9 95.39 -50.29 98.3 -45.68 101.02 -40.83 103.55 -35.87 105.97 -30.73 108.26 -25.49 110.39 -20.05 112.38 -14.47 114.18 -8.84 115.88 -2.96 117.43 -57.19 37.48 2.96 -117.53 8.84 -115.97 14.56 -114.27 20.05 -112.48 25.49 -110.49 30.83 -108.45 35.87 -106.17 40.92 -103.74 45.78 -101.22 50.49 -98.59 55.1 -95.78 59.52 -92.87 63.89 -89.81 68.11 -86.7 72.28 -83.45 76.56 -80.29 80.97 -77.23 86.17 -74.61 92.72 -72.82 100.25 -71.31 104.57 -66.99 103.84 -59.76 103.06 -52.82 103.64 -46.85 105.05 -41.46 106.99 -36.17 108.93 -30.97 110.83 -25.58 112.72 -20.1 114.47 -14.51 116.07 -8.88 117.62 -2.96 0 0z"/>
  </g>
  <path class="fil2 str0" d="M972.79 1574.84c126.56,328.7 410.16,550.4 521.08,811.18 67.82,159.47 319.91,418.02 398.07,625.06 12.57,33.3 116.17,154.42 110.93,215.93 62.43,0 281.46,27.48 297.48,0.44 32.48,-54.86 74.56,70.39 -53.55,-151.41 -103.74,-179.47 -81.6,-121.85 -167.43,-306.22 -41.12,-88.25 -437.39,-693.03 -494.67,-741.13 -57.33,-48.11 -78.35,-240.78 -283.07,-420.16 -43.11,-37.77 -265.54,-68.84 -263.36,15.24 0.92,36.46 269.18,373.26 321.66,493.36 79.18,181.32 284.18,374.72 391.76,629.48 19.13,45.34 276.12,485.5 306.85,485.5 114.52,0 51.21,-45.15 231.7,9.71 88.74,26.99 58.01,-31.26 21.02,-133.89 -35.83,-98.98 -299.28,-502.59 -374.77,-552.78 -54.95,-36.46 -374.43,-592.15 -432.92,-699.82 -24.76,-45.54 -184.08,-309.13 -225.25,-282.24 -86.75,56.89 -141.31,17.04 -229.03,17.04 229.52,82.33 434.14,620.31 577.98,825.21 129.61,184.57 157.53,223.21 309.23,401.95 52.82,62.14 198.06,367.73 260.15,389.28"/>
  <path class="fil2 str0" d="M2356.66 1574.84c-126.51,328.7 -410.16,550.4 -521.08,811.18 -67.77,159.47 -319.86,418.02 -398.02,625.06 -12.57,33.3 -116.22,154.42 -110.93,215.93 -62.43,0 -281.51,27.48 -297.48,0.44 -32.48,-54.86 -74.56,70.39 53.55,-151.41 103.69,-179.47 81.6,-121.85 167.43,-306.22 41.07,-88.25 437.39,-693.03 494.62,-741.13 57.38,-48.11 78.35,-240.78 283.07,-420.16 43.11,-37.77 265.59,-68.84 263.36,15.24 -0.92,36.46 -269.18,373.26 -321.61,493.36 -79.23,181.32 -284.18,374.72 -391.76,629.48 -19.18,45.34 -276.17,485.5 -306.85,485.5 -114.52,0 -51.26,-45.15 -231.75,9.71 -88.69,26.99 -57.96,-31.26 -20.97,-133.89 35.78,-98.98 299.23,-502.59 374.72,-552.78 54.95,-36.46 374.48,-592.15 432.92,-699.82 24.81,-45.54 184.08,-309.13 225.25,-282.24 86.8,56.89 141.36,17.04 229.08,17.04 -229.52,82.33 -434.14,620.31 -577.98,825.21 -129.61,184.57 -157.58,223.21 -309.28,401.95 -52.82,62.14 -198.06,367.73 -260.1,389.28"/>
  <path class="fil2 str0" d="M3298.19 1977.82c-283.41,-43.11 -414.33,-16.75 -545.6,151.7 -88.06,113.06 -157.14,155.78 -205.73,307.19 -57.23,178.45 63.74,571.52 231.27,687.54 207.87,144.03 380.69,142.14 652.64,153.84 23.88,1.02 181.75,-61.8 182.77,-61.99 0.68,-1.6 -300.98,46.7 -371.37,46.7 -166.36,0 -445.98,-38.2 -524.82,-193.79 -126.7,-250.15 -126.9,-258.11 -55.2,-557.97 55.78,-233.11 169.28,-434.33 425.69,-431.18 85.78,1.02 288.55,-5.29 286.85,-5.19 -108.21,4.61 -158.74,-74.66 -348.84,54.86 -258.06,175.78 -300.06,148.74 -467.05,484.72 -127.09,255.59 238.74,644.14 281.41,663.37 85.83,38.69 98.4,49.95 275.83,68.16 82.33,8.45 429.62,20.49 420.54,-36.6 -63.21,-396.13 6.36,-1306.29 6.36,-1781.01 0,-57.09 -144.08,-44.95 -219.23,-44.95 0,258.06 -16.99,274.91 19.52,551.96 12.62,95.68 -36.99,1166.24 62.48,1161.78 241.7,-10.87 187.58,37.48 198.89,-264.28 12.57,-337.19 -0.49,-761.86 -0.49,-1109.15 0,-156.41 -4.37,-211.27 -15.73,-356.03 -1.84,-23.59 -302.05,-43.5 -300.35,6.36 10.53,310.1 28.5,582.88 90.44,887.69 25.92,127.77 -34.42,356.27 -34.42,512.05 0,240.3 -19.52,509.96 -31.07,43.35 -6.26,-255.88 -25.24,-414.96 66.8,-648.9 95.63,-243.11 112.24,-414.62 112.24,-672.64"/>
  <path class="fil2 str0" d="M3328.82 2136.17c-460.21,87.53 -208.5,-65.78 -459.38,167.82 -31.36,29.32 -131.36,498.51 -67.91,592.39 52.28,77.23 59.32,193.06 212.43,248.11 72.23,25.92 255.3,38.59 345.49,21.75"/>
  <path class="fil3" d="M5908.11 2265.15l374.23 -831.67 152.09 0 375.4 831.67 -161.56 0 -322 -749.68 61.8 0 -320.78 749.68 -159.18 0zm172.24 -192.48l41.6 -121.17 449.09 0 41.6 121.17 -532.29 0zm1083.57 200.78c-60.97,0 -115.83,-13.64 -164.57,-40.97 -48.69,-27.33 -86.9,-65.15 -114.61,-113.45 -27.72,-48.35 -41.6,-105.34 -41.6,-171.12 0,-65.73 13.88,-122.77 41.6,-171.07 27.72,-48.3 65.92,-85.92 114.61,-112.87 48.74,-26.94 103.59,-40.39 164.57,-40.39 53.06,0 100.58,11.7 142.58,35.05 41.99,23.35 75.24,58.79 99.81,106.31 24.52,47.53 36.8,108.55 36.8,182.97 0,73.69 -11.84,134.47 -35.63,182.38 -23.74,47.91 -56.6,83.79 -98.59,107.53 -41.99,23.79 -90.29,35.63 -144.96,35.63zm17.82 -127.09c35.63,0 67.53,-7.96 95.63,-23.79 28.11,-15.83 50.68,-38.79 67.72,-68.89 17.04,-30.1 25.53,-65.34 25.53,-105.78 0,-41.17 -8.5,-76.6 -25.53,-106.31 -17.04,-29.71 -39.61,-52.48 -67.72,-68.3 -28.11,-15.87 -60,-23.79 -95.63,-23.79 -35.63,0 -67.53,7.91 -95.63,23.79 -28.11,15.83 -50.68,38.59 -67.72,68.3 -17.04,29.71 -25.53,65.15 -25.53,106.31 0,40.44 8.5,75.68 25.53,105.78 17.04,30.1 39.61,53.06 67.72,68.89 28.11,15.83 60,23.79 95.63,23.79zm192.48 118.79l0 -149.71 5.92 -168.69 -11.84 -168.69 0 -394.48 147.29 0 0 881.58 -141.36 0zm622.59 8.3c-64.95,0 -122.77,-14.03 -173.5,-42.19 -50.68,-28.11 -90.68,-66.7 -119.95,-115.83 -29.32,-49.08 -43.98,-104.95 -43.98,-167.53 0,-63.35 14.66,-119.37 43.98,-168.11 29.27,-48.69 69.27,-86.9 119.95,-114.61 50.73,-27.72 108.55,-41.6 173.5,-41.6 65.73,0 124.13,13.88 175.25,41.6 51.07,27.72 91.07,65.73 119.95,114.03 28.93,48.3 43.4,104.57 43.4,168.69 0,62.57 -14.47,118.45 -43.4,167.53 -28.88,49.13 -68.89,87.72 -119.95,115.83 -51.12,28.16 -109.52,42.19 -175.25,42.19zm0 -127.09c36.41,0 68.89,-7.96 97.38,-23.79 28.54,-15.83 50.92,-38.79 67.14,-68.89 16.26,-30.1 24.37,-65.34 24.37,-105.78 0,-41.17 -8.11,-76.6 -24.37,-106.31 -16.21,-29.71 -38.59,-52.48 -67.14,-68.3 -28.5,-15.87 -60.58,-23.79 -96.22,-23.79 -36.41,0 -68.69,7.91 -96.85,23.79 -28.11,15.83 -50.49,38.59 -67.09,68.3 -16.65,29.71 -24.95,65.15 -24.95,106.31 0,40.44 8.3,75.68 24.95,105.78 16.6,30.1 38.98,53.06 67.09,68.89 28.16,15.83 60,23.79 95.68,23.79zm832.84 127.09c-53.84,0 -101.75,-11.84 -143.74,-35.63 -41.99,-23.74 -75.05,-59.61 -99.23,-107.53 -24.13,-47.91 -36.21,-108.69 -36.21,-182.38 0,-74.42 12.48,-135.44 37.43,-182.97 24.95,-47.53 58.59,-82.96 100.97,-106.31 42.38,-23.35 89.32,-35.05 140.78,-35.05 62.57,0 117.82,13.45 165.73,40.39 47.91,26.94 85.97,64.56 114.08,112.87 28.11,48.3 42.19,105.34 42.19,171.07 0,65.78 -14.08,122.77 -42.19,171.12 -28.11,48.3 -66.17,86.12 -114.08,113.45 -47.91,27.33 -103.16,40.97 -165.73,40.97zm-351.66 -8.3l0 -881.58 148.5 0 0 394.48 -11.89 168.69 4.76 168.69 0 149.71 -141.36 0zm335.06 -118.79c35.63,0 67.48,-7.96 95.63,-23.79 28.11,-15.83 50.49,-38.79 67.09,-68.89 16.65,-30.1 24.95,-65.34 24.95,-105.78 0,-41.17 -8.3,-76.6 -24.95,-106.31 -16.6,-29.71 -38.98,-52.48 -67.09,-68.3 -28.16,-15.87 -60,-23.79 -95.63,-23.79 -35.68,0 -67.72,7.91 -96.26,23.79 -28.5,15.83 -51.07,38.59 -67.72,68.3 -16.65,29.71 -24.95,65.15 -24.95,106.31 0,40.44 8.3,75.68 24.95,105.78 16.65,30.1 39.22,53.06 67.72,68.89 28.54,15.83 60.58,23.79 96.26,23.79zm778.17 127.09c-70.49,0 -132.09,-14.03 -184.76,-42.19 -52.67,-28.11 -93.45,-66.7 -122.38,-115.83 -28.88,-49.08 -43.35,-104.95 -43.35,-167.53 0,-63.35 14.08,-119.37 42.19,-168.11 28.11,-48.69 66.94,-86.9 116.41,-114.61 49.52,-27.72 105.97,-41.6 169.32,-41.6 61.75,0 116.8,13.45 165.15,40.39 48.3,26.94 86.31,64.95 114.03,114.08 27.72,49.08 41.6,106.9 41.6,173.45 0,6.31 -0.19,13.45 -0.58,21.36 -0.44,7.96 -1.02,15.49 -1.8,22.57l-528.7 0 0 -98.59 450.3 0 -58.25 30.87c0.83,-36.41 -6.7,-68.5 -22.57,-96.22 -15.83,-27.72 -37.43,-49.52 -64.71,-65.34 -27.33,-15.83 -58.84,-23.79 -94.47,-23.79 -36.46,0 -68.3,7.96 -95.63,23.79 -27.33,15.83 -48.74,37.82 -64.18,65.92 -15.44,28.11 -23.16,61.22 -23.16,99.23l0 23.74c0,38.01 8.69,71.7 26.12,101.02 17.43,29.27 41.99,51.85 73.69,67.72 31.65,15.83 68.11,23.74 109.27,23.74 35.63,0 67.72,-5.53 96.26,-16.65 28.5,-11.07 53.84,-28.5 76.02,-52.23l79.61 91.46c-28.54,33.25 -64.37,58.84 -107.53,76.65 -43.16,17.82 -92.48,26.7 -147.92,26.7zm681.96 -8.3l350.49 -482.34 0 116.41 -333.84 -465.74 174.66 0 248.31 344.57 -71.31 1.17 245.93 -345.74 167.53 0 -331.46 457.44 0 -111.7 352.87 485.93 -178.21 0 -261.41 -365.93 70.1 0 -257.82 365.93 -175.83 0zm897.06 0l0 -831.67 363.55 0c90.29,0 169.47,17.43 237.58,52.28 68.16,34.86 121.22,83.16 159.23,144.96 38.01,61.8 57.04,134.66 57.04,218.6 0,83.16 -19.03,155.83 -57.04,218.02 -38.01,62.19 -91.07,110.68 -159.23,145.54 -68.11,34.86 -147.29,52.28 -237.58,52.28l-363.55 0zm154.42 -130.68l202 0c62.57,0 116.6,-11.89 162.14,-35.63 45.58,-23.79 80.83,-57.04 105.78,-99.81 24.95,-42.77 37.43,-92.67 37.43,-149.71 0,-57.82 -12.48,-107.92 -37.43,-150.29 -24.95,-42.38 -60.2,-75.44 -105.78,-99.18 -45.54,-23.79 -99.57,-35.68 -162.14,-35.68l-202 0 0 570.31zm1287.94 361.17c-46.75,-72.09 -82.57,-155.44 -107.53,-250.1 -24.95,-94.66 -37.43,-196.61 -37.43,-305.93 0,-109.27 12.48,-211.66 37.43,-307.09 24.95,-95.44 60.78,-178.45 107.53,-248.94l141.36 0c-48.3,87.14 -83.74,176.07 -106.31,266.75 -22.57,90.68 -33.88,187.09 -33.88,289.28 0,102.19 11.31,198.6 33.88,289.33 22.57,90.68 58.01,179.57 106.31,266.71l-141.36 0zm636.76 -218.6c-114.03,0 -203.35,-32.09 -267.92,-96.26 -64.52,-64.13 -96.8,-156.8 -96.8,-278.02l0 -469.28 154.42 0 0 463.36c0,85.54 18.45,147.72 55.24,186.51 36.85,38.84 88.93,58.25 156.27,58.25 67.33,0 119.18,-19.42 155.63,-58.25 36.41,-38.79 54.66,-100.97 54.66,-186.51l0 -463.36 152.04 0 0 469.28c0,121.22 -32.28,213.89 -96.8,278.02 -64.56,64.18 -153.5,96.26 -266.75,96.26zm579.82 -11.89l0 -831.67 154.42 0 0 831.67 -154.42 0zm231.66 118.79l392.05 -1119.15 133.06 0 -392.05 1119.15 -133.06 0zm945.7 -106.9c-114.03,0 -203.35,-32.09 -267.92,-96.26 -64.52,-64.13 -96.8,-156.8 -96.8,-278.02l0 -469.28 154.42 0 0 463.36c0,85.54 18.45,147.72 55.24,186.51 36.85,38.84 88.93,58.25 156.27,58.25 67.33,0 119.18,-19.42 155.63,-58.25 36.41,-38.79 54.66,-100.97 54.66,-186.51l0 -463.36 152.04 0 0 469.28c0,121.22 -32.28,213.89 -96.8,278.02 -64.56,64.18 -153.5,96.26 -266.75,96.26zm466.9 -11.89l350.49 -482.34 0 116.41 -333.84 -465.74 174.66 0 248.31 344.57 -71.31 1.17 245.93 -345.74 167.53 0 -331.46 457.44 0 -111.7 352.87 485.93 -178.21 0 -261.41 -365.93 70.1 0 -257.82 365.93 -175.83 0zm980.17 230.49l-141.41 0c49.13,-87.14 84.95,-176.02 107.53,-266.71 22.57,-90.73 33.88,-187.14 33.88,-289.33 0,-102.19 -11.31,-198.6 -33.88,-289.28 -22.57,-90.68 -58.4,-179.62 -107.53,-266.75l141.41 0c47.53,70.49 83.55,153.5 108.11,248.94 24.56,95.44 36.85,197.82 36.85,307.09 0,109.32 -12.28,211.27 -36.85,305.93 -24.56,94.66 -60.58,178.01 -108.11,250.1z"/>
  <g>
   <circle class="fil4" cx="6197.09" cy="3187.41" r="288.99"/>
   <circle class="fil4" cx="7171.15" cy="3187.41" r="288.99"/>
   <circle class="fil4" cx="8145.2" cy="3187.41" r="288.99"/>
   <circle class="fil4" cx="9119.25" cy="3187.41" r="288.99"/>
   <circle class="fil5" cx="10114.71" cy="3187.41" r="288.99"/>
  </g>
 </g>
</svg>
