<?xml version="1.0" encoding="UTF-8"?>
<!DOCTYPE svg PUBLIC "-//W3C//DTD SVG 1.1//EN" "http://www.w3.org/Graphics/SVG/1.1/DTD/svg11.dtd">
<!-- Creator: CorelDRAW 2019 (64-Bit) -->
<svg xmlns="http://www.w3.org/2000/svg" xml:space="preserve" width="0.364594in" height="0.529161in" version="1.1" style="shape-rendering:geometricPrecision; text-rendering:geometricPrecision; image-rendering:optimizeQuality; fill-rule:evenodd; clip-rule:evenodd"
viewBox="0 0 147.6 214.22"
 xmlns:xlink="http://www.w3.org/1999/xlink"
 xmlns:xodm="http://www.corel.com/coreldraw/odm/2003">
 <defs>
  <style type="text/css">
   <![CDATA[
    .str0 {stroke:#727273;stroke-width:1.97;stroke-miterlimit:2.61313}
    .fil3 {fill:none}
    .fil5 {fill:#999999}
    .fil4 {fill:#B59041}
    .fil1 {fill:#5E5E5E;fill-rule:nonzero}
    .fil0 {fill:#7D7D7D;fill-rule:nonzero}
    .fil2 {fill:#B59041;fill-rule:nonzero}
   ]]>
  </style>
 </defs>
 <g id="Layer_x0020_1">
  <metadata id="CorelCorpID_0Corel-Layer"/>
  <path class="fil0" d="M6.82 151.01l16.29 0 0 5.13 -16.29 0 0 -5.13zm0.51 17.64l-6.07 0 0 -32.67 23.85 0 0 5.09 -17.79 0 0 27.59zm23.11 0l0 -24.93 5.83 0 0 24.93 -5.83 0zm2.94 -29.03c-1.09,0 -1.98,-0.34 -2.68,-1.03 -0.7,-0.68 -1.05,-1.51 -1.05,-2.47 0,-1 0.35,-1.83 1.05,-2.5 0.7,-0.67 1.59,-1 2.68,-1 1.09,0 1.98,0.32 2.68,0.96 0.7,0.64 1.05,1.44 1.05,2.4 0,1.03 -0.34,1.89 -1.03,2.59 -0.68,0.7 -1.59,1.05 -2.71,1.05zm21.84 38.42c-2.3,0 -4.55,-0.3 -6.74,-0.91 -2.19,-0.61 -3.99,-1.49 -5.39,-2.64l2.61 -4.39c1.09,0.9 2.47,1.63 4.13,2.17 1.67,0.54 3.35,0.82 5.07,0.82 2.74,0 4.74,-0.63 6.02,-1.89 1.28,-1.26 1.91,-3.15 1.91,-5.67l0 -4.43 0.47 -5.65 -0.19 -5.65 0 -6.07 5.56 0 0 21.14c0,4.51 -1.15,7.83 -3.46,9.97 -2.3,2.13 -5.63,3.2 -9.99,3.2zm-0.75 -10.5c-2.36,0 -4.5,-0.51 -6.42,-1.52 -1.91,-1.01 -3.42,-2.42 -4.53,-4.22 -1.11,-1.81 -1.66,-3.92 -1.66,-6.35 0,-2.4 0.55,-4.5 1.66,-6.3 1.1,-1.8 2.61,-3.21 4.53,-4.2 1.91,-1 4.05,-1.49 6.42,-1.49 2.12,0 4.01,0.42 5.69,1.26 1.68,0.84 3.03,2.15 4.04,3.92 1.01,1.77 1.52,4.05 1.52,6.82 0,2.77 -0.51,5.05 -1.52,6.84 -1.01,1.79 -2.36,3.11 -4.04,3.97 -1.68,0.86 -3.58,1.28 -5.69,1.28zm0.89 -4.95c1.46,0 2.77,-0.3 3.92,-0.91 1.15,-0.61 2.05,-1.45 2.68,-2.52 0.64,-1.07 0.96,-2.31 0.96,-3.71 0,-1.4 -0.32,-2.64 -0.96,-3.71 -0.64,-1.07 -1.53,-1.9 -2.68,-2.47 -1.15,-0.58 -2.46,-0.86 -3.92,-0.86 -1.46,0 -2.78,0.29 -3.94,0.86 -1.17,0.58 -2.07,1.4 -2.71,2.47 -0.64,1.07 -0.96,2.31 -0.96,3.71 0,1.4 0.32,2.64 0.96,3.71 0.64,1.07 1.54,1.91 2.71,2.52 1.17,0.61 2.48,0.91 3.94,0.91zm52.42 -19.14c1.99,0 3.76,0.39 5.3,1.17 1.54,0.78 2.75,1.97 3.62,3.57 0.87,1.6 1.31,3.66 1.31,6.18l0 14.28 -5.83 0 0 -13.54c0,-2.21 -0.48,-3.86 -1.45,-4.95 -0.96,-1.09 -2.35,-1.63 -4.15,-1.63 -1.28,0 -2.41,0.28 -3.39,0.84 -0.98,0.56 -1.74,1.39 -2.29,2.48 -0.55,1.09 -0.82,2.47 -0.82,4.15l0 12.65 -5.83 0 0 -13.54c0,-2.21 -0.48,-3.86 -1.45,-4.95 -0.96,-1.09 -2.35,-1.63 -4.16,-1.63 -1.28,0 -2.4,0.28 -3.38,0.84 -0.98,0.56 -1.74,1.39 -2.29,2.48 -0.55,1.09 -0.82,2.47 -0.82,4.15l0 12.65 -5.83 0 0 -24.93 5.55 0 0 6.63 -0.98 -1.96c0.84,-1.62 2.06,-2.85 3.66,-3.69 1.6,-0.84 3.43,-1.26 5.48,-1.26 2.33,0 4.36,0.58 6.09,1.73 1.73,1.15 2.87,2.89 3.43,5.23l-2.29 -0.79c0.81,-1.87 2.15,-3.36 4.01,-4.48 1.87,-1.12 4.03,-1.68 6.49,-1.68zm33.05 25.21l0 -5.04 -0.33 -1.07 0 -8.82c0,-1.71 -0.51,-3.04 -1.54,-3.99 -1.03,-0.95 -2.58,-1.42 -4.67,-1.42 -1.4,0 -2.78,0.22 -4.13,0.65 -1.35,0.44 -2.5,1.04 -3.43,1.82l-2.29 -4.25c1.34,-1.03 2.93,-1.8 4.78,-2.31 1.85,-0.51 3.77,-0.77 5.76,-0.77 3.61,0 6.4,0.86 8.38,2.59 1.98,1.73 2.96,4.4 2.96,8.01l0 14.61 -5.51 0zm-7.84 0.33c-1.87,0 -3.5,-0.32 -4.9,-0.96 -1.4,-0.64 -2.48,-1.53 -3.24,-2.66 -0.76,-1.13 -1.14,-2.42 -1.14,-3.85 0,-1.4 0.33,-2.66 1,-3.78 0.67,-1.12 1.77,-2.01 3.29,-2.66 1.53,-0.65 3.55,-0.98 6.07,-0.98l7.24 0 0 3.87 -6.82 0c-1.99,0 -3.33,0.32 -4.01,0.96 -0.68,0.64 -1.03,1.42 -1.03,2.36 0,1.06 0.42,1.9 1.26,2.52 0.84,0.62 2.01,0.93 3.5,0.93 1.43,0 2.72,-0.33 3.85,-0.98 1.14,-0.65 1.95,-1.62 2.45,-2.89l0.98 3.5c-0.56,1.46 -1.56,2.6 -3.01,3.41 -1.45,0.81 -3.28,1.21 -5.48,1.21z"/>
  <g id="_2882775416976">
   <g>
    <path class="fil1" d="M128.21 55.29l-1.88 1.23 0 0 -0.07 -2.84 -0.21 -2.81 -0.35 -2.77 -0.49 -2.72 -0.62 -2.67 -0.74 -2.62 -0.87 -2.57 -0.99 -2.51 -1.11 -2.45 -1.22 -2.38 -1.33 -2.31 -1.44 -2.24 -1.54 -2.16 -1.64 -2.09 -1.74 -2 -1.83 -1.92 -1.92 -1.83 -2 -1.74 -2.09 -1.64 -2.16 -1.54 -2.24 -1.44 -2.31 -1.33 -2.38 -1.22 -2.45 -1.11 -2.51 -0.99 -2.57 -0.87 -2.62 -0.74 -2.67 -0.62 -2.72 -0.49 -2.76 -0.35 -2.8 -0.21 -2.84 -0.07 1.82 -1.27 2.85 0.07 2.81 0.22 2.77 0.35 2.72 0.49 2.68 0.62 2.62 0.74 2.57 0.87 2.51 0.99 2.45 1.11 2.38 1.22 2.31 1.33 2.24 1.44 2.17 1.54 2.09 1.64 2.01 1.74 1.92 1.83 1.83 1.92 1.74 2 1.64 2.09 1.54 2.17 1.44 2.24 1.33 2.31 1.22 2.38 1.11 2.45 0.99 2.51 0.87 2.57 0.74 2.62 0.62 2.68 0.49 2.72 0.35 2.77 0.21 2.81 0.07 2.84 0 0zm-57.13 56.52l1.82 -1.27 0 0 2.84 -0.07 2.8 -0.21 2.76 -0.35 2.71 -0.48 2.66 -0.61 2.6 -0.74 2.54 -0.86 2.46 -0.97 2.37 -1.07 2.23 -1.14 2.04 -1.17 1.85 -1.19 1.81 -1.29 1.88 -1.48 1.9 -1.64 1.86 -1.78 1.8 -1.89 1.72 -1.98 1.63 -2.07 1.53 -2.16 1.43 -2.23 1.33 -2.31 1.22 -2.38 1.1 -2.44 0.99 -2.51 0.87 -2.57 0.74 -2.62 0.62 -2.67 0.49 -2.72 0.35 -2.77 0.21 -2.81 0.07 -2.84 1.88 -1.23 -0.07 2.85 -0.21 2.81 -0.35 2.77 -0.49 2.72 -0.62 2.67 -0.75 2.63 -0.87 2.57 -0.99 2.51 -1.11 2.45 -1.22 2.39 -1.33 2.32 -1.44 2.25 -1.55 2.18 -1.65 2.1 -1.75 2.03 -1.86 1.95 -1.98 1.88 -2.11 1.83 -2.3 1.81 -2.52 1.79 -2.63 1.69 -2.59 1.49 -2.53 1.3 -2.53 1.14 -2.56 1.01 -2.6 0.88 -2.64 0.75 -2.69 0.62 -2.73 0.49 -2.77 0.35 -2.81 0.22 -2.85 0.07 0 0zm-55.3 -55.29l1.88 -1.23 0 0 0.07 2.84 0.21 2.81 0.35 2.77 0.49 2.72 0.62 2.67 0.74 2.62 0.87 2.57 0.99 2.51 1.11 2.45 1.22 2.38 1.33 2.32 1.44 2.24 1.54 2.17 1.64 2.09 1.74 2 1.83 1.92 1.92 1.83 2 1.74 2.09 1.64 2.16 1.54 2.24 1.44 2.31 1.33 2.38 1.22 2.45 1.11 2.51 0.99 2.57 0.87 2.62 0.74 2.67 0.62 2.72 0.49 2.76 0.35 2.8 0.21 2.84 0.07 -1.82 1.27 -2.85 -0.07 -2.81 -0.22 -2.77 -0.35 -2.72 -0.49 -2.68 -0.62 -2.62 -0.74 -2.57 -0.87 -2.51 -0.99 -2.45 -1.11 -2.38 -1.22 -2.31 -1.33 -2.24 -1.44 -2.17 -1.54 -2.09 -1.64 -2.01 -1.74 -1.92 -1.83 -1.83 -1.92 -1.74 -2 -1.64 -2.09 -1.54 -2.17 -1.44 -2.24 -1.33 -2.32 -1.22 -2.38 -1.11 -2.45 -0.99 -2.51 -0.87 -2.57 -0.74 -2.62 -0.62 -2.67 -0.49 -2.72 -0.35 -2.77 -0.21 -2.81 -0.07 -2.84 0 0zm57.13 -56.53l-1.82 1.27 0 0 -2.84 0.07 -2.8 0.21 -2.76 0.35 -2.71 0.48 -2.66 0.61 -2.6 0.74 -2.54 0.86 -2.46 0.97 -2.37 1.07 -2.23 1.14 -2.04 1.17 -1.85 1.19 -1.81 1.29 -1.88 1.48 -1.9 1.64 -1.86 1.78 -1.8 1.89 -1.72 1.98 -1.63 2.08 -1.53 2.16 -1.43 2.24 -1.33 2.31 -1.22 2.38 -1.1 2.45 -0.99 2.51 -0.87 2.56 -0.74 2.62 -0.62 2.67 -0.49 2.72 -0.35 2.77 -0.21 2.81 -0.07 2.84 -1.88 1.23 0.07 -2.85 0.21 -2.81 0.35 -2.77 0.49 -2.72 0.62 -2.68 0.75 -2.63 0.87 -2.57 0.99 -2.51 1.11 -2.45 1.22 -2.39 1.33 -2.32 1.44 -2.25 1.55 -2.18 1.65 -2.1 1.75 -2.03 1.86 -1.95 1.98 -1.88 2.11 -1.83 2.3 -1.81 2.52 -1.79 2.63 -1.69 2.59 -1.49 2.53 -1.3 2.53 -1.14 2.56 -1.01 2.6 -0.88 2.64 -0.75 2.69 -0.62 2.73 -0.49 2.77 -0.35 2.81 -0.22 2.85 -0.07 0 0z"/>
   </g>
   <g>
    <path class="fil2" d="M131.82 57.85l-1.88 1.23 0 0 -0.07 -2.84 -0.21 -2.81 -0.35 -2.77 -0.49 -2.72 -0.62 -2.67 -0.74 -2.62 -0.87 -2.57 -0.99 -2.51 -1.11 -2.45 -1.22 -2.38 -1.33 -2.31 -1.44 -2.24 -1.54 -2.16 -1.64 -2.09 -1.74 -2 -1.83 -1.92 -1.92 -1.83 -2 -1.74 -2.09 -1.64 -2.16 -1.54 -2.24 -1.44 -2.31 -1.33 -2.38 -1.22 -2.45 -1.11 -2.51 -0.99 -2.57 -0.87 -2.62 -0.74 -2.67 -0.62 -2.72 -0.49 -2.76 -0.35 -2.8 -0.21 -2.84 -0.07 1.82 -1.27 2.85 0.07 2.81 0.22 2.77 0.35 2.72 0.49 2.68 0.62 2.62 0.74 2.57 0.87 2.51 0.99 2.45 1.11 2.38 1.22 2.31 1.33 2.24 1.44 2.17 1.54 2.09 1.64 2.01 1.74 1.92 1.83 1.83 1.92 1.74 2 1.64 2.09 1.54 2.17 1.44 2.24 1.33 2.31 1.22 2.38 1.11 2.45 0.99 2.51 0.87 2.57 0.74 2.62 0.62 2.68 0.49 2.72 0.35 2.77 0.21 2.81 0.07 2.84 0 0zm-57.13 56.53l1.82 -1.27 0 0 2.84 -0.07 2.8 -0.21 2.76 -0.35 2.71 -0.48 2.66 -0.61 2.6 -0.74 2.54 -0.86 2.46 -0.97 2.37 -1.07 2.23 -1.14 2.04 -1.17 1.85 -1.19 1.81 -1.29 1.88 -1.48 1.9 -1.64 1.86 -1.78 1.8 -1.89 1.72 -1.98 1.63 -2.08 1.53 -2.16 1.43 -2.24 1.33 -2.31 1.22 -2.38 1.1 -2.45 0.99 -2.51 0.87 -2.56 0.74 -2.62 0.62 -2.67 0.49 -2.72 0.35 -2.77 0.21 -2.81 0.07 -2.84 1.88 -1.23 -0.07 2.85 -0.21 2.81 -0.35 2.77 -0.49 2.72 -0.62 2.68 -0.75 2.63 -0.87 2.57 -0.99 2.51 -1.11 2.45 -1.22 2.39 -1.33 2.32 -1.44 2.25 -1.55 2.18 -1.65 2.1 -1.75 2.03 -1.86 1.95 -1.98 1.88 -2.11 1.83 -2.3 1.81 -2.52 1.79 -2.63 1.69 -2.59 1.49 -2.53 1.3 -2.53 1.14 -2.56 1.01 -2.6 0.88 -2.64 0.75 -2.69 0.62 -2.73 0.49 -2.77 0.35 -2.81 0.22 -2.85 0.07 0 0zm-55.3 -55.29l1.88 -1.23 0 0 0.07 2.84 0.21 2.81 0.35 2.77 0.49 2.72 0.62 2.67 0.74 2.62 0.87 2.57 0.99 2.51 1.11 2.45 1.22 2.38 1.33 2.31 1.44 2.24 1.54 2.16 1.64 2.09 1.74 2 1.83 1.92 1.92 1.83 2 1.74 2.09 1.64 2.17 1.54 2.24 1.44 2.32 1.33 2.38 1.22 2.45 1.11 2.51 0.99 2.57 0.87 2.62 0.74 2.67 0.62 2.72 0.49 2.76 0.35 2.8 0.21 2.84 0.07 -1.82 1.27 -2.85 -0.07 -2.81 -0.22 -2.77 -0.35 -2.72 -0.49 -2.67 -0.62 -2.62 -0.74 -2.57 -0.87 -2.51 -0.99 -2.45 -1.11 -2.38 -1.22 -2.32 -1.33 -2.24 -1.44 -2.17 -1.54 -2.09 -1.64 -2.01 -1.74 -1.92 -1.83 -1.83 -1.92 -1.74 -2 -1.64 -2.09 -1.54 -2.17 -1.44 -2.24 -1.33 -2.31 -1.22 -2.38 -1.11 -2.45 -0.99 -2.51 -0.87 -2.57 -0.74 -2.62 -0.62 -2.68 -0.49 -2.72 -0.35 -2.77 -0.21 -2.81 -0.07 -2.84 0 0zm57.13 -56.53l-1.82 1.27 0 0 -2.84 0.07 -2.8 0.21 -2.76 0.35 -2.71 0.48 -2.66 0.61 -2.6 0.74 -2.54 0.86 -2.46 0.97 -2.37 1.07 -2.23 1.14 -2.04 1.17 -1.85 1.19 -1.81 1.29 -1.87 1.47 -1.9 1.64 -1.86 1.78 -1.8 1.89 -1.72 1.98 -1.63 2.08 -1.53 2.16 -1.43 2.24 -1.33 2.31 -1.22 2.38 -1.1 2.45 -0.99 2.51 -0.87 2.56 -0.74 2.62 -0.62 2.67 -0.49 2.72 -0.35 2.77 -0.21 2.81 -0.07 2.84 -1.88 1.23 0.07 -2.85 0.21 -2.81 0.35 -2.77 0.49 -2.72 0.62 -2.68 0.75 -2.63 0.87 -2.57 0.99 -2.51 1.11 -2.45 1.22 -2.39 1.33 -2.32 1.44 -2.25 1.55 -2.18 1.65 -2.1 1.75 -2.03 1.86 -1.95 1.98 -1.88 2.11 -1.83 2.3 -1.81 2.52 -1.79 2.63 -1.69 2.59 -1.49 2.53 -1.3 2.53 -1.14 2.56 -1.01 2.6 -0.88 2.64 -0.75 2.69 -0.62 2.73 -0.49 2.77 -0.35 2.81 -0.22 2.85 -0.07 0 0z"/>
   </g>
   <path class="fil3 str0" d="M83.88 55.43c18.75,-18.35 19.7,24.5 -3.31,14.24 -14.81,-6.61 14.91,-40.86 16.53,-5.2 0.62,13.78 -26.49,3.95 -13.22,-9.04z"/>
   <path class="fil3 str0" d="M74.57 48.37c-0.62,7.26 -0.49,13.64 -0.49,20.74 0,1.07 -12.01,0.62 -13.67,-0.28 -6.7,-3.6 -7.23,-11.93 -3.11,-17.44 2.16,-2.89 17.76,-1.59 16.88,-2.26 -0.57,-0.43 -9.26,0.22 -10.95,1.2 -3.21,1.86 -3.52,-0.4 -7.54,4.62 -2.11,2.63 -1.25,6.15 -1.36,9.79 -0.04,1.2 3.52,3.48 5.8,3.36 1.78,-0.09 13.33,3.52 13.88,1.47 1.06,-3.95 1.15,-15.16 0.44,-19.74"/>
   <path class="fil3 str0" d="M74.57 71.46c0,3.68 1.19,16.6 -3.58,18.69 -5.38,2.36 -9.22,3.32 -14.45,-0.62 -1.16,-0.87 -3.29,-9.23 -2.25,-11.75 4.02,-9.71 10.76,-6.17 20.03,-6.69 1.95,-0.11 -7.23,1.65 -9.19,1.61 -2.61,-0.06 -10.6,3.7 -10.2,7.01 0.03,0.2 -0.62,2.4 -0.62,3.24 0,3.7 1.12,7 4.94,8.63 8.45,3.61 11.62,-2.85 14.08,-9.67 0.54,-1.51 0.49,-6.48 0.49,-8.48"/>
   <path class="fil3 str0" d="M74.94 25.16c0,1.96 0.27,22.23 -0.62,22.23 -6.79,0 -16.7,0.8 -19.79,-6.22 -2.11,-4.79 0.31,-11.51 5.16,-13.58 2.98,-1.27 11.61,-1.81 15.17,-1.81 -5.92,0 -17.52,-1.92 -21.56,4.94 -1.26,2.14 -0.66,12.47 4.83,14.06 6.38,1.86 8.22,0.83 14.19,1.97 2.11,0.4 1,-2.95 1,-5.79 0,-5.52 0.74,-9.1 0.74,-14.68 -7.46,0 -20.62,-1.75 -20.62,8.37 0,6.32 0.69,8.44 6.73,11.21 1.49,0.69 10.72,1.53 12.04,1.53"/>
   <path class="fil3 str0" d="M75.02 25.16c0,1.96 -0.27,22.23 0.62,22.23 6.79,0 16.7,0.8 19.79,-6.22 2.11,-4.79 -0.31,-11.51 -5.16,-13.58 -2.98,-1.27 -11.6,-1.81 -15.17,-1.81 5.92,0 17.52,-1.92 21.56,4.94 1.26,2.14 0.66,12.47 -4.83,14.06 -6.38,1.86 -8.22,0.83 -14.19,1.97 -2.11,0.4 -1,-2.95 -1,-5.79 0,-5.52 -0.74,-9.1 -0.74,-14.68 7.46,0 20.62,-1.75 20.62,8.37 0,6.32 -0.69,8.44 -6.73,11.21 -1.49,0.69 -10.72,1.53 -12.04,1.53"/>
  </g>
  <g>
   <path class="fil4" d="M9.49 195.24c5.24,0 9.49,4.25 9.49,9.49 0,5.24 -4.25,9.49 -9.49,9.49 -5.24,0 -9.49,-4.25 -9.49,-9.49 0,-5.24 4.25,-9.49 9.49,-9.49z"/>
   <path class="fil4" d="M41.47 195.24c5.24,0 9.49,4.25 9.49,9.49 0,5.24 -4.25,9.49 -9.49,9.49 -5.24,0 -9.49,-4.25 -9.49,-9.49 0,-5.24 4.25,-9.49 9.49,-9.49z"/>
   <path class="fil5" d="M73.45 195.24c5.24,0 9.49,4.25 9.49,9.49 0,5.24 -4.25,9.49 -9.49,9.49 -5.24,0 -9.49,-4.25 -9.49,-9.49 0,-5.24 4.25,-9.49 9.49,-9.49z"/>
   <path class="fil5" d="M105.43 195.24c5.24,0 9.49,4.25 9.49,9.49 0,5.24 -4.25,9.49 -9.49,9.49 -5.24,0 -9.49,-4.25 -9.49,-9.49 0,-5.24 4.25,-9.49 9.49,-9.49z"/>
   <path class="fil5" d="M138.11 195.24c5.24,0 9.49,4.25 9.49,9.49 0,5.24 -4.25,9.49 -9.49,9.49 -5.24,0 -9.49,-4.25 -9.49,-9.49 0,-5.24 4.25,-9.49 9.49,-9.49z"/>
  </g>
 </g>
</svg>
